  0
SECTION
  2
HEADER
  9
$ACADVER
  1
AC1024
  9
$ACADMAINTVER
 70
     6
  9
$DWGCODEPAGE
  3
UNDEFINED
  9
$INSBASE
 10
0.0
 20
0.0
 30
0.0
  9
$EXTMIN
 10
-400.0000000000002
 20
-400.0000000000002
 30
0.0
  9
$EXTMAX
 10
400.0000000000002
 20
400.0000000000002
 30
5.668080828532651
  9
$LIMMIN
 10
0.0
 20
0.0
  9
$LIMMAX
 10
12.0
 20
9.0
  9
$ORTHOMODE
 70
     0
  9
$REGENMODE
 70
     1
  9
$FILLMODE
 70
     1
  9
$QTEXTMODE
 70
     0
  9
$MIRRTEXT
 70
     1
  9
$LTSCALE
 40
1.0
  9
$ATTMODE
 70
     1
  9
$TEXTSIZE
 40
0.2
  9
$TRACEWID
 40
0.05
  9
$TEXTSTYLE
  7
Standard
  9
$CLAYER
  8
0
  9
$CELTYPE
  6
ByLayer
  9
$CECOLOR
 62
   256
  9
$CELTSCALE
 40
1.0
  9
$DISPSILH
 70
     0
  9
$DIMSCALE
 40
1.0
  9
$DIMASZ
 40
0.18
  9
$DIMEXO
 40
0.0625
  9
$DIMDLI
 40
0.38
  9
$DIMRND
 40
0.0
  9
$DIMDLE
 40
0.0
  9
$DIMEXE
 40
0.18
  9
$DIMTP
 40
0.0
  9
$DIMTM
 40
0.0
  9
$DIMTXT
 40
0.18
  9
$DIMCEN
 40
0.09
  9
$DIMTSZ
 40
0.0
  9
$DIMTOL
 70
     0
  9
$DIMLIM
 70
     0
  9
$DIMTIH
 70
     1
  9
$DIMTOH
 70
     1
  9
$DIMSE1
 70
     0
  9
$DIMSE2
 70
     0
  9
$DIMTAD
 70
     0
  9
$DIMZIN
 70
     0
  9
$DIMBLK
  1

  9
$DIMASO
 70
     1
  9
$DIMSHO
 70
     1
  9
$DIMPOST
  1

  9
$DIMAPOST
  1

  9
$DIMALT
 70
     0
  9
$DIMALTD
 70
     2
  9
$DIMALTF
 40
25.4
  9
$DIMLFAC
 40
1.0
  9
$DIMTOFL
 70
     0
  9
$DIMTVP
 40
0.0
  9
$DIMTIX
 70
     0
  9
$DIMSOXD
 70
     0
  9
$DIMSAH
 70
     0
  9
$DIMBLK1
  1

  9
$DIMBLK2
  1

  9
$DIMSTYLE
  2
Standard
  9
$DIMCLRD
 70
     0
  9
$DIMCLRE
 70
     0
  9
$DIMCLRT
 70
     0
  9
$DIMTFAC
 40
1.0
  9
$DIMGAP
 40
0.09
  9
$DIMJUST
 70
     0
  9
$DIMSD1
 70
     0
  9
$DIMSD2
 70
     0
  9
$DIMTOLJ
 70
     1
  9
$DIMTZIN
 70
     0
  9
$DIMALTZ
 70
     0
  9
$DIMALTTZ
 70
     0
  9
$DIMUPT
 70
     0
  9
$DIMDEC
 70
     4
  9
$DIMTDEC
 70
     4
  9
$DIMALTU
 70
     2
  9
$DIMALTTD
 70
     2
  9
$DIMTXSTY
  7
Standard
  9
$DIMAUNIT
 70
     0
  9
$DIMADEC
 70
     0
  9
$DIMALTRND
 40
0.0
  9
$DIMAZIN
 70
     0
  9
$DIMDSEP
 70
    46
  9
$DIMATFIT
 70
     3
  9
$DIMFRAC
 70
     0
  9
$DIMLDRBLK
  1

  9
$DIMLUNIT
 70
     2
  9
$DIMLWD
 70
    -2
  9
$DIMLWE
 70
    -2
  9
$DIMTMOVE
 70
     0
  9
$DIMFXL
 40
1.0
  9
$DIMFXLON
 70
     0
  9
$DIMJOGANG
 40
0.7853981633974483
  9
$DIMTFILL
 70
     0
  9
$DIMTFILLCLR
 70
     0
  9
$DIMARCSYM
 70
     0
  9
$DIMLTYPE
  6

  9
$DIMLTEX1
  6

  9
$DIMLTEX2
  6

  9
$DIMTXTDIRECTION
 70
     0
  9
$LUNITS
 70
     2
  9
$LUPREC
 70
     4
  9
$SKETCHINC
 40
0.1
  9
$FILLETRAD
 40
0.5
  9
$AUNITS
 70
     0
  9
$AUPREC
 70
     0
  9
$MENU
  1
.
  9
$ELEVATION
 40
0.0
  9
$PELEVATION
 40
0.0
  9
$THICKNESS
 40
0.0
  9
$LIMCHECK
 70
     0
  9
$CHAMFERA
 40
0.5
  9
$CHAMFERB
 40
0.5
  9
$CHAMFERC
 40
1.0
  9
$CHAMFERD
 40
0.0
  9
$SKPOLY
 70
     0
  9
$TDCREATE
 40
1799627.216018518
  9
$TDUCREATE
 40
1799627.549351852
  9
$TDUPDATE
 40
2457064.549351852
  9
$TDUUPDATE
 40
2457064.882685185
  9
$TDINDWG
 40
0.0000000116
  9
$TDUSRTIMER
 40
0.0000000116
  9
$USRTIMER
 70
     1
  9
$ANGBASE
 50
0.0
  9
$ANGDIR
 70
     0
  9
$PDMODE
 70
     0
  9
$PDSIZE
 40
0.0
  9
$PLINEWID
 40
0.0
  9
$SPLFRAME
 70
     0
  9
$SPLINETYPE
 70
     6
  9
$SPLINESEGS
 70
     8
  9
$HANDSEED
  5
18E
  9
$SURFTAB1
 70
     6
  9
$SURFTAB2
 70
     6
  9
$SURFTYPE
 70
     6
  9
$SURFU
 70
     6
  9
$SURFV
 70
     6
  9
$UCSBASE
  2

  9
$UCSNAME
  2

  9
$UCSORG
 10
0.0
 20
0.0
 30
0.0
  9
$UCSXDIR
 10
1.0
 20
0.0
 30
0.0
  9
$UCSYDIR
 10
0.0
 20
1.0
 30
0.0
  9
$UCSORTHOREF
  2

  9
$UCSORTHOVIEW
 70
     0
  9
$UCSORGTOP
 10
0.0
 20
0.0
 30
0.0
  9
$UCSORGBOTTOM
 10
0.0
 20
0.0
 30
0.0
  9
$UCSORGLEFT
 10
0.0
 20
0.0
 30
0.0
  9
$UCSORGRIGHT
 10
0.0
 20
0.0
 30
0.0
  9
$UCSORGFRONT
 10
0.0
 20
0.0
 30
0.0
  9
$UCSORGBACK
 10
0.0
 20
0.0
 30
0.0
  9
$PUCSBASE
  2

  9
$PUCSNAME
  2

  9
$PUCSORG
 10
0.0
 20
0.0
 30
0.0
  9
$PUCSXDIR
 10
1.0
 20
0.0
 30
0.0
  9
$PUCSYDIR
 10
0.0
 20
1.0
 30
0.0
  9
$PUCSORTHOREF
  2

  9
$PUCSORTHOVIEW
 70
     0
  9
$PUCSORGTOP
 10
0.0
 20
0.0
 30
0.0
  9
$PUCSORGBOTTOM
 10
0.0
 20
0.0
 30
0.0
  9
$PUCSORGLEFT
 10
0.0
 20
0.0
 30
0.0
  9
$PUCSORGRIGHT
 10
0.0
 20
0.0
 30
0.0
  9
$PUCSORGFRONT
 10
0.0
 20
0.0
 30
0.0
  9
$PUCSORGBACK
 10
0.0
 20
0.0
 30
0.0
  9
$USERI1
 70
     0
  9
$USERI2
 70
     0
  9
$USERI3
 70
     0
  9
$USERI4
 70
     0
  9
$USERI5
 70
     0
  9
$USERR1
 40
0.0
  9
$USERR2
 40
0.0
  9
$USERR3
 40
0.0
  9
$USERR4
 40
0.0
  9
$USERR5
 40
0.0
  9
$WORLDVIEW
 70
     1
  9
$SHADEDGE
 70
     3
  9
$SHADEDIF
 70
    70
  9
$TILEMODE
 70
     1
  9
$MAXACTVP
 70
    64
  9
$PINSBASE
 10
0.0
 20
0.0
 30
0.0
  9
$PLIMCHECK
 70
     0
  9
$PEXTMIN
 10
1.000000000000000E+20
 20
1.000000000000000E+20
 30
1.000000000000000E+20
  9
$PEXTMAX
 10
-1.000000000000000E+20
 20
-1.000000000000000E+20
 30
-1.000000000000000E+20
  9
$PLIMMIN
 10
0.0
 20
0.0
  9
$PLIMMAX
 10
12.0
 20
9.0
  9
$UNITMODE
 70
     0
  9
$VISRETAIN
 70
     1
  9
$PLINEGEN
 70
     0
  9
$PSLTSCALE
 70
     1
  9
$TREEDEPTH
 70
  3020
  9
$CMLSTYLE
  2
Standard
  9
$CMLJUST
 70
     0
  9
$CMLSCALE
 40
1.0
  9
$PROXYGRAPHICS
 70
     1
  9
$MEASUREMENT
 70
     0
  9
$CELWEIGHT
370
    -1
  9
$ENDCAPS
280
     0
  9
$JOINSTYLE
280
     0
  9
$LWDISPLAY
290
     0
  9
$INSUNITS
 70
     1
  9
$HYPERLINKBASE
  1

  9
$STYLESHEET
  1

  9
$XEDIT
290
     1
  9
$CEPSNTYPE
380
     0
  9
$PSTYLEMODE
290
     1
  9
$FINGERPRINTGUID
  2
{AAB9011F-2333-6FBD-9252-95F6CD1D37CA}
  9
$VERSIONGUID
  2
{FAEB1C32-E019-11D5-929B-00C0DF256EC4}
  9
$EXTNAMES
290
     1
  9
$PSVPSCALE
 40
0.0
  9
$OLESTARTUP
290
     0
  9
$SORTENTS
280
   127
  9
$INDEXCTL
280
     0
  9
$HIDETEXT
280
     1
  9
$XCLIPFRAME
280
     2
  9
$HALOGAP
280
     0
  9
$OBSCOLOR
 70
   257
  9
$OBSLTYPE
280
     0
  9
$INTERSECTIONDISPLAY
280
     0
  9
$INTERSECTIONCOLOR
 70
   257
  9
$DIMASSOC
280
     2
  9
$PROJECTNAME
  1

  9
$CAMERADISPLAY
290
     0
  9
$LENSLENGTH
 40
50.0
  9
$CAMERAHEIGHT
 40
0.0
  9
$STEPSPERSEC
 40
2.0
  9
$STEPSIZE
 40
6.0
  9
$3DDWFPREC
 40
2.0
  9
$PSOLWIDTH
 40
0.25
  9
$PSOLHEIGHT
 40
4.0
  9
$LOFTANG1
 40
1.570796326794897
  9
$LOFTANG2
 40
1.570796326794897
  9
$LOFTMAG1
 40
0.0
  9
$LOFTMAG2
 40
0.0
  9
$LOFTPARAM
 70
     7
  9
$LOFTNORMALS
280
     1
  9
$LATITUDE
 40
37.795
  9
$LONGITUDE
 40
-122.394
  9
$NORTHDIRECTION
 40
0.0
  9
$TIMEZONE
 70
 -8000
  9
$LIGHTGLYPHDISPLAY
280
     1
  9
$TILEMODELIGHTSYNCH
280
     1
  9
$SOLIDHIST
280
     1
  9
$SHOWHIST
280
     1
  9
$DWFFRAME
280
     2
  9
$DGNFRAME
280
     2
  9
$REALWORLDSCALE
290
     1
  9
$INTERFERECOLOR
 62
   256
  9
$CSHADOW
280
     0
  9
$SHADOWPLANELOCATION
 40
0.0
  0
ENDSEC
  0
SECTION
  2
CLASSES
  0
CLASS
  1
ACDBDICTIONARYWDFLT
  2
AcDbDictionaryWithDefault
  3
ObjectDBX Classes
 90
        0
 91
        4
280
     0
281
     0
  0
CLASS
  1
VISUALSTYLE
  2
AcDbVisualStyle
  3
ObjectDBX Classes
 90
     4095
 91
        4
280
     0
281
     0
  0
CLASS
  1
MATERIAL
  2
AcDbMaterial
  3
ObjectDBX Classes
 90
     1153
 91
        4
280
     0
281
     0
  0
CLASS
  1
SCALE
  2
AcDbScale
  3
ObjectDBX Classes
 90
     1153
 91
        4
280
     0
281
     0
  0
CLASS
  1
DICTIONARYVAR
  2
AcDbDictionaryVar
  3
ObjectDBX Classes
 90
        0
 91
        4
280
     0
281
     0
  0
ENDSEC
  0
SECTION
  2
TABLES
  0
TABLE
  2
VPORT
  5
8
330
0
100
AcDbSymbolTable
 70
     1
  0
VPORT
  5
29
330
8
100
AcDbSymbolTableRecord
100
AcDbViewportTableRecord
  2
*Active
 70
     0
 10
0.0
 20
0.0
 11
1.0
 21
1.0
 12
3.28758535841628
 22
0.9249337144168415
 13
0.0
 23
0.0
 14
0.5
 24
0.5
 15
0.5
 25
0.5
 16
0.0
 26
0.0
 36
1.0
 17
0.0
 27
0.0
 37
0.0
 40
48.53785521188944
 41
0.8651362166606386
 42
50.0
 43
0.0
 44
0.0
 50
0.0
 51
0.0
 71
     0
 72
   100
 73
     1
 74
     3
 75
     0
 76
     0
 77
     0
 78
     0
281
     0
 65
     1
110
0.0
120
0.0
130
0.0
111
1.0
121
0.0
131
0.0
112
0.0
122
1.0
132
0.0
 79
     0
146
0.0
 60
     3
 61
     5
292
     1
282
     1
141
0.0
142
0.0
 63
   250
  0
ENDTAB
  0
TABLE
  2
LTYPE
  5
5
330
0
100
AcDbSymbolTable
 70
    11
  0
LTYPE
  5
14
330
5
100
AcDbSymbolTableRecord
100
AcDbLinetypeTableRecord
  2
ByBlock
 70
     0
  3

 72
    65
 73
     0
 40
0.0
  0
LTYPE
  5
15
330
5
100
AcDbSymbolTableRecord
100
AcDbLinetypeTableRecord
  2
ByLayer
 70
     0
  3

 72
    65
 73
     0
 40
0.0
  0
LTYPE
  5
16
330
5
100
AcDbSymbolTableRecord
100
AcDbLinetypeTableRecord
  2
Continuous
 70
     0
  3
Solid line
 72
    65
 73
     0
 40
0.0
  0
LTYPE
  5
44
330
5
100
AcDbSymbolTableRecord
100
AcDbLinetypeTableRecord
  2
BORDER
 70
     0
  3
__ __ . __ __ . __ 
 72
    65
 73
     6
 40
0.875
 49
0.25
 74
     0
 49
-0.125
 74
     0
 49
0.25
 74
     0
 49
-0.125
 74
     0
 49
0.0
 74
     0
 49
-0.125
 74
     0
  0
LTYPE
  5
45
330
5
100
AcDbSymbolTableRecord
100
AcDbLinetypeTableRecord
  2
CENTER
 70
     0
  3
___ _ ___ _ ___ _ _
 72
    65
 73
     4
 40
1.125
 49
0.75
 74
     0
 49
-0.125
 74
     0
 49
0.125
 74
     0
 49
-0.125
 74
     0
  0
LTYPE
  5
46
330
5
100
AcDbSymbolTableRecord
100
AcDbLinetypeTableRecord
  2
DASHDOT
 70
     0
  3
_._._._._._._._._._
 72
    65
 73
     4
 40
0.5
 49
0.25
 74
     0
 49
-0.125
 74
     0
 49
0.0
 74
     0
 49
-0.125
 74
     0
  0
LTYPE
  5
47
330
5
100
AcDbSymbolTableRecord
100
AcDbLinetypeTableRecord
  2
DASHED
 70
     0
  3
_ _ _ _ _ _ _ _ _ _
 72
    65
 73
     2
 40
0.375
 49
0.25
 74
     0
 49
-0.125
 74
     0
  0
LTYPE
  5
48
330
5
100
AcDbSymbolTableRecord
100
AcDbLinetypeTableRecord
  2
DIVIDE
 70
     0
  3
__..__..__..__..__.
 72
    65
 73
     6
 40
0.625
 49
0.25
 74
     0
 49
-0.125
 74
     0
 49
0.0
 74
     0
 49
-0.125
 74
     0
 49
0.0
 74
     0
 49
-0.125
 74
     0
  0
LTYPE
  5
49
330
5
100
AcDbSymbolTableRecord
100
AcDbLinetypeTableRecord
  2
DOT
 70
     0
  3
...................
 72
    65
 73
     2
 40
0.125
 49
0.0
 74
     0
 49
-0.125
 74
     0
  0
LTYPE
  5
4A
330
5
100
AcDbSymbolTableRecord
100
AcDbLinetypeTableRecord
  2
HIDDEN
 70
     0
  3
__ __ __ __ __ __ _
 72
    65
 73
     2
 40
0.1875
 49
0.125
 74
     0
 49
-0.0625
 74
     0
  0
LTYPE
  5
4B
330
5
100
AcDbSymbolTableRecord
100
AcDbLinetypeTableRecord
  2
PHANTOM
 70
     0
  3
___ _ _ ___ _ _ ___
 72
    65
 73
     6
 40
1.25
 49
0.625
 74
     0
 49
-0.125
 74
     0
 49
0.125
 74
     0
 49
-0.125
 74
     0
 49
0.125
 74
     0
 49
-0.125
 74
     0
  0
LTYPE
  5
4C
330
5
100
AcDbSymbolTableRecord
100
AcDbLinetypeTableRecord
  2
CUTTING
 70
     0
  3
________ _ _ ______
 72
    65
 73
     6
 40
1.4675
 49
1.0
 74
     0
 49
-0.0725
 74
     0
 49
0.125
 74
     0
 49
-0.0725
 74
     0
 49
0.125
 74
     0
 49
-0.0725
 74
     0
  0
LTYPE
  5
4D
330
5
100
AcDbSymbolTableRecord
100
AcDbLinetypeTableRecord
  2
STITCH
 70
     0
  3
_ _ _ _ _ _ _ _ _ _
 72
    65
 73
     2
 40
0.145
 49
0.0725
 74
     0
 49
-0.0725
 74
     0
  0
ENDTAB
  0
TABLE
  2
LAYER
  5
2
330
0
100
AcDbSymbolTable
 70
     6
  0
LAYER
  5
10
330
2
100
AcDbSymbolTableRecord
100
AcDbLayerTableRecord
  2
0
 70
     0
 62
     7
  6
Continuous
370
    -3
390
F
347
3E
  0
LAYER
  5
40
330
2
100
AcDbSymbolTableRecord
100
AcDbLayerTableRecord
  2
Dimension
 70
     0
 62
     7
420
 16777215
  6
Continuous
370
    -3
390
F
347
3E
  0
LAYER
  5
41
330
2
100
AcDbSymbolTableRecord
100
AcDbLayerTableRecord
  2
DXF_comb_2
 70
     0
 62
     7
420
 16777215
  6
Continuous
370
    -3
390
F
347
3E
  0
LAYER
  5
42
330
2
100
AcDbSymbolTableRecord
100
AcDbLayerTableRecord
  2
DXF_comb_2_Model
 70
     0
 62
     7
420
 16777215
  6
Continuous
370
    -3
390
F
347
3E
  0
LAYER
  5
43
330
2
100
AcDbSymbolTableRecord
100
AcDbLayerTableRecord
  2
DXF_comb_2_Model_Layer_1
 70
     0
 62
     7
420
 16777215
  6
Continuous
370
    -3
390
F
347
3E
  0
LAYER
  5
145
330
2
100
AcDbSymbolTableRecord
100
AcDbLayerTableRecord
  2
Defpoints
 70
     0
 62
     7
  6
Continuous
290
     0
370
    -3
390
F
347
3E
  0
ENDTAB
  0
TABLE
  2
STYLE
  5
3
330
0
100
AcDbSymbolTable
 70
     4
  0
STYLE
  5
11
330
3
100
AcDbSymbolTableRecord
100
AcDbTextStyleTableRecord
  2
Standard
 70
     0
 40
0.0
 41
1.0
 50
0.0
 71
     0
 42
0.2
  3
txt
  4

  0
STYLE
  5
162
330
3
100
AcDbSymbolTableRecord
100
AcDbTextStyleTableRecord
  2
text244
 70
     0
 40
0.2
 41
1.0
 50
0.0
 71
     0
 42
0.2
  3

  4

1001
ACAD
1000
Helvetica
1071
        0
  0
STYLE
  5
164
330
3
100
AcDbSymbolTableRecord
100
AcDbTextStyleTableRecord
  2
text245
 70
     0
 40
0.2
 41
1.0
 50
0.0
 71
     0
 42
0.2
  3

  4

1001
ACAD
1000
Helvetica
1071
        0
  0
STYLE
  5
166
330
3
100
AcDbSymbolTableRecord
100
AcDbTextStyleTableRecord
  2
text253
 70
     0
 40
0.2
 41
1.0
 50
0.0
 71
     0
 42
0.2
  3

  4

1001
ACAD
1000
Helvetica
1071
        0
  0
ENDTAB
  0
TABLE
  2
VIEW
  5
6
330
0
100
AcDbSymbolTable
 70
     0
  0
ENDTAB
  0
TABLE
  2
UCS
  5
7
330
0
100
AcDbSymbolTable
 70
     0
  0
ENDTAB
  0
TABLE
  2
APPID
  5
9
330
0
100
AcDbSymbolTable
 70
     2
  0
APPID
  5
12
330
9
100
AcDbSymbolTableRecord
100
AcDbRegAppTableRecord
  2
ACAD
 70
     0
  0
APPID
  5
3F
330
9
100
AcDbSymbolTableRecord
100
AcDbRegAppTableRecord
  2
Encore Software ViaCAD
 70
     0
  0
ENDTAB
  0
TABLE
  2
DIMSTYLE
  5
A
330
0
100
AcDbSymbolTable
 70
     3
100
AcDbDimStyleTable
  0
DIMSTYLE
105
27
330
A
100
AcDbSymbolTableRecord
100
AcDbDimStyleTableRecord
  2
Standard
 70
     0
178
     0
340
11
  0
DIMSTYLE
105
143
102
{ACAD_REACTORS
330
144
102
}
330
A
100
AcDbSymbolTableRecord
100
AcDbDimStyleTableRecord
  2
RotatedDim8
 70
     0
 41
0.4863563313143594
 42
0.1558834395238332
 44
0.3897085988095828
140
0.4296000301837921
178
     0
271
     2
272
     3
340
11
  0
DIMSTYLE
105
153
102
{ACAD_REACTORS
330
154
102
}
330
A
100
AcDbSymbolTableRecord
100
AcDbDimStyleTableRecord
  2
RotatedDim9
 70
     0
 41
0.4863563313143594
 42
0.1558834395238332
 44
0.3897085988095828
140
0.4296000301837921
178
     0
271
     2
272
     3
340
11
  0
ENDTAB
  0
TABLE
  2
BLOCK_RECORD
  5
1
330
0
100
AcDbSymbolTable
 70
     3
  0
BLOCK_RECORD
  5
1F
330
1
100
AcDbSymbolTableRecord
100
AcDbBlockTableRecord
  2
*Model_Space
340
22
 70
     0
280
     1
281
     0
  0
BLOCK_RECORD
  5
1B
330
1
100
AcDbSymbolTableRecord
100
AcDbBlockTableRecord
  2
*Paper_Space
340
1E
 70
     0
280
     1
281
     0
  0
BLOCK_RECORD
  5
23
330
1
100
AcDbSymbolTableRecord
100
AcDbBlockTableRecord
  2
*Paper_Space0
340
26
 70
     0
280
     1
281
     0
  0
BLOCK_RECORD
  5
146
330
1
100
AcDbSymbolTableRecord
100
AcDbBlockTableRecord
  2
*D1
340
0
 70
     0
280
     1
281
     0
  0
BLOCK_RECORD
  5
155
330
1
100
AcDbSymbolTableRecord
100
AcDbBlockTableRecord
  2
*D2
340
0
 70
     0
280
     1
281
     0
  0
ENDTAB
  0
ENDSEC
  0
SECTION
  2
BLOCKS
  0
BLOCK
  5
20
330
1F
100
AcDbEntity
  8
0
100
AcDbBlockBegin
  2
*Model_Space
 70
     0
 10
0.0
 20
0.0
 30
0.0
  3
*Model_Space
  1

  0
ENDBLK
  5
21
330
1F
100
AcDbEntity
  8
0
100
AcDbBlockEnd
  0
BLOCK
  5
1C
330
1B
100
AcDbEntity
 67
     1
  8
0
100
AcDbBlockBegin
  2
*Paper_Space
 70
     0
 10
0.0
 20
0.0
 30
0.0
  3
*Paper_Space
  1

  0
ENDBLK
  5
1D
330
1B
100
AcDbEntity
 67
     1
  8
0
100
AcDbBlockEnd
  0
BLOCK
  5
24
330
23
100
AcDbEntity
  8
0
100
AcDbBlockBegin
  2
*Paper_Space0
 70
     0
 10
0.0
 20
0.0
 30
0.0
  3
*Paper_Space0
  1

  0
ENDBLK
  5
25
330
23
100
AcDbEntity
  8
0
100
AcDbBlockEnd
  0
BLOCK
  5
151
330
146
100
AcDbEntity
  8
0
100
AcDbBlockBegin
  2
*D1
 70
     1
 10
0.0
 20
0.0
 30
0.0
  3
*D1
  1

  0
LINE
  5
147
330
146
100
AcDbEntity
  8
Dimension
 62
     0
370
    -2
100
AcDbLine
 10
2.761325062787715
 20
-18.5
 30
0.0
 11
22.38970859880959
 21
-18.5
 31
0.0
  0
LINE
  5
148
330
146
100
AcDbEntity
  8
Dimension
 62
     0
370
    -2
100
AcDbLine
 10
2.761325062787715
 20
18.5
 30
0.0
 11
22.38970859880959
 21
18.5
 31
0.0
  0
LINE
  5
149
330
146
100
AcDbEntity
  8
Dimension
 62
     0
370
    -2
100
AcDbLine
 10
22.00000000000001
 20
-18.01364366868565
 30
0.0
 11
22.00000000000001
 21
-0.3150285872391301
 31
0.0
  0
LINE
  5
14A
330
146
100
AcDbEntity
  8
Dimension
 62
     0
370
    -2
100
AcDbLine
 10
22.00000000000001
 20
18.01364366868564
 30
0.0
 11
22.00000000000001
 21
0.3150285872391265
 31
0.0
  0
SOLID
  5
14B
330
146
100
AcDbEntity
  8
Dimension
 62
     0
100
AcDbTrace
 10
21.91894061144761
 20
-18.01364366868565
 30
0.0
 11
22.0810593885524
 21
-18.01364366868565
 31
0.0
 12
22.00000000000001
 22
-18.5
 32
0.0
 13
22.00000000000001
 23
-18.5
 33
0.0
  0
SOLID
  5
14C
330
146
100
AcDbEntity
  8
Dimension
 62
     0
100
AcDbTrace
 10
22.0810593885524
 20
18.01364366868564
 30
0.0
 11
21.91894061144762
 21
18.01364366868564
 31
0.0
 12
22.00000000000001
 22
18.5
 32
0.0
 13
22.00000000000001
 23
18.5
 33
0.0
  0
MTEXT
  5
14D
330
146
100
AcDbEntity
  8
Dimension
 62
     0
370
    90
100
AcDbMText
 10
22.00000000000001
 20
-0.0000000000000036
 30
0.0
 40
0.4296000301837921
 41
0.0
 46
0.0
 71
     5
 72
     1
  1
\A1;37.00inches
 73
     1
 44
1.0
  0
POINT
  5
14E
330
146
100
AcDbEntity
  8
Defpoints
 62
     0
100
AcDbPoint
 10
2.605441623263882
 20
-18.5
 30
0.0
  0
POINT
  5
14F
330
146
100
AcDbEntity
  8
Defpoints
 62
     0
100
AcDbPoint
 10
2.605441623263882
 20
18.5
 30
0.0
  0
POINT
  5
150
330
146
100
AcDbEntity
  8
Defpoints
 62
     0
100
AcDbPoint
 10
22.00000000000001
 20
18.5
 30
0.0
  0
ENDBLK
  5
152
330
146
100
AcDbEntity
  8
0
100
AcDbBlockEnd
  0
BLOCK
  5
160
330
155
100
AcDbEntity
  8
0
100
AcDbBlockBegin
  2
*D2
 70
     1
 10
0.0
 20
0.0
 30
0.0
  3
*D2
  1

  0
LINE
  5
156
330
155
100
AcDbEntity
  8
Dimension
 62
     0
370
    -2
100
AcDbLine
 10
17.29421657986111
 20
-0.1519771895238327
 30
0.0
 11
17.29421657986111
 21
-22.86813256592112
 31
0.0
  0
LINE
  5
157
330
155
100
AcDbEntity
  8
Dimension
 62
     0
370
    -2
100
AcDbLine
 10
-17.29665798611111
 20
-0.1558834395238332
 30
0.0
 11
-17.29665798611111
 21
-22.86813256592112
 31
0.0
  0
LINE
  5
158
330
155
100
AcDbEntity
  8
Dimension
 62
     0
370
    -2
100
AcDbLine
 10
16.80786024854675
 20
-22.47842396711154
 30
0.0
 11
1.960607999818661
 21
-22.47842396711154
 31
0.0
  0
LINE
  5
159
330
155
100
AcDbEntity
  8
Dimension
 62
     0
370
    -2
100
AcDbLine
 10
-16.81030165479676
 20
-22.47842396711154
 30
0.0
 11
-1.96304940606867
 21
-22.47842396711154
 31
0.0
  0
SOLID
  5
15A
330
155
100
AcDbEntity
  8
Dimension
 62
     0
100
AcDbTrace
 10
16.80786024854675
 20
-22.55948335566393
 30
0.0
 11
16.80786024854675
 21
-22.39736457855914
 31
0.0
 12
17.29421657986111
 22
-22.47842396711154
 32
0.0
 13
17.29421657986111
 23
-22.47842396711154
 33
0.0
  0
SOLID
  5
15B
330
155
100
AcDbEntity
  8
Dimension
 62
     0
100
AcDbTrace
 10
-16.81030165479676
 20
-22.39736457855914
 30
0.0
 11
-16.81030165479676
 21
-22.55948335566393
 31
0.0
 12
-17.29665798611111
 22
-22.47842396711154
 32
0.0
 13
-17.29665798611111
 23
-22.47842396711154
 33
0.0
  0
MTEXT
  5
15C
330
155
100
AcDbEntity
  8
Dimension
 62
     0
370
    90
100
AcDbMText
 10
-0.0012207031250036
 20
-22.47842396711154
 30
0.0
 40
0.4296000301837921
 41
0.0
 46
0.0
 71
     5
 72
     1
  1
\A1;34.59inches
 73
     1
 44
1.0
  0
POINT
  5
15D
330
155
100
AcDbEntity
  8
Defpoints
 62
     0
100
AcDbPoint
 10
17.29421657986111
 20
0.0039062500000004
 30
0.0
  0
POINT
  5
15E
330
155
100
AcDbEntity
  8
Defpoints
 62
     0
100
AcDbPoint
 10
-17.29665798611111
 20
0.0
 30
0.0
  0
POINT
  5
15F
330
155
100
AcDbEntity
  8
Defpoints
 62
     0
100
AcDbPoint
 10
-17.29665798611111
 20
-22.47842396711154
 30
0.0
  0
ENDBLK
  5
161
330
155
100
AcDbEntity
  8
0
100
AcDbBlockEnd
  0
ENDSEC
  0
SECTION
  2
ENTITIES
  0
POLYLINE
  5
4E
330
1F
100
AcDbEntity
  8
DXF_comb_2_Model_Layer_1
 62
   178
420
        0
370
    18
100
AcDb3dPolyline
 66
     1
 10
0.0
 20
0.0
 30
0.0
 70
     8
  0
VERTEX
  5
4F
330
4E
100
AcDbEntity
  8
DXF_comb_2_Model_Layer_1
 62
   178
420
        0
370
    18
100
AcDbVertex
100
AcDb3dPolylineVertex
 10
17.29421657986111
 20
0.0039062500000004
 30
0.0
 70
    32
  0
VERTEX
  5
50
330
4E
100
AcDbEntity
  8
DXF_comb_2_Model_Layer_1
 62
   178
420
        0
370
    18
100
AcDbVertex
100
AcDb3dPolylineVertex
 10
15.27585177951389
 20
3.499837239583334
 30
0.0
 70
    32
  0
VERTEX
  5
51
330
4E
100
AcDbEntity
  8
DXF_comb_2_Model_Layer_1
 62
   178
420
        0
370
    18
100
AcDbVertex
100
AcDb3dPolylineVertex
 10
17.29665798611111
 20
7.0
 30
0.0
 70
    32
  0
VERTEX
  5
52
330
4E
100
AcDbEntity
  8
DXF_comb_2_Model_Layer_1
 62
   178
420
        0
370
    18
100
AcDbVertex
100
AcDb3dPolylineVertex
 10
14.69859483506944
 20
11.5
 30
0.0
 70
    32
  0
VERTEX
  5
53
330
4E
100
AcDbEntity
  8
DXF_comb_2_Model_Layer_1
 62
   178
420
        0
370
    18
100
AcDbVertex
100
AcDb3dPolylineVertex
 10
10.68866644965278
 20
11.5
 30
0.0
 70
    32
  0
VERTEX
  5
54
330
4E
100
AcDbEntity
  8
DXF_comb_2_Model_Layer_1
 62
   178
420
        0
370
    18
100
AcDbVertex
100
AcDb3dPolylineVertex
 10
8.667941623263888
 20
15.0
 30
0.0
 70
    32
  0
VERTEX
  5
55
330
4E
100
AcDbEntity
  8
DXF_comb_2_Model_Layer_1
 62
   178
420
        0
370
    18
100
AcDbVertex
100
AcDb3dPolylineVertex
 10
8.651204427083332
 20
15.0
 30
0.0
 70
    32
  0
VERTEX
  5
56
330
4E
100
AcDbEntity
  8
DXF_comb_2_Model_Layer_1
 62
   178
420
        0
370
    18
100
AcDbVertex
100
AcDb3dPolylineVertex
 10
4.626166449652777
 20
15.0
 30
0.0
 70
    32
  0
VERTEX
  5
57
330
4E
100
AcDbEntity
  8
DXF_comb_2_Model_Layer_1
 62
   178
420
        0
370
    18
100
AcDbVertex
100
AcDb3dPolylineVertex
 10
2.605441623263882
 20
18.5
 30
0.0
 70
    32
  0
VERTEX
  5
58
330
4E
100
AcDbEntity
  8
DXF_comb_2_Model_Layer_1
 62
   178
420
        0
370
    18
100
AcDbVertex
100
AcDb3dPolylineVertex
 10
-2.590711805555558
 20
18.5
 30
0.0
 70
    32
  0
VERTEX
  5
59
330
4E
100
AcDbEntity
  8
DXF_comb_2_Model_Layer_1
 62
   178
420
        0
370
    18
100
AcDbVertex
100
AcDb3dPolylineVertex
 10
-4.611436631944445
 20
15.0
 30
0.0
 70
    32
  0
VERTEX
  5
5A
330
4E
100
AcDbEntity
  8
DXF_comb_2_Model_Layer_1
 62
   178
420
        0
370
    18
100
AcDbVertex
100
AcDb3dPolylineVertex
 10
-8.65199110243056
 20
15.0
 30
0.0
 70
    32
  0
VERTEX
  5
5B
330
4E
100
AcDbEntity
  8
DXF_comb_2_Model_Layer_1
 62
   178
420
        0
370
    18
100
AcDbVertex
100
AcDb3dPolylineVertex
 10
-10.67271592881945
 20
11.5
 30
0.0
 70
    32
  0
VERTEX
  5
5C
330
4E
100
AcDbEntity
  8
DXF_comb_2_Model_Layer_1
 62
   178
420
        0
370
    18
100
AcDbVertex
100
AcDb3dPolylineVertex
 10
-14.69775390625
 20
11.5
 30
0.0
 70
    32
  0
VERTEX
  5
5D
330
4E
100
AcDbEntity
  8
DXF_comb_2_Model_Layer_1
 62
   178
420
        0
370
    18
100
AcDbVertex
100
AcDb3dPolylineVertex
 10
-17.29581705729167
 20
7.0
 30
0.0
 70
    32
  0
VERTEX
  5
5E
330
4E
100
AcDbEntity
  8
DXF_comb_2_Model_Layer_1
 62
   178
420
        0
370
    18
100
AcDbVertex
100
AcDb3dPolylineVertex
 10
-15.27552625868056
 20
3.500732421875001
 30
0.0
 70
    32
  0
VERTEX
  5
5F
330
4E
100
AcDbEntity
  8
DXF_comb_2_Model_Layer_1
 62
   178
420
        0
370
    18
100
AcDbVertex
100
AcDb3dPolylineVertex
 10
-17.29665798611111
 20
0.0
 30
0.0
 70
    32
  0
VERTEX
  5
60
330
4E
100
AcDbEntity
  8
DXF_comb_2_Model_Layer_1
 62
   178
420
        0
370
    18
100
AcDbVertex
100
AcDb3dPolylineVertex
 10
-15.27552625868056
 20
-3.500732421874999
 30
0.0
 70
    32
  0
VERTEX
  5
61
330
4E
100
AcDbEntity
  8
DXF_comb_2_Model_Layer_1
 62
   178
420
        0
370
    18
100
AcDbVertex
100
AcDb3dPolylineVertex
 10
-17.29581705729167
 20
-7.000000000000004
 30
0.0
 70
    32
  0
VERTEX
  5
62
330
4E
100
AcDbEntity
  8
DXF_comb_2_Model_Layer_1
 62
   178
420
        0
370
    18
100
AcDbVertex
100
AcDb3dPolylineVertex
 10
-14.69775390625
 20
-11.5
 30
0.0
 70
    32
  0
VERTEX
  5
63
330
4E
100
AcDbEntity
  8
DXF_comb_2_Model_Layer_1
 62
   178
420
        0
370
    18
100
AcDbVertex
100
AcDb3dPolylineVertex
 10
-10.66984049479167
 20
-11.5
 30
0.0
 70
    32
  0
VERTEX
  5
64
330
4E
100
AcDbEntity
  8
DXF_comb_2_Model_Layer_1
 62
   178
420
        0
370
    18
100
AcDbVertex
100
AcDb3dPolylineVertex
 10
-8.660020616319446
 20
-14.98109266493055
 30
0.0
 70
    32
  0
VERTEX
  5
65
330
4E
100
AcDbEntity
  8
DXF_comb_2_Model_Layer_1
 62
   178
420
        0
370
    18
100
AcDbVertex
100
AcDb3dPolylineVertex
 10
-4.622341579861109
 20
-14.98109266493055
 30
0.0
 70
    32
  0
VERTEX
  5
66
330
4E
100
AcDbEntity
  8
DXF_comb_2_Model_Layer_1
 62
   178
420
        0
370
    18
100
AcDbVertex
100
AcDb3dPolylineVertex
 10
-2.590711805555558
 20
-18.5
 30
0.0
 70
    32
  0
VERTEX
  5
67
330
4E
100
AcDbEntity
  8
DXF_comb_2_Model_Layer_1
 62
   178
420
        0
370
    18
100
AcDbVertex
100
AcDb3dPolylineVertex
 10
2.605441623263882
 20
-18.5
 30
0.0
 70
    32
  0
VERTEX
  5
68
330
4E
100
AcDbEntity
  8
DXF_comb_2_Model_Layer_1
 62
   178
420
        0
370
    18
100
AcDbVertex
100
AcDb3dPolylineVertex
 10
4.625271267361111
 20
-15.00154622395834
 30
0.0
 70
    32
  0
VERTEX
  5
69
330
4E
100
AcDbEntity
  8
DXF_comb_2_Model_Layer_1
 62
   178
420
        0
370
    18
100
AcDbVertex
100
AcDb3dPolylineVertex
 10
8.662190755208332
 20
-15.00154622395834
 30
0.0
 70
    32
  0
VERTEX
  5
6A
330
4E
100
AcDbEntity
  8
DXF_comb_2_Model_Layer_1
 62
   178
420
        0
370
    18
100
AcDbVertex
100
AcDb3dPolylineVertex
 10
10.68381076388889
 20
-11.5
 30
0.0
 70
    32
  0
VERTEX
  5
6B
330
4E
100
AcDbEntity
  8
DXF_comb_2_Model_Layer_1
 62
   178
420
        0
370
    18
100
AcDbVertex
100
AcDb3dPolylineVertex
 10
14.69859483506944
 20
-11.5
 30
0.0
 70
    32
  0
VERTEX
  5
6C
330
4E
100
AcDbEntity
  8
DXF_comb_2_Model_Layer_1
 62
   178
420
        0
370
    18
100
AcDbVertex
100
AcDb3dPolylineVertex
 10
17.29665798611111
 20
-7.000000000000004
 30
0.0
 70
    32
  0
VERTEX
  5
6D
330
4E
100
AcDbEntity
  8
DXF_comb_2_Model_Layer_1
 62
   178
420
        0
370
    18
100
AcDbVertex
100
AcDb3dPolylineVertex
 10
15.27357313368055
 20
-3.495930989583333
 30
0.0
 70
    32
  0
VERTEX
  5
6E
330
4E
100
AcDbEntity
  8
DXF_comb_2_Model_Layer_1
 62
   178
420
        0
370
    18
100
AcDbVertex
100
AcDb3dPolylineVertex
 10
17.29421657986111
 20
0.0039062500000004
 30
0.0
 70
    32
  0
SEQEND
  5
6F
330
4E
100
AcDbEntity
  8
DXF_comb_2_Model_Layer_1
 62
   178
420
        0
370
    18
  0
POLYLINE
  5
70
330
1F
100
AcDbEntity
  8
DXF_comb_2_Model_Layer_1
 62
   178
420
        0
370
    18
100
AcDb3dPolyline
 66
     1
 10
0.0
 20
0.0
 30
0.0
 70
     8
  0
VERTEX
  5
71
330
70
100
AcDbEntity
  8
DXF_comb_2_Model_Layer_1
 62
   178
420
        0
370
    18
100
AcDbVertex
100
AcDb3dPolylineVertex
 10
-1.432237413194447
 20
-9.500000000000004
 30
0.0
 70
    32
  0
VERTEX
  5
72
330
70
100
AcDbEntity
  8
DXF_comb_2_Model_Layer_1
 62
   178
420
        0
370
    18
100
AcDbVertex
100
AcDb3dPolylineVertex
 10
-2.870008680555558
 20
-7.009711371527782
 30
0.0
 70
    32
  0
VERTEX
  5
73
330
70
100
AcDbEntity
  8
DXF_comb_2_Model_Layer_1
 62
   178
420
        0
370
    18
100
AcDbVertex
100
AcDb3dPolylineVertex
 10
-1.421006944444447
 20
-4.499999999999998
 30
0.0
 70
    32
  0
VERTEX
  5
74
330
70
100
AcDbEntity
  8
DXF_comb_2_Model_Layer_1
 62
   178
420
        0
370
    18
100
AcDbVertex
100
AcDb3dPolylineVertex
 10
1.447211371527773
 20
-4.499999999999998
 30
0.0
 70
    32
  0
VERTEX
  5
75
330
70
100
AcDbEntity
  8
DXF_comb_2_Model_Layer_1
 62
   178
420
        0
370
    18
100
AcDbVertex
100
AcDb3dPolylineVertex
 10
2.890082465277773
 20
-6.999131944444441
 30
0.0
 70
    32
  0
VERTEX
  5
76
330
70
100
AcDbEntity
  8
DXF_comb_2_Model_Layer_1
 62
   178
420
        0
370
    18
100
AcDbVertex
100
AcDb3dPolylineVertex
 10
1.446207682291662
 20
-9.500000000000004
 30
0.0
 70
    32
  0
VERTEX
  5
77
330
70
100
AcDbEntity
  8
DXF_comb_2_Model_Layer_1
 62
   178
420
        0
370
    18
100
AcDbVertex
100
AcDb3dPolylineVertex
 10
-1.432237413194447
 20
-9.500000000000004
 30
0.0
 70
    32
  0
SEQEND
  5
78
330
70
100
AcDbEntity
  8
DXF_comb_2_Model_Layer_1
 62
   178
420
        0
370
    18
  0
POLYLINE
  5
79
330
1F
100
AcDbEntity
  8
DXF_comb_2_Model_Layer_1
 62
   178
420
        0
370
    18
100
AcDb3dPolyline
 66
     1
 10
0.0
 20
0.0
 30
0.0
 70
     8
  0
VERTEX
  5
7A
330
79
100
AcDbEntity
  8
DXF_comb_2_Model_Layer_1
 62
   178
420
        0
370
    18
100
AcDbVertex
100
AcDb3dPolylineVertex
 10
-8.924669053819446
 20
-3.499267578124999
 30
0.0
 70
    32
  0
VERTEX
  5
7B
330
79
100
AcDbEntity
  8
DXF_comb_2_Model_Layer_1
 62
   178
420
        0
370
    18
100
AcDbVertex
100
AcDb3dPolylineVertex
 10
-7.481716579861111
 20
-0.9999999999999987
 30
0.0
 70
    32
  0
VERTEX
  5
7C
330
79
100
AcDbEntity
  8
DXF_comb_2_Model_Layer_1
 62
   178
420
        0
370
    18
100
AcDbVertex
100
AcDb3dPolylineVertex
 10
-4.611436631944445
 20
-0.9999999999999987
 30
0.0
 70
    32
  0
VERTEX
  5
7D
330
79
100
AcDbEntity
  8
DXF_comb_2_Model_Layer_1
 62
   178
420
        0
370
    18
100
AcDbVertex
100
AcDb3dPolylineVertex
 10
-3.168050130208336
 20
-3.499999999999999
 30
0.0
 70
    32
  0
VERTEX
  5
7E
330
79
100
AcDbEntity
  8
DXF_comb_2_Model_Layer_1
 62
   178
420
        0
370
    18
100
AcDbVertex
100
AcDb3dPolylineVertex
 10
-4.60053168402778
 20
-5.981092664930554
 30
0.0
 70
    32
  0
VERTEX
  5
7F
330
79
100
AcDbEntity
  8
DXF_comb_2_Model_Layer_1
 62
   178
420
        0
370
    18
100
AcDbVertex
100
AcDb3dPolylineVertex
 10
-7.491753472222218
 20
-5.981092664930554
 30
0.0
 70
    32
  0
VERTEX
  5
80
330
79
100
AcDbEntity
  8
DXF_comb_2_Model_Layer_1
 62
   178
420
        0
370
    18
100
AcDbVertex
100
AcDb3dPolylineVertex
 10
-8.924669053819446
 20
-3.499267578124999
 30
0.0
 70
    32
  0
SEQEND
  5
81
330
79
100
AcDbEntity
  8
DXF_comb_2_Model_Layer_1
 62
   178
420
        0
370
    18
  0
POLYLINE
  5
82
330
1F
100
AcDbEntity
  8
DXF_comb_2_Model_Layer_1
 62
   178
420
        0
370
    18
100
AcDb3dPolyline
 66
     1
 10
0.0
 20
0.0
 30
0.0
 70
     8
  0
VERTEX
  5
83
330
82
100
AcDbEntity
  8
DXF_comb_2_Model_Layer_1
 62
   178
420
        0
370
    18
100
AcDbVertex
100
AcDb3dPolylineVertex
 10
-7.480848524305561
 20
6.0
 30
0.0
 70
    32
  0
VERTEX
  5
84
330
82
100
AcDbEntity
  8
DXF_comb_2_Model_Layer_1
 62
   178
420
        0
370
    18
100
AcDbVertex
100
AcDb3dPolylineVertex
 10
-4.611436631944445
 20
6.0
 30
0.0
 70
    32
  0
VERTEX
  5
85
330
82
100
AcDbEntity
  8
DXF_comb_2_Model_Layer_1
 62
   178
420
        0
370
    18
100
AcDbVertex
100
AcDb3dPolylineVertex
 10
-3.168050130208336
 20
3.500000000000001
 30
0.0
 70
    32
  0
VERTEX
  5
86
330
82
100
AcDbEntity
  8
DXF_comb_2_Model_Layer_1
 62
   178
420
        0
370
    18
100
AcDbVertex
100
AcDb3dPolylineVertex
 10
-4.611436631944445
 20
1.0
 30
0.0
 70
    32
  0
VERTEX
  5
87
330
82
100
AcDbEntity
  8
DXF_comb_2_Model_Layer_1
 62
   178
420
        0
370
    18
100
AcDbVertex
100
AcDb3dPolylineVertex
 10
-7.481716579861111
 20
1.0
 30
0.0
 70
    32
  0
VERTEX
  5
88
330
82
100
AcDbEntity
  8
DXF_comb_2_Model_Layer_1
 62
   178
420
        0
370
    18
100
AcDbVertex
100
AcDb3dPolylineVertex
 10
-8.924669053819446
 20
3.499267578125001
 30
0.0
 70
    32
  0
VERTEX
  5
89
330
82
100
AcDbEntity
  8
DXF_comb_2_Model_Layer_1
 62
   178
420
        0
370
    18
100
AcDbVertex
100
AcDb3dPolylineVertex
 10
-7.480848524305561
 20
6.0
 30
0.0
 70
    32
  0
SEQEND
  5
8A
330
82
100
AcDbEntity
  8
DXF_comb_2_Model_Layer_1
 62
   178
420
        0
370
    18
  0
POLYLINE
  5
8B
330
1F
100
AcDbEntity
  8
DXF_comb_2_Model_Layer_1
 62
   178
420
        0
370
    18
100
AcDb3dPolyline
 66
     1
 10
0.0
 20
0.0
 30
0.0
 70
     8
  0
VERTEX
  5
8C
330
8B
100
AcDbEntity
  8
DXF_comb_2_Model_Layer_1
 62
   178
420
        0
370
    18
100
AcDbVertex
100
AcDb3dPolylineVertex
 10
8.922743055555554
 20
3.504069010416667
 30
0.0
 70
    32
  0
VERTEX
  5
8D
330
8B
100
AcDbEntity
  8
DXF_comb_2_Model_Layer_1
 62
   178
420
        0
370
    18
100
AcDbVertex
100
AcDb3dPolylineVertex
 10
7.481716579861109
 20
1.0
 30
0.0
 70
    32
  0
VERTEX
  5
8E
330
8B
100
AcDbEntity
  8
DXF_comb_2_Model_Layer_1
 62
   178
420
        0
370
    18
100
AcDbVertex
100
AcDb3dPolylineVertex
 10
4.626166449652777
 20
1.0
 30
0.0
 70
    32
  0
VERTEX
  5
8F
330
8B
100
AcDbEntity
  8
DXF_comb_2_Model_Layer_1
 62
   178
420
        0
370
    18
100
AcDbVertex
100
AcDb3dPolylineVertex
 10
3.182807074652776
 20
3.500000000000001
 30
0.0
 70
    32
  0
VERTEX
  5
90
330
8B
100
AcDbEntity
  8
DXF_comb_2_Model_Layer_1
 62
   178
420
        0
370
    18
100
AcDbVertex
100
AcDb3dPolylineVertex
 10
4.626166449652777
 20
6.0
 30
0.0
 70
    32
  0
VERTEX
  5
91
330
8B
100
AcDbEntity
  8
DXF_comb_2_Model_Layer_1
 62
   178
420
        0
370
    18
100
AcDbVertex
100
AcDb3dPolylineVertex
 10
7.481716579861109
 20
6.0
 30
0.0
 70
    32
  0
VERTEX
  5
92
330
8B
100
AcDbEntity
  8
DXF_comb_2_Model_Layer_1
 62
   178
420
        0
370
    18
100
AcDbVertex
100
AcDb3dPolylineVertex
 10
8.922743055555554
 20
3.504069010416667
 30
0.0
 70
    32
  0
SEQEND
  5
93
330
8B
100
AcDbEntity
  8
DXF_comb_2_Model_Layer_1
 62
   178
420
        0
370
    18
  0
POLYLINE
  5
94
330
1F
100
AcDbEntity
  8
DXF_comb_2_Model_Layer_1
 62
   178
420
        0
370
    18
100
AcDb3dPolyline
 66
     1
 10
0.0
 20
0.0
 30
0.0
 70
     8
  0
VERTEX
  5
95
330
94
100
AcDbEntity
  8
DXF_comb_2_Model_Layer_1
 62
   178
420
        0
370
    18
100
AcDbVertex
100
AcDb3dPolylineVertex
 10
7.481716579861109
 20
-6.001546223958332
 30
0.0
 70
    32
  0
VERTEX
  5
96
330
94
100
AcDbEntity
  8
DXF_comb_2_Model_Layer_1
 62
   178
420
        0
370
    18
100
AcDbVertex
100
AcDb3dPolylineVertex
 10
4.627061631944443
 20
-6.001546223958332
 30
0.0
 70
    32
  0
VERTEX
  5
97
330
94
100
AcDbEntity
  8
DXF_comb_2_Model_Layer_1
 62
   178
420
        0
370
    18
100
AcDbVertex
100
AcDb3dPolylineVertex
 10
3.182807074652776
 20
-3.499999999999999
 30
0.0
 70
    32
  0
VERTEX
  5
98
330
94
100
AcDbEntity
  8
DXF_comb_2_Model_Layer_1
 62
   178
420
        0
370
    18
100
AcDbVertex
100
AcDb3dPolylineVertex
 10
4.627170138888888
 20
-0.9982910156249991
 30
0.0
 70
    32
  0
VERTEX
  5
99
330
94
100
AcDbEntity
  8
DXF_comb_2_Model_Layer_1
 62
   178
420
        0
370
    18
100
AcDbVertex
100
AcDb3dPolylineVertex
 10
7.481716579861109
 20
-0.9982910156249991
 30
0.0
 70
    32
  0
VERTEX
  5
9A
330
94
100
AcDbEntity
  8
DXF_comb_2_Model_Layer_1
 62
   178
420
        0
370
    18
100
AcDbVertex
100
AcDb3dPolylineVertex
 10
8.924994574652777
 20
-3.500162760416665
 30
0.0
 70
    32
  0
VERTEX
  5
9B
330
94
100
AcDbEntity
  8
DXF_comb_2_Model_Layer_1
 62
   178
420
        0
370
    18
100
AcDbVertex
100
AcDb3dPolylineVertex
 10
7.481716579861109
 20
-6.001546223958332
 30
0.0
 70
    32
  0
SEQEND
  5
9C
330
94
100
AcDbEntity
  8
DXF_comb_2_Model_Layer_1
 62
   178
420
        0
370
    18
  0
POLYLINE
  5
9D
330
1F
100
AcDbEntity
  8
DXF_comb_2_Model_Layer_1
 62
   178
420
        0
370
    18
100
AcDb3dPolyline
 66
     1
 10
0.0
 20
0.0
 30
0.0
 70
     8
  0
VERTEX
  5
9E
330
9D
100
AcDbEntity
  8
DXF_comb_2_Model_Layer_1
 62
   178
420
        0
370
    18
100
AcDbVertex
100
AcDb3dPolylineVertex
 10
1.451063368055553
 20
9.5
 30
0.0
 70
    32
  0
VERTEX
  5
9F
330
9D
100
AcDbEntity
  8
DXF_comb_2_Model_Layer_1
 62
   178
420
        0
370
    18
100
AcDbVertex
100
AcDb3dPolylineVertex
 10
2.893961588541662
 20
7.0008544921875
 30
0.0
 70
    32
  0
VERTEX
  5
A0
330
9D
100
AcDbEntity
  8
DXF_comb_2_Model_Layer_1
 62
   178
420
        0
370
    18
100
AcDbVertex
100
AcDb3dPolylineVertex
 10
1.450086805555553
 20
4.500000000000001
 30
0.0
 70
    32
  0
VERTEX
  5
A1
330
9D
100
AcDbEntity
  8
DXF_comb_2_Model_Layer_1
 62
   178
420
        0
370
    18
100
AcDbVertex
100
AcDb3dPolylineVertex
 10
-1.421006944444447
 20
4.500000000000001
 30
0.0
 70
    32
  0
VERTEX
  5
A2
330
9D
100
AcDbEntity
  8
DXF_comb_2_Model_Layer_1
 62
   178
420
        0
370
    18
100
AcDbVertex
100
AcDb3dPolylineVertex
 10
-2.871446397569447
 20
7.01220703125
 30
0.0
 70
    32
  0
VERTEX
  5
A3
330
9D
100
AcDbEntity
  8
DXF_comb_2_Model_Layer_1
 62
   178
420
        0
370
    18
100
AcDbVertex
100
AcDb3dPolylineVertex
 10
-1.435112847222227
 20
9.5
 30
0.0
 70
    32
  0
VERTEX
  5
A4
330
9D
100
AcDbEntity
  8
DXF_comb_2_Model_Layer_1
 62
   178
420
        0
370
    18
100
AcDbVertex
100
AcDb3dPolylineVertex
 10
1.451063368055553
 20
9.5
 30
0.0
 70
    32
  0
SEQEND
  5
A5
330
9D
100
AcDbEntity
  8
DXF_comb_2_Model_Layer_1
 62
   178
420
        0
370
    18
  0
POLYLINE
  5
A6
330
1F
100
AcDbEntity
  8
DXF_comb_2_Model_Layer_1
 62
   178
420
        0
370
    18
100
AcDb3dPolyline
 66
     1
 10
0.0
 20
0.0
 30
0.0
 70
     8
  0
VERTEX
  5
A7
330
A6
100
AcDbEntity
  8
DXF_comb_2_Model_Layer_1
 62
   178
420
        0
370
    18
100
AcDbVertex
100
AcDb3dPolylineVertex
 10
13.54131401909722
 20
-2.499999999999999
 30
0.0
 70
    32
  0
VERTEX
  5
A8
330
A6
100
AcDbEntity
  8
DXF_comb_2_Model_Layer_1
 62
   178
420
        0
370
    18
100
AcDbVertex
100
AcDb3dPolylineVertex
 10
10.684814453125
 20
-2.499999999999999
 30
0.0
 70
    32
  0
VERTEX
  5
A9
330
A6
100
AcDbEntity
  8
DXF_comb_2_Model_Layer_1
 62
   178
420
        0
370
    18
100
AcDbVertex
100
AcDb3dPolylineVertex
 10
9.242892795138886
 20
-0.0024956597222214
 30
0.0
 70
    32
  0
VERTEX
  5
AA
330
A6
100
AcDbEntity
  8
DXF_comb_2_Model_Layer_1
 62
   178
420
        0
370
    18
100
AcDbVertex
100
AcDb3dPolylineVertex
 10
10.68768988715278
 20
2.500000000000001
 30
0.0
 70
    32
  0
VERTEX
  5
AB
330
A6
100
AcDbEntity
  8
DXF_comb_2_Model_Layer_1
 62
   178
420
        0
370
    18
100
AcDbVertex
100
AcDb3dPolylineVertex
 10
13.54131401909722
 20
2.500000000000001
 30
0.0
 70
    32
  0
VERTEX
  5
AC
330
A6
100
AcDbEntity
  8
DXF_comb_2_Model_Layer_1
 62
   178
420
        0
370
    18
100
AcDbVertex
100
AcDb3dPolylineVertex
 10
14.98467339409722
 20
0.0
 30
0.0
 70
    32
  0
VERTEX
  5
AD
330
A6
100
AcDbEntity
  8
DXF_comb_2_Model_Layer_1
 62
   178
420
        0
370
    18
100
AcDbVertex
100
AcDb3dPolylineVertex
 10
13.54131401909722
 20
-2.499999999999999
 30
0.0
 70
    32
  0
SEQEND
  5
AE
330
A6
100
AcDbEntity
  8
DXF_comb_2_Model_Layer_1
 62
   178
420
        0
370
    18
  0
POLYLINE
  5
AF
330
1F
100
AcDbEntity
  8
DXF_comb_2_Model_Layer_1
 62
   178
420
        0
370
    18
100
AcDb3dPolyline
 66
     1
 10
0.0
 20
0.0
 30
0.0
 70
     8
  0
VERTEX
  5
B0
330
AF
100
AcDbEntity
  8
DXF_comb_2_Model_Layer_1
 62
   178
420
        0
370
    18
100
AcDbVertex
100
AcDb3dPolylineVertex
 10
7.482693142361109
 20
8.001708984375002
 30
0.0
 70
    32
  0
VERTEX
  5
B1
330
AF
100
AcDbEntity
  8
DXF_comb_2_Model_Layer_1
 62
   178
420
        0
370
    18
100
AcDbVertex
100
AcDb3dPolylineVertex
 10
4.625189887152777
 20
8.001708984375002
 30
0.0
 70
    32
  0
VERTEX
  5
B2
330
AF
100
AcDbEntity
  8
DXF_comb_2_Model_Layer_1
 62
   178
420
        0
370
    18
100
AcDbVertex
100
AcDb3dPolylineVertex
 10
3.182807074652776
 20
10.5
 30
0.0
 70
    32
  0
VERTEX
  5
B3
330
AF
100
AcDbEntity
  8
DXF_comb_2_Model_Layer_1
 62
   178
420
        0
370
    18
100
AcDbVertex
100
AcDb3dPolylineVertex
 10
4.626166449652777
 20
13.0
 30
0.0
 70
    32
  0
VERTEX
  5
B4
330
AF
100
AcDbEntity
  8
DXF_comb_2_Model_Layer_1
 62
   178
420
        0
370
    18
100
AcDbVertex
100
AcDb3dPolylineVertex
 10
7.481716579861109
 20
13.0
 30
0.0
 70
    32
  0
VERTEX
  5
B5
330
AF
100
AcDbEntity
  8
DXF_comb_2_Model_Layer_1
 62
   178
420
        0
370
    18
100
AcDbVertex
100
AcDb3dPolylineVertex
 10
8.925075954861109
 20
10.5
 30
0.0
 70
    32
  0
VERTEX
  5
B6
330
AF
100
AcDbEntity
  8
DXF_comb_2_Model_Layer_1
 62
   178
420
        0
370
    18
100
AcDbVertex
100
AcDb3dPolylineVertex
 10
7.482693142361109
 20
8.001708984375002
 30
0.0
 70
    32
  0
SEQEND
  5
B7
330
AF
100
AcDbEntity
  8
DXF_comb_2_Model_Layer_1
 62
   178
420
        0
370
    18
  0
POLYLINE
  5
B8
330
1F
100
AcDbEntity
  8
DXF_comb_2_Model_Layer_1
 62
   178
420
        0
370
    18
100
AcDb3dPolyline
 66
     1
 10
0.0
 20
0.0
 30
0.0
 70
     8
  0
VERTEX
  5
B9
330
B8
100
AcDbEntity
  8
DXF_comb_2_Model_Layer_1
 62
   178
420
        0
370
    18
100
AcDbVertex
100
AcDb3dPolylineVertex
 10
-3.168050130208336
 20
10.5
 30
0.0
 70
    32
  0
VERTEX
  5
BA
330
B8
100
AcDbEntity
  8
DXF_comb_2_Model_Layer_1
 62
   178
420
        0
370
    18
100
AcDbVertex
100
AcDb3dPolylineVertex
 10
-4.611436631944445
 20
8.000000000000002
 30
0.0
 70
    32
  0
VERTEX
  5
BB
330
B8
100
AcDbEntity
  8
DXF_comb_2_Model_Layer_1
 62
   178
420
        0
370
    18
100
AcDbVertex
100
AcDb3dPolylineVertex
 10
-7.480848524305561
 20
8.000000000000002
 30
0.0
 70
    32
  0
VERTEX
  5
BC
330
B8
100
AcDbEntity
  8
DXF_comb_2_Model_Layer_1
 62
   178
420
        0
370
    18
100
AcDbVertex
100
AcDb3dPolylineVertex
 10
-8.924235026041668
 20
10.5
 30
0.0
 70
    32
  0
VERTEX
  5
BD
330
B8
100
AcDbEntity
  8
DXF_comb_2_Model_Layer_1
 62
   178
420
        0
370
    18
100
AcDbVertex
100
AcDb3dPolylineVertex
 10
-7.480848524305561
 20
13.0
 30
0.0
 70
    32
  0
VERTEX
  5
BE
330
B8
100
AcDbEntity
  8
DXF_comb_2_Model_Layer_1
 62
   178
420
        0
370
    18
100
AcDbVertex
100
AcDb3dPolylineVertex
 10
-4.611436631944445
 20
13.0
 30
0.0
 70
    32
  0
VERTEX
  5
BF
330
B8
100
AcDbEntity
  8
DXF_comb_2_Model_Layer_1
 62
   178
420
        0
370
    18
100
AcDbVertex
100
AcDb3dPolylineVertex
 10
-3.168050130208336
 20
10.5
 30
0.0
 70
    32
  0
SEQEND
  5
C0
330
B8
100
AcDbEntity
  8
DXF_comb_2_Model_Layer_1
 62
   178
420
        0
370
    18
  0
POLYLINE
  5
C1
330
1F
100
AcDbEntity
  8
DXF_comb_2_Model_Layer_1
 62
   178
420
        0
370
    18
100
AcDb3dPolyline
 66
     1
 10
0.0
 20
0.0
 30
0.0
 70
     8
  0
VERTEX
  5
C2
330
C1
100
AcDbEntity
  8
DXF_comb_2_Model_Layer_1
 62
   178
420
        0
370
    18
100
AcDbVertex
100
AcDb3dPolylineVertex
 10
-13.54364691840279
 20
2.500000000000001
 30
0.0
 70
    32
  0
VERTEX
  5
C3
330
C1
100
AcDbEntity
  8
DXF_comb_2_Model_Layer_1
 62
   178
420
        0
370
    18
100
AcDbVertex
100
AcDb3dPolylineVertex
 10
-10.65861002604167
 20
2.500000000000001
 30
0.0
 70
    32
  0
VERTEX
  5
C4
330
C1
100
AcDbEntity
  8
DXF_comb_2_Model_Layer_1
 62
   178
420
        0
370
    18
100
AcDbVertex
100
AcDb3dPolylineVertex
 10
-9.215250651041668
 20
0.0
 30
0.0
 70
    32
  0
VERTEX
  5
C5
330
C1
100
AcDbEntity
  8
DXF_comb_2_Model_Layer_1
 62
   178
420
        0
370
    18
100
AcDbVertex
100
AcDb3dPolylineVertex
 10
-10.65861002604167
 20
-2.499999999999999
 30
0.0
 70
    32
  0
VERTEX
  5
C6
330
C1
100
AcDbEntity
  8
DXF_comb_2_Model_Layer_1
 62
   178
420
        0
370
    18
100
AcDbVertex
100
AcDb3dPolylineVertex
 10
-13.54364691840279
 20
-2.499999999999999
 30
0.0
 70
    32
  0
VERTEX
  5
C7
330
C1
100
AcDbEntity
  8
DXF_comb_2_Model_Layer_1
 62
   178
420
        0
370
    18
100
AcDbVertex
100
AcDb3dPolylineVertex
 10
-14.98703342013889
 20
0.0
 30
0.0
 70
    32
  0
VERTEX
  5
C8
330
C1
100
AcDbEntity
  8
DXF_comb_2_Model_Layer_1
 62
   178
420
        0
370
    18
100
AcDbVertex
100
AcDb3dPolylineVertex
 10
-13.54364691840279
 20
2.500000000000001
 30
0.0
 70
    32
  0
SEQEND
  5
C9
330
C1
100
AcDbEntity
  8
DXF_comb_2_Model_Layer_1
 62
   178
420
        0
370
    18
  0
POLYLINE
  5
CA
330
1F
100
AcDbEntity
  8
DXF_comb_2_Model_Layer_1
 62
   178
420
        0
370
    18
100
AcDb3dPolyline
 66
     1
 10
0.0
 20
0.0
 30
0.0
 70
     8
  0
VERTEX
  5
CB
330
CA
100
AcDbEntity
  8
DXF_comb_2_Model_Layer_1
 62
   178
420
        0
370
    18
100
AcDbVertex
100
AcDb3dPolylineVertex
 10
-7.480848524305561
 20
-8.000000000000004
 30
0.0
 70
    32
  0
VERTEX
  5
CC
330
CA
100
AcDbEntity
  8
DXF_comb_2_Model_Layer_1
 62
   178
420
        0
370
    18
100
AcDbVertex
100
AcDb3dPolylineVertex
 10
-4.611436631944445
 20
-8.000000000000004
 30
0.0
 70
    32
  0
VERTEX
  5
CD
330
CA
100
AcDbEntity
  8
DXF_comb_2_Model_Layer_1
 62
   178
420
        0
370
    18
100
AcDbVertex
100
AcDb3dPolylineVertex
 10
-3.168050130208336
 20
-10.5
 30
0.0
 70
    32
  0
VERTEX
  5
CE
330
CA
100
AcDbEntity
  8
DXF_comb_2_Model_Layer_1
 62
   178
420
        0
370
    18
100
AcDbVertex
100
AcDb3dPolylineVertex
 10
-4.611436631944445
 20
-13.0
 30
0.0
 70
    32
  0
VERTEX
  5
CF
330
CA
100
AcDbEntity
  8
DXF_comb_2_Model_Layer_1
 62
   178
420
        0
370
    18
100
AcDbVertex
100
AcDb3dPolylineVertex
 10
-7.476264105902782
 20
-13.0
 30
0.0
 70
    32
  0
VERTEX
  5
D0
330
CA
100
AcDbEntity
  8
DXF_comb_2_Model_Layer_1
 62
   178
420
        0
370
    18
100
AcDbVertex
100
AcDb3dPolylineVertex
 10
-8.921929253472218
 20
-10.49601236979166
 30
0.0
 70
    32
  0
VERTEX
  5
D1
330
CA
100
AcDbEntity
  8
DXF_comb_2_Model_Layer_1
 62
   178
420
        0
370
    18
100
AcDbVertex
100
AcDb3dPolylineVertex
 10
-7.480848524305561
 20
-8.000000000000004
 30
0.0
 70
    32
  0
SEQEND
  5
D2
330
CA
100
AcDbEntity
  8
DXF_comb_2_Model_Layer_1
 62
   178
420
        0
370
    18
  0
POLYLINE
  5
D3
330
1F
100
AcDbEntity
  8
DXF_comb_2_Model_Layer_1
 62
   178
420
        0
370
    18
100
AcDb3dPolyline
 66
     1
 10
0.0
 20
0.0
 30
0.0
 70
     8
  0
VERTEX
  5
D4
330
D3
100
AcDbEntity
  8
DXF_comb_2_Model_Layer_1
 62
   178
420
        0
370
    18
100
AcDbVertex
100
AcDb3dPolylineVertex
 10
4.627739800347221
 20
-13.00271267361111
 30
0.0
 70
    32
  0
VERTEX
  5
D5
330
D3
100
AcDbEntity
  8
DXF_comb_2_Model_Layer_1
 62
   178
420
        0
370
    18
100
AcDbVertex
100
AcDb3dPolylineVertex
 10
3.182807074652776
 20
-10.5
 30
0.0
 70
    32
  0
VERTEX
  5
D6
330
D3
100
AcDbEntity
  8
DXF_comb_2_Model_Layer_1
 62
   178
420
        0
370
    18
100
AcDbVertex
100
AcDb3dPolylineVertex
 10
4.626166449652777
 20
-8.000000000000004
 30
0.0
 70
    32
  0
VERTEX
  5
D7
330
D3
100
AcDbEntity
  8
DXF_comb_2_Model_Layer_1
 62
   178
420
        0
370
    18
100
AcDbVertex
100
AcDb3dPolylineVertex
 10
7.481716579861109
 20
-8.000000000000004
 30
0.0
 70
    32
  0
VERTEX
  5
D8
330
D3
100
AcDbEntity
  8
DXF_comb_2_Model_Layer_1
 62
   178
420
        0
370
    18
100
AcDbVertex
100
AcDb3dPolylineVertex
 10
8.93169487847222
 20
-10.51144748263889
 30
0.0
 70
    32
  0
VERTEX
  5
D9
330
D3
100
AcDbEntity
  8
DXF_comb_2_Model_Layer_1
 62
   178
420
        0
370
    18
100
AcDbVertex
100
AcDb3dPolylineVertex
 10
7.481716579861109
 20
-13.00271267361111
 30
0.0
 70
    32
  0
VERTEX
  5
DA
330
D3
100
AcDbEntity
  8
DXF_comb_2_Model_Layer_1
 62
   178
420
        0
370
    18
100
AcDbVertex
100
AcDb3dPolylineVertex
 10
4.627739800347221
 20
-13.00271267361111
 30
0.0
 70
    32
  0
SEQEND
  5
DB
330
D3
100
AcDbEntity
  8
DXF_comb_2_Model_Layer_1
 62
   178
420
        0
370
    18
  0
LINE
  5
DC
330
1F
100
AcDbEntity
  8
DXF_comb_2_Model_Layer_1
 62
     9
420
 12303291
370
    90
100
AcDbLine
 10
17.29421657986111
 20
0.0039062500000004
 30
0.0
 11
15.27585177951389
 21
3.499837239583334
 31
0.0
  0
LINE
  5
DD
330
1F
100
AcDbEntity
  8
DXF_comb_2_Model_Layer_1
 62
     9
420
 12303291
370
    90
100
AcDbLine
 10
15.27585177951389
 20
3.499837239583334
 30
0.0
 11
17.29665798611111
 21
7.0
 31
0.0
  0
LINE
  5
DE
330
1F
100
AcDbEntity
  8
DXF_comb_2_Model_Layer_1
 62
     9
420
 12303291
370
    90
100
AcDbLine
 10
17.29665798611111
 20
7.0
 30
0.0
 11
14.69859483506944
 21
11.5
 31
0.0
  0
LINE
  5
DF
330
1F
100
AcDbEntity
  8
DXF_comb_2_Model_Layer_1
 62
     9
420
 12303291
370
    90
100
AcDbLine
 10
14.69859483506944
 20
11.5
 30
0.0
 11
10.68866644965278
 21
11.5
 31
0.0
  0
LINE
  5
E0
330
1F
100
AcDbEntity
  8
DXF_comb_2_Model_Layer_1
 62
     9
420
 12303291
370
    90
100
AcDbLine
 10
10.68866644965278
 20
11.5
 30
0.0
 11
8.667941623263888
 21
15.0
 31
0.0
  0
LINE
  5
E1
330
1F
100
AcDbEntity
  8
DXF_comb_2_Model_Layer_1
 62
     9
420
 12303291
370
    90
100
AcDbLine
 10
8.667941623263888
 20
15.0
 30
0.0
 11
8.651204427083332
 21
15.0
 31
0.0
  0
LINE
  5
E2
330
1F
100
AcDbEntity
  8
DXF_comb_2_Model_Layer_1
 62
     9
420
 12303291
370
    90
100
AcDbLine
 10
8.651204427083332
 20
15.0
 30
0.0
 11
4.626166449652777
 21
15.0
 31
0.0
  0
LINE
  5
E3
330
1F
100
AcDbEntity
  8
DXF_comb_2_Model_Layer_1
 62
     9
420
 12303291
370
    90
100
AcDbLine
 10
4.626166449652777
 20
15.0
 30
0.0
 11
2.605441623263882
 21
18.5
 31
0.0
  0
LINE
  5
E4
330
1F
100
AcDbEntity
  8
DXF_comb_2_Model_Layer_1
 62
     9
420
 12303291
370
    90
100
AcDbLine
 10
2.605441623263882
 20
18.5
 30
0.0
 11
-2.590711805555558
 21
18.5
 31
0.0
  0
LINE
  5
E5
330
1F
100
AcDbEntity
  8
DXF_comb_2_Model_Layer_1
 62
     9
420
 12303291
370
    90
100
AcDbLine
 10
-2.590711805555558
 20
18.5
 30
0.0
 11
-4.611436631944445
 21
15.0
 31
0.0
  0
LINE
  5
E6
330
1F
100
AcDbEntity
  8
DXF_comb_2_Model_Layer_1
 62
     9
420
 12303291
370
    90
100
AcDbLine
 10
-4.611436631944445
 20
15.0
 30
0.0
 11
-8.65199110243056
 21
15.0
 31
0.0
  0
LINE
  5
E7
330
1F
100
AcDbEntity
  8
DXF_comb_2_Model_Layer_1
 62
     9
420
 12303291
370
    90
100
AcDbLine
 10
-8.65199110243056
 20
15.0
 30
0.0
 11
-10.67271592881945
 21
11.5
 31
0.0
  0
LINE
  5
E8
330
1F
100
AcDbEntity
  8
DXF_comb_2_Model_Layer_1
 62
     9
420
 12303291
370
    90
100
AcDbLine
 10
-10.67271592881945
 20
11.5
 30
0.0
 11
-14.69775390625
 21
11.5
 31
0.0
  0
LINE
  5
E9
330
1F
100
AcDbEntity
  8
DXF_comb_2_Model_Layer_1
 62
     9
420
 12303291
370
    90
100
AcDbLine
 10
-14.69775390625
 20
11.5
 30
0.0
 11
-17.29581705729167
 21
7.0
 31
0.0
  0
LINE
  5
EA
330
1F
100
AcDbEntity
  8
DXF_comb_2_Model_Layer_1
 62
     9
420
 12303291
370
    90
100
AcDbLine
 10
-17.29581705729167
 20
7.0
 30
0.0
 11
-15.27552625868056
 21
3.500732421875001
 31
0.0
  0
LINE
  5
EB
330
1F
100
AcDbEntity
  8
DXF_comb_2_Model_Layer_1
 62
     9
420
 12303291
370
    90
100
AcDbLine
 10
-15.27552625868056
 20
3.500732421875001
 30
0.0
 11
-17.29665798611111
 21
0.0
 31
0.0
  0
LINE
  5
EC
330
1F
100
AcDbEntity
  8
DXF_comb_2_Model_Layer_1
 62
     9
420
 12303291
370
    90
100
AcDbLine
 10
-17.29665798611111
 20
0.0
 30
0.0
 11
-15.27552625868056
 21
-3.500732421874999
 31
0.0
  0
LINE
  5
ED
330
1F
100
AcDbEntity
  8
DXF_comb_2_Model_Layer_1
 62
     9
420
 12303291
370
    90
100
AcDbLine
 10
-15.27552625868056
 20
-3.500732421874999
 30
0.0
 11
-17.29581705729167
 21
-7.000000000000004
 31
0.0
  0
LINE
  5
EE
330
1F
100
AcDbEntity
  8
DXF_comb_2_Model_Layer_1
 62
     9
420
 12303291
370
    90
100
AcDbLine
 10
-17.29581705729167
 20
-7.000000000000004
 30
0.0
 11
-14.69775390625
 21
-11.5
 31
0.0
  0
LINE
  5
EF
330
1F
100
AcDbEntity
  8
DXF_comb_2_Model_Layer_1
 62
     9
420
 12303291
370
    90
100
AcDbLine
 10
-14.69775390625
 20
-11.5
 30
0.0
 11
-10.66984049479167
 21
-11.5
 31
0.0
  0
LINE
  5
F0
330
1F
100
AcDbEntity
  8
DXF_comb_2_Model_Layer_1
 62
     9
420
 12303291
370
    90
100
AcDbLine
 10
-10.66984049479167
 20
-11.5
 30
0.0
 11
-8.660020616319446
 21
-14.98109266493055
 31
0.0
  0
LINE
  5
F1
330
1F
100
AcDbEntity
  8
DXF_comb_2_Model_Layer_1
 62
     9
420
 12303291
370
    90
100
AcDbLine
 10
-8.660020616319446
 20
-14.98109266493055
 30
0.0
 11
-4.622341579861109
 21
-14.98109266493055
 31
0.0
  0
LINE
  5
F2
330
1F
100
AcDbEntity
  8
DXF_comb_2_Model_Layer_1
 62
     9
420
 12303291
370
    90
100
AcDbLine
 10
-4.622341579861109
 20
-14.98109266493055
 30
0.0
 11
-2.590711805555558
 21
-18.5
 31
0.0
  0
LINE
  5
F3
330
1F
100
AcDbEntity
  8
DXF_comb_2_Model_Layer_1
 62
     9
420
 12303291
370
    90
100
AcDbLine
 10
-2.590711805555558
 20
-18.5
 30
0.0
 11
2.605441623263882
 21
-18.5
 31
0.0
  0
LINE
  5
F4
330
1F
100
AcDbEntity
  8
DXF_comb_2_Model_Layer_1
 62
     9
420
 12303291
370
    90
100
AcDbLine
 10
2.605441623263882
 20
-18.5
 30
0.0
 11
4.625271267361111
 21
-15.00154622395834
 31
0.0
  0
LINE
  5
F5
330
1F
100
AcDbEntity
  8
DXF_comb_2_Model_Layer_1
 62
     9
420
 12303291
370
    90
100
AcDbLine
 10
4.625271267361111
 20
-15.00154622395834
 30
0.0
 11
8.662190755208332
 21
-15.00154622395834
 31
0.0
  0
LINE
  5
F6
330
1F
100
AcDbEntity
  8
DXF_comb_2_Model_Layer_1
 62
     9
420
 12303291
370
    90
100
AcDbLine
 10
8.662190755208332
 20
-15.00154622395834
 30
0.0
 11
10.68381076388889
 21
-11.5
 31
0.0
  0
LINE
  5
F7
330
1F
100
AcDbEntity
  8
DXF_comb_2_Model_Layer_1
 62
     9
420
 12303291
370
    90
100
AcDbLine
 10
10.68381076388889
 20
-11.5
 30
0.0
 11
14.69859483506944
 21
-11.5
 31
0.0
  0
LINE
  5
F8
330
1F
100
AcDbEntity
  8
DXF_comb_2_Model_Layer_1
 62
     9
420
 12303291
370
    90
100
AcDbLine
 10
14.69859483506944
 20
-11.5
 30
0.0
 11
17.29665798611111
 21
-7.000000000000004
 31
0.0
  0
LINE
  5
F9
330
1F
100
AcDbEntity
  8
DXF_comb_2_Model_Layer_1
 62
     9
420
 12303291
370
    90
100
AcDbLine
 10
17.29665798611111
 20
-7.000000000000004
 30
0.0
 11
15.27357313368055
 21
-3.495930989583333
 31
0.0
  0
LINE
  5
FA
330
1F
100
AcDbEntity
  8
DXF_comb_2_Model_Layer_1
 62
     9
420
 12303291
370
    90
100
AcDbLine
 10
15.27357313368055
 20
-3.495930989583333
 30
0.0
 11
17.29421657986111
 21
0.0039062500000004
 31
0.0
  0
LINE
  5
FB
330
1F
100
AcDbEntity
  8
DXF_comb_2_Model_Layer_1
 62
     9
420
 12303291
370
    90
100
AcDbLine
 10
-1.432237413194447
 20
-9.500000000000004
 30
0.0
 11
-2.870008680555558
 21
-7.009711371527782
 31
0.0
  0
LINE
  5
FC
330
1F
100
AcDbEntity
  8
DXF_comb_2_Model_Layer_1
 62
     9
420
 12303291
370
    90
100
AcDbLine
 10
-2.870008680555558
 20
-7.009711371527782
 30
0.0
 11
-1.421006944444447
 21
-4.499999999999998
 31
0.0
  0
LINE
  5
FD
330
1F
100
AcDbEntity
  8
DXF_comb_2_Model_Layer_1
 62
     9
420
 12303291
370
    90
100
AcDbLine
 10
-1.421006944444447
 20
-4.499999999999998
 30
0.0
 11
1.447211371527773
 21
-4.499999999999998
 31
0.0
  0
LINE
  5
FE
330
1F
100
AcDbEntity
  8
DXF_comb_2_Model_Layer_1
 62
     9
420
 12303291
370
    90
100
AcDbLine
 10
1.447211371527773
 20
-4.499999999999998
 30
0.0
 11
2.890082465277773
 21
-6.999131944444441
 31
0.0
  0
LINE
  5
FF
330
1F
100
AcDbEntity
  8
DXF_comb_2_Model_Layer_1
 62
     9
420
 12303291
370
    90
100
AcDbLine
 10
2.890082465277773
 20
-6.999131944444441
 30
0.0
 11
1.446207682291662
 21
-9.500000000000004
 31
0.0
  0
LINE
  5
100
330
1F
100
AcDbEntity
  8
DXF_comb_2_Model_Layer_1
 62
     9
420
 12303291
370
    90
100
AcDbLine
 10
1.446207682291662
 20
-9.500000000000004
 30
0.0
 11
-1.432237413194447
 21
-9.500000000000004
 31
0.0
  0
LINE
  5
101
330
1F
100
AcDbEntity
  8
DXF_comb_2_Model_Layer_1
 62
     9
420
 12303291
370
    90
100
AcDbLine
 10
-8.924669053819446
 20
-3.499267578124999
 30
0.0
 11
-7.481716579861111
 21
-0.9999999999999987
 31
0.0
  0
LINE
  5
102
330
1F
100
AcDbEntity
  8
DXF_comb_2_Model_Layer_1
 62
     9
420
 12303291
370
    90
100
AcDbLine
 10
-7.481716579861111
 20
-0.9999999999999987
 30
0.0
 11
-4.611436631944445
 21
-0.9999999999999987
 31
0.0
  0
LINE
  5
103
330
1F
100
AcDbEntity
  8
DXF_comb_2_Model_Layer_1
 62
     9
420
 12303291
370
    90
100
AcDbLine
 10
-4.611436631944445
 20
-0.9999999999999987
 30
0.0
 11
-3.168050130208336
 21
-3.499999999999999
 31
0.0
  0
LINE
  5
104
330
1F
100
AcDbEntity
  8
DXF_comb_2_Model_Layer_1
 62
     9
420
 12303291
370
    90
100
AcDbLine
 10
-3.168050130208336
 20
-3.499999999999999
 30
0.0
 11
-4.60053168402778
 21
-5.981092664930554
 31
0.0
  0
LINE
  5
105
330
1F
100
AcDbEntity
  8
DXF_comb_2_Model_Layer_1
 62
     9
420
 12303291
370
    90
100
AcDbLine
 10
-4.60053168402778
 20
-5.981092664930554
 30
0.0
 11
-7.491753472222218
 21
-5.981092664930554
 31
0.0
  0
LINE
  5
106
330
1F
100
AcDbEntity
  8
DXF_comb_2_Model_Layer_1
 62
     9
420
 12303291
370
    90
100
AcDbLine
 10
-7.491753472222218
 20
-5.981092664930554
 30
0.0
 11
-8.924669053819446
 21
-3.499267578124999
 31
0.0
  0
LINE
  5
107
330
1F
100
AcDbEntity
  8
DXF_comb_2_Model_Layer_1
 62
     9
420
 12303291
370
    90
100
AcDbLine
 10
-7.480848524305561
 20
6.0
 30
0.0
 11
-4.611436631944445
 21
6.0
 31
0.0
  0
LINE
  5
108
330
1F
100
AcDbEntity
  8
DXF_comb_2_Model_Layer_1
 62
     9
420
 12303291
370
    90
100
AcDbLine
 10
-4.611436631944445
 20
6.0
 30
0.0
 11
-3.168050130208336
 21
3.500000000000001
 31
0.0
  0
LINE
  5
109
330
1F
100
AcDbEntity
  8
DXF_comb_2_Model_Layer_1
 62
     9
420
 12303291
370
    90
100
AcDbLine
 10
-3.168050130208336
 20
3.500000000000001
 30
0.0
 11
-4.611436631944445
 21
1.0
 31
0.0
  0
LINE
  5
10A
330
1F
100
AcDbEntity
  8
DXF_comb_2_Model_Layer_1
 62
     9
420
 12303291
370
    90
100
AcDbLine
 10
-4.611436631944445
 20
1.0
 30
0.0
 11
-7.481716579861111
 21
1.0
 31
0.0
  0
LINE
  5
10B
330
1F
100
AcDbEntity
  8
DXF_comb_2_Model_Layer_1
 62
     9
420
 12303291
370
    90
100
AcDbLine
 10
-7.481716579861111
 20
1.0
 30
0.0
 11
-8.924669053819446
 21
3.499267578125001
 31
0.0
  0
LINE
  5
10C
330
1F
100
AcDbEntity
  8
DXF_comb_2_Model_Layer_1
 62
     9
420
 12303291
370
    90
100
AcDbLine
 10
-8.924669053819446
 20
3.499267578125001
 30
0.0
 11
-7.480848524305561
 21
6.0
 31
0.0
  0
LINE
  5
10D
330
1F
100
AcDbEntity
  8
DXF_comb_2_Model_Layer_1
 62
     9
420
 12303291
370
    90
100
AcDbLine
 10
8.922743055555554
 20
3.504069010416667
 30
0.0
 11
7.481716579861109
 21
1.0
 31
0.0
  0
LINE
  5
10E
330
1F
100
AcDbEntity
  8
DXF_comb_2_Model_Layer_1
 62
     9
420
 12303291
370
    90
100
AcDbLine
 10
7.481716579861109
 20
1.0
 30
0.0
 11
4.626166449652777
 21
1.0
 31
0.0
  0
LINE
  5
10F
330
1F
100
AcDbEntity
  8
DXF_comb_2_Model_Layer_1
 62
     9
420
 12303291
370
    90
100
AcDbLine
 10
4.626166449652777
 20
1.0
 30
0.0
 11
3.182807074652776
 21
3.500000000000001
 31
0.0
  0
LINE
  5
110
330
1F
100
AcDbEntity
  8
DXF_comb_2_Model_Layer_1
 62
     9
420
 12303291
370
    90
100
AcDbLine
 10
3.182807074652776
 20
3.500000000000001
 30
0.0
 11
4.626166449652777
 21
6.0
 31
0.0
  0
LINE
  5
111
330
1F
100
AcDbEntity
  8
DXF_comb_2_Model_Layer_1
 62
     9
420
 12303291
370
    90
100
AcDbLine
 10
4.626166449652777
 20
6.0
 30
0.0
 11
7.481716579861109
 21
6.0
 31
0.0
  0
LINE
  5
112
330
1F
100
AcDbEntity
  8
DXF_comb_2_Model_Layer_1
 62
     9
420
 12303291
370
    90
100
AcDbLine
 10
7.481716579861109
 20
6.0
 30
0.0
 11
8.922743055555554
 21
3.504069010416667
 31
0.0
  0
LINE
  5
113
330
1F
100
AcDbEntity
  8
DXF_comb_2_Model_Layer_1
 62
     9
420
 12303291
370
    90
100
AcDbLine
 10
7.481716579861109
 20
-6.001546223958332
 30
0.0
 11
4.627061631944443
 21
-6.001546223958332
 31
0.0
  0
LINE
  5
114
330
1F
100
AcDbEntity
  8
DXF_comb_2_Model_Layer_1
 62
     9
420
 12303291
370
    90
100
AcDbLine
 10
4.627061631944443
 20
-6.001546223958332
 30
0.0
 11
3.182807074652776
 21
-3.499999999999999
 31
0.0
  0
LINE
  5
115
330
1F
100
AcDbEntity
  8
DXF_comb_2_Model_Layer_1
 62
     9
420
 12303291
370
    90
100
AcDbLine
 10
3.182807074652776
 20
-3.499999999999999
 30
0.0
 11
4.627170138888888
 21
-0.9982910156249991
 31
0.0
  0
LINE
  5
116
330
1F
100
AcDbEntity
  8
DXF_comb_2_Model_Layer_1
 62
     9
420
 12303291
370
    90
100
AcDbLine
 10
4.627170138888888
 20
-0.9982910156249991
 30
0.0
 11
7.481716579861109
 21
-0.9982910156249991
 31
0.0
  0
LINE
  5
117
330
1F
100
AcDbEntity
  8
DXF_comb_2_Model_Layer_1
 62
     9
420
 12303291
370
    90
100
AcDbLine
 10
7.481716579861109
 20
-0.9982910156249991
 30
0.0
 11
8.924994574652777
 21
-3.500162760416665
 31
0.0
  0
LINE
  5
118
330
1F
100
AcDbEntity
  8
DXF_comb_2_Model_Layer_1
 62
     9
420
 12303291
370
    90
100
AcDbLine
 10
8.924994574652777
 20
-3.500162760416665
 30
0.0
 11
7.481716579861109
 21
-6.001546223958332
 31
0.0
  0
LINE
  5
119
330
1F
100
AcDbEntity
  8
DXF_comb_2_Model_Layer_1
 62
     9
420
 12303291
370
    90
100
AcDbLine
 10
1.451063368055553
 20
9.5
 30
0.0
 11
2.893961588541662
 21
7.0008544921875
 31
0.0
  0
LINE
  5
11A
330
1F
100
AcDbEntity
  8
DXF_comb_2_Model_Layer_1
 62
     9
420
 12303291
370
    90
100
AcDbLine
 10
2.893961588541662
 20
7.0008544921875
 30
0.0
 11
1.450086805555553
 21
4.500000000000001
 31
0.0
  0
LINE
  5
11B
330
1F
100
AcDbEntity
  8
DXF_comb_2_Model_Layer_1
 62
     9
420
 12303291
370
    90
100
AcDbLine
 10
1.450086805555553
 20
4.500000000000001
 30
0.0
 11
-1.421006944444447
 21
4.500000000000001
 31
0.0
  0
LINE
  5
11C
330
1F
100
AcDbEntity
  8
DXF_comb_2_Model_Layer_1
 62
     9
420
 12303291
370
    90
100
AcDbLine
 10
-1.421006944444447
 20
4.500000000000001
 30
0.0
 11
-2.871446397569447
 21
7.01220703125
 31
0.0
  0
LINE
  5
11D
330
1F
100
AcDbEntity
  8
DXF_comb_2_Model_Layer_1
 62
     9
420
 12303291
370
    90
100
AcDbLine
 10
-2.871446397569447
 20
7.01220703125
 30
0.0
 11
-1.435112847222227
 21
9.5
 31
0.0
  0
LINE
  5
11E
330
1F
100
AcDbEntity
  8
DXF_comb_2_Model_Layer_1
 62
     9
420
 12303291
370
    90
100
AcDbLine
 10
-1.435112847222227
 20
9.5
 30
0.0
 11
1.451063368055553
 21
9.5
 31
0.0
  0
LINE
  5
11F
330
1F
100
AcDbEntity
  8
DXF_comb_2_Model_Layer_1
 62
     9
420
 12303291
370
    90
100
AcDbLine
 10
13.54131401909722
 20
-2.499999999999999
 30
0.0
 11
10.684814453125
 21
-2.499999999999999
 31
0.0
  0
LINE
  5
120
330
1F
100
AcDbEntity
  8
DXF_comb_2_Model_Layer_1
 62
     9
420
 12303291
370
    90
100
AcDbLine
 10
10.684814453125
 20
-2.499999999999999
 30
0.0
 11
9.242892795138886
 21
-0.0024956597222214
 31
0.0
  0
LINE
  5
121
330
1F
100
AcDbEntity
  8
DXF_comb_2_Model_Layer_1
 62
     9
420
 12303291
370
    90
100
AcDbLine
 10
9.242892795138886
 20
-0.0024956597222214
 30
0.0
 11
10.68768988715278
 21
2.500000000000001
 31
0.0
  0
LINE
  5
122
330
1F
100
AcDbEntity
  8
DXF_comb_2_Model_Layer_1
 62
     9
420
 12303291
370
    90
100
AcDbLine
 10
10.68768988715278
 20
2.500000000000001
 30
0.0
 11
13.54131401909722
 21
2.500000000000001
 31
0.0
  0
LINE
  5
123
330
1F
100
AcDbEntity
  8
DXF_comb_2_Model_Layer_1
 62
     9
420
 12303291
370
    90
100
AcDbLine
 10
13.54131401909722
 20
2.500000000000001
 30
0.0
 11
14.98467339409722
 21
0.0000000000000009
 31
0.0
  0
LINE
  5
124
330
1F
100
AcDbEntity
  8
DXF_comb_2_Model_Layer_1
 62
     9
420
 12303291
370
    90
100
AcDbLine
 10
14.98467339409722
 20
0.0
 30
0.0
 11
13.54131401909722
 21
-2.499999999999999
 31
0.0
  0
LINE
  5
125
330
1F
100
AcDbEntity
  8
DXF_comb_2_Model_Layer_1
 62
     9
420
 12303291
370
    90
100
AcDbLine
 10
7.482693142361109
 20
8.001708984375002
 30
0.0
 11
4.625189887152777
 21
8.001708984375002
 31
0.0
  0
LINE
  5
126
330
1F
100
AcDbEntity
  8
DXF_comb_2_Model_Layer_1
 62
     9
420
 12303291
370
    90
100
AcDbLine
 10
4.625189887152777
 20
8.001708984375002
 30
0.0
 11
3.182807074652776
 21
10.5
 31
0.0
  0
LINE
  5
127
330
1F
100
AcDbEntity
  8
DXF_comb_2_Model_Layer_1
 62
     9
420
 12303291
370
    90
100
AcDbLine
 10
3.182807074652776
 20
10.5
 30
0.0
 11
4.626166449652777
 21
13.0
 31
0.0
  0
LINE
  5
128
330
1F
100
AcDbEntity
  8
DXF_comb_2_Model_Layer_1
 62
     9
420
 12303291
370
    90
100
AcDbLine
 10
4.626166449652777
 20
13.0
 30
0.0
 11
7.481716579861109
 21
13.0
 31
0.0
  0
LINE
  5
129
330
1F
100
AcDbEntity
  8
DXF_comb_2_Model_Layer_1
 62
     9
420
 12303291
370
    90
100
AcDbLine
 10
7.481716579861109
 20
13.0
 30
0.0
 11
8.925075954861109
 21
10.5
 31
0.0
  0
LINE
  5
12A
330
1F
100
AcDbEntity
  8
DXF_comb_2_Model_Layer_1
 62
     9
420
 12303291
370
    90
100
AcDbLine
 10
8.925075954861109
 20
10.5
 30
0.0
 11
7.482693142361109
 21
8.001708984375002
 31
0.0
  0
LINE
  5
12B
330
1F
100
AcDbEntity
  8
DXF_comb_2_Model_Layer_1
 62
     9
420
 12303291
370
    90
100
AcDbLine
 10
-3.168050130208336
 20
10.5
 30
0.0
 11
-4.611436631944445
 21
8.000000000000002
 31
0.0
  0
LINE
  5
12C
330
1F
100
AcDbEntity
  8
DXF_comb_2_Model_Layer_1
 62
     9
420
 12303291
370
    90
100
AcDbLine
 10
-4.611436631944445
 20
8.000000000000002
 30
0.0
 11
-7.480848524305561
 21
8.000000000000002
 31
0.0
  0
LINE
  5
12D
330
1F
100
AcDbEntity
  8
DXF_comb_2_Model_Layer_1
 62
     9
420
 12303291
370
    90
100
AcDbLine
 10
-7.480848524305561
 20
8.000000000000002
 30
0.0
 11
-8.924235026041668
 21
10.5
 31
0.0
  0
LINE
  5
12E
330
1F
100
AcDbEntity
  8
DXF_comb_2_Model_Layer_1
 62
     9
420
 12303291
370
    90
100
AcDbLine
 10
-8.924235026041668
 20
10.5
 30
0.0
 11
-7.480848524305561
 21
13.0
 31
0.0
  0
LINE
  5
12F
330
1F
100
AcDbEntity
  8
DXF_comb_2_Model_Layer_1
 62
     9
420
 12303291
370
    90
100
AcDbLine
 10
-7.480848524305561
 20
13.0
 30
0.0
 11
-4.611436631944445
 21
13.0
 31
0.0
  0
LINE
  5
130
330
1F
100
AcDbEntity
  8
DXF_comb_2_Model_Layer_1
 62
     9
420
 12303291
370
    90
100
AcDbLine
 10
-4.611436631944445
 20
13.0
 30
0.0
 11
-3.168050130208336
 21
10.5
 31
0.0
  0
LINE
  5
131
330
1F
100
AcDbEntity
  8
DXF_comb_2_Model_Layer_1
 62
     9
420
 12303291
370
    90
100
AcDbLine
 10
-13.54364691840279
 20
2.500000000000001
 30
0.0
 11
-10.65861002604167
 21
2.500000000000001
 31
0.0
  0
LINE
  5
132
330
1F
100
AcDbEntity
  8
DXF_comb_2_Model_Layer_1
 62
     9
420
 12303291
370
    90
100
AcDbLine
 10
-10.65861002604167
 20
2.500000000000001
 30
0.0
 11
-9.215250651041668
 21
0.0000000000000009
 31
0.0
  0
LINE
  5
133
330
1F
100
AcDbEntity
  8
DXF_comb_2_Model_Layer_1
 62
     9
420
 12303291
370
    90
100
AcDbLine
 10
-9.215250651041668
 20
0.0
 30
0.0
 11
-10.65861002604167
 21
-2.499999999999999
 31
0.0
  0
LINE
  5
134
330
1F
100
AcDbEntity
  8
DXF_comb_2_Model_Layer_1
 62
     9
420
 12303291
370
    90
100
AcDbLine
 10
-10.65861002604167
 20
-2.499999999999999
 30
0.0
 11
-13.54364691840279
 21
-2.499999999999999
 31
0.0
  0
LINE
  5
135
330
1F
100
AcDbEntity
  8
DXF_comb_2_Model_Layer_1
 62
     9
420
 12303291
370
    90
100
AcDbLine
 10
-13.54364691840279
 20
-2.499999999999999
 30
0.0
 11
-14.98703342013889
 21
0.0
 31
0.0
  0
LINE
  5
136
330
1F
100
AcDbEntity
  8
DXF_comb_2_Model_Layer_1
 62
     9
420
 12303291
370
    90
100
AcDbLine
 10
-14.98703342013889
 20
0.0
 30
0.0
 11
-13.54364691840279
 21
2.5
 31
0.0
  0
LINE
  5
137
330
1F
100
AcDbEntity
  8
DXF_comb_2_Model_Layer_1
 62
     9
420
 12303291
370
    90
100
AcDbLine
 10
-7.480848524305561
 20
-8.000000000000004
 30
0.0
 11
-4.611436631944445
 21
-8.000000000000004
 31
0.0
  0
LINE
  5
138
330
1F
100
AcDbEntity
  8
DXF_comb_2_Model_Layer_1
 62
     9
420
 12303291
370
    90
100
AcDbLine
 10
-4.611436631944445
 20
-8.000000000000004
 30
0.0
 11
-3.168050130208336
 21
-10.5
 31
0.0
  0
LINE
  5
139
330
1F
100
AcDbEntity
  8
DXF_comb_2_Model_Layer_1
 62
     9
420
 12303291
370
    90
100
AcDbLine
 10
-3.168050130208336
 20
-10.5
 30
0.0
 11
-4.611436631944445
 21
-13.0
 31
0.0
  0
LINE
  5
13A
330
1F
100
AcDbEntity
  8
DXF_comb_2_Model_Layer_1
 62
     9
420
 12303291
370
    90
100
AcDbLine
 10
-4.611436631944445
 20
-13.0
 30
0.0
 11
-7.476264105902782
 21
-13.0
 31
0.0
  0
LINE
  5
13B
330
1F
100
AcDbEntity
  8
DXF_comb_2_Model_Layer_1
 62
     9
420
 12303291
370
    90
100
AcDbLine
 10
-7.476264105902782
 20
-13.0
 30
0.0
 11
-8.921929253472218
 21
-10.49601236979166
 31
0.0
  0
LINE
  5
13C
330
1F
100
AcDbEntity
  8
DXF_comb_2_Model_Layer_1
 62
     9
420
 12303291
370
    90
100
AcDbLine
 10
-8.921929253472218
 20
-10.49601236979166
 30
0.0
 11
-7.480848524305561
 21
-8.000000000000004
 31
0.0
  0
LINE
  5
13D
330
1F
100
AcDbEntity
  8
DXF_comb_2_Model_Layer_1
 62
     9
420
 12303291
370
    90
100
AcDbLine
 10
4.627739800347221
 20
-13.00271267361111
 30
0.0
 11
3.182807074652776
 21
-10.5
 31
0.0
  0
LINE
  5
13E
330
1F
100
AcDbEntity
  8
DXF_comb_2_Model_Layer_1
 62
     9
420
 12303291
370
    90
100
AcDbLine
 10
3.182807074652776
 20
-10.5
 30
0.0
 11
4.626166449652777
 21
-8.000000000000004
 31
0.0
  0
LINE
  5
13F
330
1F
100
AcDbEntity
  8
DXF_comb_2_Model_Layer_1
 62
     9
420
 12303291
370
    90
100
AcDbLine
 10
4.626166449652777
 20
-8.000000000000004
 30
0.0
 11
7.481716579861109
 21
-8.000000000000004
 31
0.0
  0
LINE
  5
140
330
1F
100
AcDbEntity
  8
DXF_comb_2_Model_Layer_1
 62
     9
420
 12303291
370
    90
100
AcDbLine
 10
7.481716579861109
 20
-8.000000000000004
 30
0.0
 11
8.93169487847222
 21
-10.51144748263889
 31
0.0
  0
LINE
  5
141
330
1F
100
AcDbEntity
  8
DXF_comb_2_Model_Layer_1
 62
     9
420
 12303291
370
    90
100
AcDbLine
 10
8.93169487847222
 20
-10.51144748263889
 30
0.0
 11
7.481716579861109
 21
-13.00271267361111
 31
0.0
  0
LINE
  5
142
330
1F
100
AcDbEntity
  8
DXF_comb_2_Model_Layer_1
 62
     9
420
 12303291
370
    90
100
AcDbLine
 10
7.481716579861109
 20
-13.00271267361111
 30
0.0
 11
4.627739800347221
 21
-13.00271267361111
 31
0.0
  0
DIMENSION
  5
144
330
1F
100
AcDbEntity
  8
Dimension
 62
   150
420
  2657520
370
    90
100
AcDbDimension
280
     0
  2
*D1
 10
22.00000000000001
 20
18.5
 30
0.0
 11
22.00000000000001
 21
-0.0000000000000036
 31
0.0
 70
    32
  1
<>inches
 71
     5
 42
37.0
 73
     0
 74
     0
 75
     0
  3
RotatedDim8
100
AcDbAlignedDimension
 13
2.605441623263882
 23
-18.5
 33
0.0
 14
2.605441623263882
 24
18.5
 34
0.0
 50
90.0
100
AcDbRotatedDimension
  0
DIMENSION
  5
154
330
1F
100
AcDbEntity
  8
Dimension
 62
   150
420
  2657520
370
    90
100
AcDbDimension
280
     0
  2
*D2
 10
-17.29665798611111
 20
-22.47842396711154
 30
0.0
 11
-0.0012207031250036
 21
-22.47842396711154
 31
0.0
 70
    32
  1
<>inches
 71
     5
 42
34.59087456597222
 73
     0
 74
     0
 75
     0
  3
RotatedDim9
100
AcDbAlignedDimension
 13
17.29421657986111
 23
0.0039062500000004
 33
0.0
 14
-17.29665798611111
 24
0.0
 34
0.0
100
AcDbRotatedDimension
  0
TEXT
  5
163
330
1F
100
AcDbEntity
  8
Dimension
  6
BORDER
 62
   150
420
  2657520
370
    90
100
AcDbText
 10
-2.000000000000001
 20
24.00000000000001
 30
0.0
 40
0.7179999947547913
  1
COMB 2
  7
text244
100
AcDbText
  0
TEXT
  5
165
330
1F
100
AcDbEntity
  8
Dimension
  6
BORDER
 62
   150
420
  2657520
370
    90
100
AcDbText
 10
-6.000000000000003
 20
22.00000000000001
 30
0.0
 40
0.5026000142097473
  1
ABS, 0.118"  with one sided texture
  7
text245
100
AcDbText
  0
TEXT
  5
167
330
1F
100
AcDbEntity
  8
Dimension
  6
BORDER
 62
   150
420
  2657520
370
    90
100
AcDbText
 10
-3.000000000000001
 20
20.00000000000001
 30
0.0
 40
0.4240157604217529
  1
Please retain inner scrap cutouts for customer.
  7
text253
100
AcDbText
  0
ENDSEC
  0
SECTION
  2
OBJECTS
  0
DICTIONARY
  5
C
330
0
100
AcDbDictionary
281
     1
  3
ACAD_GROUP
350
D
  3
ACAD_LAYOUT
350
1A
  3
ACAD_MATERIAL
350
3B
  3
ACAD_MLEADERSTYLE
350
18D
  3
ACAD_MLINESTYLE
350
17
  3
ACAD_PLOTSETTINGS
350
19
  3
ACAD_PLOTSTYLENAME
350
E
  3
ACAD_SCALELIST
350
168
  3
ACAD_TABLESTYLE
350
18C
  3
ACAD_VISUALSTYLE
350
2A
  3
AcDbVariableDictionary
350
18A
  0
DICTIONARY
  5
D
102
{ACAD_REACTORS
330
C
102
}
330
C
100
AcDbDictionary
281
     1
  0
DICTIONARY
  5
1A
102
{ACAD_REACTORS
330
C
102
}
330
C
100
AcDbDictionary
281
     1
  3
Layout1
350
1E
  3
Layout2
350
26
  3
Model
350
22
  0
DICTIONARY
  5
3B
102
{ACAD_REACTORS
330
C
102
}
330
C
100
AcDbDictionary
281
     1
  3
ByBlock
350
3D
  3
ByLayer
350
3C
  3
Global
350
3E
  0
DICTIONARY
  5
18D
102
{ACAD_REACTORS
330
C
102
}
330
C
100
AcDbDictionary
281
     1
  0
DICTIONARY
  5
17
102
{ACAD_REACTORS
330
C
102
}
330
C
100
AcDbDictionary
281
     1
  3
Standard
350
18
  0
DICTIONARY
  5
19
102
{ACAD_REACTORS
330
C
102
}
330
C
100
AcDbDictionary
281
     1
  0
ACDBDICTIONARYWDFLT
  5
E
102
{ACAD_REACTORS
330
C
102
}
330
C
100
AcDbDictionary
281
     1
  3
Normal
350
F
100
AcDbDictionaryWithDefault
340
F
  0
DICTIONARY
  5
168
102
{ACAD_REACTORS
330
C
102
}
330
C
100
AcDbDictionary
281
     1
  3
A0
350
169
  3
A1
350
16A
  3
A2
350
16B
  3
A3
350
16C
  3
A4
350
16D
  3
A5
350
16E
  3
A6
350
16F
  3
A7
350
170
  3
A8
350
171
  3
A9
350
172
  3
B0
350
173
  3
B1
350
174
  3
B2
350
175
  3
B3
350
176
  3
B4
350
177
  3
B5
350
178
  3
B6
350
179
  3
B7
350
17A
  3
B8
350
17B
  3
B9
350
17C
  3
C0
350
17D
  3
C1
350
17E
  3
C2
350
17F
  3
C3
350
180
  3
C4
350
181
  3
C5
350
182
  3
C6
350
183
  3
C7
350
184
  3
C8
350
185
  3
C9
350
186
  3
D0
350
187
  3
D1
350
188
  3
D2
350
189
  0
DICTIONARY
  5
18C
102
{ACAD_REACTORS
330
C
102
}
330
C
100
AcDbDictionary
281
     1
  0
DICTIONARY
  5
2A
102
{ACAD_REACTORS
330
C
102
}
330
C
100
AcDbDictionary
281
     1
  3
2dWireframe
350
2F
  3
3D Hidden
350
31
  3
3dWireframe
350
30
  3
Basic
350
32
  3
Brighten
350
36
  3
ColorChange
350
3A
  3
Conceptual
350
34
  3
Dim
350
35
  3
Facepattern
350
39
  3
Flat
350
2B
  3
FlatWithEdges
350
2C
  3
Gouraud
350
2D
  3
GouraudWithEdges
350
2E
  3
Linepattern
350
38
  3
Realistic
350
33
  3
Thicken
350
37
  0
DICTIONARY
  5
18A
102
{ACAD_REACTORS
330
C
102
}
330
C
100
AcDbDictionary
281
     1
  3
CANNOSCALE
350
18B
  0
LAYOUT
  5
1E
102
{ACAD_REACTORS
330
1A
102
}
330
1A
100
AcDbPlotSettings
  1

  2
none_device
  4

  6

 40
0.0
 41
0.0
 42
0.0
 43
0.0
 44
0.0
 45
0.0
 46
0.0
 47
0.0
 48
0.0
 49
0.0
140
0.0
141
0.0
142
1.0
143
1.0
 70
   688
 72
     0
 73
     0
 74
     5
  7

 75
    16
 76
     0
 77
     2
 78
   300
147
1.0
148
0.0
149
0.0
100
AcDbLayout
  1
Layout1
 70
     1
 71
     1
 10
0.0
 20
0.0
 11
12.0
 21
9.0
 12
0.0
 22
0.0
 32
0.0
 14
1.000000000000000E+20
 24
1.000000000000000E+20
 34
1.000000000000000E+20
 15
-1.000000000000000E+20
 25
-1.000000000000000E+20
 35
-1.000000000000000E+20
146
0.0
 13
0.0
 23
0.0
 33
0.0
 16
1.0
 26
0.0
 36
0.0
 17
0.0
 27
1.0
 37
0.0
 76
     0
330
1B
  0
LAYOUT
  5
26
102
{ACAD_REACTORS
330
1A
102
}
330
1A
100
AcDbPlotSettings
  1

  2
none_device
  4

  6

 40
0.0
 41
0.0
 42
0.0
 43
0.0
 44
0.0
 45
0.0
 46
0.0
 47
0.0
 48
0.0
 49
0.0
140
0.0
141
0.0
142
1.0
143
1.0
 70
   688
 72
     0
 73
     0
 74
     5
  7

 75
    16
 76
     0
 77
     2
 78
   300
147
1.0
148
0.0
149
0.0
100
AcDbLayout
  1
Layout2
 70
     1
 71
     2
 10
0.0
 20
0.0
 11
0.0
 21
0.0
 12
0.0
 22
0.0
 32
0.0
 14
0.0
 24
0.0
 34
0.0
 15
0.0
 25
0.0
 35
0.0
146
0.0
 13
0.0
 23
0.0
 33
0.0
 16
1.0
 26
0.0
 36
0.0
 17
0.0
 27
1.0
 37
0.0
 76
     0
330
23
  0
LAYOUT
  5
22
102
{ACAD_REACTORS
330
1A
102
}
330
1A
100
AcDbPlotSettings
  1

  2
none_device
  4

  6

 40
0.0
 41
0.0
 42
0.0
 43
0.0
 44
0.0
 45
0.0
 46
0.0
 47
0.0
 48
0.0
 49
0.0
140
0.0
141
0.0
142
1.0
143
1.0
 70
  1712
 72
     0
 73
     0
 74
     0
  7

 75
     0
 76
     0
 77
     2
 78
   300
147
1.0
148
0.0
149
0.0
100
AcDbLayout
  1
Model
 70
     1
 71
     0
 10
0.0
 20
0.0
 11
12.0
 21
9.0
 12
0.0
 22
0.0
 32
0.0
 14
-400.0000000000002
 24
-400.0000000000002
 34
0.0
 15
400.0000000000002
 25
400.0000000000002
 35
5.668080828532651
146
0.0
 13
0.0
 23
0.0
 33
0.0
 16
1.0
 26
0.0
 36
0.0
 17
0.0
 27
1.0
 37
0.0
 76
     0
330
1F
331
29
  0
MATERIAL
  5
3D
102
{ACAD_REACTORS
330
3B
102
}
330
3B
100
AcDbMaterial
  1
ByBlock
 72
     1
 94
      127
  0
MATERIAL
  5
3C
102
{ACAD_REACTORS
330
3B
102
}
330
3B
100
AcDbMaterial
  1
ByLayer
 72
     1
 94
      127
  0
MATERIAL
  5
3E
102
{ACAD_REACTORS
330
3B
102
}
330
3B
100
AcDbMaterial
  1
Global
 72
     1
 94
      127
  0
MLINESTYLE
  5
18
102
{ACAD_REACTORS
330
17
102
}
330
17
100
AcDbMlineStyle
  2
Standard
 70
     0
  3

 62
   256
 51
90.0
 52
90.0
 71
     2
 49
0.5
 62
   256
  6
BYLAYER
 49
-0.5
 62
   256
  6
BYLAYER
  0
ACDBPLACEHOLDER
  5
F
102
{ACAD_REACTORS
330
E
102
}
330
E
  0
SCALE
  5
169
102
{ACAD_REACTORS
330
168
102
}
330
168
100
AcDbScale
 70
     0
300
1:1
140
1.0
141
1.0
290
     1
  0
SCALE
  5
16A
102
{ACAD_REACTORS
330
168
102
}
330
168
100
AcDbScale
 70
     0
300
1:2
140
1.0
141
2.0
290
     0
  0
SCALE
  5
16B
102
{ACAD_REACTORS
330
168
102
}
330
168
100
AcDbScale
 70
     0
300
1:4
140
1.0
141
4.0
290
     0
  0
SCALE
  5
16C
102
{ACAD_REACTORS
330
168
102
}
330
168
100
AcDbScale
 70
     0
300
1:5
140
1.0
141
5.0
290
     0
  0
SCALE
  5
16D
102
{ACAD_REACTORS
330
168
102
}
330
168
100
AcDbScale
 70
     0
300
1:8
140
1.0
141
8.0
290
     0
  0
SCALE
  5
16E
102
{ACAD_REACTORS
330
168
102
}
330
168
100
AcDbScale
 70
     0
300
1:10
140
1.0
141
10.0
290
     0
  0
SCALE
  5
16F
102
{ACAD_REACTORS
330
168
102
}
330
168
100
AcDbScale
 70
     0
300
1:16
140
1.0
141
16.0
290
     0
  0
SCALE
  5
170
102
{ACAD_REACTORS
330
168
102
}
330
168
100
AcDbScale
 70
     0
300
1:20
140
1.0
141
20.0
290
     0
  0
SCALE
  5
171
102
{ACAD_REACTORS
330
168
102
}
330
168
100
AcDbScale
 70
     0
300
1:30
140
1.0
141
30.0
290
     0
  0
SCALE
  5
172
102
{ACAD_REACTORS
330
168
102
}
330
168
100
AcDbScale
 70
     0
300
1:40
140
1.0
141
40.0
290
     0
  0
SCALE
  5
173
102
{ACAD_REACTORS
330
168
102
}
330
168
100
AcDbScale
 70
     0
300
1:50
140
1.0
141
50.0
290
     0
  0
SCALE
  5
174
102
{ACAD_REACTORS
330
168
102
}
330
168
100
AcDbScale
 70
     0
300
1:100
140
1.0
141
100.0
290
     0
  0
SCALE
  5
175
102
{ACAD_REACTORS
330
168
102
}
330
168
100
AcDbScale
 70
     0
300
2:1
140
2.0
141
1.0
290
     0
  0
SCALE
  5
176
102
{ACAD_REACTORS
330
168
102
}
330
168
100
AcDbScale
 70
     0
300
4:1
140
4.0
141
1.0
290
     0
  0
SCALE
  5
177
102
{ACAD_REACTORS
330
168
102
}
330
168
100
AcDbScale
 70
     0
300
8:1
140
8.0
141
1.0
290
     0
  0
SCALE
  5
178
102
{ACAD_REACTORS
330
168
102
}
330
168
100
AcDbScale
 70
     0
300
10:1
140
10.0
141
1.0
290
     0
  0
SCALE
  5
179
102
{ACAD_REACTORS
330
168
102
}
330
168
100
AcDbScale
 70
     0
300
100:1
140
100.0
141
1.0
290
     0
  0
SCALE
  5
17A
102
{ACAD_REACTORS
330
168
102
}
330
168
100
AcDbScale
 70
     0
300
1/128" = 1'-0"
140
0.0078125
141
12.0
290
     0
  0
SCALE
  5
17B
102
{ACAD_REACTORS
330
168
102
}
330
168
100
AcDbScale
 70
     0
300
1/64" = 1'-0"
140
0.015625
141
12.0
290
     0
  0
SCALE
  5
17C
102
{ACAD_REACTORS
330
168
102
}
330
168
100
AcDbScale
 70
     0
300
1/32" = 1'-0"
140
0.03125
141
12.0
290
     0
  0
SCALE
  5
17D
102
{ACAD_REACTORS
330
168
102
}
330
168
100
AcDbScale
 70
     0
300
1/16" = 1'-0"
140
0.0625
141
12.0
290
     0
  0
SCALE
  5
17E
102
{ACAD_REACTORS
330
168
102
}
330
168
100
AcDbScale
 70
     0
300
3/32" = 1'-0"
140
0.09375
141
12.0
290
     0
  0
SCALE
  5
17F
102
{ACAD_REACTORS
330
168
102
}
330
168
100
AcDbScale
 70
     0
300
1/8" = 1'-0"
140
0.125
141
12.0
290
     0
  0
SCALE
  5
180
102
{ACAD_REACTORS
330
168
102
}
330
168
100
AcDbScale
 70
     0
300
3/16" = 1'-0"
140
0.1875
141
12.0
290
     0
  0
SCALE
  5
181
102
{ACAD_REACTORS
330
168
102
}
330
168
100
AcDbScale
 70
     0
300
1/4" = 1'-0"
140
0.25
141
12.0
290
     0
  0
SCALE
  5
182
102
{ACAD_REACTORS
330
168
102
}
330
168
100
AcDbScale
 70
     0
300
3/8" = 1'-0"
140
0.375
141
12.0
290
     0
  0
SCALE
  5
183
102
{ACAD_REACTORS
330
168
102
}
330
168
100
AcDbScale
 70
     0
300
1/2" = 1'-0"
140
0.5
141
12.0
290
     0
  0
SCALE
  5
184
102
{ACAD_REACTORS
330
168
102
}
330
168
100
AcDbScale
 70
     0
300
3/4" = 1'-0"
140
0.75
141
12.0
290
     0
  0
SCALE
  5
185
102
{ACAD_REACTORS
330
168
102
}
330
168
100
AcDbScale
 70
     0
300
1" = 1'-0"
140
1.0
141
12.0
290
     0
  0
SCALE
  5
186
102
{ACAD_REACTORS
330
168
102
}
330
168
100
AcDbScale
 70
     0
300
1-1/2" = 1'-0"
140
1.5
141
12.0
290
     0
  0
SCALE
  5
187
102
{ACAD_REACTORS
330
168
102
}
330
168
100
AcDbScale
 70
     0
300
3" = 1'-0"
140
3.0
141
12.0
290
     0
  0
SCALE
  5
188
102
{ACAD_REACTORS
330
168
102
}
330
168
100
AcDbScale
 70
     0
300
6" = 1'-0"
140
6.0
141
12.0
290
     0
  0
SCALE
  5
189
102
{ACAD_REACTORS
330
168
102
}
330
168
100
AcDbScale
 70
     0
300
1'-0" = 1'-0"
140
12.0
141
12.0
290
     0
  0
VISUALSTYLE
  5
2F
102
{ACAD_REACTORS
330
2A
102
}
330
2A
100
AcDbVisualStyle
  2
2dWireframe
 70
     4
177
     2
291
     0
 71
     0
176
     1
 72
     2
176
     1
 73
     0
176
     1
 90
        0
176
     1
 40
-0.6
176
     1
 41
-30.0
176
     1
 62
     5
 63
     7
421
 16777215
176
     1
 74
     1
176
     1
 91
        4
176
     1
 64
     7
176
     1
 65
   257
176
     1
 75
     1
176
     1
175
     1
176
     1
 42
1.0
176
     1
 92
        0
176
     1
 66
   257
176
     1
 43
1.0
176
     1
 76
     1
176
     1
 77
     6
176
     1
 78
     2
176
     1
 67
     7
176
     1
 79
     5
176
     1
170
     0
176
     1
171
     0
176
     1
290
     0
176
     1
 93
        1
176
     1
 44
0.0
176
     1
173
     0
176
     1
  0
VISUALSTYLE
  5
31
102
{ACAD_REACTORS
330
2A
102
}
330
2A
100
AcDbVisualStyle
  2
3D Hidden
 70
     6
177
     2
291
     0
 71
     1
176
     1
 72
     2
176
     1
 73
     2
176
     1
 90
        0
176
     1
 40
-0.6
176
     1
 41
-30.0
176
     1
 62
     5
 63
     7
421
 16777215
176
     1
 74
     2
176
     1
 91
        2
176
     1
 64
     7
176
     1
 65
   257
176
     1
 75
     2
176
     1
175
     1
176
     1
 42
40.0
176
     1
 92
        0
176
     1
 66
   257
176
     1
 43
1.0
176
     1
 76
     1
176
     1
 77
     6
176
     1
 78
     2
176
     1
 67
     7
176
     1
 79
     3
176
     1
170
     0
176
     1
171
     0
176
     1
290
     0
176
     1
 93
        1
176
     1
 44
0.0
176
     1
173
     0
176
     1
  0
VISUALSTYLE
  5
30
102
{ACAD_REACTORS
330
2A
102
}
330
2A
100
AcDbVisualStyle
  2
3dWireframe
 70
     5
177
     2
291
     0
 71
     0
176
     1
 72
     2
176
     1
 73
     0
176
     1
 90
        0
176
     1
 40
-0.6
176
     1
 41
-30.0
176
     1
 62
     5
 63
     7
421
 16777215
176
     1
 74
     1
176
     1
 91
        4
176
     1
 64
     7
176
     1
 65
   257
176
     1
 75
     1
176
     1
175
     1
176
     1
 42
1.0
176
     1
 92
        0
176
     1
 66
   257
176
     1
 43
1.0
176
     1
 76
     1
176
     1
 77
     6
176
     1
 78
     2
176
     1
 67
     7
176
     1
 79
     5
176
     1
170
     0
176
     1
171
     0
176
     1
290
     0
176
     1
 93
        1
176
     1
 44
0.0
176
     1
173
     0
176
     1
  0
VISUALSTYLE
  5
32
102
{ACAD_REACTORS
330
2A
102
}
330
2A
100
AcDbVisualStyle
  2
Basic
 70
     7
177
     2
291
     1
 71
     1
176
     1
 72
     0
176
     1
 73
     1
176
     1
 90
        0
176
     1
 40
-0.6
176
     1
 41
-30.0
176
     1
 62
     5
 63
     7
421
 16777215
176
     1
 74
     0
176
     1
 91
        4
176
     1
 64
     7
176
     1
 65
   257
176
     1
 75
     1
176
     1
175
     1
176
     1
 42
1.0
176
     1
 92
        8
176
     1
 66
     7
176
     1
 43
1.0
176
     1
 76
     1
176
     1
 77
     6
176
     1
 78
     2
176
     1
 67
     7
176
     1
 79
     5
176
     1
170
     0
176
     1
171
     0
176
     1
290
     0
176
     1
 93
        1
176
     1
 44
0.0
176
     1
173
     0
176
     1
  0
VISUALSTYLE
  5
36
102
{ACAD_REACTORS
330
2A
102
}
330
2A
100
AcDbVisualStyle
  2
Brighten
 70
    12
177
     2
291
     1
 71
     2
176
     1
 72
     2
176
     1
 73
     0
176
     1
 90
        0
176
     1
 40
-0.6
176
     1
 41
-30.0
176
     1
 62
     5
 63
     7
421
 16777215
176
     1
 74
     1
176
     1
 91
        4
176
     1
 64
     7
176
     1
 65
   257
176
     1
 75
     1
176
     1
175
     1
176
     1
 42
1.0
176
     1
 92
        8
176
     1
 66
     7
176
     1
 43
1.0
176
     1
 76
     1
176
     1
 77
     6
176
     1
 78
     2
176
     1
 67
     7
176
     1
 79
     5
176
     1
170
     0
176
     1
171
     0
176
     1
290
     0
176
     1
 93
        1
176
     1
 44
50.0
176
     1
173
     0
176
     1
  0
VISUALSTYLE
  5
3A
102
{ACAD_REACTORS
330
2A
102
}
330
2A
100
AcDbVisualStyle
  2
ColorChange
 70
    16
177
     2
291
     1
 71
     2
176
     1
 72
     2
176
     1
 73
     3
176
     1
 90
        0
176
     1
 40
-0.6
176
     1
 41
-30.0
176
     1
 62
     5
 63
     8
421
  8421504
176
     1
 74
     1
176
     1
 91
        4
176
     1
 64
     7
176
     1
 65
   257
176
     1
 75
     1
176
     1
175
     1
176
     1
 42
1.0
176
     1
 92
        8
176
     1
 66
     8
424
  8421504
176
     1
 43
1.0
176
     1
 76
     1
176
     1
 77
     6
176
     1
 78
     2
176
     1
 67
     7
176
     1
 79
     5
176
     1
170
     0
176
     1
171
     0
176
     1
290
     0
176
     1
 93
        1
176
     1
 44
0.0
176
     1
173
     0
176
     1
  0
VISUALSTYLE
  5
34
102
{ACAD_REACTORS
330
2A
102
}
330
2A
100
AcDbVisualStyle
  2
Conceptual
 70
     9
177
     2
291
     0
 71
     3
176
     1
 72
     2
176
     1
 73
     0
176
     1
 90
        0
176
     1
 40
-0.6
176
     1
 41
-30.0
176
     1
 62
     5
 63
     7
421
 16777215
176
     1
 74
     2
176
     1
 91
        2
176
     1
 64
     7
176
     1
 65
   257
176
     1
 75
     1
176
     1
175
     1
176
     1
 42
40.0
176
     1
 92
        8
176
     1
 66
     7
176
     1
 43
1.0
176
     1
 76
     1
176
     1
 77
     6
176
     1
 78
     2
176
     1
 67
     7
176
     1
 79
     3
176
     1
170
     0
176
     1
171
     0
176
     1
290
     0
176
     1
 93
        1
176
     1
 44
0.0
176
     1
173
     0
176
     1
  0
VISUALSTYLE
  5
35
102
{ACAD_REACTORS
330
2A
102
}
330
2A
100
AcDbVisualStyle
  2
Dim
 70
    11
177
     2
291
     1
 71
     2
176
     1
 72
     2
176
     1
 73
     0
176
     1
 90
        0
176
     1
 40
-0.6
176
     1
 41
-30.0
176
     1
 62
     5
 63
     7
421
 16777215
176
     1
 74
     1
176
     1
 91
        4
176
     1
 64
     7
176
     1
 65
   257
176
     1
 75
     1
176
     1
175
     1
176
     1
 42
1.0
176
     1
 92
        8
176
     1
 66
     7
176
     1
 43
1.0
176
     1
 76
     1
176
     1
 77
     6
176
     1
 78
     2
176
     1
 67
     7
176
     1
 79
     5
176
     1
170
     0
176
     1
171
     0
176
     1
290
     0
176
     1
 93
        1
176
     1
 44
-50.0
176
     1
173
     0
176
     1
  0
VISUALSTYLE
  5
39
102
{ACAD_REACTORS
330
2A
102
}
330
2A
100
AcDbVisualStyle
  2
Facepattern
 70
    15
177
     2
291
     1
 71
     2
176
     1
 72
     2
176
     1
 73
     0
176
     1
 90
        0
176
     1
 40
-0.6
176
     1
 41
-30.0
176
     1
 62
     5
 63
     7
421
 16777215
176
     1
 74
     1
176
     1
 91
        4
176
     1
 64
     7
176
     1
 65
   257
176
     1
 75
     1
176
     1
175
     1
176
     1
 42
1.0
176
     1
 92
        8
176
     1
 66
     7
176
     1
 43
1.0
176
     1
 76
     1
176
     1
 77
     6
176
     1
 78
     2
176
     1
 67
     7
176
     1
 79
     5
176
     1
170
     0
176
     1
171
     0
176
     1
290
     0
176
     1
 93
        1
176
     1
 44
0.0
176
     1
173
     0
176
     1
  0
VISUALSTYLE
  5
2B
102
{ACAD_REACTORS
330
2A
102
}
330
2A
100
AcDbVisualStyle
  2
Flat
 70
     0
177
     2
291
     1
 71
     2
176
     1
 72
     1
176
     1
 73
     1
176
     1
 90
        2
176
     1
 40
-0.6
176
     1
 41
30.0
176
     1
 62
     5
 63
     7
421
 16777215
176
     1
 74
     0
176
     1
 91
        4
176
     1
 64
     7
176
     1
 65
   257
176
     1
 75
     1
176
     1
175
     1
176
     1
 42
1.0
176
     1
 92
        8
176
     1
 66
     7
176
     1
 43
1.0
176
     1
 76
     1
176
     1
 77
     6
176
     1
 78
     2
176
     1
 67
     7
176
     1
 79
     5
176
     1
170
     0
176
     1
171
     0
176
     1
290
     0
176
     1
 93
       13
176
     1
 44
0.0
176
     1
173
     0
176
     1
  0
VISUALSTYLE
  5
2C
102
{ACAD_REACTORS
330
2A
102
}
330
2A
100
AcDbVisualStyle
  2
FlatWithEdges
 70
     1
177
     2
291
     1
 71
     2
176
     1
 72
     1
176
     1
 73
     1
176
     1
 90
        2
176
     1
 40
-0.6
176
     1
 41
30.0
176
     1
 62
     5
 63
     7
421
 16777215
176
     1
 74
     1
176
     1
 91
        4
176
     1
 64
     7
176
     1
 65
   257
176
     1
 75
     1
176
     1
175
     1
176
     1
 42
1.0
176
     1
 92
        0
176
     1
 66
   257
176
     1
 43
1.0
176
     1
 76
     1
176
     1
 77
     6
176
     1
 78
     2
176
     1
 67
     7
176
     1
 79
     5
176
     1
170
     0
176
     1
171
     0
176
     1
290
     0
176
     1
 93
       13
176
     1
 44
0.0
176
     1
173
     0
176
     1
  0
VISUALSTYLE
  5
2D
102
{ACAD_REACTORS
330
2A
102
}
330
2A
100
AcDbVisualStyle
  2
Gouraud
 70
     2
177
     2
291
     1
 71
     2
176
     1
 72
     2
176
     1
 73
     1
176
     1
 90
        2
176
     1
 40
-0.6
176
     1
 41
30.0
176
     1
 62
     5
 63
     7
421
 16777215
176
     1
 74
     0
176
     1
 91
        4
176
     1
 64
     7
176
     1
 65
   257
176
     1
 75
     1
176
     1
175
     1
176
     1
 42
1.0
176
     1
 92
        0
176
     1
 66
     7
176
     1
 43
1.0
176
     1
 76
     1
176
     1
 77
     6
176
     1
 78
     2
176
     1
 67
     7
176
     1
 79
     5
176
     1
170
     0
176
     1
171
     0
176
     1
290
     0
176
     1
 93
       13
176
     1
 44
0.0
176
     1
173
     0
176
     1
  0
VISUALSTYLE
  5
2E
102
{ACAD_REACTORS
330
2A
102
}
330
2A
100
AcDbVisualStyle
  2
GouraudWithEdges
 70
     3
177
     2
291
     1
 71
     2
176
     1
 72
     2
176
     1
 73
     1
176
     1
 90
        2
176
     1
 40
-0.6
176
     1
 41
30.0
176
     1
 62
     5
 63
     7
421
 16777215
176
     1
 74
     1
176
     1
 91
        4
176
     1
 64
     7
176
     1
 65
   257
176
     1
 75
     1
176
     1
175
     1
176
     1
 42
1.0
176
     1
 92
        0
176
     1
 66
   257
176
     1
 43
1.0
176
     1
 76
     1
176
     1
 77
     6
176
     1
 78
     2
176
     1
 67
     7
176
     1
 79
     5
176
     1
170
     0
176
     1
171
     0
176
     1
290
     0
176
     1
 93
       13
176
     1
 44
0.0
176
     1
173
     0
176
     1
  0
VISUALSTYLE
  5
38
102
{ACAD_REACTORS
330
2A
102
}
330
2A
100
AcDbVisualStyle
  2
Linepattern
 70
    14
177
     2
291
     1
 71
     2
176
     1
 72
     2
176
     1
 73
     0
176
     1
 90
        0
176
     1
 40
-0.6
176
     1
 41
-30.0
176
     1
 62
     5
 63
     7
421
 16777215
176
     1
 74
     1
176
     1
 91
        4
176
     1
 64
     7
176
     1
 65
   257
176
     1
 75
     7
176
     1
175
     7
176
     1
 42
1.0
176
     1
 92
        8
176
     1
 66
     7
176
     1
 43
1.0
176
     1
 76
     1
176
     1
 77
     6
176
     1
 78
     2
176
     1
 67
     7
176
     1
 79
     5
176
     1
170
     0
176
     1
171
     0
176
     1
290
     0
176
     1
 93
        1
176
     1
 44
0.0
176
     1
173
     0
176
     1
  0
VISUALSTYLE
  5
33
102
{ACAD_REACTORS
330
2A
102
}
330
2A
100
AcDbVisualStyle
  2
Realistic
 70
     8
177
     2
291
     0
 71
     2
176
     1
 72
     2
176
     1
 73
     0
176
     1
 90
        0
176
     1
 40
-0.6
176
     1
 41
-30.0
176
     1
 62
     5
 63
     7
421
 16777215
176
     1
 74
     1
176
     1
 91
        0
176
     1
 64
     7
176
     1
 65
   257
176
     1
 75
     1
176
     1
175
     1
176
     1
 42
1.0
176
     1
 92
        8
176
     1
 66
     8
424
  7895160
176
     1
 43
1.0
176
     1
 76
     1
176
     1
 77
     6
176
     1
 78
     2
176
     1
 67
     7
176
     1
 79
     5
176
     1
170
     0
176
     1
171
     0
176
     1
290
     0
176
     1
 93
       13
176
     1
 44
0.0
176
     1
173
     0
176
     1
  0
VISUALSTYLE
  5
37
102
{ACAD_REACTORS
330
2A
102
}
330
2A
100
AcDbVisualStyle
  2
Thicken
 70
    13
177
     2
291
     1
 71
     2
176
     1
 72
     2
176
     1
 73
     0
176
     1
 90
        0
176
     1
 40
-0.6
176
     1
 41
-30.0
176
     1
 62
     5
 63
     7
421
 16777215
176
     1
 74
     1
176
     1
 91
        4
176
     1
 64
     7
176
     1
 65
   257
176
     1
 75
     1
176
     1
175
     1
176
     1
 42
1.0
176
     1
 92
       12
176
     1
 66
     7
176
     1
 43
1.0
176
     1
 76
     1
176
     1
 77
     6
176
     1
 78
     2
176
     1
 67
     7
176
     1
 79
     5
176
     1
170
     0
176
     1
171
     0
176
     1
290
     0
176
     1
 93
        1
176
     1
 44
0.0
176
     1
173
     0
176
     1
  0
DICTIONARYVAR
  5
18B
102
{ACAD_REACTORS
330
18A
102
}
330
18A
100
DictionaryVariables
280
     0
  1
1:1
  0
ENDSEC
  0
EOF
