  0
SECTION
  2
HEADER
  9
$ACADVER
  1
AC1018
  9
$ACADMAINTVER
 70
     0
  9
$DWGCODEPAGE
  3
ANSI_932
  9
$INSBASE
 10
0.0
 20
0.0
 30
0.0
  9
$EXTMIN
 10
1.000000000000000E+20
 20
1.000000000000000E+20
 30
1.000000000000000E+20
  9
$EXTMAX
 10
-1.000000000000000E+20
 20
-1.000000000000000E+20
 30
-1.000000000000000E+20
  9
$LIMMIN
 10
0.0
 20
0.0
  9
$LIMMAX
 10
12.0
 20
9.0
  9
$ORTHOMODE
 70
     0
  9
$REGENMODE
 70
     1
  9
$FILLMODE
 70
     1
  9
$QTEXTMODE
 70
     0
  9
$MIRRTEXT
 70
     1
  9
$LTSCALE
 40
1.0
  9
$ATTMODE
 70
     1
  9
$TEXTSIZE
 40
0.2
  9
$TRACEWID
 40
0.05
  9
$TEXTSTYLE
  7
Standard
  9
$CLAYER
  8
0
  9
$CELTYPE
  6
ByLayer
  9
$CECOLOR
 62
   256
  9
$CELTSCALE
 40
1.0
  9
$DISPSILH
 70
     0
  9
$DIMSCALE
 40
1.0
  9
$DIMASZ
 40
0.18
  9
$DIMEXO
 40
0.0625
  9
$DIMDLI
 40
0.38
  9
$DIMRND
 40
0.0
  9
$DIMDLE
 40
0.0
  9
$DIMEXE
 40
0.18
  9
$DIMTP
 40
0.0
  9
$DIMTM
 40
0.0
  9
$DIMTXT
 40
0.18
  9
$DIMCEN
 40
0.09
  9
$DIMTSZ
 40
0.0
  9
$DIMTOL
 70
     0
  9
$DIMLIM
 70
     0
  9
$DIMTIH
 70
     1
  9
$DIMTOH
 70
     1
  9
$DIMSE1
 70
     0
  9
$DIMSE2
 70
     0
  9
$DIMTAD
 70
     0
  9
$DIMZIN
 70
     0
  9
$DIMBLK
  1

  9
$DIMASO
 70
     1
  9
$DIMSHO
 70
     1
  9
$DIMPOST
  1

  9
$DIMAPOST
  1

  9
$DIMALT
 70
     0
  9
$DIMALTD
 70
     2
  9
$DIMALTF
 40
25.4
  9
$DIMLFAC
 40
1.0
  9
$DIMTOFL
 70
     0
  9
$DIMTVP
 40
0.0
  9
$DIMTIX
 70
     0
  9
$DIMSOXD
 70
     0
  9
$DIMSAH
 70
     0
  9
$DIMBLK1
  1

  9
$DIMBLK2
  1

  9
$DIMSTYLE
  2
Standard
  9
$DIMCLRD
 70
     0
  9
$DIMCLRE
 70
     0
  9
$DIMCLRT
 70
     0
  9
$DIMTFAC
 40
1.0
  9
$DIMGAP
 40
0.09
  9
$DIMJUST
 70
     0
  9
$DIMSD1
 70
     0
  9
$DIMSD2
 70
     0
  9
$DIMTOLJ
 70
     1
  9
$DIMTZIN
 70
     0
  9
$DIMALTZ
 70
     0
  9
$DIMALTTZ
 70
     0
  9
$DIMUPT
 70
     0
  9
$DIMDEC
 70
     4
  9
$DIMTDEC
 70
     4
  9
$DIMALTU
 70
     2
  9
$DIMALTTD
 70
     2
  9
$DIMTXSTY
  7
Standard
  9
$DIMAUNIT
 70
     0
  9
$DIMADEC
 70
     0
  9
$DIMALTRND
 40
0.0
  9
$DIMAZIN
 70
     0
  9
$DIMDSEP
 70
    46
  9
$DIMATFIT
 70
     3
  9
$DIMFRAC
 70
     0
  9
$DIMLDRBLK
  1

  9
$DIMLUNIT
 70
     2
  9
$DIMLWD
 70
    -2
  9
$DIMLWE
 70
    -2
  9
$DIMTMOVE
 70
     0
  9
$LUNITS
 70
     2
  9
$LUPREC
 70
     4
  9
$SKETCHINC
 40
0.1
  9
$FILLETRAD
 40
0.5
  9
$AUNITS
 70
     0
  9
$AUPREC
 70
     0
  9
$MENU
  1
.
  9
$ELEVATION
 40
0.0
  9
$PELEVATION
 40
0.0
  9
$THICKNESS
 40
0.0
  9
$LIMCHECK
 70
     0
  9
$CHAMFERA
 40
0.5
  9
$CHAMFERB
 40
0.5
  9
$CHAMFERC
 40
1.0
  9
$CHAMFERD
 40
0.0
  9
$SKPOLY
 70
     0
  9
$TDCREATE
 40
2457064.501967593
  9
$TDUCREATE
 40
2457064.835300926
  9
$TDUPDATE
 40
2457064.501967604
  9
$TDUUPDATE
 40
2457064.835300937
  9
$TDINDWG
 40
0.0000000116
  9
$TDUSRTIMER
 40
0.0000000116
  9
$USRTIMER
 70
     1
  9
$ANGBASE
 50
0.0
  9
$ANGDIR
 70
     0
  9
$PDMODE
 70
     0
  9
$PDSIZE
 40
0.0
  9
$PLINEWID
 40
0.0
  9
$SPLFRAME
 70
     0
  9
$SPLINETYPE
 70
     6
  9
$SPLINESEGS
 70
     8
  9
$HANDSEED
  5
CC
  9
$SURFTAB1
 70
     6
  9
$SURFTAB2
 70
     6
  9
$SURFTYPE
 70
     6
  9
$SURFU
 70
     6
  9
$SURFV
 70
     6
  9
$UCSBASE
  2

  9
$UCSNAME
  2

  9
$UCSORG
 10
0.0
 20
0.0
 30
0.0
  9
$UCSXDIR
 10
1.0
 20
0.0
 30
0.0
  9
$UCSYDIR
 10
0.0
 20
1.0
 30
0.0
  9
$UCSORTHOREF
  2

  9
$UCSORTHOVIEW
 70
     0
  9
$UCSORGTOP
 10
0.0
 20
0.0
 30
0.0
  9
$UCSORGBOTTOM
 10
0.0
 20
0.0
 30
0.0
  9
$UCSORGLEFT
 10
0.0
 20
0.0
 30
0.0
  9
$UCSORGRIGHT
 10
0.0
 20
0.0
 30
0.0
  9
$UCSORGFRONT
 10
0.0
 20
0.0
 30
0.0
  9
$UCSORGBACK
 10
0.0
 20
0.0
 30
0.0
  9
$PUCSBASE
  2

  9
$PUCSNAME
  2

  9
$PUCSORG
 10
0.0
 20
0.0
 30
0.0
  9
$PUCSXDIR
 10
1.0
 20
0.0
 30
0.0
  9
$PUCSYDIR
 10
0.0
 20
1.0
 30
0.0
  9
$PUCSORTHOREF
  2

  9
$PUCSORTHOVIEW
 70
     0
  9
$PUCSORGTOP
 10
0.0
 20
0.0
 30
0.0
  9
$PUCSORGBOTTOM
 10
0.0
 20
0.0
 30
0.0
  9
$PUCSORGLEFT
 10
0.0
 20
0.0
 30
0.0
  9
$PUCSORGRIGHT
 10
0.0
 20
0.0
 30
0.0
  9
$PUCSORGFRONT
 10
0.0
 20
0.0
 30
0.0
  9
$PUCSORGBACK
 10
0.0
 20
0.0
 30
0.0
  9
$USERI1
 70
     0
  9
$USERI2
 70
     0
  9
$USERI3
 70
     0
  9
$USERI4
 70
     0
  9
$USERI5
 70
     0
  9
$USERR1
 40
0.0
  9
$USERR2
 40
0.0
  9
$USERR3
 40
0.0
  9
$USERR4
 40
0.0
  9
$USERR5
 40
0.0
  9
$WORLDVIEW
 70
     1
  9
$SHADEDGE
 70
     3
  9
$SHADEDIF
 70
    70
  9
$TILEMODE
 70
     1
  9
$MAXACTVP
 70
    64
  9
$PINSBASE
 10
0.0
 20
0.0
 30
0.0
  9
$PLIMCHECK
 70
     0
  9
$PEXTMIN
 10
1.000000000000000E+20
 20
1.000000000000000E+20
 30
1.000000000000000E+20
  9
$PEXTMAX
 10
-1.000000000000000E+20
 20
-1.000000000000000E+20
 30
-1.000000000000000E+20
  9
$PLIMMIN
 10
0.0
 20
0.0
  9
$PLIMMAX
 10
12.0
 20
9.0
  9
$UNITMODE
 70
     0
  9
$VISRETAIN
 70
     1
  9
$PLINEGEN
 70
     0
  9
$PSLTSCALE
 70
     1
  9
$TREEDEPTH
 70
  3020
  9
$CMLSTYLE
  2
Standard
  9
$CMLJUST
 70
     0
  9
$CMLSCALE
 40
1.0
  9
$PROXYGRAPHICS
 70
     1
  9
$MEASUREMENT
 70
     0
  9
$CELWEIGHT
370
    -1
  9
$ENDCAPS
280
     0
  9
$JOINSTYLE
280
     0
  9
$LWDISPLAY
290
     1
  9
$INSUNITS
 70
     1
  9
$HYPERLINKBASE
  1

  9
$STYLESHEET
  1

  9
$XEDIT
290
     1
  9
$CEPSNTYPE
380
     0
  9
$PSTYLEMODE
290
     1
  9
$FINGERPRINTGUID
  2
{04484C53-2C44-C59D-B877-681E36A404FB}
  9
$VERSIONGUID
  2
{FAEB1C32-E019-11D5-929B-00C0DF256EC4}
  9
$EXTNAMES
290
     1
  9
$PSVPSCALE
 40
0.0
  9
$OLESTARTUP
290
     0
  9
$SORTENTS
280
   127
  9
$INDEXCTL
280
     0
  9
$HIDETEXT
280
     1
  9
$XCLIPFRAME
290
     0
  9
$HALOGAP
280
     0
  9
$OBSCOLOR
 70
   257
  9
$OBSLTYPE
280
     0
  9
$INTERSECTIONDISPLAY
280
     0
  9
$INTERSECTIONCOLOR
 70
   257
  9
$DIMASSOC
280
     2
  9
$PROJECTNAME
  1

  0
ENDSEC
  0
SECTION
  2
CLASSES
  0
CLASS
  1
ACDBDICTIONARYWDFLT
  2
AcDbDictionaryWithDefault
  3
ObjectDBX Classes
 90
        0
 91
        3
280
     0
281
     0
  0
CLASS
  1
VISUALSTYLE
  2
AcDbVisualStyle
  3
ObjectDBX Classes
 90
     4095
 91
        3
280
     0
281
     0
  0
ENDSEC
  0
SECTION
  2
TABLES
  0
TABLE
  2
VPORT
  5
8
330
0
100
AcDbSymbolTable
 70
     1
  0
VPORT
  5
29
330
8
100
AcDbSymbolTableRecord
100
AcDbViewportTableRecord
  2
*Active
 70
     0
 10
0.0
 20
0.0
 11
1.0
 21
1.0
 12
0.0
 22
0.0
 13
0.0
 23
0.0
 14
0.5
 24
0.5
 15
0.5
 25
0.5
 16
0.0
 26
0.0
 36
1.0
 17
-13.0586412217882
 27
-3.530829535590277
 37
0.0
 40
39.51581488715277
 41
0.9999996567610187
 42
50.0
 43
0.0
 44
0.0
 50
0.0
 51
0.0
 71
     0
 72
   100
 73
     1
 74
     3
 75
     0
 76
     0
 77
     0
 78
     0
281
     0
 65
     1
110
0.0
120
0.0
130
0.0
111
1.0
121
0.0
131
0.0
112
0.0
122
1.0
132
0.0
 79
     0
146
0.0
  0
ENDTAB
  0
TABLE
  2
LTYPE
  5
5
330
0
100
AcDbSymbolTable
 70
     1
  0
LTYPE
  5
14
330
5
100
AcDbSymbolTableRecord
100
AcDbLinetypeTableRecord
  2
ByBlock
 70
     0
  3

 72
    65
 73
     0
 40
0.0
  0
LTYPE
  5
15
330
5
100
AcDbSymbolTableRecord
100
AcDbLinetypeTableRecord
  2
ByLayer
 70
     0
  3

 72
    65
 73
     0
 40
0.0
  0
LTYPE
  5
16
330
5
100
AcDbSymbolTableRecord
100
AcDbLinetypeTableRecord
  2
Continuous
 70
     0
  3
Solid line
 72
    65
 73
     0
 40
0.0
  0
ENDTAB
  0
TABLE
  2
LAYER
  5
2
330
0
100
AcDbSymbolTable
 70
     2
  0
LAYER
  5
10
330
2
100
AcDbSymbolTableRecord
100
AcDbLayerTableRecord
  2
0
 70
     0
 62
     7
  6
Continuous
370
    -3
390
F
  0
LAYER
  5
3B
330
2
100
AcDbSymbolTableRecord
100
AcDbLayerTableRecord
  2
Layer 1
 70
     0
 62
     7
  6
Continuous
370
    -3
390
F
  0
ENDTAB
  0
TABLE
  2
STYLE
  5
3
330
0
100
AcDbSymbolTable
 70
     1
  0
STYLE
  5
11
330
3
100
AcDbSymbolTableRecord
100
AcDbTextStyleTableRecord
  2
Standard
 70
     0
 40
0.0
 41
1.0
 50
0.0
 71
     0
 42
0.2
  3
txt
  4

  0
ENDTAB
  0
TABLE
  2
VIEW
  5
6
330
0
100
AcDbSymbolTable
 70
     0
  0
ENDTAB
  0
TABLE
  2
UCS
  5
7
330
0
100
AcDbSymbolTable
 70
     0
  0
ENDTAB
  0
TABLE
  2
APPID
  5
9
330
0
100
AcDbSymbolTable
 70
     1
  0
APPID
  5
12
330
9
100
AcDbSymbolTableRecord
100
AcDbRegAppTableRecord
  2
ACAD
 70
     0
  0
ENDTAB
  0
TABLE
  2
DIMSTYLE
  5
A
330
0
100
AcDbSymbolTable
 70
     1
100
AcDbDimStyleTable
  0
DIMSTYLE
105
27
330
A
100
AcDbSymbolTableRecord
100
AcDbDimStyleTableRecord
  2
Standard
 70
     0
340
11
  0
ENDTAB
  0
TABLE
  2
BLOCK_RECORD
  5
1
330
0
100
AcDbSymbolTable
 70
     1
  0
BLOCK_RECORD
  5
1F
330
1
100
AcDbSymbolTableRecord
100
AcDbBlockTableRecord
  2
*Model_Space
340
22
  0
BLOCK_RECORD
  5
1B
330
1
100
AcDbSymbolTableRecord
100
AcDbBlockTableRecord
  2
*Paper_Space
340
1E
  0
BLOCK_RECORD
  5
23
330
1
100
AcDbSymbolTableRecord
100
AcDbBlockTableRecord
  2
*Paper_Space0
340
26
  0
ENDTAB
  0
ENDSEC
  0
SECTION
  2
BLOCKS
  0
BLOCK
  5
20
330
1F
100
AcDbEntity
  8
0
100
AcDbBlockBegin
  2
*Model_Space
 70
     0
 71
     0
 10
0.0
 20
0.0
 30
0.0
  3
*Model_Space
  1

  0
ENDBLK
  5
21
330
1F
100
AcDbEntity
  8
0
100
AcDbBlockEnd
  0
BLOCK
  5
1C
330
1B
100
AcDbEntity
 67
     1
  8
0
100
AcDbBlockBegin
  2
*Paper_Space
 70
     0
 71
     0
 10
0.0
 20
0.0
 30
0.0
  3
*Paper_Space
  1

  0
ENDBLK
  5
1D
330
1B
100
AcDbEntity
 67
     1
  8
0
100
AcDbBlockEnd
  0
BLOCK
  5
24
330
23
100
AcDbEntity
  8
0
100
AcDbBlockBegin
  2
*Paper_Space0
 70
     0
 71
     0
 10
0.0
 20
0.0
 30
0.0
  3
*Paper_Space0
  1

  0
ENDBLK
  5
25
330
23
100
AcDbEntity
  8
0
100
AcDbBlockEnd
  0
ENDSEC
  0
SECTION
  2
ENTITIES
  0
POLYLINE
  5
3C
330
1F
100
AcDbEntity
  8
Layer 1
 62
     7
420
 16777215
370
    18
100
AcDb2dPolyline
 66
     1
 10
0.0
 20
0.0
 30
0.0
  0
VERTEX
  5
3D
330
3C
100
AcDbEntity
  8
Layer 1
 62
     7
420
 16777215
370
    18
100
AcDbVertex
100
AcDb2dVertex
 10
4.235575358072916
 20
-3.526923285590278
 30
0.0
  0
VERTEX
  5
3E
330
3C
100
AcDbEntity
  8
Layer 1
 62
     7
420
 16777215
370
    18
100
AcDbVertex
100
AcDb2dVertex
 10
2.217210557725694
 20
-0.0309922960069444
 30
0.0
  0
VERTEX
  5
3F
330
3C
100
AcDbEntity
  8
Layer 1
 62
     7
420
 16777215
370
    18
100
AcDbVertex
100
AcDb2dVertex
 10
4.238016764322916
 20
3.469170464409722
 30
0.0
  0
VERTEX
  5
40
330
3C
100
AcDbEntity
  8
Layer 1
 62
     7
420
 16777215
370
    18
100
AcDbVertex
100
AcDb2dVertex
 10
1.63995361328125
 20
7.969170464409721
 30
0.0
  0
VERTEX
  5
41
330
3C
100
AcDbEntity
  8
Layer 1
 62
     7
420
 16777215
370
    18
100
AcDbVertex
100
AcDb2dVertex
 10
-2.369974772135417
 20
7.969170464409721
 30
0.0
  0
VERTEX
  5
42
330
3C
100
AcDbEntity
  8
Layer 1
 62
     7
420
 16777215
370
    18
100
AcDbVertex
100
AcDb2dVertex
 10
-4.390699598524305
 20
11.46917046440972
 30
0.0
  0
VERTEX
  5
43
330
3C
100
AcDbEntity
  8
Layer 1
 62
     7
420
 16777215
370
    18
100
AcDbVertex
100
AcDb2dVertex
 10
-4.407436794704861
 20
11.46917046440972
 30
0.0
  0
VERTEX
  5
44
330
3C
100
AcDbEntity
  8
Layer 1
 62
     7
420
 16777215
370
    18
100
AcDbVertex
100
AcDb2dVertex
 10
-8.432474772135416
 20
11.46917046440972
 30
0.0
  0
VERTEX
  5
45
330
3C
100
AcDbEntity
  8
Layer 1
 62
     7
420
 16777215
370
    18
100
AcDbVertex
100
AcDb2dVertex
 10
-10.45319959852431
 20
14.96917046440972
 30
0.0
  0
VERTEX
  5
46
330
3C
100
AcDbEntity
  8
Layer 1
 62
     7
420
 16777215
370
    18
100
AcDbVertex
100
AcDb2dVertex
 10
-15.64935302734375
 20
14.96917046440972
 30
0.0
  0
VERTEX
  5
47
330
3C
100
AcDbEntity
  8
Layer 1
 62
     7
420
 16777215
370
    18
100
AcDbVertex
100
AcDb2dVertex
 10
-17.67007785373264
 20
11.46917046440972
 30
0.0
  0
VERTEX
  5
48
330
3C
100
AcDbEntity
  8
Layer 1
 62
     7
420
 16777215
370
    18
100
AcDbVertex
100
AcDb2dVertex
 10
-21.71063232421875
 20
11.46917046440972
 30
0.0
  0
VERTEX
  5
49
330
3C
100
AcDbEntity
  8
Layer 1
 62
     7
420
 16777215
370
    18
100
AcDbVertex
100
AcDb2dVertex
 10
-23.73135715060764
 20
7.969170464409721
 30
0.0
  0
VERTEX
  5
4A
330
3C
100
AcDbEntity
  8
Layer 1
 62
     7
420
 16777215
370
    18
100
AcDbVertex
100
AcDb2dVertex
 10
-27.75639512803819
 20
7.969170464409721
 30
0.0
  0
VERTEX
  5
4B
330
3C
100
AcDbEntity
  8
Layer 1
 62
     7
420
 16777215
370
    18
100
AcDbVertex
100
AcDb2dVertex
 10
-30.35445827907986
 20
3.469170464409722
 30
0.0
  0
VERTEX
  5
4C
330
3C
100
AcDbEntity
  8
Layer 1
 62
     7
420
 16777215
370
    18
100
AcDbVertex
100
AcDb2dVertex
 10
-28.33416748046875
 20
-0.0300971137152778
 30
0.0
  0
VERTEX
  5
4D
330
3C
100
AcDbEntity
  8
Layer 1
 62
     7
420
 16777215
370
    18
100
AcDbVertex
100
AcDb2dVertex
 10
-30.3552992078993
 20
-3.530829535590278
 30
0.0
  0
VERTEX
  5
4E
330
3C
100
AcDbEntity
  8
Layer 1
 62
     7
420
 16777215
370
    18
100
AcDbVertex
100
AcDb2dVertex
 10
-28.33416748046875
 20
-7.031561957465278
 30
0.0
  0
VERTEX
  5
4F
330
3C
100
AcDbEntity
  8
Layer 1
 62
     7
420
 16777215
370
    18
100
AcDbVertex
100
AcDb2dVertex
 10
-30.35445827907986
 20
-10.53082953559028
 30
0.0
  0
VERTEX
  5
50
330
3C
100
AcDbEntity
  8
Layer 1
 62
     7
420
 16777215
370
    18
100
AcDbVertex
100
AcDb2dVertex
 10
-27.75639512803819
 20
-15.03082953559028
 30
0.0
  0
VERTEX
  5
51
330
3C
100
AcDbEntity
  8
Layer 1
 62
     7
420
 16777215
370
    18
100
AcDbVertex
100
AcDb2dVertex
 10
-23.72848171657986
 20
-15.03082953559028
 30
0.0
  0
VERTEX
  5
52
330
3C
100
AcDbEntity
  8
Layer 1
 62
     7
420
 16777215
370
    18
100
AcDbVertex
100
AcDb2dVertex
 10
-21.71866183810764
 20
-18.51192220052083
 30
0.0
  0
VERTEX
  5
53
330
3C
100
AcDbEntity
  8
Layer 1
 62
     7
420
 16777215
370
    18
100
AcDbVertex
100
AcDb2dVertex
 10
-17.6809828016493
 20
-18.51192220052083
 30
0.0
  0
VERTEX
  5
54
330
3C
100
AcDbEntity
  8
Layer 1
 62
     7
420
 16777215
370
    18
100
AcDbVertex
100
AcDb2dVertex
 10
-15.64935302734375
 20
-22.03082953559028
 30
0.0
  0
VERTEX
  5
55
330
3C
100
AcDbEntity
  8
Layer 1
 62
     7
420
 16777215
370
    18
100
AcDbVertex
100
AcDb2dVertex
 10
-10.45319959852431
 20
-22.03082953559028
 30
0.0
  0
VERTEX
  5
56
330
3C
100
AcDbEntity
  8
Layer 1
 62
     7
420
 16777215
370
    18
100
AcDbVertex
100
AcDb2dVertex
 10
-8.433369954427082
 20
-18.53237575954861
 30
0.0
  0
VERTEX
  5
57
330
3C
100
AcDbEntity
  8
Layer 1
 62
     7
420
 16777215
370
    18
100
AcDbVertex
100
AcDb2dVertex
 10
-4.396450466579861
 20
-18.53237575954861
 30
0.0
  0
VERTEX
  5
58
330
3C
100
AcDbEntity
  8
Layer 1
 62
     7
420
 16777215
370
    18
100
AcDbVertex
100
AcDb2dVertex
 10
-2.374830457899305
 20
-15.03082953559028
 30
0.0
  0
VERTEX
  5
59
330
3C
100
AcDbEntity
  8
Layer 1
 62
     7
420
 16777215
370
    18
100
AcDbVertex
100
AcDb2dVertex
 10
1.63995361328125
 20
-15.03082953559028
 30
0.0
  0
VERTEX
  5
5A
330
3C
100
AcDbEntity
  8
Layer 1
 62
     7
420
 16777215
370
    18
100
AcDbVertex
100
AcDb2dVertex
 10
4.238016764322916
 20
-10.53082953559028
 30
0.0
  0
VERTEX
  5
5B
330
3C
100
AcDbEntity
  8
Layer 1
 62
     7
420
 16777215
370
    18
100
AcDbVertex
100
AcDb2dVertex
 10
2.214931911892361
 20
-7.026760525173611
 30
0.0
  0
VERTEX
  5
5C
330
3C
100
AcDbEntity
  8
Layer 1
 62
     7
420
 16777215
370
    18
100
AcDbVertex
100
AcDb2dVertex
 10
4.235575358072916
 20
-3.526923285590278
 30
0.0
  0
SEQEND
  5
5D
330
3C
100
AcDbEntity
  8
Layer 1
370
    18
  0
POLYLINE
  5
5E
330
1F
100
AcDbEntity
  8
Layer 1
 62
     7
420
 16777215
370
    18
100
AcDb2dPolyline
 66
     1
 10
0.0
 20
0.0
 30
0.0
  0
VERTEX
  5
5F
330
5E
100
AcDbEntity
  8
Layer 1
 62
     7
420
 16777215
370
    18
100
AcDbVertex
100
AcDb2dVertex
 10
-14.49087863498264
 20
-13.03082953559028
 30
0.0
  0
VERTEX
  5
60
330
5E
100
AcDbEntity
  8
Layer 1
 62
     7
420
 16777215
370
    18
100
AcDbVertex
100
AcDb2dVertex
 10
-15.92864990234375
 20
-10.54054090711806
 30
0.0
  0
VERTEX
  5
61
330
5E
100
AcDbEntity
  8
Layer 1
 62
     7
420
 16777215
370
    18
100
AcDbVertex
100
AcDb2dVertex
 10
-14.47964816623264
 20
-8.030829535590277
 30
0.0
  0
VERTEX
  5
62
330
5E
100
AcDbEntity
  8
Layer 1
 62
     7
420
 16777215
370
    18
100
AcDbVertex
100
AcDb2dVertex
 10
-11.61142985026042
 20
-8.030829535590277
 30
0.0
  0
VERTEX
  5
63
330
5E
100
AcDbEntity
  8
Layer 1
 62
     7
420
 16777215
370
    18
100
AcDbVertex
100
AcDb2dVertex
 10
-10.16855875651042
 20
-10.52996148003472
 30
0.0
  0
VERTEX
  5
64
330
5E
100
AcDbEntity
  8
Layer 1
 62
     7
420
 16777215
370
    18
100
AcDbVertex
100
AcDb2dVertex
 10
-11.61243353949653
 20
-13.03082953559028
 30
0.0
  0
VERTEX
  5
65
330
5E
100
AcDbEntity
  8
Layer 1
 62
     7
420
 16777215
370
    18
100
AcDbVertex
100
AcDb2dVertex
 10
-14.49087863498264
 20
-13.03082953559028
 30
0.0
  0
SEQEND
  5
66
330
5E
100
AcDbEntity
  8
Layer 1
370
    18
  0
POLYLINE
  5
67
330
1F
100
AcDbEntity
  8
Layer 1
 62
     7
420
 16777215
370
    18
100
AcDb2dPolyline
 66
     1
 10
0.0
 20
0.0
 30
0.0
  0
VERTEX
  5
68
330
67
100
AcDbEntity
  8
Layer 1
 62
     7
420
 16777215
370
    18
100
AcDbVertex
100
AcDb2dVertex
 10
-21.98331027560764
 20
-7.030097113715278
 30
0.0
  0
VERTEX
  5
69
330
67
100
AcDbEntity
  8
Layer 1
 62
     7
420
 16777215
370
    18
100
AcDbVertex
100
AcDb2dVertex
 10
-20.5403578016493
 20
-4.530829535590278
 30
0.0
  0
VERTEX
  5
6A
330
67
100
AcDbEntity
  8
Layer 1
 62
     7
420
 16777215
370
    18
100
AcDbVertex
100
AcDb2dVertex
 10
-17.67007785373264
 20
-4.530829535590278
 30
0.0
  0
VERTEX
  5
6B
330
67
100
AcDbEntity
  8
Layer 1
 62
     7
420
 16777215
370
    18
100
AcDbVertex
100
AcDb2dVertex
 10
-16.22669135199653
 20
-7.030829535590278
 30
0.0
  0
VERTEX
  5
6C
330
67
100
AcDbEntity
  8
Layer 1
 62
     7
420
 16777215
370
    18
100
AcDbVertex
100
AcDb2dVertex
 10
-17.65917290581597
 20
-9.511922200520832
 30
0.0
  0
VERTEX
  5
6D
330
67
100
AcDbEntity
  8
Layer 1
 62
     7
420
 16777215
370
    18
100
AcDbVertex
100
AcDb2dVertex
 10
-20.55039469401041
 20
-9.511922200520832
 30
0.0
  0
VERTEX
  5
6E
330
67
100
AcDbEntity
  8
Layer 1
 62
     7
420
 16777215
370
    18
100
AcDbVertex
100
AcDb2dVertex
 10
-21.98331027560764
 20
-7.030097113715278
 30
0.0
  0
SEQEND
  5
6F
330
67
100
AcDbEntity
  8
Layer 1
370
    18
  0
POLYLINE
  5
70
330
1F
100
AcDbEntity
  8
Layer 1
 62
     7
420
 16777215
370
    18
100
AcDb2dPolyline
 66
     1
 10
0.0
 20
0.0
 30
0.0
  0
VERTEX
  5
71
330
70
100
AcDbEntity
  8
Layer 1
 62
     7
420
 16777215
370
    18
100
AcDbVertex
100
AcDb2dVertex
 10
-20.53948974609375
 20
2.469170464409722
 30
0.0
  0
VERTEX
  5
72
330
70
100
AcDbEntity
  8
Layer 1
 62
     7
420
 16777215
370
    18
100
AcDbVertex
100
AcDb2dVertex
 10
-17.67007785373264
 20
2.469170464409722
 30
0.0
  0
VERTEX
  5
73
330
70
100
AcDbEntity
  8
Layer 1
 62
     7
420
 16777215
370
    18
100
AcDbVertex
100
AcDb2dVertex
 10
-16.22669135199653
 20
-0.0308295355902778
 30
0.0
  0
VERTEX
  5
74
330
70
100
AcDbEntity
  8
Layer 1
 62
     7
420
 16777215
370
    18
100
AcDbVertex
100
AcDb2dVertex
 10
-17.67007785373264
 20
-2.530829535590278
 30
0.0
  0
VERTEX
  5
75
330
70
100
AcDbEntity
  8
Layer 1
 62
     7
420
 16777215
370
    18
100
AcDbVertex
100
AcDb2dVertex
 10
-20.5403578016493
 20
-2.530829535590278
 30
0.0
  0
VERTEX
  5
76
330
70
100
AcDbEntity
  8
Layer 1
 62
     7
420
 16777215
370
    18
100
AcDbVertex
100
AcDb2dVertex
 10
-21.98331027560764
 20
-0.0315619574652778
 30
0.0
  0
VERTEX
  5
77
330
70
100
AcDbEntity
  8
Layer 1
 62
     7
420
 16777215
370
    18
100
AcDbVertex
100
AcDb2dVertex
 10
-20.53948974609375
 20
2.469170464409722
 30
0.0
  0
SEQEND
  5
78
330
70
100
AcDbEntity
  8
Layer 1
370
    18
  0
POLYLINE
  5
79
330
1F
100
AcDbEntity
  8
Layer 1
 62
     7
420
 16777215
370
    18
100
AcDb2dPolyline
 66
     1
 10
0.0
 20
0.0
 30
0.0
  0
VERTEX
  5
7A
330
79
100
AcDbEntity
  8
Layer 1
 62
     7
420
 16777215
370
    18
100
AcDbVertex
100
AcDb2dVertex
 10
-4.135898166232638
 20
-0.0267605251736111
 30
0.0
  0
VERTEX
  5
7B
330
79
100
AcDbEntity
  8
Layer 1
 62
     7
420
 16777215
370
    18
100
AcDbVertex
100
AcDb2dVertex
 10
-5.576924641927083
 20
-2.530829535590278
 30
0.0
  0
VERTEX
  5
7C
330
79
100
AcDbEntity
  8
Layer 1
 62
     7
420
 16777215
370
    18
100
AcDbVertex
100
AcDb2dVertex
 10
-8.432474772135416
 20
-2.530829535590278
 30
0.0
  0
VERTEX
  5
7D
330
79
100
AcDbEntity
  8
Layer 1
 62
     7
420
 16777215
370
    18
100
AcDbVertex
100
AcDb2dVertex
 10
-9.875834147135416
 20
-0.0308295355902778
 30
0.0
  0
VERTEX
  5
7E
330
79
100
AcDbEntity
  8
Layer 1
 62
     7
420
 16777215
370
    18
100
AcDbVertex
100
AcDb2dVertex
 10
-8.432474772135416
 20
2.469170464409722
 30
0.0
  0
VERTEX
  5
7F
330
79
100
AcDbEntity
  8
Layer 1
 62
     7
420
 16777215
370
    18
100
AcDbVertex
100
AcDb2dVertex
 10
-5.576924641927083
 20
2.469170464409722
 30
0.0
  0
VERTEX
  5
80
330
79
100
AcDbEntity
  8
Layer 1
 62
     7
420
 16777215
370
    18
100
AcDbVertex
100
AcDb2dVertex
 10
-4.135898166232638
 20
-0.0267605251736111
 30
0.0
  0
SEQEND
  5
81
330
79
100
AcDbEntity
  8
Layer 1
370
    18
  0
POLYLINE
  5
82
330
1F
100
AcDbEntity
  8
Layer 1
 62
     7
420
 16777215
370
    18
100
AcDb2dPolyline
 66
     1
 10
0.0
 20
0.0
 30
0.0
  0
VERTEX
  5
83
330
82
100
AcDbEntity
  8
Layer 1
 62
     7
420
 16777215
370
    18
100
AcDbVertex
100
AcDb2dVertex
 10
-5.576924641927083
 20
-9.53237575954861
 30
0.0
  0
VERTEX
  5
84
330
82
100
AcDbEntity
  8
Layer 1
 62
     7
420
 16777215
370
    18
100
AcDbVertex
100
AcDb2dVertex
 10
-8.43157958984375
 20
-9.53237575954861
 30
0.0
  0
VERTEX
  5
85
330
82
100
AcDbEntity
  8
Layer 1
 62
     7
420
 16777215
370
    18
100
AcDbVertex
100
AcDb2dVertex
 10
-9.875834147135416
 20
-7.030829535590278
 30
0.0
  0
VERTEX
  5
86
330
82
100
AcDbEntity
  8
Layer 1
 62
     7
420
 16777215
370
    18
100
AcDbVertex
100
AcDb2dVertex
 10
-8.431471082899305
 20
-4.529120551215278
 30
0.0
  0
VERTEX
  5
87
330
82
100
AcDbEntity
  8
Layer 1
 62
     7
420
 16777215
370
    18
100
AcDbVertex
100
AcDb2dVertex
 10
-5.576924641927083
 20
-4.529120551215278
 30
0.0
  0
VERTEX
  5
88
330
82
100
AcDbEntity
  8
Layer 1
 62
     7
420
 16777215
370
    18
100
AcDbVertex
100
AcDb2dVertex
 10
-4.133646647135416
 20
-7.030992296006944
 30
0.0
  0
VERTEX
  5
89
330
82
100
AcDbEntity
  8
Layer 1
 62
     7
420
 16777215
370
    18
100
AcDbVertex
100
AcDb2dVertex
 10
-5.576924641927083
 20
-9.53237575954861
 30
0.0
  0
SEQEND
  5
8A
330
82
100
AcDbEntity
  8
Layer 1
370
    18
  0
POLYLINE
  5
8B
330
1F
100
AcDbEntity
  8
Layer 1
 62
     7
420
 16777215
370
    18
100
AcDb2dPolyline
 66
     1
 10
0.0
 20
0.0
 30
0.0
  0
VERTEX
  5
8C
330
8B
100
AcDbEntity
  8
Layer 1
 62
     7
420
 16777215
370
    18
100
AcDbVertex
100
AcDb2dVertex
 10
-11.60757785373264
 20
5.969170464409722
 30
0.0
  0
VERTEX
  5
8D
330
8B
100
AcDbEntity
  8
Layer 1
 62
     7
420
 16777215
370
    18
100
AcDbVertex
100
AcDb2dVertex
 10
-10.16467963324653
 20
3.470024956597222
 30
0.0
  0
VERTEX
  5
8E
330
8B
100
AcDbEntity
  8
Layer 1
 62
     7
420
 16777215
370
    18
100
AcDbVertex
100
AcDb2dVertex
 10
-11.60855441623264
 20
0.9691704644097222
 30
0.0
  0
VERTEX
  5
8F
330
8B
100
AcDbEntity
  8
Layer 1
 62
     7
420
 16777215
370
    18
100
AcDbVertex
100
AcDb2dVertex
 10
-14.47964816623264
 20
0.9691704644097222
 30
0.0
  0
VERTEX
  5
90
330
8B
100
AcDbEntity
  8
Layer 1
 62
     7
420
 16777215
370
    18
100
AcDbVertex
100
AcDb2dVertex
 10
-15.93008761935764
 20
3.481377495659722
 30
0.0
  0
VERTEX
  5
91
330
8B
100
AcDbEntity
  8
Layer 1
 62
     7
420
 16777215
370
    18
100
AcDbVertex
100
AcDb2dVertex
 10
-14.49375406901042
 20
5.969170464409722
 30
0.0
  0
VERTEX
  5
92
330
8B
100
AcDbEntity
  8
Layer 1
 62
     7
420
 16777215
370
    18
100
AcDbVertex
100
AcDb2dVertex
 10
-11.60757785373264
 20
5.969170464409722
 30
0.0
  0
SEQEND
  5
93
330
8B
100
AcDbEntity
  8
Layer 1
370
    18
  0
POLYLINE
  5
94
330
1F
100
AcDbEntity
  8
Layer 1
 62
     7
420
 16777215
370
    18
100
AcDb2dPolyline
 66
     1
 10
0.0
 20
0.0
 30
0.0
  0
VERTEX
  5
95
330
94
100
AcDbEntity
  8
Layer 1
 62
     7
420
 16777215
370
    18
100
AcDbVertex
100
AcDb2dVertex
 10
0.4826727973090277
 20
-6.030829535590278
 30
0.0
  0
VERTEX
  5
96
330
94
100
AcDbEntity
  8
Layer 1
 62
     7
420
 16777215
370
    18
100
AcDbVertex
100
AcDb2dVertex
 10
-2.373826768663194
 20
-6.030829535590278
 30
0.0
  0
VERTEX
  5
97
330
94
100
AcDbEntity
  8
Layer 1
 62
     7
420
 16777215
370
    18
100
AcDbVertex
100
AcDb2dVertex
 10
-3.815748426649305
 20
-3.5333251953125
 30
0.0
  0
VERTEX
  5
98
330
94
100
AcDbEntity
  8
Layer 1
 62
     7
420
 16777215
370
    18
100
AcDbVertex
100
AcDb2dVertex
 10
-2.370951334635417
 20
-1.030829535590278
 30
0.0
  0
VERTEX
  5
99
330
94
100
AcDbEntity
  8
Layer 1
 62
     7
420
 16777215
370
    18
100
AcDbVertex
100
AcDb2dVertex
 10
0.4826727973090277
 20
-1.030829535590278
 30
0.0
  0
VERTEX
  5
9A
330
94
100
AcDbEntity
  8
Layer 1
 62
     7
420
 16777215
370
    18
100
AcDbVertex
100
AcDb2dVertex
 10
1.926032172309028
 20
-3.530829535590278
 30
0.0
  0
VERTEX
  5
9B
330
94
100
AcDbEntity
  8
Layer 1
 62
     7
420
 16777215
370
    18
100
AcDbVertex
100
AcDb2dVertex
 10
0.4826727973090277
 20
-6.030829535590278
 30
0.0
  0
SEQEND
  5
9C
330
94
100
AcDbEntity
  8
Layer 1
370
    18
  0
POLYLINE
  5
9D
330
1F
100
AcDbEntity
  8
Layer 1
 62
     7
420
 16777215
370
    18
100
AcDb2dPolyline
 66
     1
 10
0.0
 20
0.0
 30
0.0
  0
VERTEX
  5
9E
330
9D
100
AcDbEntity
  8
Layer 1
 62
     7
420
 16777215
370
    18
100
AcDbVertex
100
AcDb2dVertex
 10
-5.575948079427083
 20
4.470879448784722
 30
0.0
  0
VERTEX
  5
9F
330
9D
100
AcDbEntity
  8
Layer 1
 62
     7
420
 16777215
370
    18
100
AcDbVertex
100
AcDb2dVertex
 10
-8.433451334635416
 20
4.470879448784722
 30
0.0
  0
VERTEX
  5
A0
330
9D
100
AcDbEntity
  8
Layer 1
 62
     7
420
 16777215
370
    18
100
AcDbVertex
100
AcDb2dVertex
 10
-9.875834147135416
 20
6.969170464409721
 30
0.0
  0
VERTEX
  5
A1
330
9D
100
AcDbEntity
  8
Layer 1
 62
     7
420
 16777215
370
    18
100
AcDbVertex
100
AcDb2dVertex
 10
-8.432474772135416
 20
9.469170464409721
 30
0.0
  0
VERTEX
  5
A2
330
9D
100
AcDbEntity
  8
Layer 1
 62
     7
420
 16777215
370
    18
100
AcDbVertex
100
AcDb2dVertex
 10
-5.576924641927083
 20
9.469170464409721
 30
0.0
  0
VERTEX
  5
A3
330
9D
100
AcDbEntity
  8
Layer 1
 62
     7
420
 16777215
370
    18
100
AcDbVertex
100
AcDb2dVertex
 10
-4.133565266927083
 20
6.969170464409721
 30
0.0
  0
VERTEX
  5
A4
330
9D
100
AcDbEntity
  8
Layer 1
 62
     7
420
 16777215
370
    18
100
AcDbVertex
100
AcDb2dVertex
 10
-5.575948079427083
 20
4.470879448784722
 30
0.0
  0
SEQEND
  5
A5
330
9D
100
AcDbEntity
  8
Layer 1
370
    18
  0
POLYLINE
  5
A6
330
1F
100
AcDbEntity
  8
Layer 1
 62
     7
420
 16777215
370
    18
100
AcDb2dPolyline
 66
     1
 10
0.0
 20
0.0
 30
0.0
  0
VERTEX
  5
A7
330
A6
100
AcDbEntity
  8
Layer 1
 62
     7
420
 16777215
370
    18
100
AcDbVertex
100
AcDb2dVertex
 10
-16.22669135199653
 20
6.969170464409721
 30
0.0
  0
VERTEX
  5
A8
330
A6
100
AcDbEntity
  8
Layer 1
 62
     7
420
 16777215
370
    18
100
AcDbVertex
100
AcDb2dVertex
 10
-17.67007785373264
 20
4.469170464409722
 30
0.0
  0
VERTEX
  5
A9
330
A6
100
AcDbEntity
  8
Layer 1
 62
     7
420
 16777215
370
    18
100
AcDbVertex
100
AcDb2dVertex
 10
-20.53948974609375
 20
4.469170464409722
 30
0.0
  0
VERTEX
  5
AA
330
A6
100
AcDbEntity
  8
Layer 1
 62
     7
420
 16777215
370
    18
100
AcDbVertex
100
AcDb2dVertex
 10
-21.98287624782986
 20
6.969170464409721
 30
0.0
  0
VERTEX
  5
AB
330
A6
100
AcDbEntity
  8
Layer 1
 62
     7
420
 16777215
370
    18
100
AcDbVertex
100
AcDb2dVertex
 10
-20.53948974609375
 20
9.469170464409721
 30
0.0
  0
VERTEX
  5
AC
330
A6
100
AcDbEntity
  8
Layer 1
 62
     7
420
 16777215
370
    18
100
AcDbVertex
100
AcDb2dVertex
 10
-17.67007785373264
 20
9.469170464409721
 30
0.0
  0
VERTEX
  5
AD
330
A6
100
AcDbEntity
  8
Layer 1
 62
     7
420
 16777215
370
    18
100
AcDbVertex
100
AcDb2dVertex
 10
-16.22669135199653
 20
6.969170464409721
 30
0.0
  0
SEQEND
  5
AE
330
A6
100
AcDbEntity
  8
Layer 1
370
    18
  0
POLYLINE
  5
AF
330
1F
100
AcDbEntity
  8
Layer 1
 62
     7
420
 16777215
370
    18
100
AcDb2dPolyline
 66
     1
 10
0.0
 20
0.0
 30
0.0
  0
VERTEX
  5
B0
330
AF
100
AcDbEntity
  8
Layer 1
 62
     7
420
 16777215
370
    18
100
AcDbVertex
100
AcDb2dVertex
 10
-26.60228814019097
 20
-1.030829535590278
 30
0.0
  0
VERTEX
  5
B1
330
AF
100
AcDbEntity
  8
Layer 1
 62
     7
420
 16777215
370
    18
100
AcDbVertex
100
AcDb2dVertex
 10
-23.71725124782986
 20
-1.030829535590278
 30
0.0
  0
VERTEX
  5
B2
330
AF
100
AcDbEntity
  8
Layer 1
 62
     7
420
 16777215
370
    18
100
AcDbVertex
100
AcDb2dVertex
 10
-22.27389187282986
 20
-3.530829535590278
 30
0.0
  0
VERTEX
  5
B3
330
AF
100
AcDbEntity
  8
Layer 1
 62
     7
420
 16777215
370
    18
100
AcDbVertex
100
AcDb2dVertex
 10
-23.71725124782986
 20
-6.030829535590278
 30
0.0
  0
VERTEX
  5
B4
330
AF
100
AcDbEntity
  8
Layer 1
 62
     7
420
 16777215
370
    18
100
AcDbVertex
100
AcDb2dVertex
 10
-26.60228814019097
 20
-6.030829535590278
 30
0.0
  0
VERTEX
  5
B5
330
AF
100
AcDbEntity
  8
Layer 1
 62
     7
420
 16777215
370
    18
100
AcDbVertex
100
AcDb2dVertex
 10
-28.04567464192708
 20
-3.530829535590278
 30
0.0
  0
VERTEX
  5
B6
330
AF
100
AcDbEntity
  8
Layer 1
 62
     7
420
 16777215
370
    18
100
AcDbVertex
100
AcDb2dVertex
 10
-26.60228814019097
 20
-1.030829535590278
 30
0.0
  0
SEQEND
  5
B7
330
AF
100
AcDbEntity
  8
Layer 1
370
    18
  0
POLYLINE
  5
B8
330
1F
100
AcDbEntity
  8
Layer 1
 62
     7
420
 16777215
370
    18
100
AcDb2dPolyline
 66
     1
 10
0.0
 20
0.0
 30
0.0
  0
VERTEX
  5
B9
330
B8
100
AcDbEntity
  8
Layer 1
 62
     7
420
 16777215
370
    18
100
AcDbVertex
100
AcDb2dVertex
 10
-20.53948974609375
 20
-11.53082953559028
 30
0.0
  0
VERTEX
  5
BA
330
B8
100
AcDbEntity
  8
Layer 1
 62
     7
420
 16777215
370
    18
100
AcDbVertex
100
AcDb2dVertex
 10
-17.67007785373264
 20
-11.53082953559028
 30
0.0
  0
VERTEX
  5
BB
330
B8
100
AcDbEntity
  8
Layer 1
 62
     7
420
 16777215
370
    18
100
AcDbVertex
100
AcDb2dVertex
 10
-16.22669135199653
 20
-14.03082953559028
 30
0.0
  0
VERTEX
  5
BC
330
B8
100
AcDbEntity
  8
Layer 1
 62
     7
420
 16777215
370
    18
100
AcDbVertex
100
AcDb2dVertex
 10
-17.67007785373264
 20
-16.53082953559028
 30
0.0
  0
VERTEX
  5
BD
330
B8
100
AcDbEntity
  8
Layer 1
 62
     7
420
 16777215
370
    18
100
AcDbVertex
100
AcDb2dVertex
 10
-20.53490532769097
 20
-16.53082953559028
 30
0.0
  0
VERTEX
  5
BE
330
B8
100
AcDbEntity
  8
Layer 1
 62
     7
420
 16777215
370
    18
100
AcDbVertex
100
AcDb2dVertex
 10
-21.98057047526041
 20
-14.02684190538194
 30
0.0
  0
VERTEX
  5
BF
330
B8
100
AcDbEntity
  8
Layer 1
 62
     7
420
 16777215
370
    18
100
AcDbVertex
100
AcDb2dVertex
 10
-20.53948974609375
 20
-11.53082953559028
 30
0.0
  0
SEQEND
  5
C0
330
B8
100
AcDbEntity
  8
Layer 1
370
    18
  0
POLYLINE
  5
C1
330
1F
100
AcDbEntity
  8
Layer 1
 62
     7
420
 16777215
370
    18
100
AcDb2dPolyline
 66
     1
 10
0.0
 20
0.0
 30
0.0
  0
VERTEX
  5
C2
330
C1
100
AcDbEntity
  8
Layer 1
 62
     7
420
 16777215
370
    18
100
AcDbVertex
100
AcDb2dVertex
 10
-8.430901421440971
 20
-16.53354220920139
 30
0.0
  0
VERTEX
  5
C3
330
C1
100
AcDbEntity
  8
Layer 1
 62
     7
420
 16777215
370
    18
100
AcDbVertex
100
AcDb2dVertex
 10
-9.875834147135416
 20
-14.03082953559028
 30
0.0
  0
VERTEX
  5
C4
330
C1
100
AcDbEntity
  8
Layer 1
 62
     7
420
 16777215
370
    18
100
AcDbVertex
100
AcDb2dVertex
 10
-8.432474772135416
 20
-11.53082953559028
 30
0.0
  0
VERTEX
  5
C5
330
C1
100
AcDbEntity
  8
Layer 1
 62
     7
420
 16777215
370
    18
100
AcDbVertex
100
AcDb2dVertex
 10
-5.576924641927083
 20
-11.53082953559028
 30
0.0
  0
VERTEX
  5
C6
330
C1
100
AcDbEntity
  8
Layer 1
 62
     7
420
 16777215
370
    18
100
AcDbVertex
100
AcDb2dVertex
 10
-4.126946343315972
 20
-14.04227701822917
 30
0.0
  0
VERTEX
  5
C7
330
C1
100
AcDbEntity
  8
Layer 1
 62
     7
420
 16777215
370
    18
100
AcDbVertex
100
AcDb2dVertex
 10
-5.576924641927083
 20
-16.53354220920139
 30
0.0
  0
VERTEX
  5
C8
330
C1
100
AcDbEntity
  8
Layer 1
 62
     7
420
 16777215
370
    18
100
AcDbVertex
100
AcDb2dVertex
 10
-8.430901421440971
 20
-16.53354220920139
 30
0.0
  0
SEQEND
  5
C9
330
C1
100
AcDbEntity
  8
Layer 1
370
    18
  0
HATCH
  5
CA
330
1F
100
AcDbEntity
  8
Layer 1
 62
   253
420
 11184810
100
AcDbHatch
 10
0.0
 20
0.0
 30
0.0
210
0.0
220
0.0
230
1.0
  2
SOLID
 70
     1
 71
     0
 91
       13
 92
        1
 93
       31
 72
     1
 10
4.235575358072916
 20
-3.526923285590278
 11
2.217210557725694
 21
-0.0309922960069446
 72
     1
 10
2.217210557725694
 20
-0.0309922960069444
 11
4.238016764322916
 21
3.469170464409722
 72
     1
 10
4.238016764322916
 20
3.469170464409722
 11
1.63995361328125
 21
7.969170464409721
 72
     1
 10
1.63995361328125
 20
7.969170464409721
 11
-2.369974772135416
 21
7.969170464409721
 72
     1
 10
-2.369974772135417
 20
7.969170464409721
 11
-4.390699598524305
 21
11.46917046440972
 72
     1
 10
-4.390699598524305
 20
11.46917046440972
 11
-4.407436794704861
 21
11.46917046440972
 72
     1
 10
-4.407436794704861
 20
11.46917046440972
 11
-8.432474772135416
 21
11.46917046440972
 72
     1
 10
-8.432474772135416
 20
11.46917046440972
 11
-10.45319959852431
 21
14.96917046440972
 72
     1
 10
-10.45319959852431
 20
14.96917046440972
 11
-15.64935302734375
 21
14.96917046440972
 72
     1
 10
-15.64935302734375
 20
14.96917046440972
 11
-17.67007785373264
 21
11.46917046440972
 72
     1
 10
-17.67007785373264
 20
11.46917046440972
 11
-21.71063232421875
 21
11.46917046440972
 72
     1
 10
-21.71063232421875
 20
11.46917046440972
 11
-23.73135715060764
 21
7.969170464409721
 72
     1
 10
-23.73135715060764
 20
7.969170464409721
 11
-27.75639512803819
 21
7.969170464409721
 72
     1
 10
-27.75639512803819
 20
7.969170464409721
 11
-30.35445827907986
 21
3.469170464409721
 72
     1
 10
-30.35445827907986
 20
3.469170464409722
 11
-28.33416748046875
 21
-0.0300971137152777
 72
     1
 10
-28.33416748046875
 20
-0.0300971137152778
 11
-30.3552992078993
 21
-3.530829535590278
 72
     1
 10
-30.3552992078993
 20
-3.530829535590278
 11
-28.33416748046875
 21
-7.031561957465278
 72
     1
 10
-28.33416748046875
 20
-7.031561957465278
 11
-30.35445827907986
 21
-10.53082953559028
 72
     1
 10
-30.35445827907986
 20
-10.53082953559028
 11
-27.75639512803819
 21
-15.03082953559028
 72
     1
 10
-27.75639512803819
 20
-15.03082953559028
 11
-23.72848171657986
 21
-15.03082953559028
 72
     1
 10
-23.72848171657986
 20
-15.03082953559028
 11
-21.71866183810764
 21
-18.51192220052083
 72
     1
 10
-21.71866183810764
 20
-18.51192220052083
 11
-17.6809828016493
 21
-18.51192220052083
 72
     1
 10
-17.6809828016493
 20
-18.51192220052083
 11
-15.64935302734375
 21
-22.03082953559028
 72
     1
 10
-15.64935302734375
 20
-22.03082953559028
 11
-10.45319959852431
 21
-22.03082953559028
 72
     1
 10
-10.45319959852431
 20
-22.03082953559028
 11
-8.433369954427082
 21
-18.53237575954861
 72
     1
 10
-8.433369954427082
 20
-18.53237575954861
 11
-4.396450466579861
 21
-18.53237575954861
 72
     1
 10
-4.396450466579861
 20
-18.53237575954861
 11
-2.374830457899305
 21
-15.03082953559028
 72
     1
 10
-2.374830457899305
 20
-15.03082953559028
 11
1.63995361328125
 21
-15.03082953559028
 72
     1
 10
1.63995361328125
 20
-15.03082953559028
 11
4.238016764322916
 21
-10.53082953559028
 72
     1
 10
4.238016764322916
 20
-10.53082953559028
 11
2.214931911892361
 21
-7.026760525173611
 72
     1
 10
2.214931911892361
 20
-7.026760525173611
 11
4.235575358072916
 21
-3.526923285590278
 97
        0
 92
        1
 93
        6
 72
     1
 10
-14.49087863498264
 20
-13.03082953559028
 11
-15.92864990234375
 21
-10.54054090711806
 72
     1
 10
-15.92864990234375
 20
-10.54054090711806
 11
-14.47964816623264
 21
-8.030829535590277
 72
     1
 10
-14.47964816623264
 20
-8.030829535590277
 11
-11.61142985026042
 21
-8.030829535590277
 72
     1
 10
-11.61142985026042
 20
-8.030829535590277
 11
-10.16855875651042
 21
-10.52996148003472
 72
     1
 10
-10.16855875651042
 20
-10.52996148003472
 11
-11.61243353949653
 21
-13.03082953559028
 72
     1
 10
-11.61243353949653
 20
-13.03082953559028
 11
-14.49087863498264
 21
-13.03082953559028
 97
        0
 92
        1
 93
        6
 72
     1
 10
-21.98331027560764
 20
-7.030097113715278
 11
-20.5403578016493
 21
-4.530829535590278
 72
     1
 10
-20.5403578016493
 20
-4.530829535590278
 11
-17.67007785373264
 21
-4.530829535590278
 72
     1
 10
-17.67007785373264
 20
-4.530829535590278
 11
-16.22669135199653
 21
-7.030829535590278
 72
     1
 10
-16.22669135199653
 20
-7.030829535590278
 11
-17.65917290581597
 21
-9.511922200520832
 72
     1
 10
-17.65917290581597
 20
-9.511922200520832
 11
-20.55039469401041
 21
-9.511922200520832
 72
     1
 10
-20.55039469401041
 20
-9.511922200520832
 11
-21.98331027560764
 21
-7.030097113715278
 97
        0
 92
        1
 93
        6
 72
     1
 10
-20.53948974609375
 20
2.469170464409722
 11
-17.67007785373264
 21
2.469170464409722
 72
     1
 10
-17.67007785373264
 20
2.469170464409722
 11
-16.22669135199653
 21
-0.0308295355902777
 72
     1
 10
-16.22669135199653
 20
-0.0308295355902778
 11
-17.67007785373264
 21
-2.530829535590278
 72
     1
 10
-17.67007785373264
 20
-2.530829535590278
 11
-20.5403578016493
 21
-2.530829535590278
 72
     1
 10
-20.5403578016493
 20
-2.530829535590278
 11
-21.98331027560764
 21
-0.0315619574652777
 72
     1
 10
-21.98331027560764
 20
-0.0315619574652778
 11
-20.53948974609375
 21
2.469170464409722
 97
        0
 92
        1
 93
        6
 72
     1
 10
-4.135898166232638
 20
-0.0267605251736111
 11
-5.576924641927083
 21
-2.530829535590278
 72
     1
 10
-5.576924641927083
 20
-2.530829535590278
 11
-8.432474772135416
 21
-2.530829535590278
 72
     1
 10
-8.432474772135416
 20
-2.530829535590278
 11
-9.875834147135416
 21
-0.0308295355902777
 72
     1
 10
-9.875834147135416
 20
-0.0308295355902778
 11
-8.432474772135416
 21
2.469170464409722
 72
     1
 10
-8.432474772135416
 20
2.469170464409722
 11
-5.576924641927083
 21
2.469170464409722
 72
     1
 10
-5.576924641927083
 20
2.469170464409722
 11
-4.135898166232638
 21
-0.0267605251736112
 97
        0
 92
        1
 93
        6
 72
     1
 10
-5.576924641927083
 20
-9.53237575954861
 11
-8.43157958984375
 21
-9.53237575954861
 72
     1
 10
-8.43157958984375
 20
-9.53237575954861
 11
-9.875834147135416
 21
-7.030829535590278
 72
     1
 10
-9.875834147135416
 20
-7.030829535590278
 11
-8.431471082899305
 21
-4.529120551215278
 72
     1
 10
-8.431471082899305
 20
-4.529120551215278
 11
-5.576924641927083
 21
-4.529120551215278
 72
     1
 10
-5.576924641927083
 20
-4.529120551215278
 11
-4.133646647135416
 21
-7.030992296006944
 72
     1
 10
-4.133646647135416
 20
-7.030992296006944
 11
-5.576924641927083
 21
-9.53237575954861
 97
        0
 92
        1
 93
        6
 72
     1
 10
-11.60757785373264
 20
5.969170464409722
 11
-10.16467963324653
 21
3.470024956597222
 72
     1
 10
-10.16467963324653
 20
3.470024956597222
 11
-11.60855441623264
 21
0.9691704644097223
 72
     1
 10
-11.60855441623264
 20
0.9691704644097222
 11
-14.47964816623264
 21
0.9691704644097222
 72
     1
 10
-14.47964816623264
 20
0.9691704644097222
 11
-15.93008761935764
 21
3.481377495659722
 72
     1
 10
-15.93008761935764
 20
3.481377495659722
 11
-14.49375406901042
 21
5.969170464409722
 72
     1
 10
-14.49375406901042
 20
5.969170464409722
 11
-11.60757785373264
 21
5.969170464409722
 97
        0
 92
        1
 93
        6
 72
     1
 10
0.4826727973090277
 20
-6.030829535590278
 11
-2.373826768663194
 21
-6.030829535590278
 72
     1
 10
-2.373826768663194
 20
-6.030829535590278
 11
-3.815748426649305
 21
-3.5333251953125
 72
     1
 10
-3.815748426649305
 20
-3.5333251953125
 11
-2.370951334635417
 21
-1.030829535590278
 72
     1
 10
-2.370951334635417
 20
-1.030829535590278
 11
0.4826727973090277
 21
-1.030829535590278
 72
     1
 10
0.4826727973090277
 20
-1.030829535590278
 11
1.926032172309028
 21
-3.530829535590278
 72
     1
 10
1.926032172309028
 20
-3.530829535590278
 11
0.4826727973090277
 21
-6.030829535590278
 97
        0
 92
        1
 93
        6
 72
     1
 10
-5.575948079427083
 20
4.470879448784722
 11
-8.433451334635416
 21
4.470879448784722
 72
     1
 10
-8.433451334635416
 20
4.470879448784722
 11
-9.875834147135416
 21
6.969170464409721
 72
     1
 10
-9.875834147135416
 20
6.969170464409721
 11
-8.432474772135416
 21
9.469170464409721
 72
     1
 10
-8.432474772135416
 20
9.469170464409721
 11
-5.576924641927083
 21
9.469170464409721
 72
     1
 10
-5.576924641927083
 20
9.469170464409721
 11
-4.133565266927083
 21
6.969170464409721
 72
     1
 10
-4.133565266927083
 20
6.969170464409721
 11
-5.575948079427083
 21
4.470879448784722
 97
        0
 92
        1
 93
        6
 72
     1
 10
-16.22669135199653
 20
6.969170464409721
 11
-17.67007785373264
 21
4.469170464409722
 72
     1
 10
-17.67007785373264
 20
4.469170464409722
 11
-20.53948974609375
 21
4.469170464409722
 72
     1
 10
-20.53948974609375
 20
4.469170464409722
 11
-21.98287624782986
 21
6.969170464409721
 72
     1
 10
-21.98287624782986
 20
6.969170464409721
 11
-20.53948974609375
 21
9.469170464409721
 72
     1
 10
-20.53948974609375
 20
9.469170464409721
 11
-17.67007785373264
 21
9.469170464409721
 72
     1
 10
-17.67007785373264
 20
9.469170464409721
 11
-16.22669135199653
 21
6.969170464409721
 97
        0
 92
        1
 93
        6
 72
     1
 10
-26.60228814019097
 20
-1.030829535590278
 11
-23.71725124782986
 21
-1.030829535590278
 72
     1
 10
-23.71725124782986
 20
-1.030829535590278
 11
-22.27389187282986
 21
-3.530829535590278
 72
     1
 10
-22.27389187282986
 20
-3.530829535590278
 11
-23.71725124782986
 21
-6.030829535590278
 72
     1
 10
-23.71725124782986
 20
-6.030829535590278
 11
-26.60228814019097
 21
-6.030829535590278
 72
     1
 10
-26.60228814019097
 20
-6.030829535590278
 11
-28.04567464192708
 21
-3.530829535590278
 72
     1
 10
-28.04567464192708
 20
-3.530829535590278
 11
-26.60228814019097
 21
-1.030829535590278
 97
        0
 92
        1
 93
        6
 72
     1
 10
-20.53948974609375
 20
-11.53082953559028
 11
-17.67007785373264
 21
-11.53082953559028
 72
     1
 10
-17.67007785373264
 20
-11.53082953559028
 11
-16.22669135199653
 21
-14.03082953559028
 72
     1
 10
-16.22669135199653
 20
-14.03082953559028
 11
-17.67007785373264
 21
-16.53082953559028
 72
     1
 10
-17.67007785373264
 20
-16.53082953559028
 11
-20.53490532769097
 21
-16.53082953559028
 72
     1
 10
-20.53490532769097
 20
-16.53082953559028
 11
-21.98057047526041
 21
-14.02684190538194
 72
     1
 10
-21.98057047526041
 20
-14.02684190538194
 11
-20.53948974609375
 21
-11.53082953559028
 97
        0
 92
        1
 93
        6
 72
     1
 10
-8.430901421440971
 20
-16.53354220920139
 11
-9.875834147135416
 21
-14.03082953559028
 72
     1
 10
-9.875834147135416
 20
-14.03082953559028
 11
-8.432474772135416
 21
-11.53082953559028
 72
     1
 10
-8.432474772135416
 20
-11.53082953559028
 11
-5.576924641927083
 21
-11.53082953559028
 72
     1
 10
-5.576924641927083
 20
-11.53082953559028
 11
-4.126946343315972
 21
-14.04227701822917
 72
     1
 10
-4.126946343315972
 20
-14.04227701822917
 11
-5.576924641927083
 21
-16.53354220920139
 72
     1
 10
-5.576924641927083
 20
-16.53354220920139
 11
-8.430901421440971
 21
-16.53354220920139
 97
        0
 75
     2
 76
     1
 98
        0
  0
ENDSEC
  0
SECTION
  2
OBJECTS
  0
DICTIONARY
  5
C
330
0
100
AcDbDictionary
281
     1
  3
ACAD_GROUP
350
D
  3
ACAD_LAYOUT
350
1A
  3
ACAD_MLINESTYLE
350
17
  3
ACAD_PLOTSETTINGS
350
19
  3
ACAD_PLOTSTYLENAME
350
E
  3
ACAD_TABLESTYLE
350
CB
  3
ACAD_VISUALSTYLE
350
2A
  0
DICTIONARY
  5
D
102
{ACAD_REACTORS
330
C
102
}
330
C
100
AcDbDictionary
281
     1
  0
DICTIONARY
  5
1A
102
{ACAD_REACTORS
330
C
102
}
330
C
100
AcDbDictionary
281
     1
  3
Layout1
350
1E
  3
Layout2
350
26
  3
Model
350
22
  0
DICTIONARY
  5
17
102
{ACAD_REACTORS
330
C
102
}
330
C
100
AcDbDictionary
281
     1
  3
Standard
350
18
  0
DICTIONARY
  5
19
102
{ACAD_REACTORS
330
C
102
}
330
C
100
AcDbDictionary
281
     1
  0
ACDBDICTIONARYWDFLT
  5
E
102
{ACAD_REACTORS
330
C
102
}
330
C
100
AcDbDictionary
281
     1
  3
Normal
350
F
100
AcDbDictionaryWithDefault
340
F
  0
DICTIONARY
  5
CB
102
{ACAD_REACTORS
330
C
102
}
330
C
100
AcDbDictionary
281
     1
  0
DICTIONARY
  5
2A
102
{ACAD_REACTORS
330
C
102
}
330
C
100
AcDbDictionary
281
     1
  3
2dWireframe
350
2F
  3
3D Hidden
350
31
  3
3dWireframe
350
30
  3
Basic
350
32
  3
Brighten
350
36
  3
ColorChange
350
3A
  3
Conceptual
350
34
  3
Dim
350
35
  3
Facepattern
350
39
  3
Flat
350
2B
  3
FlatWithEdges
350
2C
  3
Gouraud
350
2D
  3
GouraudWithEdges
350
2E
  3
Linepattern
350
38
  3
Realistic
350
33
  3
Thicken
350
37
  0
LAYOUT
  5
1E
102
{ACAD_REACTORS
330
1A
102
}
330
1A
100
AcDbPlotSettings
  1

  2
none_device
  4

  6

 40
0.0
 41
0.0
 42
0.0
 43
0.0
 44
0.0
 45
0.0
 46
0.0
 47
0.0
 48
0.0
 49
0.0
140
0.0
141
0.0
142
1.0
143
1.0
 70
   688
 72
     0
 73
     0
 74
     5
  7

 75
    16
 76
     0
 77
     2
 78
   300
147
1.0
148
0.0
149
0.0
100
AcDbLayout
  1
Layout1
 70
     1
 71
     1
 10
0.0
 20
0.0
 11
12.0
 21
9.0
 12
0.0
 22
0.0
 32
0.0
 14
1.000000000000000E+20
 24
1.000000000000000E+20
 34
1.000000000000000E+20
 15
-1.000000000000000E+20
 25
-1.000000000000000E+20
 35
-1.000000000000000E+20
146
0.0
 13
0.0
 23
0.0
 33
0.0
 16
1.0
 26
0.0
 36
0.0
 17
0.0
 27
1.0
 37
0.0
 76
     0
330
1B
  0
LAYOUT
  5
26
102
{ACAD_REACTORS
330
1A
102
}
330
1A
100
AcDbPlotSettings
  1

  2
none_device
  4

  6

 40
0.0
 41
0.0
 42
0.0
 43
0.0
 44
0.0
 45
0.0
 46
0.0
 47
0.0
 48
0.0
 49
0.0
140
0.0
141
0.0
142
1.0
143
1.0
 70
   688
 72
     0
 73
     0
 74
     5
  7

 75
    16
 76
     0
 77
     2
 78
   300
147
1.0
148
0.0
149
0.0
100
AcDbLayout
  1
Layout2
 70
     1
 71
     2
 10
0.0
 20
0.0
 11
0.0
 21
0.0
 12
0.0
 22
0.0
 32
0.0
 14
0.0
 24
0.0
 34
0.0
 15
0.0
 25
0.0
 35
0.0
146
0.0
 13
0.0
 23
0.0
 33
0.0
 16
1.0
 26
0.0
 36
0.0
 17
0.0
 27
1.0
 37
0.0
 76
     0
330
23
  0
LAYOUT
  5
22
102
{ACAD_REACTORS
330
1A
102
}
330
1A
100
AcDbPlotSettings
  1

  2
none_device
  4

  6

 40
0.0
 41
0.0
 42
0.0
 43
0.0
 44
0.0
 45
0.0
 46
0.0
 47
0.0
 48
0.0
 49
0.0
140
0.0
141
0.0
142
1.0
143
1.0
 70
  1712
 72
     0
 73
     0
 74
     0
  7

 75
     0
 76
     0
 77
     2
 78
   300
147
1.0
148
0.0
149
0.0
100
AcDbLayout
  1
Model
 70
     1
 71
     0
 10
0.0
 20
0.0
 11
12.0
 21
9.0
 12
0.0
 22
0.0
 32
0.0
 14
1.000000000000000E+20
 24
1.000000000000000E+20
 34
1.000000000000000E+20
 15
-1.000000000000000E+20
 25
-1.000000000000000E+20
 35
-1.000000000000000E+20
146
0.0
 13
0.0
 23
0.0
 33
0.0
 16
1.0
 26
0.0
 36
0.0
 17
0.0
 27
1.0
 37
0.0
 76
     0
330
1F
331
29
  0
MLINESTYLE
  5
18
102
{ACAD_REACTORS
330
17
102
}
330
17
100
AcDbMlineStyle
  2
Standard
 70
     0
  3

 62
   256
 51
90.0
 52
90.0
 71
     2
 49
0.5
 62
   256
  6
BYLAYER
 49
-0.5
 62
   256
  6
BYLAYER
  0
ACDBPLACEHOLDER
  5
F
102
{ACAD_REACTORS
330
E
102
}
330
E
  0
VISUALSTYLE
  5
2F
102
{ACAD_REACTORS
330
2A
102
}
330
2A
100
AcDbVisualStyle
  2
2dWireframe
 70
     4
 71
     0
 72
     2
 73
     0
 90
        0
 40
-0.6
 41
-30.0
 62
     5
 63
     7
421
 16777215
 74
     1
 91
        4
 64
     7
 65
   257
 75
     1
175
     1
 42
1.0
 92
        0
 66
   257
 43
1.0
 76
     1
 77
     6
 78
     2
 67
     7
 79
     5
170
     0
171
     0
290
     0
174
     0
 93
        1
 44
0.0
173
     0
291
     0
 45
0.0
1001
ACAD
1000
AcDbSavedByObjectVersion
1070
     0
  0
VISUALSTYLE
  5
31
102
{ACAD_REACTORS
330
2A
102
}
330
2A
100
AcDbVisualStyle
  2
3D Hidden
 70
     6
 71
     1
 72
     2
 73
     2
 90
        0
 40
-0.6
 41
-30.0
 62
     5
 63
     7
421
 16777215
 74
     2
 91
        2
 64
     7
 65
   257
 75
     2
175
     1
 42
40.0
 92
        0
 66
   257
 43
1.0
 76
     1
 77
     6
 78
     2
 67
     7
 79
     3
170
     0
171
     0
290
     0
174
     0
 93
        1
 44
0.0
173
     0
291
     0
 45
0.0
1001
ACAD
1000
AcDbSavedByObjectVersion
1070
     0
  0
VISUALSTYLE
  5
30
102
{ACAD_REACTORS
330
2A
102
}
330
2A
100
AcDbVisualStyle
  2
3dWireframe
 70
     5
 71
     0
 72
     2
 73
     0
 90
        0
 40
-0.6
 41
-30.0
 62
     5
 63
     7
421
 16777215
 74
     1
 91
        4
 64
     7
 65
   257
 75
     1
175
     1
 42
1.0
 92
        0
 66
   257
 43
1.0
 76
     1
 77
     6
 78
     2
 67
     7
 79
     5
170
     0
171
     0
290
     0
174
     0
 93
        1
 44
0.0
173
     0
291
     0
 45
0.0
1001
ACAD
1000
AcDbSavedByObjectVersion
1070
     0
  0
VISUALSTYLE
  5
32
102
{ACAD_REACTORS
330
2A
102
}
330
2A
100
AcDbVisualStyle
  2
Basic
 70
     7
 71
     1
 72
     0
 73
     1
 90
        0
 40
-0.6
 41
-30.0
 62
     5
 63
     7
421
 16777215
 74
     0
 91
        4
 64
     7
 65
   257
 75
     1
175
     1
 42
1.0
 92
        8
 66
     7
 43
1.0
 76
     1
 77
     6
 78
     2
 67
     7
 79
     5
170
     0
171
     0
290
     0
174
     0
 93
        1
 44
0.0
173
     0
291
     1
 45
0.0
1001
ACAD
1000
AcDbSavedByObjectVersion
1070
     0
  0
VISUALSTYLE
  5
36
102
{ACAD_REACTORS
330
2A
102
}
330
2A
100
AcDbVisualStyle
  2
Brighten
 70
    12
 71
     2
 72
     2
 73
     0
 90
        0
 40
-0.6
 41
-30.0
 62
     5
 63
     7
421
 16777215
 74
     1
 91
        4
 64
     7
 65
   257
 75
     1
175
     1
 42
1.0
 92
        8
 66
     7
 43
1.0
 76
     1
 77
     6
 78
     2
 67
     7
 79
     5
170
     0
171
     0
290
     0
174
     0
 93
        1
 44
50.0
173
     0
291
     1
 45
0.0
1001
ACAD
1000
AcDbSavedByObjectVersion
1070
     0
  0
VISUALSTYLE
  5
3A
102
{ACAD_REACTORS
330
2A
102
}
330
2A
100
AcDbVisualStyle
  2
ColorChange
 70
    16
 71
     2
 72
     2
 73
     3
 90
        0
 40
-0.6
 41
-30.0
 62
     5
 63
     8
421
  8421504
 74
     1
 91
        4
 64
     7
 65
   257
 75
     1
175
     1
 42
1.0
 92
        8
 66
     8
424
  8421504
 43
1.0
 76
     1
 77
     6
 78
     2
 67
     7
 79
     5
170
     0
171
     0
290
     0
174
     0
 93
        1
 44
0.0
173
     0
291
     1
 45
0.0
1001
ACAD
1000
AcDbSavedByObjectVersion
1070
     0
  0
VISUALSTYLE
  5
34
102
{ACAD_REACTORS
330
2A
102
}
330
2A
100
AcDbVisualStyle
  2
Conceptual
 70
     9
 71
     3
 72
     2
 73
     0
 90
        0
 40
-0.6
 41
-30.0
 62
     5
 63
     7
421
 16777215
 74
     2
 91
        2
 64
     7
 65
   257
 75
     1
175
     1
 42
40.0
 92
        8
 66
     7
 43
1.0
 76
     1
 77
     6
 78
     2
 67
     7
 79
     3
170
     0
171
     0
290
     0
174
     0
 93
        1
 44
0.0
173
     0
291
     0
 45
0.0
1001
ACAD
1000
AcDbSavedByObjectVersion
1070
     0
  0
VISUALSTYLE
  5
35
102
{ACAD_REACTORS
330
2A
102
}
330
2A
100
AcDbVisualStyle
  2
Dim
 70
    11
 71
     2
 72
     2
 73
     0
 90
        0
 40
-0.6
 41
-30.0
 62
     5
 63
     7
421
 16777215
 74
     1
 91
        4
 64
     7
 65
   257
 75
     1
175
     1
 42
1.0
 92
        8
 66
     7
 43
1.0
 76
     1
 77
     6
 78
     2
 67
     7
 79
     5
170
     0
171
     0
290
     0
174
     0
 93
        1
 44
-50.0
173
     0
291
     1
 45
0.0
1001
ACAD
1000
AcDbSavedByObjectVersion
1070
     0
  0
VISUALSTYLE
  5
39
102
{ACAD_REACTORS
330
2A
102
}
330
2A
100
AcDbVisualStyle
  2
Facepattern
 70
    15
 71
     2
 72
     2
 73
     0
 90
        0
 40
-0.6
 41
-30.0
 62
     5
 63
     7
421
 16777215
 74
     1
 91
        4
 64
     7
 65
   257
 75
     1
175
     1
 42
1.0
 92
        8
 66
     7
 43
1.0
 76
     1
 77
     6
 78
     2
 67
     7
 79
     5
170
     0
171
     0
290
     0
174
     0
 93
        1
 44
0.0
173
     0
291
     1
 45
0.0
1001
ACAD
1000
AcDbSavedByObjectVersion
1070
     0
  0
VISUALSTYLE
  5
2B
102
{ACAD_REACTORS
330
2A
102
}
330
2A
100
AcDbVisualStyle
  2
Flat
 70
     0
 71
     2
 72
     1
 73
     1
 90
        2
 40
-0.6
 41
30.0
 62
     5
 63
     7
421
 16777215
 74
     0
 91
        4
 64
     7
 65
   257
 75
     1
175
     1
 42
1.0
 92
        8
 66
     7
 43
1.0
 76
     1
 77
     6
 78
     2
 67
     7
 79
     5
170
     0
171
     0
290
     0
174
     0
 93
       13
 44
0.0
173
     0
291
     1
 45
0.0
1001
ACAD
1000
AcDbSavedByObjectVersion
1070
     0
  0
VISUALSTYLE
  5
2C
102
{ACAD_REACTORS
330
2A
102
}
330
2A
100
AcDbVisualStyle
  2
FlatWithEdges
 70
     1
 71
     2
 72
     1
 73
     1
 90
        2
 40
-0.6
 41
30.0
 62
     5
 63
     7
421
 16777215
 74
     1
 91
        4
 64
     7
 65
   257
 75
     1
175
     1
 42
1.0
 92
        0
 66
   257
 43
1.0
 76
     1
 77
     6
 78
     2
 67
     7
 79
     5
170
     0
171
     0
290
     0
174
     0
 93
       13
 44
0.0
173
     0
291
     1
 45
0.0
1001
ACAD
1000
AcDbSavedByObjectVersion
1070
     0
  0
VISUALSTYLE
  5
2D
102
{ACAD_REACTORS
330
2A
102
}
330
2A
100
AcDbVisualStyle
  2
Gouraud
 70
     2
 71
     2
 72
     2
 73
     1
 90
        2
 40
-0.6
 41
30.0
 62
     5
 63
     7
421
 16777215
 74
     0
 91
        4
 64
     7
 65
   257
 75
     1
175
     1
 42
1.0
 92
        0
 66
     7
 43
1.0
 76
     1
 77
     6
 78
     2
 67
     7
 79
     5
170
     0
171
     0
290
     0
174
     0
 93
       13
 44
0.0
173
     0
291
     1
 45
0.0
1001
ACAD
1000
AcDbSavedByObjectVersion
1070
     0
  0
VISUALSTYLE
  5
2E
102
{ACAD_REACTORS
330
2A
102
}
330
2A
100
AcDbVisualStyle
  2
GouraudWithEdges
 70
     3
 71
     2
 72
     2
 73
     1
 90
        2
 40
-0.6
 41
30.0
 62
     5
 63
     7
421
 16777215
 74
     1
 91
        4
 64
     7
 65
   257
 75
     1
175
     1
 42
1.0
 92
        0
 66
   257
 43
1.0
 76
     1
 77
     6
 78
     2
 67
     7
 79
     5
170
     0
171
     0
290
     0
174
     0
 93
       13
 44
0.0
173
     0
291
     1
 45
0.0
1001
ACAD
1000
AcDbSavedByObjectVersion
1070
     0
  0
VISUALSTYLE
  5
38
102
{ACAD_REACTORS
330
2A
102
}
330
2A
100
AcDbVisualStyle
  2
Linepattern
 70
    14
 71
     2
 72
     2
 73
     0
 90
        0
 40
-0.6
 41
-30.0
 62
     5
 63
     7
421
 16777215
 74
     1
 91
        4
 64
     7
 65
   257
 75
     7
175
     7
 42
1.0
 92
        8
 66
     7
 43
1.0
 76
     1
 77
     6
 78
     2
 67
     7
 79
     5
170
     0
171
     0
290
     0
174
     0
 93
        1
 44
0.0
173
     0
291
     1
 45
0.0
1001
ACAD
1000
AcDbSavedByObjectVersion
1070
     0
  0
VISUALSTYLE
  5
33
102
{ACAD_REACTORS
330
2A
102
}
330
2A
100
AcDbVisualStyle
  2
Realistic
 70
     8
 71
     2
 72
     2
 73
     0
 90
        0
 40
-0.6
 41
-30.0
 62
     5
 63
     7
421
 16777215
 74
     1
 91
        0
 64
     7
 65
   257
 75
     1
175
     1
 42
1.0
 92
        8
 66
     8
424
  7895160
 43
1.0
 76
     1
 77
     6
 78
     2
 67
     7
 79
     5
170
     0
171
     0
290
     0
174
     0
 93
       13
 44
0.0
173
     0
291
     0
 45
0.0
1001
ACAD
1000
AcDbSavedByObjectVersion
1070
     0
  0
VISUALSTYLE
  5
37
102
{ACAD_REACTORS
330
2A
102
}
330
2A
100
AcDbVisualStyle
  2
Thicken
 70
    13
 71
     2
 72
     2
 73
     0
 90
        0
 40
-0.6
 41
-30.0
 62
     5
 63
     7
421
 16777215
 74
     1
 91
        4
 64
     7
 65
   257
 75
     1
175
     1
 42
1.0
 92
       12
 66
     7
 43
1.0
 76
     1
 77
     6
 78
     2
 67
     7
 79
     5
170
     0
171
     0
290
     0
174
     0
 93
        1
 44
0.0
173
     0
291
     1
 45
0.0
1001
ACAD
1000
AcDbSavedByObjectVersion
1070
     0
  0
ENDSEC
  0
EOF
