solid deltaParts4
facet normal -0.608761429008699 -0.793353340291252 -0.0
outer loop
vertex 138.417397890459 -325.889851945083 42.0
vertex 138.003184328086 -325.572014699888 2.25597318603832e-14
vertex 138.417397890459 -325.889851945083 2.25597318603832e-14
endloop
endfacet
facet normal -0.608761429008699 -0.793353340291252 -0.0
outer loop
vertex 138.003184328086 -325.572014699888 2.25597318603832e-14
vertex 138.417397890459 -325.889851945083 42.0
vertex 138.003184328086 -325.572014699888 42.0
endloop
endfacet
facet normal 0.923879532511295 -0.382683432365071 0.0
outer loop
vertex 135.271133520517 -326.304065507456 2.25597318603832e-14
vertex 135.071332675508 -326.786427417251 42.0
vertex 135.071332675508 -326.786427417251 2.25597318603832e-14
endloop
endfacet
facet normal 0.923879532511295 -0.382683432365071 0.0
outer loop
vertex 135.071332675508 -326.786427417251 42.0
vertex 135.271133520517 -326.304065507456 2.25597318603832e-14
vertex 135.271133520517 -326.304065507456 42.0
endloop
endfacet
facet normal -0.382683432365115 0.923879532511276 0.0
outer loop
vertex 135.003184328086 -323.839963892319 42.0
vertex 135.967908147676 -323.4403622023 2.25597318603832e-14
vertex 135.003184328086 -323.839963892319 2.25597318603832e-14
endloop
endfacet
facet normal -0.382683432365115 0.923879532511276 0.0
outer loop
vertex 135.967908147676 -323.4403622023 2.25597318603832e-14
vertex 135.003184328086 -323.839963892319 42.0
vertex 135.967908147676 -323.4403622023 42.0
endloop
endfacet
facet normal 0.923879532511288 0.382683432365086 0.0
outer loop
vertex 140.467285943224 -325.304065507456 2.25597318603832e-14
vertex 140.866887633242 -326.268789327046 42.0
vertex 140.866887633242 -326.268789327046 2.25597318603832e-14
endloop
endfacet
facet normal 0.923879532511288 0.382683432365086 0.0
outer loop
vertex 140.866887633242 -326.268789327046 42.0
vertex 140.467285943224 -325.304065507456 2.25597318603832e-14
vertex 140.467285943224 -325.304065507456 42.0
endloop
endfacet
facet normal -0.60876142900871 0.793353340291244 0.0
outer loop
vertex 134.17475720334 -324.47563838271 42.0
vertex 135.003184328086 -323.839963892319 2.25597318603832e-14
vertex 134.17475720334 -324.47563838271 2.25597318603832e-14
endloop
endfacet
facet normal -0.60876142900871 0.793353340291244 0.0
outer loop
vertex 135.003184328086 -323.839963892319 2.25597318603832e-14
vertex 134.17475720334 -324.47563838271 42.0
vertex 135.003184328086 -323.839963892319 42.0
endloop
endfacet
facet normal -0.793353340291252 0.608761429008699 0.0
outer loop
vertex 138.735235135655 -328.304065507456 42.0
vertex 138.417397890459 -328.71827906983 2.25597318603832e-14
vertex 138.417397890459 -328.71827906983 42.0
endloop
endfacet
facet normal -0.793353340291252 0.608761429008699 0.0
outer loop
vertex 138.417397890459 -328.71827906983 2.25597318603832e-14
vertex 138.735235135655 -328.304065507456 42.0
vertex 138.735235135655 -328.304065507456 2.25597318603832e-14
endloop
endfacet
facet normal 0.92387953251128 0.382683432365108 0.0
outer loop
vertex 135.071332675508 -327.821703597661 2.25597318603832e-14
vertex 135.271133520517 -328.304065507456 42.0
vertex 135.271133520517 -328.304065507456 2.25597318603832e-14
endloop
endfacet
facet normal 0.92387953251128 0.382683432365108 0.0
outer loop
vertex 135.271133520517 -328.304065507456 42.0
vertex 135.071332675508 -327.821703597661 2.25597318603832e-14
vertex 135.071332675508 -327.821703597661 42.0
endloop
endfacet
facet normal -0.608761429008699 0.793353340291252 0.0
outer loop
vertex 138.003184328086 -329.036116315025 42.0
vertex 138.417397890459 -328.71827906983 2.25597318603832e-14
vertex 138.003184328086 -329.036116315025 2.25597318603832e-14
endloop
endfacet
facet normal -0.608761429008699 0.793353340291252 0.0
outer loop
vertex 138.417397890459 -328.71827906983 2.25597318603832e-14
vertex 138.003184328086 -329.036116315025 42.0
vertex 138.417397890459 -328.71827906983 42.0
endloop
endfacet
facet normal 0.991444861373813 0.130526192220035 0.0
outer loop
vertex 135.003184328086 -327.304065507456 2.25597318603832e-14
vertex 135.071332675508 -327.821703597661 42.0
vertex 135.071332675508 -327.821703597661 2.25597318603832e-14
endloop
endfacet
facet normal 0.991444861373813 0.130526192220035 0.0
outer loop
vertex 135.071332675508 -327.821703597661 42.0
vertex 135.003184328086 -327.304065507456 2.25597318603832e-14
vertex 135.003184328086 -327.304065507456 42.0
endloop
endfacet
facet normal -0.130526192220072 -0.991444861373808 -0.0
outer loop
vertex 137.003184328086 -331.304065507456 42.0
vertex 135.967908147676 -331.167768812613 2.25597318603832e-14
vertex 137.003184328086 -331.304065507456 2.25597318603832e-14
endloop
endfacet
facet normal -0.130526192220072 -0.991444861373808 -0.0
outer loop
vertex 135.967908147676 -331.167768812613 2.25597318603832e-14
vertex 137.003184328086 -331.304065507456 42.0
vertex 135.967908147676 -331.167768812613 42.0
endloop
endfacet
facet normal -0.130526192220072 -0.991444861373808 -0.0
outer loop
vertex 137.520822418291 -325.372213854878 42.0
vertex 137.003184328086 -325.304065507456 2.25597318603832e-14
vertex 137.520822418291 -325.372213854878 2.25597318603832e-14
endloop
endfacet
facet normal -0.130526192220072 -0.991444861373808 -0.0
outer loop
vertex 137.003184328086 -325.304065507456 2.25597318603832e-14
vertex 137.520822418291 -325.372213854878 42.0
vertex 137.003184328086 -325.304065507456 42.0
endloop
endfacet
facet normal -0.382683432365086 -0.923879532511288 -0.0
outer loop
vertex 138.003184328086 -325.572014699888 42.0
vertex 137.520822418291 -325.372213854878 2.25597318603832e-14
vertex 138.003184328086 -325.572014699888 2.25597318603832e-14
endloop
endfacet
facet normal -0.382683432365086 -0.923879532511288 -0.0
outer loop
vertex 137.520822418291 -325.372213854878 2.25597318603832e-14
vertex 138.003184328086 -325.572014699888 42.0
vertex 137.520822418291 -325.372213854878 42.0
endloop
endfacet
facet normal 0.0 0.0 1.0
outer loop
vertex 135.003184328086 -330.768167122594 42.0
vertex 135.071332675508 -327.821703597661 42.0
vertex 135.003184328086 -327.304065507456 42.0
endloop
endfacet
facet normal 0.0 0.0 1.0
outer loop
vertex 135.071332675508 -327.821703597661 42.0
vertex 135.003184328086 -330.768167122594 42.0
vertex 135.967908147676 -331.167768812613 42.0
endloop
endfacet
facet normal 0.0 0.0 1.0
outer loop
vertex 135.071332675508 -327.821703597661 42.0
vertex 135.967908147676 -331.167768812613 42.0
vertex 135.271133520517 -328.304065507456 42.0
endloop
endfacet
facet normal 0.0 0.0 1.0
outer loop
vertex 135.271133520517 -328.304065507456 42.0
vertex 135.967908147676 -331.167768812613 42.0
vertex 135.588970765713 -328.71827906983 42.0
endloop
endfacet
facet normal 0.0 0.0 1.0
outer loop
vertex 135.588970765713 -328.71827906983 42.0
vertex 135.967908147676 -331.167768812613 42.0
vertex 136.003184328086 -329.036116315025 42.0
endloop
endfacet
facet normal 0.0 0.0 1.0
outer loop
vertex 136.003184328086 -329.036116315025 42.0
vertex 135.967908147676 -331.167768812613 42.0
vertex 137.003184328086 -331.304065507456 42.0
endloop
endfacet
facet normal 0.0 0.0 1.0
outer loop
vertex 136.003184328086 -329.036116315025 42.0
vertex 137.003184328086 -331.304065507456 42.0
vertex 136.485546237881 -329.235917160035 42.0
endloop
endfacet
facet normal 0.0 0.0 1.0
outer loop
vertex 136.485546237881 -329.235917160035 42.0
vertex 137.003184328086 -331.304065507456 42.0
vertex 137.003184328086 -329.304065507456 42.0
endloop
endfacet
facet normal 0.0 0.0 1.0
outer loop
vertex 137.003184328086 -329.304065507456 42.0
vertex 137.003184328086 -331.304065507456 42.0
vertex 138.038460508496 -331.167768812613 42.0
endloop
endfacet
facet normal 0.0 0.0 1.0
outer loop
vertex 137.003184328086 -329.304065507456 42.0
vertex 138.038460508496 -331.167768812613 42.0
vertex 137.520822418291 -329.235917160035 42.0
endloop
endfacet
facet normal 0.0 0.0 1.0
outer loop
vertex 137.520822418291 -329.235917160035 42.0
vertex 138.038460508496 -331.167768812613 42.0
vertex 138.003184328086 -329.036116315025 42.0
endloop
endfacet
facet normal 0.0 0.0 1.0
outer loop
vertex 138.003184328086 -329.036116315025 42.0
vertex 138.038460508496 -331.167768812613 42.0
vertex 138.417397890459 -328.71827906983 42.0
endloop
endfacet
facet normal 0.0 0.0 1.0
outer loop
vertex 138.417397890459 -328.71827906983 42.0
vertex 138.038460508496 -331.167768812613 42.0
vertex 139.003184328086 -330.768167122594 42.0
endloop
endfacet
facet normal 0.0 0.0 1.0
outer loop
vertex 138.417397890459 -328.71827906983 42.0
vertex 139.003184328086 -330.768167122594 42.0
vertex 138.735235135655 -328.304065507456 42.0
endloop
endfacet
facet normal 0.0 0.0 1.0
outer loop
vertex 138.735235135655 -328.304065507456 42.0
vertex 139.003184328086 -330.768167122594 42.0
vertex 138.935035980664 -327.821703597661 42.0
endloop
endfacet
facet normal 0.0 0.0 1.0
outer loop
vertex 138.935035980664 -327.821703597661 42.0
vertex 139.003184328086 -330.768167122594 42.0
vertex 139.003184328086 -327.304065507456 42.0
endloop
endfacet
facet normal 0.0 0.0 1.0
outer loop
vertex 139.003184328086 -327.304065507456 42.0
vertex 139.003184328086 -330.768167122594 42.0
vertex 139.831611452832 -330.132492632203 42.0
endloop
endfacet
facet normal 0.0 0.0 1.0
outer loop
vertex 139.003184328086 -327.304065507456 42.0
vertex 139.831611452832 -330.132492632203 42.0
vertex 139.003184328086 -323.839963892319 42.0
endloop
endfacet
facet normal 0.0 0.0 1.0
outer loop
vertex 139.003184328086 -323.839963892319 42.0
vertex 139.831611452832 -330.132492632203 42.0
vertex 139.831611452832 -324.47563838271 42.0
endloop
endfacet
facet normal 0.0 0.0 1.0
outer loop
vertex 139.831611452832 -324.47563838271 42.0
vertex 139.831611452832 -330.132492632203 42.0
vertex 140.467285943224 -329.304065507456 42.0
endloop
endfacet
facet normal 0.0 0.0 1.0
outer loop
vertex 139.831611452832 -324.47563838271 42.0
vertex 140.467285943224 -329.304065507456 42.0
vertex 140.467285943224 -325.304065507456 42.0
endloop
endfacet
facet normal 0.0 0.0 1.0
outer loop
vertex 140.467285943224 -325.304065507456 42.0
vertex 140.467285943224 -329.304065507456 42.0
vertex 140.866887633242 -328.339341687867 42.0
endloop
endfacet
facet normal 0.0 0.0 1.0
outer loop
vertex 140.467285943224 -325.304065507456 42.0
vertex 140.866887633242 -328.339341687867 42.0
vertex 140.866887633242 -326.268789327046 42.0
endloop
endfacet
facet normal 0.0 0.0 1.0
outer loop
vertex 140.866887633242 -326.268789327046 42.0
vertex 140.866887633242 -328.339341687867 42.0
vertex 141.003184328086 -327.304065507456 42.0
endloop
endfacet
facet normal 0.0 0.0 1.0
outer loop
vertex 133.13948102293 -328.339341687867 42.0
vertex 133.13948102293 -326.268789327046 42.0
vertex 133.003184328086 -327.304065507456 42.0
endloop
endfacet
facet normal 0.0 0.0 1.0
outer loop
vertex 133.13948102293 -326.268789327046 42.0
vertex 133.13948102293 -328.339341687867 42.0
vertex 133.539082712948 -329.304065507456 42.0
endloop
endfacet
facet normal 0.0 0.0 1.0
outer loop
vertex 133.13948102293 -326.268789327046 42.0
vertex 133.539082712948 -329.304065507456 42.0
vertex 133.539082712948 -325.304065507456 42.0
endloop
endfacet
facet normal 0.0 0.0 1.0
outer loop
vertex 133.539082712948 -325.304065507456 42.0
vertex 133.539082712948 -329.304065507456 42.0
vertex 134.17475720334 -330.132492632203 42.0
endloop
endfacet
facet normal 0.0 0.0 1.0
outer loop
vertex 133.539082712948 -325.304065507456 42.0
vertex 134.17475720334 -330.132492632203 42.0
vertex 134.17475720334 -324.47563838271 42.0
endloop
endfacet
facet normal 0.0 0.0 1.0
outer loop
vertex 134.17475720334 -324.47563838271 42.0
vertex 134.17475720334 -330.132492632203 42.0
vertex 135.003184328086 -330.768167122594 42.0
endloop
endfacet
facet normal 0.0 0.0 1.0
outer loop
vertex 134.17475720334 -324.47563838271 42.0
vertex 135.003184328086 -330.768167122594 42.0
vertex 135.003184328086 -323.839963892319 42.0
endloop
endfacet
facet normal 0.0 0.0 1.0
outer loop
vertex 135.003184328086 -323.839963892319 42.0
vertex 135.003184328086 -330.768167122594 42.0
vertex 135.003184328086 -327.304065507456 42.0
endloop
endfacet
facet normal 0.0 0.0 1.0
outer loop
vertex 135.003184328086 -323.839963892319 42.0
vertex 135.003184328086 -327.304065507456 42.0
vertex 135.071332675508 -326.786427417251 42.0
endloop
endfacet
facet normal 0.0 0.0 1.0
outer loop
vertex 135.003184328086 -323.839963892319 42.0
vertex 135.071332675508 -326.786427417251 42.0
vertex 135.967908147676 -323.4403622023 42.0
endloop
endfacet
facet normal 0.0 0.0 1.0
outer loop
vertex 135.967908147676 -323.4403622023 42.0
vertex 135.071332675508 -326.786427417251 42.0
vertex 135.271133520517 -326.304065507456 42.0
endloop
endfacet
facet normal 0.0 0.0 1.0
outer loop
vertex 135.967908147676 -323.4403622023 42.0
vertex 135.271133520517 -326.304065507456 42.0
vertex 135.588970765713 -325.889851945083 42.0
endloop
endfacet
facet normal 0.0 0.0 1.0
outer loop
vertex 135.967908147676 -323.4403622023 42.0
vertex 135.588970765713 -325.889851945083 42.0
vertex 136.003184328086 -325.572014699888 42.0
endloop
endfacet
facet normal 0.0 0.0 1.0
outer loop
vertex 135.967908147676 -323.4403622023 42.0
vertex 136.003184328086 -325.572014699888 42.0
vertex 137.003184328086 -323.304065507456 42.0
endloop
endfacet
facet normal 0.0 0.0 1.0
outer loop
vertex 137.003184328086 -323.304065507456 42.0
vertex 136.003184328086 -325.572014699888 42.0
vertex 136.485546237881 -325.372213854878 42.0
endloop
endfacet
facet normal 0.0 0.0 1.0
outer loop
vertex 137.003184328086 -323.304065507456 42.0
vertex 136.485546237881 -325.372213854878 42.0
vertex 137.003184328086 -325.304065507456 42.0
endloop
endfacet
facet normal 0.0 0.0 1.0
outer loop
vertex 137.003184328086 -323.304065507456 42.0
vertex 137.003184328086 -325.304065507456 42.0
vertex 137.520822418291 -325.372213854878 42.0
endloop
endfacet
facet normal 0.0 0.0 1.0
outer loop
vertex 137.003184328086 -323.304065507456 42.0
vertex 137.520822418291 -325.372213854878 42.0
vertex 138.038460508496 -323.4403622023 42.0
endloop
endfacet
facet normal 0.0 0.0 1.0
outer loop
vertex 138.038460508496 -323.4403622023 42.0
vertex 137.520822418291 -325.372213854878 42.0
vertex 138.003184328086 -325.572014699888 42.0
endloop
endfacet
facet normal 0.0 0.0 1.0
outer loop
vertex 138.038460508496 -323.4403622023 42.0
vertex 138.003184328086 -325.572014699888 42.0
vertex 138.417397890459 -325.889851945083 42.0
endloop
endfacet
facet normal 0.0 0.0 1.0
outer loop
vertex 138.038460508496 -323.4403622023 42.0
vertex 138.417397890459 -325.889851945083 42.0
vertex 139.003184328086 -323.839963892319 42.0
endloop
endfacet
facet normal 0.0 0.0 1.0
outer loop
vertex 139.003184328086 -323.839963892319 42.0
vertex 138.417397890459 -325.889851945083 42.0
vertex 138.735235135655 -326.304065507456 42.0
endloop
endfacet
facet normal 0.0 0.0 1.0
outer loop
vertex 139.003184328086 -323.839963892319 42.0
vertex 138.735235135655 -326.304065507456 42.0
vertex 138.935035980664 -326.786427417251 42.0
endloop
endfacet
facet normal 0.0 0.0 1.0
outer loop
vertex 139.003184328086 -323.839963892319 42.0
vertex 138.935035980664 -326.786427417251 42.0
vertex 139.003184328086 -327.304065507456 42.0
endloop
endfacet
facet normal -0.923879532511288 -0.382683432365086 -0.0
outer loop
vertex 133.13948102293 -328.339341687867 42.0
vertex 133.539082712948 -329.304065507456 2.25597318603832e-14
vertex 133.539082712948 -329.304065507456 42.0
endloop
endfacet
facet normal -0.923879532511288 -0.382683432365086 -0.0
outer loop
vertex 133.539082712948 -329.304065507456 2.25597318603832e-14
vertex 133.13948102293 -328.339341687867 42.0
vertex 133.13948102293 -328.339341687867 2.25597318603832e-14
endloop
endfacet
facet normal 0.382683432365086 -0.923879532511288 0.0
outer loop
vertex 136.485546237881 -325.372213854878 42.0
vertex 136.003184328086 -325.572014699888 2.25597318603832e-14
vertex 136.485546237881 -325.372213854878 2.25597318603832e-14
endloop
endfacet
facet normal 0.382683432365086 -0.923879532511288 0.0
outer loop
vertex 136.003184328086 -325.572014699888 2.25597318603832e-14
vertex 136.485546237881 -325.372213854878 42.0
vertex 136.003184328086 -325.572014699888 42.0
endloop
endfacet
facet normal -0.130526192220072 0.991444861373808 0.0
outer loop
vertex 137.003184328086 -329.304065507456 42.0
vertex 137.520822418291 -329.235917160035 2.25597318603832e-14
vertex 137.003184328086 -329.304065507456 2.25597318603832e-14
endloop
endfacet
facet normal -0.130526192220072 0.991444861373808 0.0
outer loop
vertex 137.520822418291 -329.235917160035 2.25597318603832e-14
vertex 137.003184328086 -329.304065507456 42.0
vertex 137.520822418291 -329.235917160035 42.0
endloop
endfacet
facet normal 0.60876142900871 -0.793353340291244 0.0
outer loop
vertex 139.831611452832 -330.132492632203 42.0
vertex 139.003184328086 -330.768167122594 2.25597318603832e-14
vertex 139.831611452832 -330.132492632203 2.25597318603832e-14
endloop
endfacet
facet normal 0.60876142900871 -0.793353340291244 0.0
outer loop
vertex 139.003184328086 -330.768167122594 2.25597318603832e-14
vertex 139.831611452832 -330.132492632203 42.0
vertex 139.003184328086 -330.768167122594 42.0
endloop
endfacet
facet normal 0.991444861373807 -0.130526192220078 0.0
outer loop
vertex 135.071332675508 -326.786427417251 2.25597318603832e-14
vertex 135.003184328086 -327.304065507456 42.0
vertex 135.003184328086 -327.304065507456 2.25597318603832e-14
endloop
endfacet
facet normal 0.991444861373807 -0.130526192220078 0.0
outer loop
vertex 135.003184328086 -327.304065507456 42.0
vertex 135.071332675508 -326.786427417251 2.25597318603832e-14
vertex 135.071332675508 -326.786427417251 42.0
endloop
endfacet
facet normal -0.991444861373811 -0.130526192220051 -0.0
outer loop
vertex 133.003184328086 -327.304065507456 42.0
vertex 133.13948102293 -328.339341687867 2.25597318603832e-14
vertex 133.13948102293 -328.339341687867 42.0
endloop
endfacet
facet normal -0.991444861373811 -0.130526192220051 -0.0
outer loop
vertex 133.13948102293 -328.339341687867 2.25597318603832e-14
vertex 133.003184328086 -327.304065507456 42.0
vertex 133.003184328086 -327.304065507456 2.25597318603832e-14
endloop
endfacet
facet normal -0.991444861373807 0.130526192220078 0.0
outer loop
vertex 139.003184328086 -327.304065507456 42.0
vertex 138.935035980664 -327.821703597661 2.25597318603832e-14
vertex 138.935035980664 -327.821703597661 42.0
endloop
endfacet
facet normal -0.991444861373807 0.130526192220078 0.0
outer loop
vertex 138.935035980664 -327.821703597661 2.25597318603832e-14
vertex 139.003184328086 -327.304065507456 42.0
vertex 139.003184328086 -327.304065507456 2.25597318603832e-14
endloop
endfacet
facet normal 0.130526192220072 -0.991444861373808 0.0
outer loop
vertex 137.003184328086 -325.304065507456 42.0
vertex 136.485546237881 -325.372213854878 2.25597318603832e-14
vertex 137.003184328086 -325.304065507456 2.25597318603832e-14
endloop
endfacet
facet normal 0.130526192220072 -0.991444861373808 0.0
outer loop
vertex 136.485546237881 -325.372213854878 2.25597318603832e-14
vertex 137.003184328086 -325.304065507456 42.0
vertex 136.485546237881 -325.372213854878 42.0
endloop
endfacet
facet normal -0.793353340291252 -0.608761429008699 -0.0
outer loop
vertex 138.417397890459 -325.889851945083 42.0
vertex 138.735235135655 -326.304065507456 2.25597318603832e-14
vertex 138.735235135655 -326.304065507456 42.0
endloop
endfacet
facet normal -0.793353340291252 -0.608761429008699 -0.0
outer loop
vertex 138.735235135655 -326.304065507456 2.25597318603832e-14
vertex 138.417397890459 -325.889851945083 42.0
vertex 138.417397890459 -325.889851945083 2.25597318603832e-14
endloop
endfacet
facet normal -0.92387953251128 -0.382683432365108 -0.0
outer loop
vertex 138.735235135655 -326.304065507456 42.0
vertex 138.935035980664 -326.786427417251 2.25597318603832e-14
vertex 138.935035980664 -326.786427417251 42.0
endloop
endfacet
facet normal -0.92387953251128 -0.382683432365108 -0.0
outer loop
vertex 138.935035980664 -326.786427417251 2.25597318603832e-14
vertex 138.735235135655 -326.304065507456 42.0
vertex 138.735235135655 -326.304065507456 2.25597318603832e-14
endloop
endfacet
facet normal -0.923879532511295 0.382683432365071 0.0
outer loop
vertex 138.935035980664 -327.821703597661 42.0
vertex 138.735235135655 -328.304065507456 2.25597318603832e-14
vertex 138.735235135655 -328.304065507456 42.0
endloop
endfacet
facet normal -0.923879532511295 0.382683432365071 0.0
outer loop
vertex 138.735235135655 -328.304065507456 2.25597318603832e-14
vertex 138.935035980664 -327.821703597661 42.0
vertex 138.935035980664 -327.821703597661 2.25597318603832e-14
endloop
endfacet
facet normal -0.923879532511288 0.382683432365086 0.0
outer loop
vertex 133.539082712948 -325.304065507456 42.0
vertex 133.13948102293 -326.268789327046 2.25597318603832e-14
vertex 133.13948102293 -326.268789327046 42.0
endloop
endfacet
facet normal -0.923879532511288 0.382683432365086 0.0
outer loop
vertex 133.13948102293 -326.268789327046 2.25597318603832e-14
vertex 133.539082712948 -325.304065507456 42.0
vertex 133.539082712948 -325.304065507456 2.25597318603832e-14
endloop
endfacet
facet normal 0.382683432365123 -0.923879532511273 0.0
outer loop
vertex 139.003184328086 -330.768167122594 42.0
vertex 138.038460508496 -331.167768812613 2.25597318603832e-14
vertex 139.003184328086 -330.768167122594 2.25597318603832e-14
endloop
endfacet
facet normal 0.382683432365123 -0.923879532511273 0.0
outer loop
vertex 138.038460508496 -331.167768812613 2.25597318603832e-14
vertex 139.003184328086 -330.768167122594 42.0
vertex 138.038460508496 -331.167768812613 42.0
endloop
endfacet
facet normal 0.0 0.0 -1.0
outer loop
vertex 135.003184328086 -323.839963892319 2.25597318603832e-14
vertex 135.071332675508 -326.786427417251 2.25597318603832e-14
vertex 135.003184328086 -327.304065507456 2.25597318603832e-14
endloop
endfacet
facet normal 0.0 0.0 -1.0
outer loop
vertex 135.071332675508 -326.786427417251 2.25597318603832e-14
vertex 135.003184328086 -323.839963892319 2.25597318603832e-14
vertex 135.967908147676 -323.4403622023 2.25597318603832e-14
endloop
endfacet
facet normal 0.0 0.0 -1.0
outer loop
vertex 135.071332675508 -326.786427417251 2.25597318603832e-14
vertex 135.967908147676 -323.4403622023 2.25597318603832e-14
vertex 135.271133520517 -326.304065507456 2.25597318603832e-14
endloop
endfacet
facet normal 0.0 0.0 -1.0
outer loop
vertex 135.271133520517 -326.304065507456 2.25597318603832e-14
vertex 135.967908147676 -323.4403622023 2.25597318603832e-14
vertex 135.588970765713 -325.889851945083 2.25597318603832e-14
endloop
endfacet
facet normal 0.0 0.0 -1.0
outer loop
vertex 135.588970765713 -325.889851945083 2.25597318603832e-14
vertex 135.967908147676 -323.4403622023 2.25597318603832e-14
vertex 136.003184328086 -325.572014699888 2.25597318603832e-14
endloop
endfacet
facet normal 0.0 0.0 -1.0
outer loop
vertex 136.003184328086 -325.572014699888 2.25597318603832e-14
vertex 135.967908147676 -323.4403622023 2.25597318603832e-14
vertex 137.003184328086 -323.304065507456 2.25597318603832e-14
endloop
endfacet
facet normal 0.0 0.0 -1.0
outer loop
vertex 136.003184328086 -325.572014699888 2.25597318603832e-14
vertex 137.003184328086 -323.304065507456 2.25597318603832e-14
vertex 136.485546237881 -325.372213854878 2.25597318603832e-14
endloop
endfacet
facet normal 0.0 0.0 -1.0
outer loop
vertex 136.485546237881 -325.372213854878 2.25597318603832e-14
vertex 137.003184328086 -323.304065507456 2.25597318603832e-14
vertex 137.003184328086 -325.304065507456 2.25597318603832e-14
endloop
endfacet
facet normal 0.0 0.0 -1.0
outer loop
vertex 137.003184328086 -325.304065507456 2.25597318603832e-14
vertex 137.003184328086 -323.304065507456 2.25597318603832e-14
vertex 138.038460508496 -323.4403622023 2.25597318603832e-14
endloop
endfacet
facet normal 0.0 0.0 -1.0
outer loop
vertex 137.003184328086 -325.304065507456 2.25597318603832e-14
vertex 138.038460508496 -323.4403622023 2.25597318603832e-14
vertex 137.520822418291 -325.372213854878 2.25597318603832e-14
endloop
endfacet
facet normal 0.0 0.0 -1.0
outer loop
vertex 137.520822418291 -325.372213854878 2.25597318603832e-14
vertex 138.038460508496 -323.4403622023 2.25597318603832e-14
vertex 138.003184328086 -325.572014699888 2.25597318603832e-14
endloop
endfacet
facet normal 0.0 0.0 -1.0
outer loop
vertex 138.003184328086 -325.572014699888 2.25597318603832e-14
vertex 138.038460508496 -323.4403622023 2.25597318603832e-14
vertex 138.417397890459 -325.889851945083 2.25597318603832e-14
endloop
endfacet
facet normal 0.0 0.0 -1.0
outer loop
vertex 138.417397890459 -325.889851945083 2.25597318603832e-14
vertex 138.038460508496 -323.4403622023 2.25597318603832e-14
vertex 139.003184328086 -323.839963892319 2.25597318603832e-14
endloop
endfacet
facet normal 0.0 0.0 -1.0
outer loop
vertex 138.417397890459 -325.889851945083 2.25597318603832e-14
vertex 139.003184328086 -323.839963892319 2.25597318603832e-14
vertex 138.735235135655 -326.304065507456 2.25597318603832e-14
endloop
endfacet
facet normal 0.0 0.0 -1.0
outer loop
vertex 138.735235135655 -326.304065507456 2.25597318603832e-14
vertex 139.003184328086 -323.839963892319 2.25597318603832e-14
vertex 138.935035980664 -326.786427417251 2.25597318603832e-14
endloop
endfacet
facet normal 0.0 0.0 -1.0
outer loop
vertex 138.935035980664 -326.786427417251 2.25597318603832e-14
vertex 139.003184328086 -323.839963892319 2.25597318603832e-14
vertex 139.003184328086 -327.304065507456 2.25597318603832e-14
endloop
endfacet
facet normal 0.0 0.0 -1.0
outer loop
vertex 139.003184328086 -327.304065507456 2.25597318603832e-14
vertex 139.003184328086 -323.839963892319 2.25597318603832e-14
vertex 139.831611452832 -324.47563838271 2.25597318603832e-14
endloop
endfacet
facet normal 0.0 0.0 -1.0
outer loop
vertex 139.003184328086 -327.304065507456 2.25597318603832e-14
vertex 139.831611452832 -324.47563838271 2.25597318603832e-14
vertex 139.003184328086 -330.768167122594 2.25597318603832e-14
endloop
endfacet
facet normal 0.0 0.0 -1.0
outer loop
vertex 139.003184328086 -330.768167122594 2.25597318603832e-14
vertex 139.831611452832 -324.47563838271 2.25597318603832e-14
vertex 139.831611452832 -330.132492632203 2.25597318603832e-14
endloop
endfacet
facet normal 0.0 0.0 -1.0
outer loop
vertex 139.831611452832 -330.132492632203 2.25597318603832e-14
vertex 139.831611452832 -324.47563838271 2.25597318603832e-14
vertex 140.467285943224 -325.304065507456 2.25597318603832e-14
endloop
endfacet
facet normal 0.0 0.0 -1.0
outer loop
vertex 139.831611452832 -330.132492632203 2.25597318603832e-14
vertex 140.467285943224 -325.304065507456 2.25597318603832e-14
vertex 140.467285943224 -329.304065507456 2.25597318603832e-14
endloop
endfacet
facet normal 0.0 0.0 -1.0
outer loop
vertex 140.467285943224 -329.304065507456 2.25597318603832e-14
vertex 140.467285943224 -325.304065507456 2.25597318603832e-14
vertex 140.866887633242 -326.268789327046 2.25597318603832e-14
endloop
endfacet
facet normal 0.0 0.0 -1.0
outer loop
vertex 140.467285943224 -329.304065507456 2.25597318603832e-14
vertex 140.866887633242 -326.268789327046 2.25597318603832e-14
vertex 140.866887633242 -328.339341687867 2.25597318603832e-14
endloop
endfacet
facet normal 0.0 0.0 -1.0
outer loop
vertex 140.866887633242 -328.339341687867 2.25597318603832e-14
vertex 140.866887633242 -326.268789327046 2.25597318603832e-14
vertex 141.003184328086 -327.304065507456 2.25597318603832e-14
endloop
endfacet
facet normal 0.0 0.0 -1.0
outer loop
vertex 133.13948102293 -326.268789327046 2.25597318603832e-14
vertex 133.13948102293 -328.339341687867 2.25597318603832e-14
vertex 133.003184328086 -327.304065507456 2.25597318603832e-14
endloop
endfacet
facet normal 0.0 0.0 -1.0
outer loop
vertex 133.13948102293 -328.339341687867 2.25597318603832e-14
vertex 133.13948102293 -326.268789327046 2.25597318603832e-14
vertex 133.539082712948 -325.304065507456 2.25597318603832e-14
endloop
endfacet
facet normal 0.0 0.0 -1.0
outer loop
vertex 133.13948102293 -328.339341687867 2.25597318603832e-14
vertex 133.539082712948 -325.304065507456 2.25597318603832e-14
vertex 133.539082712948 -329.304065507456 2.25597318603832e-14
endloop
endfacet
facet normal 0.0 0.0 -1.0
outer loop
vertex 133.539082712948 -329.304065507456 2.25597318603832e-14
vertex 133.539082712948 -325.304065507456 2.25597318603832e-14
vertex 134.17475720334 -324.47563838271 2.25597318603832e-14
endloop
endfacet
facet normal 0.0 0.0 -1.0
outer loop
vertex 133.539082712948 -329.304065507456 2.25597318603832e-14
vertex 134.17475720334 -324.47563838271 2.25597318603832e-14
vertex 134.17475720334 -330.132492632203 2.25597318603832e-14
endloop
endfacet
facet normal 0.0 0.0 -1.0
outer loop
vertex 134.17475720334 -330.132492632203 2.25597318603832e-14
vertex 134.17475720334 -324.47563838271 2.25597318603832e-14
vertex 135.003184328086 -323.839963892319 2.25597318603832e-14
endloop
endfacet
facet normal 0.0 0.0 -1.0
outer loop
vertex 134.17475720334 -330.132492632203 2.25597318603832e-14
vertex 135.003184328086 -323.839963892319 2.25597318603832e-14
vertex 135.003184328086 -330.768167122594 2.25597318603832e-14
endloop
endfacet
facet normal 0.0 0.0 -1.0
outer loop
vertex 135.003184328086 -330.768167122594 2.25597318603832e-14
vertex 135.003184328086 -323.839963892319 2.25597318603832e-14
vertex 135.003184328086 -327.304065507456 2.25597318603832e-14
endloop
endfacet
facet normal 0.0 0.0 -1.0
outer loop
vertex 135.003184328086 -330.768167122594 2.25597318603832e-14
vertex 135.003184328086 -327.304065507456 2.25597318603832e-14
vertex 135.071332675508 -327.821703597661 2.25597318603832e-14
endloop
endfacet
facet normal 0.0 0.0 -1.0
outer loop
vertex 135.003184328086 -330.768167122594 2.25597318603832e-14
vertex 135.071332675508 -327.821703597661 2.25597318603832e-14
vertex 135.967908147676 -331.167768812613 2.25597318603832e-14
endloop
endfacet
facet normal 0.0 0.0 -1.0
outer loop
vertex 135.967908147676 -331.167768812613 2.25597318603832e-14
vertex 135.071332675508 -327.821703597661 2.25597318603832e-14
vertex 135.271133520517 -328.304065507456 2.25597318603832e-14
endloop
endfacet
facet normal 0.0 0.0 -1.0
outer loop
vertex 135.967908147676 -331.167768812613 2.25597318603832e-14
vertex 135.271133520517 -328.304065507456 2.25597318603832e-14
vertex 135.588970765713 -328.71827906983 2.25597318603832e-14
endloop
endfacet
facet normal 0.0 0.0 -1.0
outer loop
vertex 135.967908147676 -331.167768812613 2.25597318603832e-14
vertex 135.588970765713 -328.71827906983 2.25597318603832e-14
vertex 136.003184328086 -329.036116315025 2.25597318603832e-14
endloop
endfacet
facet normal 0.0 0.0 -1.0
outer loop
vertex 135.967908147676 -331.167768812613 2.25597318603832e-14
vertex 136.003184328086 -329.036116315025 2.25597318603832e-14
vertex 137.003184328086 -331.304065507456 2.25597318603832e-14
endloop
endfacet
facet normal 0.0 0.0 -1.0
outer loop
vertex 137.003184328086 -331.304065507456 2.25597318603832e-14
vertex 136.003184328086 -329.036116315025 2.25597318603832e-14
vertex 136.485546237881 -329.235917160035 2.25597318603832e-14
endloop
endfacet
facet normal 0.0 0.0 -1.0
outer loop
vertex 137.003184328086 -331.304065507456 2.25597318603832e-14
vertex 136.485546237881 -329.235917160035 2.25597318603832e-14
vertex 137.003184328086 -329.304065507456 2.25597318603832e-14
endloop
endfacet
facet normal 0.0 0.0 -1.0
outer loop
vertex 137.003184328086 -331.304065507456 2.25597318603832e-14
vertex 137.003184328086 -329.304065507456 2.25597318603832e-14
vertex 137.520822418291 -329.235917160035 2.25597318603832e-14
endloop
endfacet
facet normal 0.0 0.0 -1.0
outer loop
vertex 137.003184328086 -331.304065507456 2.25597318603832e-14
vertex 137.520822418291 -329.235917160035 2.25597318603832e-14
vertex 138.038460508496 -331.167768812613 2.25597318603832e-14
endloop
endfacet
facet normal 0.0 0.0 -1.0
outer loop
vertex 138.038460508496 -331.167768812613 2.25597318603832e-14
vertex 137.520822418291 -329.235917160035 2.25597318603832e-14
vertex 138.003184328086 -329.036116315025 2.25597318603832e-14
endloop
endfacet
facet normal 0.0 0.0 -1.0
outer loop
vertex 138.038460508496 -331.167768812613 2.25597318603832e-14
vertex 138.003184328086 -329.036116315025 2.25597318603832e-14
vertex 138.417397890459 -328.71827906983 2.25597318603832e-14
endloop
endfacet
facet normal 0.0 0.0 -1.0
outer loop
vertex 138.038460508496 -331.167768812613 2.25597318603832e-14
vertex 138.417397890459 -328.71827906983 2.25597318603832e-14
vertex 139.003184328086 -330.768167122594 2.25597318603832e-14
endloop
endfacet
facet normal 0.0 0.0 -1.0
outer loop
vertex 139.003184328086 -330.768167122594 2.25597318603832e-14
vertex 138.417397890459 -328.71827906983 2.25597318603832e-14
vertex 138.735235135655 -328.304065507456 2.25597318603832e-14
endloop
endfacet
facet normal 0.0 0.0 -1.0
outer loop
vertex 139.003184328086 -330.768167122594 2.25597318603832e-14
vertex 138.735235135655 -328.304065507456 2.25597318603832e-14
vertex 138.935035980664 -327.821703597661 2.25597318603832e-14
endloop
endfacet
facet normal 0.0 0.0 -1.0
outer loop
vertex 139.003184328086 -330.768167122594 2.25597318603832e-14
vertex 138.935035980664 -327.821703597661 2.25597318603832e-14
vertex 139.003184328086 -327.304065507456 2.25597318603832e-14
endloop
endfacet
facet normal 0.608761429008699 -0.793353340291252 0.0
outer loop
vertex 136.003184328086 -325.572014699888 42.0
vertex 135.588970765713 -325.889851945083 2.25597318603832e-14
vertex 136.003184328086 -325.572014699888 2.25597318603832e-14
endloop
endfacet
facet normal 0.608761429008699 -0.793353340291252 0.0
outer loop
vertex 135.588970765713 -325.889851945083 2.25597318603832e-14
vertex 136.003184328086 -325.572014699888 42.0
vertex 135.588970765713 -325.889851945083 42.0
endloop
endfacet
facet normal -0.382683432365086 -0.923879532511288 -0.0
outer loop
vertex 135.967908147676 -331.167768812613 42.0
vertex 135.003184328086 -330.768167122594 2.25597318603832e-14
vertex 135.967908147676 -331.167768812613 2.25597318603832e-14
endloop
endfacet
facet normal -0.382683432365086 -0.923879532511288 -0.0
outer loop
vertex 135.003184328086 -330.768167122594 2.25597318603832e-14
vertex 135.967908147676 -331.167768812613 42.0
vertex 135.003184328086 -330.768167122594 42.0
endloop
endfacet
facet normal -0.793353340291231 0.608761429008726 0.0
outer loop
vertex 134.17475720334 -324.47563838271 42.0
vertex 133.539082712948 -325.304065507456 2.25597318603832e-14
vertex 133.539082712948 -325.304065507456 42.0
endloop
endfacet
facet normal -0.793353340291231 0.608761429008726 0.0
outer loop
vertex 133.539082712948 -325.304065507456 2.25597318603832e-14
vertex 134.17475720334 -324.47563838271 42.0
vertex 134.17475720334 -324.47563838271 2.25597318603832e-14
endloop
endfacet
facet normal -0.793353340291231 -0.608761429008726 -0.0
outer loop
vertex 133.539082712948 -329.304065507456 42.0
vertex 134.17475720334 -330.132492632203 2.25597318603832e-14
vertex 134.17475720334 -330.132492632203 42.0
endloop
endfacet
facet normal -0.793353340291231 -0.608761429008726 -0.0
outer loop
vertex 134.17475720334 -330.132492632203 2.25597318603832e-14
vertex 133.539082712948 -329.304065507456 42.0
vertex 133.539082712948 -329.304065507456 2.25597318603832e-14
endloop
endfacet
facet normal 0.130526192220072 0.991444861373808 0.0
outer loop
vertex 136.485546237881 -329.235917160035 42.0
vertex 137.003184328086 -329.304065507456 2.25597318603832e-14
vertex 136.485546237881 -329.235917160035 2.25597318603832e-14
endloop
endfacet
facet normal 0.130526192220072 0.991444861373808 0.0
outer loop
vertex 137.003184328086 -329.304065507456 2.25597318603832e-14
vertex 136.485546237881 -329.235917160035 42.0
vertex 137.003184328086 -329.304065507456 42.0
endloop
endfacet
facet normal 0.793353340291252 -0.608761429008699 0.0
outer loop
vertex 135.588970765713 -325.889851945083 2.25597318603832e-14
vertex 135.271133520517 -326.304065507456 42.0
vertex 135.271133520517 -326.304065507456 2.25597318603832e-14
endloop
endfacet
facet normal 0.793353340291252 -0.608761429008699 0.0
outer loop
vertex 135.271133520517 -326.304065507456 42.0
vertex 135.588970765713 -325.889851945083 2.25597318603832e-14
vertex 135.588970765713 -325.889851945083 42.0
endloop
endfacet
facet normal 0.793353340291231 -0.608761429008726 0.0
outer loop
vertex 140.467285943224 -329.304065507456 2.25597318603832e-14
vertex 139.831611452832 -330.132492632203 42.0
vertex 139.831611452832 -330.132492632203 2.25597318603832e-14
endloop
endfacet
facet normal 0.793353340291231 -0.608761429008726 0.0
outer loop
vertex 139.831611452832 -330.132492632203 42.0
vertex 140.467285943224 -329.304065507456 2.25597318603832e-14
vertex 140.467285943224 -329.304065507456 42.0
endloop
endfacet
facet normal -0.382683432365086 0.923879532511288 0.0
outer loop
vertex 137.520822418291 -329.235917160035 42.0
vertex 138.003184328086 -329.036116315025 2.25597318603832e-14
vertex 137.520822418291 -329.235917160035 2.25597318603832e-14
endloop
endfacet
facet normal -0.382683432365086 0.923879532511288 0.0
outer loop
vertex 138.003184328086 -329.036116315025 2.25597318603832e-14
vertex 137.520822418291 -329.235917160035 42.0
vertex 138.003184328086 -329.036116315025 42.0
endloop
endfacet
facet normal 0.130526192220072 0.991444861373808 0.0
outer loop
vertex 137.003184328086 -323.304065507456 42.0
vertex 138.038460508496 -323.4403622023 2.25597318603832e-14
vertex 137.003184328086 -323.304065507456 2.25597318603832e-14
endloop
endfacet
facet normal 0.130526192220072 0.991444861373808 0.0
outer loop
vertex 138.038460508496 -323.4403622023 2.25597318603832e-14
vertex 137.003184328086 -323.304065507456 42.0
vertex 138.038460508496 -323.4403622023 42.0
endloop
endfacet
facet normal -0.60876142900871 -0.793353340291244 -0.0
outer loop
vertex 135.003184328086 -330.768167122594 42.0
vertex 134.17475720334 -330.132492632203 2.25597318603832e-14
vertex 135.003184328086 -330.768167122594 2.25597318603832e-14
endloop
endfacet
facet normal -0.60876142900871 -0.793353340291244 -0.0
outer loop
vertex 134.17475720334 -330.132492632203 2.25597318603832e-14
vertex 135.003184328086 -330.768167122594 42.0
vertex 134.17475720334 -330.132492632203 42.0
endloop
endfacet
facet normal 0.382683432365086 0.923879532511288 0.0
outer loop
vertex 136.003184328086 -329.036116315025 42.0
vertex 136.485546237881 -329.235917160035 2.25597318603832e-14
vertex 136.003184328086 -329.036116315025 2.25597318603832e-14
endloop
endfacet
facet normal 0.382683432365086 0.923879532511288 0.0
outer loop
vertex 136.485546237881 -329.235917160035 2.25597318603832e-14
vertex 136.003184328086 -329.036116315025 42.0
vertex 136.485546237881 -329.235917160035 42.0
endloop
endfacet
facet normal 0.608761429008699 0.793353340291252 0.0
outer loop
vertex 135.588970765713 -328.71827906983 42.0
vertex 136.003184328086 -329.036116315025 2.25597318603832e-14
vertex 135.588970765713 -328.71827906983 2.25597318603832e-14
endloop
endfacet
facet normal 0.608761429008699 0.793353340291252 0.0
outer loop
vertex 136.003184328086 -329.036116315025 2.25597318603832e-14
vertex 135.588970765713 -328.71827906983 42.0
vertex 136.003184328086 -329.036116315025 42.0
endloop
endfacet
facet normal 0.793353340291231 0.608761429008726 0.0
outer loop
vertex 139.831611452832 -324.47563838271 2.25597318603832e-14
vertex 140.467285943224 -325.304065507456 42.0
vertex 140.467285943224 -325.304065507456 2.25597318603832e-14
endloop
endfacet
facet normal 0.793353340291231 0.608761429008726 0.0
outer loop
vertex 140.467285943224 -325.304065507456 42.0
vertex 139.831611452832 -324.47563838271 2.25597318603832e-14
vertex 139.831611452832 -324.47563838271 42.0
endloop
endfacet
facet normal -0.991444861373811 0.130526192220051 0.0
outer loop
vertex 133.13948102293 -326.268789327046 42.0
vertex 133.003184328086 -327.304065507456 2.25597318603832e-14
vertex 133.003184328086 -327.304065507456 42.0
endloop
endfacet
facet normal -0.991444861373811 0.130526192220051 0.0
outer loop
vertex 133.003184328086 -327.304065507456 2.25597318603832e-14
vertex 133.13948102293 -326.268789327046 42.0
vertex 133.13948102293 -326.268789327046 2.25597318603832e-14
endloop
endfacet
facet normal 0.991444861373811 0.130526192220051 0.0
outer loop
vertex 140.866887633242 -326.268789327046 2.25597318603832e-14
vertex 141.003184328086 -327.304065507456 42.0
vertex 141.003184328086 -327.304065507456 2.25597318603832e-14
endloop
endfacet
facet normal 0.991444861373811 0.130526192220051 0.0
outer loop
vertex 141.003184328086 -327.304065507456 42.0
vertex 140.866887633242 -326.268789327046 2.25597318603832e-14
vertex 140.866887633242 -326.268789327046 42.0
endloop
endfacet
facet normal 0.923879532511288 -0.382683432365086 0.0
outer loop
vertex 140.866887633242 -328.339341687867 2.25597318603832e-14
vertex 140.467285943224 -329.304065507456 42.0
vertex 140.467285943224 -329.304065507456 2.25597318603832e-14
endloop
endfacet
facet normal 0.923879532511288 -0.382683432365086 0.0
outer loop
vertex 140.467285943224 -329.304065507456 42.0
vertex 140.866887633242 -328.339341687867 2.25597318603832e-14
vertex 140.866887633242 -328.339341687867 42.0
endloop
endfacet
facet normal -0.130526192220032 0.991444861373813 0.0
outer loop
vertex 135.967908147676 -323.4403622023 42.0
vertex 137.003184328086 -323.304065507456 2.25597318603832e-14
vertex 135.967908147676 -323.4403622023 2.25597318603832e-14
endloop
endfacet
facet normal -0.130526192220032 0.991444861373813 0.0
outer loop
vertex 137.003184328086 -323.304065507456 2.25597318603832e-14
vertex 135.967908147676 -323.4403622023 42.0
vertex 137.003184328086 -323.304065507456 42.0
endloop
endfacet
facet normal 0.60876142900871 0.793353340291244 0.0
outer loop
vertex 139.003184328086 -323.839963892319 42.0
vertex 139.831611452832 -324.47563838271 2.25597318603832e-14
vertex 139.003184328086 -323.839963892319 2.25597318603832e-14
endloop
endfacet
facet normal 0.60876142900871 0.793353340291244 0.0
outer loop
vertex 139.831611452832 -324.47563838271 2.25597318603832e-14
vertex 139.003184328086 -323.839963892319 42.0
vertex 139.831611452832 -324.47563838271 42.0
endloop
endfacet
facet normal 0.13052619222003 -0.991444861373813 0.0
outer loop
vertex 138.038460508496 -331.167768812613 42.0
vertex 137.003184328086 -331.304065507456 2.25597318603832e-14
vertex 138.038460508496 -331.167768812613 2.25597318603832e-14
endloop
endfacet
facet normal 0.13052619222003 -0.991444861373813 0.0
outer loop
vertex 137.003184328086 -331.304065507456 2.25597318603832e-14
vertex 138.038460508496 -331.167768812613 42.0
vertex 137.003184328086 -331.304065507456 42.0
endloop
endfacet
facet normal 0.991444861373811 -0.130526192220051 0.0
outer loop
vertex 141.003184328086 -327.304065507456 2.25597318603832e-14
vertex 140.866887633242 -328.339341687867 42.0
vertex 140.866887633242 -328.339341687867 2.25597318603832e-14
endloop
endfacet
facet normal 0.991444861373811 -0.130526192220051 0.0
outer loop
vertex 140.866887633242 -328.339341687867 42.0
vertex 141.003184328086 -327.304065507456 2.25597318603832e-14
vertex 141.003184328086 -327.304065507456 42.0
endloop
endfacet
facet normal 0.793353340291252 0.608761429008699 0.0
outer loop
vertex 135.271133520517 -328.304065507456 2.25597318603832e-14
vertex 135.588970765713 -328.71827906983 42.0
vertex 135.588970765713 -328.71827906983 2.25597318603832e-14
endloop
endfacet
facet normal 0.793353340291252 0.608761429008699 0.0
outer loop
vertex 135.588970765713 -328.71827906983 42.0
vertex 135.271133520517 -328.304065507456 2.25597318603832e-14
vertex 135.271133520517 -328.304065507456 42.0
endloop
endfacet
facet normal -0.991444861373813 -0.130526192220035 -0.0
outer loop
vertex 138.935035980664 -326.786427417251 42.0
vertex 139.003184328086 -327.304065507456 2.25597318603832e-14
vertex 139.003184328086 -327.304065507456 42.0
endloop
endfacet
facet normal -0.991444861373813 -0.130526192220035 -0.0
outer loop
vertex 139.003184328086 -327.304065507456 2.25597318603832e-14
vertex 138.935035980664 -326.786427417251 42.0
vertex 138.935035980664 -326.786427417251 2.25597318603832e-14
endloop
endfacet
facet normal 0.382683432365086 0.923879532511288 0.0
outer loop
vertex 138.038460508496 -323.4403622023 42.0
vertex 139.003184328086 -323.839963892319 2.25597318603832e-14
vertex 138.038460508496 -323.4403622023 2.25597318603832e-14
endloop
endfacet
facet normal 0.382683432365086 0.923879532511288 0.0
outer loop
vertex 139.003184328086 -323.839963892319 2.25597318603832e-14
vertex 138.038460508496 -323.4403622023 42.0
vertex 139.003184328086 -323.839963892319 42.0
endloop
endfacet
endsolid deltaParts4
