  0
SECTION
  2
HEADER
  9
$ACADVER
  1
AC1015
  9
$ACADMAINTVER
 70
     6
  9
$DWGCODEPAGE
  3
UNDEFINED
  9
$INSBASE
 10
0.0
 20
0.0
 30
0.0
  9
$EXTMIN
 10
-100.0
 20
-100.0
 30
0.0
  9
$EXTMAX
 10
100.0
 20
100.0
 30
29.02302777777778
  9
$LIMMIN
 10
0.0
 20
0.0
  9
$LIMMAX
 10
420.0
 20
297.0
  9
$ORTHOMODE
 70
     0
  9
$REGENMODE
 70
     1
  9
$FILLMODE
 70
     1
  9
$QTEXTMODE
 70
     0
  9
$MIRRTEXT
 70
     1
  9
$LTSCALE
 40
1.0
  9
$ATTMODE
 70
     1
  9
$TEXTSIZE
 40
2.5
  9
$TRACEWID
 40
1.0
  9
$TEXTSTYLE
  7
Standard
  9
$CLAYER
  8
0
  9
$CELTYPE
  6
ByLayer
  9
$CECOLOR
 62
   256
  9
$CELTSCALE
 40
1.0
  9
$DISPSILH
 70
     0
  9
$DIMSCALE
 40
1.0
  9
$DIMASZ
 40
2.5
  9
$DIMEXO
 40
0.625
  9
$DIMDLI
 40
3.75
  9
$DIMRND
 40
0.0
  9
$DIMDLE
 40
0.0
  9
$DIMEXE
 40
1.25
  9
$DIMTP
 40
0.0
  9
$DIMTM
 40
0.0
  9
$DIMTXT
 40
2.5
  9
$DIMCEN
 40
2.5
  9
$DIMTSZ
 40
0.0
  9
$DIMTOL
 70
     0
  9
$DIMLIM
 70
     0
  9
$DIMTIH
 70
     0
  9
$DIMTOH
 70
     0
  9
$DIMSE1
 70
     0
  9
$DIMSE2
 70
     0
  9
$DIMTAD
 70
     1
  9
$DIMZIN
 70
     8
  9
$DIMBLK
  1

  9
$DIMASO
 70
     1
  9
$DIMSHO
 70
     1
  9
$DIMPOST
  1

  9
$DIMAPOST
  1

  9
$DIMALT
 70
     0
  9
$DIMALTD
 70
     3
  9
$DIMALTF
 40
0.03937007874016
  9
$DIMLFAC
 40
1.0
  9
$DIMTOFL
 70
     1
  9
$DIMTVP
 40
0.0
  9
$DIMTIX
 70
     0
  9
$DIMSOXD
 70
     0
  9
$DIMSAH
 70
     0
  9
$DIMBLK1
  1

  9
$DIMBLK2
  1

  9
$DIMSTYLE
  2
ISO-25
  9
$DIMCLRD
 70
     0
  9
$DIMCLRE
 70
     0
  9
$DIMCLRT
 70
     0
  9
$DIMTFAC
 40
1.0
  9
$DIMGAP
 40
0.625
  9
$DIMJUST
 70
     0
  9
$DIMSD1
 70
     0
  9
$DIMSD2
 70
     0
  9
$DIMTOLJ
 70
     0
  9
$DIMTZIN
 70
     8
  9
$DIMALTZ
 70
     0
  9
$DIMALTTZ
 70
     0
  9
$DIMUPT
 70
     0
  9
$DIMDEC
 70
     2
  9
$DIMTDEC
 70
     2
  9
$DIMALTU
 70
     2
  9
$DIMALTTD
 70
     3
  9
$DIMTXSTY
  7
Standard
  9
$DIMAUNIT
 70
     0
  9
$DIMADEC
 70
     0
  9
$DIMALTRND
 40
0.0
  9
$DIMAZIN
 70
     0
  9
$DIMDSEP
 70
    44
  9
$DIMATFIT
 70
     3
  9
$DIMFRAC
 70
     0
  9
$DIMLDRBLK
  1

  9
$DIMLUNIT
 70
     2
  9
$DIMLWD
 70
    -2
  9
$DIMLWE
 70
    -2
  9
$DIMTMOVE
 70
     0
  9
$LUNITS
 70
     2
  9
$LUPREC
 70
     4
  9
$SKETCHINC
 40
1.0
  9
$FILLETRAD
 40
10.0
  9
$AUNITS
 70
     0
  9
$AUPREC
 70
     0
  9
$MENU
  1
.
  9
$ELEVATION
 40
0.0
  9
$PELEVATION
 40
0.0
  9
$THICKNESS
 40
0.0
  9
$LIMCHECK
 70
     0
  9
$CHAMFERA
 40
10.0
  9
$CHAMFERB
 40
10.0
  9
$CHAMFERC
 40
20.0
  9
$CHAMFERD
 40
0.0
  9
$SKPOLY
 70
     0
  9
$TDCREATE
 40
1799327.103923599
  9
$TDUCREATE
 40
1799327.437256944
  9
$TDUPDATE
 40
2456764.437256933
  9
$TDUUPDATE
 40
2456764.770590278
  9
$TDINDWG
 40
0.0000000116
  9
$TDUSRTIMER
 40
0.0000000116
  9
$USRTIMER
 70
     1
  9
$ANGBASE
 50
0.0
  9
$ANGDIR
 70
     0
  9
$PDMODE
 70
     0
  9
$PDSIZE
 40
0.0
  9
$PLINEWID
 40
0.0
  9
$SPLFRAME
 70
     0
  9
$SPLINETYPE
 70
     6
  9
$SPLINESEGS
 70
     8
  9
$HANDSEED
  5
10A
  9
$SURFTAB1
 70
     6
  9
$SURFTAB2
 70
     6
  9
$SURFTYPE
 70
     6
  9
$SURFU
 70
     6
  9
$SURFV
 70
     6
  9
$UCSBASE
  2

  9
$UCSNAME
  2

  9
$UCSORG
 10
0.0
 20
0.0
 30
0.0
  9
$UCSXDIR
 10
1.0
 20
0.0
 30
0.0
  9
$UCSYDIR
 10
0.0
 20
1.0
 30
0.0
  9
$UCSORTHOREF
  2

  9
$UCSORTHOVIEW
 70
     0
  9
$UCSORGTOP
 10
0.0
 20
0.0
 30
0.0
  9
$UCSORGBOTTOM
 10
0.0
 20
0.0
 30
0.0
  9
$UCSORGLEFT
 10
0.0
 20
0.0
 30
0.0
  9
$UCSORGRIGHT
 10
0.0
 20
0.0
 30
0.0
  9
$UCSORGFRONT
 10
0.0
 20
0.0
 30
0.0
  9
$UCSORGBACK
 10
0.0
 20
0.0
 30
0.0
  9
$PUCSBASE
  2

  9
$PUCSNAME
  2

  9
$PUCSORG
 10
0.0
 20
0.0
 30
0.0
  9
$PUCSXDIR
 10
1.0
 20
0.0
 30
0.0
  9
$PUCSYDIR
 10
0.0
 20
1.0
 30
0.0
  9
$PUCSORTHOREF
  2

  9
$PUCSORTHOVIEW
 70
     0
  9
$PUCSORGTOP
 10
0.0
 20
0.0
 30
0.0
  9
$PUCSORGBOTTOM
 10
0.0
 20
0.0
 30
0.0
  9
$PUCSORGLEFT
 10
0.0
 20
0.0
 30
0.0
  9
$PUCSORGRIGHT
 10
0.0
 20
0.0
 30
0.0
  9
$PUCSORGFRONT
 10
0.0
 20
0.0
 30
0.0
  9
$PUCSORGBACK
 10
0.0
 20
0.0
 30
0.0
  9
$USERI1
 70
     0
  9
$USERI2
 70
     0
  9
$USERI3
 70
     0
  9
$USERI4
 70
     0
  9
$USERI5
 70
     0
  9
$USERR1
 40
0.0
  9
$USERR2
 40
0.0
  9
$USERR3
 40
0.0
  9
$USERR4
 40
0.0
  9
$USERR5
 40
0.0
  9
$WORLDVIEW
 70
     1
  9
$SHADEDGE
 70
     3
  9
$SHADEDIF
 70
    70
  9
$TILEMODE
 70
     1
  9
$MAXACTVP
 70
    64
  9
$PINSBASE
 10
0.0
 20
0.0
 30
0.0
  9
$PLIMCHECK
 70
     0
  9
$PEXTMIN
 10
1.000000000000000E+20
 20
1.000000000000000E+20
 30
1.000000000000000E+20
  9
$PEXTMAX
 10
-1.000000000000000E+20
 20
-1.000000000000000E+20
 30
-1.000000000000000E+20
  9
$PLIMMIN
 10
0.0
 20
0.0
  9
$PLIMMAX
 10
420.0
 20
297.0
  9
$UNITMODE
 70
     0
  9
$VISRETAIN
 70
     1
  9
$PLINEGEN
 70
     0
  9
$PSLTSCALE
 70
     1
  9
$TREEDEPTH
 70
  3020
  9
$CMLSTYLE
  2
Standard
  9
$CMLJUST
 70
     0
  9
$CMLSCALE
 40
20.0
  9
$PROXYGRAPHICS
 70
     1
  9
$MEASUREMENT
 70
     1
  9
$CELWEIGHT
370
    -1
  9
$ENDCAPS
280
     0
  9
$JOINSTYLE
280
     0
  9
$LWDISPLAY
290
     0
  9
$INSUNITS
 70
     4
  9
$HYPERLINKBASE
  1

  9
$STYLESHEET
  1

  9
$XEDIT
290
     1
  9
$CEPSNTYPE
380
     0
  9
$PSTYLEMODE
290
     1
  9
$FINGERPRINTGUID
  2
{03062E9F-735D-389F-FB5A-8D2E797A0285}
  9
$VERSIONGUID
  2
{FAEB1C32-E019-11D5-929B-00C0DF256EC4}
  9
$EXTNAMES
290
     1
  9
$PSVPSCALE
 40
0.0
  9
$OLESTARTUP
290
     0
  0
ENDSEC
  0
SECTION
  2
CLASSES
  0
CLASS
  1
ACDBDICTIONARYWDFLT
  2
AcDbDictionaryWithDefault
  3
ObjectDBX Classes
 90
        0
280
     0
281
     0
  0
CLASS
  1
VISUALSTYLE
  2
AcDbVisualStyle
  3
ObjectDBX Classes
 90
     4095
280
     0
281
     0
  0
CLASS
  1
MATERIAL
  2
AcDbMaterial
  3
ObjectDBX Classes
 90
     1153
280
     0
281
     0
  0
CLASS
  1
DICTIONARYVAR
  2
AcDbDictionaryVar
  3
ObjectDBX Classes
 90
        0
280
     0
281
     0
  0
CLASS
  1
ACDBPLACEHOLDER
  2
AcDbPlaceHolder
  3
ObjectDBX Classes
 90
        0
280
     0
281
     0
  0
CLASS
  1
LAYOUT
  2
AcDbLayout
  3
ObjectDBX Classes
 90
        0
280
     0
281
     0
  0
ENDSEC
  0
SECTION
  2
TABLES
  0
TABLE
  2
VPORT
  5
8
330
0
100
AcDbSymbolTable
 70
     1
  0
VPORT
  5
29
330
8
100
AcDbSymbolTableRecord
100
AcDbViewportTableRecord
  2
*Active
 70
     0
 10
0.0
 20
0.0
 11
1.0
 21
1.0
 12
64.6185289753808
 22
-124.3607937653859
 13
0.0
 23
0.0
 14
10.0
 24
10.0
 15
10.0
 25
10.0
 16
0.0
 26
0.0
 36
1.0
 17
0.0
 27
0.0
 37
0.0
 40
411.7187443904876
 41
0.7633626512407912
 42
50.0
 43
0.0
 44
0.0
 50
0.0
 51
0.0
 71
     0
 72
   100
 73
     1
 74
     3
 75
     0
 76
     0
 77
     0
 78
     0
281
     0
 65
     1
110
0.0
120
0.0
130
0.0
111
1.0
121
0.0
131
0.0
112
0.0
122
1.0
132
0.0
 79
     0
146
0.0
  0
ENDTAB
  0
TABLE
  2
LTYPE
  5
5
330
0
100
AcDbSymbolTable
 70
    11
  0
LTYPE
  5
14
330
5
100
AcDbSymbolTableRecord
100
AcDbLinetypeTableRecord
  2
ByBlock
 70
     0
  3

 72
    65
 73
     0
 40
0.0
  0
LTYPE
  5
15
330
5
100
AcDbSymbolTableRecord
100
AcDbLinetypeTableRecord
  2
ByLayer
 70
     0
  3

 72
    65
 73
     0
 40
0.0
  0
LTYPE
  5
16
330
5
100
AcDbSymbolTableRecord
100
AcDbLinetypeTableRecord
  2
Continuous
 70
     0
  3
Solid line
 72
    65
 73
     0
 40
0.0
  0
LTYPE
  5
44
330
5
100
AcDbSymbolTableRecord
100
AcDbLinetypeTableRecord
  2
BORDER
 70
     0
  3
__ __ . __ __ . __ 
 72
    65
 73
     6
 40
0.875
 49
0.25
 74
     0
 49
-0.125
 74
     0
 49
0.25
 74
     0
 49
-0.125
 74
     0
 49
0.0
 74
     0
 49
-0.125
 74
     0
  0
LTYPE
  5
45
330
5
100
AcDbSymbolTableRecord
100
AcDbLinetypeTableRecord
  2
CENTER
 70
     0
  3
___ _ ___ _ ___ _ _
 72
    65
 73
     4
 40
1.125
 49
0.75
 74
     0
 49
-0.125
 74
     0
 49
0.125
 74
     0
 49
-0.125
 74
     0
  0
LTYPE
  5
46
330
5
100
AcDbSymbolTableRecord
100
AcDbLinetypeTableRecord
  2
DASHDOT
 70
     0
  3
_._._._._._._._._._
 72
    65
 73
     4
 40
0.5
 49
0.25
 74
     0
 49
-0.125
 74
     0
 49
0.0
 74
     0
 49
-0.125
 74
     0
  0
LTYPE
  5
47
330
5
100
AcDbSymbolTableRecord
100
AcDbLinetypeTableRecord
  2
DASHED
 70
     0
  3
_ _ _ _ _ _ _ _ _ _
 72
    65
 73
     2
 40
0.375
 49
0.25
 74
     0
 49
-0.125
 74
     0
  0
LTYPE
  5
48
330
5
100
AcDbSymbolTableRecord
100
AcDbLinetypeTableRecord
  2
DIVIDE
 70
     0
  3
__..__..__..__..__.
 72
    65
 73
     6
 40
0.625
 49
0.25
 74
     0
 49
-0.125
 74
     0
 49
0.0
 74
     0
 49
-0.125
 74
     0
 49
0.0
 74
     0
 49
-0.125
 74
     0
  0
LTYPE
  5
49
330
5
100
AcDbSymbolTableRecord
100
AcDbLinetypeTableRecord
  2
DOT
 70
     0
  3
...................
 72
    65
 73
     2
 40
0.125
 49
0.0
 74
     0
 49
-0.125
 74
     0
  0
LTYPE
  5
4A
330
5
100
AcDbSymbolTableRecord
100
AcDbLinetypeTableRecord
  2
HIDDEN
 70
     0
  3
__ __ __ __ __ __ _
 72
    65
 73
     2
 40
0.1875
 49
0.125
 74
     0
 49
-0.0625
 74
     0
  0
LTYPE
  5
4B
330
5
100
AcDbSymbolTableRecord
100
AcDbLinetypeTableRecord
  2
PHANTOM
 70
     0
  3
___ _ _ ___ _ _ ___
 72
    65
 73
     6
 40
1.25
 49
0.625
 74
     0
 49
-0.125
 74
     0
 49
0.125
 74
     0
 49
-0.125
 74
     0
 49
0.125
 74
     0
 49
-0.125
 74
     0
  0
LTYPE
  5
4C
330
5
100
AcDbSymbolTableRecord
100
AcDbLinetypeTableRecord
  2
CUTTING
 70
     0
  3
________ _ _ ______
 72
    65
 73
     6
 40
1.4675
 49
1.0
 74
     0
 49
-0.0725
 74
     0
 49
0.125
 74
     0
 49
-0.0725
 74
     0
 49
0.125
 74
     0
 49
-0.0725
 74
     0
  0
LTYPE
  5
4D
330
5
100
AcDbSymbolTableRecord
100
AcDbLinetypeTableRecord
  2
STITCH
 70
     0
  3
_ _ _ _ _ _ _ _ _ _
 72
    65
 73
     2
 40
0.145
 49
0.0725
 74
     0
 49
-0.0725
 74
     0
  0
ENDTAB
  0
TABLE
  2
LAYER
  5
2
330
0
100
AcDbSymbolTable
 70
     5
  0
LAYER
  5
10
330
2
100
AcDbSymbolTableRecord
100
AcDbLayerTableRecord
  2
0
 70
     0
 62
     7
  6
Continuous
370
    -3
390
F
  0
LAYER
  5
40
330
2
100
AcDbSymbolTableRecord
100
AcDbLayerTableRecord
  2
Layer1
 70
     0
 62
     7
  6
Continuous
370
    -3
390
F
  0
LAYER
  5
41
330
2
100
AcDbSymbolTableRecord
100
AcDbLayerTableRecord
  2
DXF_baseSmall-upper
 70
     0
 62
     7
  6
Continuous
370
    -3
390
F
  0
LAYER
  5
42
330
2
100
AcDbSymbolTableRecord
100
AcDbLayerTableRecord
  2
DXF_baseSmall-upper_Frozen
 70
     4
 62
    -7
  6
Continuous
370
    -3
390
F
  0
LAYER
  5
43
330
2
100
AcDbSymbolTableRecord
100
AcDbLayerTableRecord
  2
DXF_baseSmall-upper_Frozen_OLD
 70
     4
 62
    -7
  6
Continuous
370
    -3
390
F
  0
ENDTAB
  0
TABLE
  2
STYLE
  5
3
330
0
100
AcDbSymbolTable
 70
     1
  0
STYLE
  5
11
330
3
100
AcDbSymbolTableRecord
100
AcDbTextStyleTableRecord
  2
Standard
 70
     0
 40
0.0
 41
1.0
 50
0.0
 71
     0
 42
2.5
  3
txt
  4

  0
ENDTAB
  0
TABLE
  2
VIEW
  5
6
330
0
100
AcDbSymbolTable
 70
     0
  0
ENDTAB
  0
TABLE
  2
UCS
  5
7
330
0
100
AcDbSymbolTable
 70
     0
  0
ENDTAB
  0
TABLE
  2
APPID
  5
9
330
0
100
AcDbSymbolTable
 70
     2
  0
APPID
  5
12
330
9
100
AcDbSymbolTableRecord
100
AcDbRegAppTableRecord
  2
ACAD
 70
     0
  0
APPID
  5
3F
330
9
100
AcDbSymbolTableRecord
100
AcDbRegAppTableRecord
  2
Encore Software ViaCAD
 70
     0
  0
ENDTAB
  0
TABLE
  2
DIMSTYLE
  5
A
330
0
100
AcDbSymbolTable
 70
     1
100
AcDbDimStyleTable
  0
DIMSTYLE
105
27
330
A
100
AcDbSymbolTableRecord
100
AcDbDimStyleTableRecord
  2
ISO-25
 70
     0
 41
2.5
 42
0.625
 43
3.75
 44
1.25
 73
     0
 74
     0
 77
     1
 78
     8
140
2.5
141
2.5
143
0.03937007874016
147
0.625
171
     3
172
     1
178
     0
271
     2
272
     2
274
     3
278
    44
283
     0
284
     8
340
11
  0
ENDTAB
  0
TABLE
  2
BLOCK_RECORD
  5
1
330
0
100
AcDbSymbolTable
 70
     1
  0
BLOCK_RECORD
  5
1F
330
1
100
AcDbSymbolTableRecord
100
AcDbBlockTableRecord
  2
*Model_Space
340
22
  0
BLOCK_RECORD
  5
1B
330
1
100
AcDbSymbolTableRecord
100
AcDbBlockTableRecord
  2
*Paper_Space
340
1E
  0
BLOCK_RECORD
  5
23
330
1
100
AcDbSymbolTableRecord
100
AcDbBlockTableRecord
  2
*Paper_Space0
340
26
  0
ENDTAB
  0
ENDSEC
  0
SECTION
  2
BLOCKS
  0
BLOCK
  5
20
330
1F
100
AcDbEntity
  8
0
100
AcDbBlockBegin
  2
*Model_Space
 70
     0
 10
0.0
 20
0.0
 30
0.0
  3
*Model_Space
  1

  0
ENDBLK
  5
21
330
1F
100
AcDbEntity
  8
0
100
AcDbBlockEnd
  0
BLOCK
  5
1C
330
1B
100
AcDbEntity
 67
     1
  8
0
100
AcDbBlockBegin
  2
*Paper_Space
 70
     0
 10
0.0
 20
0.0
 30
0.0
  3
*Paper_Space
  1

  0
ENDBLK
  5
1D
330
1B
100
AcDbEntity
 67
     1
  8
0
100
AcDbBlockEnd
  0
BLOCK
  5
24
330
23
100
AcDbEntity
  8
0
100
AcDbBlockBegin
  2
*Paper_Space0
 70
     0
 10
0.0
 20
0.0
 30
0.0
  3
*Paper_Space0
  1

  0
ENDBLK
  5
25
330
23
100
AcDbEntity
  8
0
100
AcDbBlockEnd
  0
ENDSEC
  0
SECTION
  2
ENTITIES
  0
SPLINE
  5
4E
330
1F
100
AcDbEntity
  8
DXF_baseSmall-upper_Frozen_OLD
 62
   178
 48
25.39999961853027
370
    35
100
AcDbSpline
210
0.0
220
0.0
230
1.0
 70
    11
 71
     3
 72
    77
 73
    73
 74
     0
 42
0.0000001
 43
0.0000001
 12
1.0
 22
0.0
 32
0.0
 13
1.0
 23
0.0
 33
0.0
 40
0.0
 40
0.0
 40
0.0
 40
0.0
 40
1.0
 40
1.0
 40
1.0
 40
2.0
 40
2.0
 40
2.0
 40
3.0
 40
3.0
 40
3.0
 40
4.0
 40
4.0
 40
4.0
 40
5.0
 40
5.0
 40
5.0
 40
6.0
 40
6.0
 40
6.0
 40
7.0
 40
7.0
 40
7.0
 40
8.0
 40
8.0
 40
8.0
 40
9.0
 40
9.0
 40
9.0
 40
10.0
 40
10.0
 40
10.0
 40
11.0
 40
11.0
 40
11.0
 40
12.0
 40
12.0
 40
12.0
 40
13.0
 40
13.0
 40
13.0
 40
14.0
 40
14.0
 40
14.0
 40
15.0
 40
15.0
 40
15.0
 40
16.0
 40
16.0
 40
16.0
 40
17.0
 40
17.0
 40
17.0
 40
18.0
 40
18.0
 40
18.0
 40
19.0
 40
19.0
 40
19.0
 40
20.0
 40
20.0
 40
20.0
 40
21.0
 40
21.0
 40
21.0
 40
22.0
 40
22.0
 40
22.0
 40
23.0
 40
23.0
 40
23.0
 40
24.0
 40
24.0
 40
24.0
 40
24.0
 10
99.93756917317708
 20
-238.0171685112847
 30
0.0
 10
98.65771620008681
 20
-240.2333984375
 30
0.0
 10
95.96296251085069
 20
-241.0740017361111
 30
0.0
 10
93.91795383029513
 20
-239.8937120225694
 30
0.0
 10
93.91795383029513
 20
-239.8937120225694
 30
0.0
 10
51.02410346137152
 20
-215.1289876302083
 30
0.0
 10
51.02410346137152
 20
-215.1289876302083
 30
0.0
 10
51.02410346137152
 20
-215.1289876302083
 30
0.0
 10
33.26119113498262
 20
-245.8936903211805
 30
0.0
 10
33.26119113498262
 20
-245.8936903211805
 30
0.0
 10
33.26119113498262
 20
-245.8936903211805
 30
0.0
 10
79.61632893880208
 20
-326.1837076822916
 30
0.0
 10
79.61632893880208
 20
-326.1837076822916
 30
0.0
 10
79.61632893880208
 20
-326.1837076822916
 30
0.0
 10
115.1424981011285
 20
-326.1823296440972
 30
0.0
 10
115.1424981011285
 20
-326.1823296440972
 30
0.0
 10
115.1424981011285
 20
-326.1823296440972
 30
0.0
 10
115.1412923177083
 20
-276.6525363498262
 30
0.0
 10
115.1412923177083
 20
-276.6525363498262
 30
0.0
 10
115.1421535915799
 20
-274.2916124131943
 30
0.0
 10
117.2173068576389
 20
-272.3795844184028
 30
0.0
 10
119.777357313368
 20
-272.3802734375
 30
0.0
 10
119.777357313368
 20
-272.3802734375
 30
0.0
 10
132.1659206814236
 20
-272.3795844184028
 30
0.0
 10
132.1659206814236
 20
-272.3795844184028
 30
0.0
 10
134.7252821180555
 20
-272.3799289279513
 30
0.0
 10
136.8009521484375
 20
-274.2923014322916
 30
0.0
 10
136.8006076388889
 20
-276.6515028211806
 30
0.0
 10
136.8006076388889
 20
-276.6515028211806
 30
0.0
 10
136.8016411675347
 20
-326.1837076822916
 30
0.0
 10
136.8016411675347
 20
-326.1837076822916
 30
0.0
 10
136.8016411675347
 20
-326.1837076822916
 30
0.0
 10
172.3264322916667
 20
-326.181640625
 30
0.0
 10
172.3264322916667
 20
-326.181640625
 30
0.0
 10
172.3264322916667
 20
-326.181640625
 30
0.0
 10
218.6826036241319
 20
-245.8940348307291
 30
0.0
 10
218.6826036241319
 20
-245.8940348307291
 30
0.0
 10
218.6826036241319
 20
-245.8940348307291
 30
0.0
 10
200.9190022786458
 20
-215.1289876302083
 30
0.0
 10
200.9190022786458
 20
-215.1289876302083
 30
0.0
 10
200.9190022786458
 20
-215.1289876302083
 30
0.0
 10
158.0237738715278
 20
-239.8944010416666
 30
0.0
 10
158.0237738715278
 20
-239.8944010416666
 30
0.0
 10
155.9804877387153
 20
-241.0733127170139
 30
0.0
 10
153.2857340494791
 20
-240.2327094184027
 30
0.0
 10
152.0045030381944
 20
-238.0161349826389
 30
0.0
 10
152.0045030381944
 20
-238.0161349826389
 30
0.0
 10
145.8105658637153
 20
-227.2874186197916
 30
0.0
 10
145.8105658637153
 20
-227.2874186197916
 30
0.0
 10
144.530712890625
 20
-225.0694661458333
 30
0.0
 10
145.1504855685764
 20
-222.3161458333333
 30
0.0
 10
147.1937717013889
 20
-221.1365451388889
 30
0.0
 10
147.1937717013889
 20
-221.1365451388889
 30
0.0
 10
190.0876220703125
 20
-196.3704427083333
 30
0.0
 10
190.0876220703125
 20
-196.3704427083333
 30
0.0
 10
190.0876220703125
 20
-196.3704427083333
 30
0.0
 10
172.3253987630208
 20
-165.6053955078125
 30
0.0
 10
172.3253987630208
 20
-165.6053955078125
 30
0.0
 10
172.3253987630208
 20
-165.6053955078125
 30
0.0
 10
79.61598442925347
 20
-165.6050509982639
 30
0.0
 10
79.61598442925347
 20
-165.6050509982639
 30
0.0
 10
79.61598442925347
 20
-165.6050509982639
 30
0.0
 10
61.85445014105903
 20
-196.3718207465278
 30
0.0
 10
61.85445014105903
 20
-196.3718207465278
 30
0.0
 10
61.85445014105903
 20
-196.3718207465278
 30
0.0
 10
104.7486450195312
 20
-221.1358561197916
 30
0.0
 10
104.7486450195312
 20
-221.1358561197916
 30
0.0
 10
106.7927924262153
 20
-222.3168348524305
 30
0.0
 10
107.4111870659722
 20
-225.0698106553819
 30
0.0
 10
106.1318508572049
 20
-227.2884521484375
 30
0.0
 10
106.1318508572049
 20
-227.2884521484375
 30
0.0
 10
99.93756917317708
 20
-238.0171685112847
 30
0.0
 10
99.93756917317708
 20
-238.0171685112847
 30
0.0
  0
SPLINE
  5
4F
330
1F
100
AcDbEntity
  8
DXF_baseSmall-upper_Frozen_OLD
 62
   178
 48
25.39999961853027
370
    35
100
AcDbSpline
210
0.0
220
0.0
230
1.0
 70
    11
 71
     3
 72
    17
 73
    13
 74
     0
 42
0.0000001
 43
0.0000001
 12
1.0
 22
0.0
 32
0.0
 13
1.0
 23
0.0
 33
0.0
 40
0.0
 40
0.0
 40
0.0
 40
0.0
 40
1.0
 40
1.0
 40
1.0
 40
2.0
 40
2.0
 40
2.0
 40
3.0
 40
3.0
 40
3.0
 40
4.0
 40
4.0
 40
4.0
 40
4.0
 10
120.2693169487847
 20
-236.0159125434027
 30
0.0
 10
125.7241088867187
 20
-232.8674397786458
 30
0.0
 10
132.7012885199653
 20
-234.7367485894097
 30
0.0
 10
135.8507948133681
 20
-240.1913682725694
 30
0.0
 10
138.9996120876736
 20
-245.647021484375
 30
0.0
 10
137.1313368055555
 20
-252.6226508246527
 30
0.0
 10
131.6746500651041
 20
-255.7721571180556
 30
0.0
 10
126.21865234375
 20
-258.9226969401041
 30
0.0
 10
119.2430230034722
 20
-257.0520100911459
 30
0.0
 10
116.0926554361979
 20
-251.5973904079861
 30
0.0
 10
112.9426323784722
 20
-246.143115234375
 30
0.0
 10
114.8122856987847
 20
-239.1661078559027
 30
0.0
 10
120.2693169487847
 20
-236.0159125434027
 30
0.0
  0
SPLINE
  5
50
330
1F
100
AcDbEntity
  8
DXF_baseSmall-upper_Frozen_OLD
 62
   178
 48
25.39999961853027
370
    35
100
AcDbSpline
210
0.0
220
0.0
230
1.0
 70
    11
 71
     3
 72
    17
 73
    13
 74
     0
 42
0.0000001
 43
0.0000001
 12
1.0
 22
0.0
 32
0.0
 13
1.0
 23
0.0
 33
0.0
 40
0.0
 40
0.0
 40
0.0
 40
0.0
 40
1.0
 40
1.0
 40
1.0
 40
2.0
 40
2.0
 40
2.0
 40
3.0
 40
3.0
 40
3.0
 40
4.0
 40
4.0
 40
4.0
 40
4.0
 10
170.1667019314236
 20
-321.0749755859375
 30
0.0
 10
169.7891194661458
 20
-321.7288547092012
 30
0.0
 10
168.9516167534722
 20
-321.95244140625
 30
0.0
 10
168.295326063368
 20
-321.574169921875
 30
0.0
 10
167.64248046875
 20
-321.1962429470487
 30
0.0
 10
167.4175157335069
 20
-320.3594292534722
 30
0.0
 10
167.7954427083333
 20
-319.7048611111112
 30
0.0
 10
168.1733696831597
 20
-319.05029296875
 30
0.0
 10
169.0101833767361
 20
-318.8249837239584
 30
0.0
 10
169.6644070095486
 20
-319.2032552083334
 30
0.0
 10
170.3206976996528
 20
-319.5815266927084
 30
0.0
 10
170.5432508680555
 20
-320.4179958767362
 30
0.0
 10
170.1667019314236
 20
-321.0749755859375
 30
0.0
  0
SPLINE
  5
51
330
1F
100
AcDbEntity
  8
DXF_baseSmall-upper_Frozen_OLD
 62
   178
 48
25.39999961853027
370
    35
100
AcDbSpline
210
0.0
220
0.0
230
1.0
 70
    11
 71
     3
 72
    17
 73
    13
 74
     0
 42
0.0000001
 43
0.0000001
 12
1.0
 22
0.0
 32
0.0
 13
1.0
 23
0.0
 33
0.0
 40
0.0
 40
0.0
 40
0.0
 40
0.0
 40
1.0
 40
1.0
 40
1.0
 40
2.0
 40
2.0
 40
2.0
 40
3.0
 40
3.0
 40
3.0
 40
4.0
 40
4.0
 40
4.0
 40
4.0
 10
84.0977091471354
 20
-320.9902262369791
 30
0.0
 10
83.72098795572916
 20
-321.6437608506944
 30
0.0
 10
82.88417426215277
 20
-321.8676920572915
 30
0.0
 10
82.22822808159722
 20
-321.4890760633681
 30
0.0
 10
81.5736599392361
 20
-321.1118381076387
 30
0.0
 10
81.35007324218749
 20
-320.2753689236112
 30
0.0
 10
81.72800021701387
 20
-319.62080078125
 30
0.0
 10
82.10592719184027
 20
-318.9662326388888
 30
0.0
 10
82.94239637586806
 20
-318.7409233940972
 30
0.0
 10
83.59644775390625
 20
-319.118505859375
 30
0.0
 10
84.25170491536458
 20
-319.4971218532987
 30
0.0
 10
84.47684190538193
 20
-320.3346245659722
 30
0.0
 10
84.0977091471354
 20
-320.9902262369791
 30
0.0
  0
SPLINE
  5
52
330
1F
100
AcDbEntity
  8
DXF_baseSmall-upper_Frozen_OLD
 62
   178
 48
25.39999961853027
370
    35
100
AcDbSpline
210
0.0
220
0.0
230
1.0
 70
    11
 71
     3
 72
    17
 73
    13
 74
     0
 42
0.0000001
 43
0.0000001
 12
1.0
 22
0.0
 32
0.0
 13
1.0
 23
0.0
 33
0.0
 40
0.0
 40
0.0
 40
0.0
 40
0.0
 40
1.0
 40
1.0
 40
1.0
 40
2.0
 40
2.0
 40
2.0
 40
3.0
 40
3.0
 40
3.0
 40
4.0
 40
4.0
 40
4.0
 40
4.0
 10
213.2231608072916
 20
-246.7205132378472
 30
0.0
 10
212.844544813368
 20
-247.3757703993055
 30
0.0
 10
212.0080756293403
 20
-247.6000461154514
 30
0.0
 10
211.3521294487847
 20
-247.2214301215277
 30
0.0
 10
210.6982503255208
 20
-246.84384765625
 30
0.0
 10
210.4743191189236
 20
-246.0070339626736
 30
0.0
 10
210.8519015842014
 20
-245.3521213107639
 30
0.0
 10
211.2291395399305
 20
-244.6965196397569
 30
0.0
 10
212.0680202907986
 20
-244.4725884331597
 30
0.0
 10
212.7215549045139
 20
-244.8512044270833
 30
0.0
 10
213.3754340277778
 20
-245.2291314019097
 30
0.0
 10
213.6007432725694
 20
-246.0659450954861
 30
0.0
 10
213.2231608072916
 20
-246.7205132378472
 30
0.0
  0
SPLINE
  5
53
330
1F
100
AcDbEntity
  8
DXF_baseSmall-upper_Frozen_OLD
 62
   178
 48
25.39999961853027
370
    35
100
AcDbSpline
210
0.0
220
0.0
230
1.0
 70
    11
 71
     3
 72
    17
 73
    13
 74
     0
 42
0.0000001
 43
0.0000001
 12
1.0
 22
0.0
 32
0.0
 13
1.0
 23
0.0
 33
0.0
 40
0.0
 40
0.0
 40
0.0
 40
0.0
 40
1.0
 40
1.0
 40
1.0
 40
2.0
 40
2.0
 40
2.0
 40
3.0
 40
3.0
 40
3.0
 40
4.0
 40
4.0
 40
4.0
 40
4.0
 10
170.1315619574653
 20
-172.0838975694444
 30
0.0
 10
169.7529459635417
 20
-172.7384657118055
 30
0.0
 10
168.9161322699653
 20
-172.9634304470486
 30
0.0
 10
168.2601860894097
 20
-172.5861924913194
 30
0.0
 10
167.6076850043403
 20
-172.2068874782986
 30
0.0
 10
167.3816867404514
 20
-171.3686957465277
 30
0.0
 10
167.760302734375
 20
-170.7161946614583
 30
0.0
 10
168.1382297092014
 20
-170.0616265190972
 30
0.0
 10
168.975732421875
 20
-169.8356282552083
 30
0.0
 10
169.6299560546875
 20
-170.2135552300347
 30
0.0
 10
170.2838351779514
 20
-170.5921712239583
 30
0.0
 10
170.5094889322916
 20
-171.4282958984375
 30
0.0
 10
170.1315619574653
 20
-172.0838975694444
 30
0.0
  0
SPLINE
  5
54
330
1F
100
AcDbEntity
  8
DXF_baseSmall-upper_Frozen_OLD
 62
   178
 48
25.39999961853027
370
    35
100
AcDbSpline
210
0.0
220
0.0
230
1.0
 70
    11
 71
     3
 72
    17
 73
    13
 74
     0
 42
0.0000001
 43
0.0000001
 12
1.0
 22
0.0
 32
0.0
 13
1.0
 23
0.0
 33
0.0
 40
0.0
 40
0.0
 40
0.0
 40
0.0
 40
1.0
 40
1.0
 40
1.0
 40
2.0
 40
2.0
 40
2.0
 40
3.0
 40
3.0
 40
3.0
 40
4.0
 40
4.0
 40
4.0
 40
4.0
 10
84.14817979600693
 20
-172.0838975694444
 30
0.0
 10
83.76956380208334
 20
-172.7384657118055
 30
0.0
 10
82.93292236328125
 20
-172.9637749565972
 30
0.0
 10
82.27697618272568
 20
-172.5858479817708
 30
0.0
 10
81.62344156901041
 20
-172.2072319878472
 30
0.0
 10
81.39916585286458
 20
-171.3707628038194
 30
0.0
 10
81.77674831814234
 20
-170.7155056423611
 30
0.0
 10
82.15501980251734
 20
-170.0616265190972
 30
0.0
 10
82.99114447699652
 20
-169.8363172743055
 30
0.0
 10
83.64691840277777
 20
-170.2138997395833
 30
0.0
 10
84.30079752604165
 20
-170.5928602430556
 30
0.0
 10
84.5255900065104
 20
-171.4307074652777
 30
0.0
 10
84.14817979600693
 20
-172.0838975694444
 30
0.0
  0
SPLINE
  5
55
330
1F
100
AcDbEntity
  8
DXF_baseSmall-upper_Frozen_OLD
 62
   178
 48
25.39999961853027
370
    35
100
AcDbSpline
210
0.0
220
0.0
230
1.0
 70
    11
 71
     3
 72
    17
 73
    13
 74
     0
 42
0.0000001
 43
0.0000001
 12
1.0
 22
0.0
 32
0.0
 13
1.0
 23
0.0
 33
0.0
 40
0.0
 40
0.0
 40
0.0
 40
0.0
 40
1.0
 40
1.0
 40
1.0
 40
2.0
 40
2.0
 40
2.0
 40
3.0
 40
3.0
 40
3.0
 40
4.0
 40
4.0
 40
4.0
 40
4.0
 10
41.14632568359374
 20
-246.5944227430555
 30
0.0
 10
40.76788194444444
 20
-247.2496799045139
 30
0.0
 10
39.93210177951387
 20
-247.4736111111111
 30
0.0
 10
39.27615559895834
 20
-247.0953396267361
 30
0.0
 10
38.62279324001737
 20
-246.7177571614583
 30
0.0
 10
38.39748399522569
 20
-245.8805989583333
 30
0.0
 10
38.77506646050347
 20
-245.225341796875
 30
0.0
 10
39.15351019965278
 20
-244.5714626736111
 30
0.0
 10
39.99084065755209
 20
-244.3468424479166
 30
0.0
 10
40.6455810546875
 20
-244.7240804036458
 30
0.0
 10
41.29946017795137
 20
-245.1026963975694
 30
0.0
 10
41.52356363932291
 20
-245.9398546006944
 30
0.0
 10
41.14632568359374
 20
-246.5944227430555
 30
0.0
  0
POLYLINE
  5
56
330
1F
100
AcDbEntity
  8
DXF_baseSmall-upper_Frozen_OLD
 62
   178
 48
25.39999961853027
370
    18
100
AcDb3dPolyline
 66
     1
 10
0.0
 20
0.0
 30
0.0
 70
     8
  0
VERTEX
  5
57
330
56
100
AcDbEntity
  8
DXF_baseSmall-upper_Frozen_OLD
 62
   178
 48
25.39999961853027
370
    18
100
AcDbVertex
100
AcDb3dPolylineVertex
 10
127.279052734375
 20
-169.9341579861111
 30
0.0
 70
    32
  0
VERTEX
  5
58
330
56
100
AcDbEntity
  8
DXF_baseSmall-upper_Frozen_OLD
 62
   178
 48
25.39999961853027
370
    18
100
AcDbVertex
100
AcDb3dPolylineVertex
 10
119.9229125976562
 20
-169.9348470052083
 30
0.0
 70
    32
  0
VERTEX
  5
59
330
56
100
AcDbEntity
  8
DXF_baseSmall-upper_Frozen_OLD
 62
   178
 48
25.39999961853027
370
    18
100
AcDbVertex
100
AcDb3dPolylineVertex
 10
119.3954684787326
 20
-170.8481418185764
 30
0.0
 70
    32
  0
VERTEX
  5
5A
330
56
100
AcDbEntity
  8
DXF_baseSmall-upper_Frozen_OLD
 62
   178
 48
25.39999961853027
370
    18
100
AcDbVertex
100
AcDb3dPolylineVertex
 10
127.8068413628472
 20
-170.848486328125
 30
0.0
 70
    32
  0
VERTEX
  5
5B
330
56
100
AcDbEntity
  8
DXF_baseSmall-upper_Frozen_OLD
 62
   178
 48
25.39999961853027
370
    18
100
AcDbVertex
100
AcDb3dPolylineVertex
 10
127.279052734375
 20
-169.9341579861111
 30
0.0
 70
    32
  0
SEQEND
  5
5C
330
56
100
AcDbEntity
  8
DXF_baseSmall-upper_Frozen_OLD
 62
   178
 48
25.39999961853027
370
    18
  0
POLYLINE
  5
5D
330
1F
100
AcDbEntity
  8
DXF_baseSmall-upper_Frozen_OLD
 62
   178
 48
25.39999961853027
370
    18
100
AcDb3dPolyline
 66
     1
 10
0.0
 20
0.0
 30
0.0
 70
     8
  0
VERTEX
  5
5E
330
5D
100
AcDbEntity
  8
DXF_baseSmall-upper_Frozen_OLD
 62
   178
 48
25.39999961853027
370
    18
100
AcDbVertex
100
AcDb3dPolylineVertex
 10
123.6077867296007
 20
-177.6329128689236
 30
0.0
 70
    32
  0
VERTEX
  5
5F
330
5D
100
AcDbEntity
  8
DXF_baseSmall-upper_Frozen_OLD
 62
   178
 48
25.39999961853027
370
    18
100
AcDbVertex
100
AcDb3dPolylineVertex
 10
124.0640896267361
 20
-176.8429524739583
 30
0.0
 70
    32
  0
VERTEX
  5
60
330
5D
100
AcDbEntity
  8
DXF_baseSmall-upper_Frozen_OLD
 62
   178
 48
25.39999961853027
370
    18
100
AcDbVertex
100
AcDb3dPolylineVertex
 10
124.0649509006076
 20
-175.015673828125
 30
0.0
 70
    32
  0
VERTEX
  5
61
330
5D
100
AcDbEntity
  8
DXF_baseSmall-upper_Frozen_OLD
 62
   178
 48
25.39999961853027
370
    18
100
AcDbVertex
100
AcDb3dPolylineVertex
 10
124.0637451171875
 20
-172.5176350911458
 30
0.0
 70
    32
  0
VERTEX
  5
62
330
5D
100
AcDbEntity
  8
DXF_baseSmall-upper_Frozen_OLD
 62
   178
 48
25.39999961853027
370
    18
100
AcDbVertex
100
AcDb3dPolylineVertex
 10
124.0639173719618
 20
-171.6043402777778
 30
0.0
 70
    32
  0
VERTEX
  5
63
330
5D
100
AcDbEntity
  8
DXF_baseSmall-upper_Frozen_OLD
 62
   178
 48
25.39999961853027
370
    18
100
AcDbVertex
100
AcDb3dPolylineVertex
 10
123.1509670681424
 20
-171.6043402777778
 30
0.0
 70
    32
  0
VERTEX
  5
64
330
5D
100
AcDbEntity
  8
DXF_baseSmall-upper_Frozen_OLD
 62
   178
 48
25.39999961853027
370
    18
100
AcDbVertex
100
AcDb3dPolylineVertex
 10
123.151311577691
 20
-172.5186686197916
 30
0.0
 70
    32
  0
VERTEX
  5
65
330
5D
100
AcDbEntity
  8
DXF_baseSmall-upper_Frozen_OLD
 62
   178
 48
25.39999961853027
370
    18
100
AcDbVertex
100
AcDb3dPolylineVertex
 10
123.151311577691
 20
-175.015673828125
 30
0.0
 70
    32
  0
VERTEX
  5
66
330
5D
100
AcDbEntity
  8
DXF_baseSmall-upper_Frozen_OLD
 62
   178
 48
25.39999961853027
370
    18
100
AcDbVertex
100
AcDb3dPolylineVertex
 10
123.1507948133681
 20
-176.8422634548611
 30
0.0
 70
    32
  0
VERTEX
  5
67
330
5D
100
AcDbEntity
  8
DXF_baseSmall-upper_Frozen_OLD
 62
   178
 48
25.39999961853027
370
    18
100
AcDbVertex
100
AcDb3dPolylineVertex
 10
123.6077867296007
 20
-177.6329128689236
 30
0.0
 70
    32
  0
SEQEND
  5
68
330
5D
100
AcDbEntity
  8
DXF_baseSmall-upper_Frozen_OLD
 62
   178
 48
25.39999961853027
370
    18
  0
POLYLINE
  5
69
330
1F
100
AcDbEntity
  8
DXF_baseSmall-upper_Frozen_OLD
 62
   178
 48
25.39999961853027
370
    18
100
AcDb3dPolyline
 66
     1
 10
0.0
 20
0.0
 30
0.0
 70
     8
  0
VERTEX
  5
6A
330
69
100
AcDbEntity
  8
DXF_baseSmall-upper_Frozen_OLD
 62
   178
 48
25.39999961853027
370
    18
100
AcDbVertex
100
AcDb3dPolylineVertex
 10
122.3723754882812
 20
-176.0505805121527
 30
0.0
 70
    32
  0
VERTEX
  5
6B
330
69
100
AcDbEntity
  8
DXF_baseSmall-upper_Frozen_OLD
 62
   178
 48
25.39999961853027
370
    18
100
AcDbVertex
100
AcDb3dPolylineVertex
 10
122.3725477430555
 20
-174.2239908854166
 30
0.0
 70
    32
  0
VERTEX
  5
6C
330
69
100
AcDbEntity
  8
DXF_baseSmall-upper_Frozen_OLD
 62
   178
 48
25.39999961853027
370
    18
100
AcDbVertex
100
AcDb3dPolylineVertex
 10
121.3874226888021
 20
-172.5186686197916
 30
0.0
 70
    32
  0
VERTEX
  5
6D
330
69
100
AcDbEntity
  8
DXF_baseSmall-upper_Frozen_OLD
 62
   178
 48
25.39999961853027
370
    18
100
AcDbVertex
100
AcDb3dPolylineVertex
 10
122.3735812717014
 20
-172.5186686197916
 30
0.0
 70
    32
  0
VERTEX
  5
6E
330
69
100
AcDbEntity
  8
DXF_baseSmall-upper_Frozen_OLD
 62
   178
 48
25.39999961853027
370
    18
100
AcDbVertex
100
AcDb3dPolylineVertex
 10
122.3718587239583
 20
-171.6039957682291
 30
0.0
 70
    32
  0
VERTEX
  5
6F
330
69
100
AcDbEntity
  8
DXF_baseSmall-upper_Frozen_OLD
 62
   178
 48
25.39999961853027
370
    18
100
AcDbVertex
100
AcDb3dPolylineVertex
 10
119.8064683702257
 20
-171.6043402777778
 30
0.0
 70
    32
  0
VERTEX
  5
70
330
69
100
AcDbEntity
  8
DXF_baseSmall-upper_Frozen_OLD
 62
   178
 48
25.39999961853027
370
    18
100
AcDbVertex
100
AcDb3dPolylineVertex
 10
122.3723754882812
 20
-176.0505805121527
 30
0.0
 70
    32
  0
SEQEND
  5
71
330
69
100
AcDbEntity
  8
DXF_baseSmall-upper_Frozen_OLD
 62
   178
 48
25.39999961853027
370
    18
  0
POLYLINE
  5
72
330
1F
100
AcDbEntity
  8
DXF_baseSmall-upper_Frozen_OLD
 62
   178
 48
25.39999961853027
370
    18
100
AcDb3dPolyline
 66
     1
 10
0.0
 20
0.0
 30
0.0
 70
     8
  0
VERTEX
  5
73
330
72
100
AcDbEntity
  8
DXF_baseSmall-upper_Frozen_OLD
 62
   178
 48
25.39999961853027
370
    18
100
AcDbVertex
100
AcDb3dPolylineVertex
 10
124.8435424804687
 20
-172.5186686197916
 30
0.0
 70
    32
  0
VERTEX
  5
74
330
72
100
AcDbEntity
  8
DXF_baseSmall-upper_Frozen_OLD
 62
   178
 48
25.39999961853027
370
    18
100
AcDbVertex
100
AcDb3dPolylineVertex
 10
125.8284952799479
 20
-172.5179796006944
 30
0.0
 70
    32
  0
VERTEX
  5
75
330
72
100
AcDbEntity
  8
DXF_baseSmall-upper_Frozen_OLD
 62
   178
 48
25.39999961853027
370
    18
100
AcDbVertex
100
AcDb3dPolylineVertex
 10
124.8438869900174
 20
-174.2246799045139
 30
0.0
 70
    32
  0
VERTEX
  5
76
330
72
100
AcDbEntity
  8
DXF_baseSmall-upper_Frozen_OLD
 62
   178
 48
25.39999961853027
370
    18
100
AcDbVertex
100
AcDb3dPolylineVertex
 10
124.8433702256944
 20
-176.0505805121527
 30
0.0
 70
    32
  0
VERTEX
  5
77
330
72
100
AcDbEntity
  8
DXF_baseSmall-upper_Frozen_OLD
 62
   178
 48
25.39999961853027
370
    18
100
AcDbVertex
100
AcDb3dPolylineVertex
 10
127.4103108723958
 20
-171.6043402777778
 30
0.0
 70
    32
  0
VERTEX
  5
78
330
72
100
AcDbEntity
  8
DXF_baseSmall-upper_Frozen_OLD
 62
   178
 48
25.39999961853027
370
    18
100
AcDbVertex
100
AcDb3dPolylineVertex
 10
124.8431979709201
 20
-171.6043402777778
 30
0.0
 70
    32
  0
VERTEX
  5
79
330
72
100
AcDbEntity
  8
DXF_baseSmall-upper_Frozen_OLD
 62
   178
 48
25.39999961853027
370
    18
100
AcDbVertex
100
AcDb3dPolylineVertex
 10
124.8435424804687
 20
-172.5186686197916
 30
0.0
 70
    32
  0
SEQEND
  5
7A
330
72
100
AcDbEntity
  8
DXF_baseSmall-upper_Frozen_OLD
 62
   178
 48
25.39999961853027
370
    18
  0
SPLINE
  5
7B
330
1F
100
AcDbEntity
  8
DXF_baseSmall-upper_Frozen_OLD
 62
   178
 48
25.39999961853027
370
    35
100
AcDbSpline
210
0.0
220
0.0
230
1.0
 70
    11
 71
     3
 72
    17
 73
    13
 74
     0
 42
0.0000001
 43
0.0000001
 12
1.0
 22
0.0
 32
0.0
 13
1.0
 23
0.0
 33
0.0
 40
0.0
 40
0.0
 40
0.0
 40
0.0
 40
1.0
 40
1.0
 40
1.0
 40
2.0
 40
2.0
 40
2.0
 40
3.0
 40
3.0
 40
3.0
 40
4.0
 40
4.0
 40
4.0
 40
4.0
 10
173.9590630425347
 20
-181.1844618055555
 30
0.0
 10
173.5439290364583
 20
-180.46650390625
 30
0.0
 10
173.7902533637153
 20
-179.5483859592014
 30
0.0
 10
174.5082112630208
 20
-179.1339409722222
 30
0.0
 10
175.2251356336805
 20
-178.7198404947916
 30
0.0
 10
176.1429090711806
 20
-178.9658203125
 30
0.0
 10
176.5570095486111
 20
-179.6830891927083
 30
0.0
 10
176.970765516493
 20
-180.4007025824652
 30
0.0
 10
176.7258192274305
 20
-181.3188205295139
 30
0.0
 10
176.0092393663194
 20
-181.7329210069444
 30
0.0
 10
175.2902479383681
 20
-182.147021484375
 30
0.0
 10
174.3731635199653
 20
-181.9003526475694
 30
0.0
 10
173.9590630425347
 20
-181.1844618055555
 30
0.0
  0
SPLINE
  5
7C
330
1F
100
AcDbEntity
  8
DXF_baseSmall-upper_Frozen_OLD
 62
   178
 48
25.39999961853027
370
    35
100
AcDbSpline
210
0.0
220
0.0
230
1.0
 70
    11
 71
     3
 72
    17
 73
    13
 74
     0
 42
0.0000001
 43
0.0000001
 12
1.0
 22
0.0
 32
0.0
 13
1.0
 23
0.0
 33
0.0
 40
0.0
 40
0.0
 40
0.0
 40
0.0
 40
1.0
 40
1.0
 40
1.0
 40
2.0
 40
2.0
 40
2.0
 40
3.0
 40
3.0
 40
3.0
 40
4.0
 40
4.0
 40
4.0
 40
4.0
 10
130.6573133680556
 20
-206.1834526909722
 30
0.0
 10
130.2428683810764
 20
-205.4658393012153
 30
0.0
 10
130.4891927083333
 20
-204.5490993923611
 30
0.0
 10
131.2074951171875
 20
-204.1343098958333
 30
0.0
 10
131.9244194878472
 20
-203.7195203993055
 30
0.0
 10
132.8418484157986
 20
-203.9658447265625
 30
0.0
 10
133.2562934027778
 20
-204.6827690972222
 30
0.0
 10
133.6703938802083
 20
-205.4000379774305
 30
0.0
 10
133.4240695529514
 20
-206.319189453125
 30
0.0
 10
132.7061116536458
 20
-206.7319118923611
 30
0.0
 10
131.9888427734375
 20
-207.1477349175347
 30
0.0
 10
131.0714138454861
 20
-206.9007215711805
 30
0.0
 10
130.6573133680556
 20
-206.1834526909722
 30
0.0
  0
SPLINE
  5
7D
330
1F
100
AcDbEntity
  8
DXF_baseSmall-upper_Frozen_OLD
 62
   178
 48
25.39999961853027
370
    35
100
AcDbSpline
210
0.0
220
0.0
230
1.0
 70
    11
 71
     3
 72
    17
 73
    13
 74
     0
 42
0.0000001
 43
0.0000001
 12
1.0
 22
0.0
 32
0.0
 13
1.0
 23
0.0
 33
0.0
 40
0.0
 40
0.0
 40
0.0
 40
0.0
 40
1.0
 40
1.0
 40
1.0
 40
2.0
 40
2.0
 40
2.0
 40
3.0
 40
3.0
 40
3.0
 40
4.0
 40
4.0
 40
4.0
 40
4.0
 10
46.0281982421875
 20
-236.5375
 30
0.0
 10
45.61340874565972
 20
-237.2554578993055
 30
0.0
 10
44.69649658203124
 20
-237.5007486979166
 30
0.0
 10
43.97802191840278
 20
-237.0866482204861
 30
0.0
 10
43.26213107638888
 20
-236.6718587239583
 30
0.0
 10
43.01546223958334
 20
-235.7540852864583
 30
0.0
 10
43.42956271701387
 20
-235.03681640625
 30
0.0
 10
43.84366319444444
 20
-234.3195475260416
 30
0.0
 10
44.76143663194444
 20
-234.0735677083333
 30
0.0
 10
45.47853325737847
 20
-234.4869791666666
 30
0.0
 10
46.19597439236109
 20
-234.9017686631944
 30
0.0
 10
46.44092068142359
 20
-235.8195421006944
 30
0.0
 10
46.0281982421875
 20
-236.5375
 30
0.0
  0
SPLINE
  5
7E
330
1F
100
AcDbEntity
  8
DXF_baseSmall-upper_Frozen_OLD
 62
   178
 48
25.39999961853027
370
    35
100
AcDbSpline
210
0.0
220
0.0
230
1.0
 70
    11
 71
     3
 72
    17
 73
    13
 74
     0
 42
0.0000001
 43
0.0000001
 12
1.0
 22
0.0
 32
0.0
 13
1.0
 23
0.0
 33
0.0
 40
0.0
 40
0.0
 40
0.0
 40
0.0
 40
1.0
 40
1.0
 40
1.0
 40
2.0
 40
2.0
 40
2.0
 40
3.0
 40
3.0
 40
3.0
 40
4.0
 40
4.0
 40
4.0
 40
4.0
 10
89.32908664279513
 20
-261.5378689236112
 30
0.0
 10
88.91412489149306
 20
-262.2551378038194
 30
0.0
 10
87.9982462565104
 20
-262.5000840928819
 30
0.0
 10
87.28011610243055
 20
-262.0856391059028
 30
0.0
 10
86.56284722222222
 20
-261.6715386284722
 30
0.0
 10
86.31635064019098
 20
-260.7551432291665
 30
0.0
 10
86.73027886284721
 20
-260.0378743489584
 30
0.0
 10
87.14437934027777
 20
-259.32060546875
 30
0.0
 10
88.06249728732638
 20
-259.0739366319444
 30
0.0
 10
88.7790771484375
 20
-259.4887261284722
 30
0.0
 10
89.49772406684028
 20
-259.9021375868056
 30
0.0
 10
89.743359375
 20
-260.8192220052084
 30
0.0
 10
89.32908664279513
 20
-261.5378689236112
 30
0.0
  0
SPLINE
  5
7F
330
1F
100
AcDbEntity
  8
DXF_baseSmall-upper_Frozen_OLD
 62
   178
 48
25.39999961853027
370
    35
100
AcDbSpline
210
0.0
220
0.0
230
1.0
 70
    11
 71
     3
 72
    17
 73
    13
 74
     0
 42
0.0000001
 43
0.0000001
 12
1.0
 22
0.0
 32
0.0
 13
1.0
 23
0.0
 33
0.0
 40
0.0
 40
0.0
 40
0.0
 40
0.0
 40
1.0
 40
1.0
 40
1.0
 40
2.0
 40
2.0
 40
2.0
 40
3.0
 40
3.0
 40
3.0
 40
4.0
 40
4.0
 40
4.0
 40
4.0
 10
136.2797092013889
 20
-265.3619249131943
 30
0.0
 10
135.4515082465278
 20
-265.3619249131943
 30
0.0
 10
134.7807481553819
 20
-264.6904758029513
 30
0.0
 10
134.7793701171875
 20
-263.8612413194444
 30
0.0
 10
134.7797146267361
 20
-263.0326958550347
 30
0.0
 10
135.4504747178819
 20
-262.3619357638888
 30
0.0
 10
136.278675672743
 20
-262.3612467447916
 30
0.0
 10
137.1068766276042
 20
-262.3615912543403
 30
0.0
 10
137.779359266493
 20
-263.0333848741319
 30
0.0
 10
137.779359266493
 20
-263.8612413194444
 30
0.0
 10
137.7800482855903
 20
-264.6890977647569
 30
0.0
 10
137.10791015625
 20
-265.3619249131943
 30
0.0
 10
136.2797092013889
 20
-265.3619249131943
 30
0.0
  0
SPLINE
  5
80
330
1F
100
AcDbEntity
  8
DXF_baseSmall-upper_Frozen_OLD
 62
   178
 48
25.39999961853027
370
    35
100
AcDbSpline
210
0.0
220
0.0
230
1.0
 70
    11
 71
     3
 72
    17
 73
    13
 74
     0
 42
0.0000001
 43
0.0000001
 12
1.0
 22
0.0
 32
0.0
 13
1.0
 23
0.0
 33
0.0
 40
0.0
 40
0.0
 40
0.0
 40
0.0
 40
1.0
 40
1.0
 40
1.0
 40
2.0
 40
2.0
 40
2.0
 40
3.0
 40
3.0
 40
3.0
 40
4.0
 40
4.0
 40
4.0
 40
4.0
 10
146.8285915798611
 20
-247.1470160590277
 30
0.0
 10
146.000390625
 20
-247.1470160590277
 30
0.0
 10
145.3296305338542
 20
-246.4755669487847
 30
0.0
 10
145.3282524956597
 20
-245.6466769748264
 30
0.0
 10
145.3282524956597
 20
-244.8184760199652
 30
0.0
 10
146.0000461154514
 20
-244.1477159288194
 30
0.0
 10
146.8279025607639
 20
-244.1470269097222
 30
0.0
 10
147.6567925347222
 20
-244.1473714192708
 30
0.0
 10
148.3296196831597
 20
-244.8184760199652
 30
0.0
 10
148.3289306640625
 20
-245.6459879557291
 30
0.0
 10
148.3289306640625
 20
-246.4752224392361
 30
0.0
 10
147.6571370442708
 20
-247.1470160590277
 30
0.0
 10
146.8285915798611
 20
-247.1470160590277
 30
0.0
  0
SPLINE
  5
81
330
1F
100
AcDbEntity
  8
DXF_baseSmall-upper_Frozen_OLD
 62
   178
 48
25.39999961853027
370
    35
100
AcDbSpline
210
0.0
220
0.0
230
1.0
 70
    11
 71
     3
 72
    17
 73
    13
 74
     0
 42
0.0000001
 43
0.0000001
 12
1.0
 22
0.0
 32
0.0
 13
1.0
 23
0.0
 33
0.0
 40
0.0
 40
0.0
 40
0.0
 40
0.0
 40
1.0
 40
1.0
 40
1.0
 40
2.0
 40
2.0
 40
2.0
 40
3.0
 40
3.0
 40
3.0
 40
4.0
 40
4.0
 40
4.0
 40
4.0
 10
115.3783148871528
 20
-265.4184244791666
 30
0.0
 10
114.5499416775174
 20
-265.4191134982638
 30
0.0
 10
113.8786648220486
 20
-264.7476643880209
 30
0.0
 10
113.8779758029514
 20
-263.9180853949653
 30
0.0
 10
113.8784925672743
 20
-263.0902289496528
 30
0.0
 10
114.5501139322917
 20
-262.4187798394097
 30
0.0
 10
115.3783148871528
 20
-262.4187798394097
 30
0.0
 10
116.2065158420139
 20
-262.4187798394097
 30
0.0
 10
116.8788262261285
 20
-263.0895399305556
 30
0.0
 10
116.8788262261285
 20
-263.9170518663194
 30
0.0
 10
116.8783094618055
 20
-264.746630859375
 30
0.0
 10
116.2070326063368
 20
-265.4184244791666
 30
0.0
 10
115.3783148871528
 20
-265.4184244791666
 30
0.0
  0
SPLINE
  5
82
330
1F
100
AcDbEntity
  8
DXF_baseSmall-upper_Frozen_OLD
 62
   178
 48
25.39999961853027
370
    35
100
AcDbSpline
210
0.0
220
0.0
230
1.0
 70
    11
 71
     3
 72
    17
 73
    13
 74
     0
 42
0.0000001
 43
0.0000001
 12
1.0
 22
0.0
 32
0.0
 13
1.0
 23
0.0
 33
0.0
 40
0.0
 40
0.0
 40
0.0
 40
0.0
 40
1.0
 40
1.0
 40
1.0
 40
2.0
 40
2.0
 40
2.0
 40
3.0
 40
3.0
 40
3.0
 40
4.0
 40
4.0
 40
4.0
 40
4.0
 10
105.3498141818576
 20
-247.5046169704861
 30
0.0
 10
104.520751953125
 20
-247.5046169704861
 30
0.0
 10
103.8498196072049
 20
-246.8335123697916
 30
0.0
 10
103.8496473524306
 20
-246.0046223958333
 30
0.0
 10
103.8493028428819
 20
-245.175732421875
 30
0.0
 10
104.5209242078993
 20
-244.5046278211805
 30
0.0
 10
105.3491251627604
 20
-244.5046278211805
 30
0.0
 10
106.1773261176215
 20
-244.5046278211805
 30
0.0
 10
106.8494642469618
 20
-245.175732421875
 30
0.0
 10
106.8486029730903
 20
-246.0032443576389
 30
0.0
 10
106.8482584635417
 20
-246.8328233506944
 30
0.0
 10
106.1778428819444
 20
-247.5039279513889
 30
0.0
 10
105.3498141818576
 20
-247.5046169704861
 30
0.0
  0
SPLINE
  5
83
330
1F
100
AcDbEntity
  8
DXF_baseSmall-upper_Frozen_OLD
 62
   178
 48
25.39999961853027
370
    35
100
AcDbSpline
210
0.0
220
0.0
230
1.0
 70
    11
 71
     3
 72
    17
 73
    13
 74
     0
 42
0.0000001
 43
0.0000001
 12
1.0
 22
0.0
 32
0.0
 13
1.0
 23
0.0
 33
0.0
 40
0.0
 40
0.0
 40
0.0
 40
0.0
 40
1.0
 40
1.0
 40
1.0
 40
2.0
 40
2.0
 40
2.0
 40
3.0
 40
3.0
 40
3.0
 40
4.0
 40
4.0
 40
4.0
 40
4.0
 10
136.3778944227431
 20
-229.0457953559027
 30
0.0
 10
135.5493489583333
 20
-229.046484375
 30
0.0
 10
134.8782443576389
 20
-228.3746907552083
 30
0.0
 10
134.877210828993
 20
-227.5464898003472
 30
0.0
 10
134.877210828993
 20
-226.7182888454861
 30
0.0
 10
135.5490044487847
 20
-226.0461507161458
 30
0.0
 10
136.3772054036458
 20
-226.0461507161458
 30
0.0
 10
137.2064398871528
 20
-226.0461507161458
 30
0.0
 10
137.878578016493
 20
-226.7169108072916
 30
0.0
 10
137.878578016493
 20
-227.5451117621527
 30
0.0
 10
137.8775444878472
 20
-228.3746907552083
 30
0.0
 10
137.2067843967014
 20
-229.046484375
 30
0.0
 10
136.3778944227431
 20
-229.0457953559027
 30
0.0
  0
SPLINE
  5
84
330
1F
100
AcDbEntity
  8
DXF_baseSmall-upper_Frozen_OLD
 62
   178
 48
25.39999961853027
370
    35
100
AcDbSpline
210
0.0
220
0.0
230
1.0
 70
    11
 71
     3
 72
    17
 73
    13
 74
     0
 42
0.0000001
 43
0.0000001
 12
1.0
 22
0.0
 32
0.0
 13
1.0
 23
0.0
 33
0.0
 40
0.0
 40
0.0
 40
0.0
 40
0.0
 40
1.0
 40
1.0
 40
1.0
 40
2.0
 40
2.0
 40
2.0
 40
3.0
 40
3.0
 40
3.0
 40
4.0
 40
4.0
 40
4.0
 40
4.0
 10
115.8490871853299
 20
-229.3176133897569
 30
0.0
 10
115.0201972113715
 20
-229.3179578993055
 30
0.0
 10
114.3499538845486
 20
-228.6461642795139
 30
0.0
 10
114.3497816297743
 20
-227.8179633246527
 30
0.0
 10
114.3497816297743
 20
-226.9897623697916
 30
0.0
 10
115.0208862304687
 20
-226.31796875
 30
0.0
 10
115.8483981662326
 20
-226.31796875
 30
0.0
 10
116.676771375868
 20
-226.31796875
 30
0.0
 10
117.3495985243055
 20
-226.9890733506944
 30
0.0
 10
117.3495985243055
 20
-227.8172743055555
 30
0.0
 10
117.3495985243055
 20
-228.6465087890625
 30
0.0
 10
116.677288140191
 20
-229.3176133897569
 30
0.0
 10
115.8490871853299
 20
-229.3176133897569
 30
0.0
  0
POLYLINE
  5
85
330
1F
100
AcDbEntity
  8
DXF_baseSmall-upper_Frozen_OLD
 62
   178
 48
25.39999961853027
370
    18
100
AcDb3dPolyline
 66
     1
 10
0.0
 20
0.0
 30
0.0
 70
     8
  0
VERTEX
  5
86
330
85
100
AcDbEntity
  8
DXF_baseSmall-upper_Frozen_OLD
 62
   178
 48
25.39999961853027
370
    18
100
AcDbVertex
100
AcDb3dPolylineVertex
 10
133.9043158637153
 20
-173.4350640190972
 30
0.0
 70
    32
  0
VERTEX
  5
87
330
85
100
AcDbEntity
  8
DXF_baseSmall-upper_Frozen_OLD
 62
   178
 48
25.39999961853027
370
    18
100
AcDbVertex
100
AcDb3dPolylineVertex
 10
133.9043158637153
 20
-169.9355360243055
 30
0.0
 70
    32
  0
VERTEX
  5
88
330
85
100
AcDbEntity
  8
DXF_baseSmall-upper_Frozen_OLD
 62
   178
 48
25.39999961853027
370
    18
100
AcDbVertex
100
AcDb3dPolylineVertex
 10
135.0742702907986
 20
-169.9351915147569
 30
0.0
 70
    32
  0
VERTEX
  5
89
330
85
100
AcDbEntity
  8
DXF_baseSmall-upper_Frozen_OLD
 62
   178
 48
25.39999961853027
370
    18
100
AcDbVertex
100
AcDb3dPolylineVertex
 10
135.0742702907986
 20
-173.4354085286458
 30
0.0
 70
    32
  0
VERTEX
  5
8A
330
85
100
AcDbEntity
  8
DXF_baseSmall-upper_Frozen_OLD
 62
   178
 48
25.39999961853027
370
    18
100
AcDbVertex
100
AcDb3dPolylineVertex
 10
137.4114230685764
 20
-173.4347195095486
 30
0.0
 70
    32
  0
VERTEX
  5
8B
330
85
100
AcDbEntity
  8
DXF_baseSmall-upper_Frozen_OLD
 62
   178
 48
25.39999961853027
370
    18
100
AcDbVertex
100
AcDb3dPolylineVertex
 10
137.411767578125
 20
-174.5891710069444
 30
0.0
 70
    32
  0
VERTEX
  5
8C
330
85
100
AcDbEntity
  8
DXF_baseSmall-upper_Frozen_OLD
 62
   178
 48
25.39999961853027
370
    18
100
AcDbVertex
100
AcDb3dPolylineVertex
 10
131.5878336588542
 20
-174.5902045355903
 30
0.0
 70
    32
  0
VERTEX
  5
8D
330
85
100
AcDbEntity
  8
DXF_baseSmall-upper_Frozen_OLD
 62
   178
 48
25.39999961853027
370
    18
100
AcDbVertex
100
AcDb3dPolylineVertex
 10
131.5878336588542
 20
-173.4433322482639
 30
0.0
 70
    32
  0
VERTEX
  5
8E
330
85
100
AcDbEntity
  8
DXF_baseSmall-upper_Frozen_OLD
 62
   178
 48
25.39999961853027
370
    18
100
AcDbVertex
100
AcDb3dPolylineVertex
 10
133.9043158637153
 20
-173.4350640190972
 30
0.0
 70
    32
  0
SEQEND
  5
8F
330
85
100
AcDbEntity
  8
DXF_baseSmall-upper_Frozen_OLD
 62
   178
 48
25.39999961853027
370
    18
  0
SPLINE
  5
90
330
1F
100
AcDbEntity
  8
DXF_baseSmall-upper_Frozen_OLD
 62
   178
 48
25.39999961853027
370
    18
100
AcDbSpline
210
0.0
220
0.0
230
1.0
 70
    11
 71
     3
 72
    53
 73
    49
 74
     0
 42
0.0000001
 43
0.0000001
 12
1.0
 22
0.0
 32
0.0
 13
1.0
 23
0.0
 33
0.0
 40
0.0
 40
0.0
 40
0.0
 40
0.0
 40
1.0
 40
1.0
 40
1.0
 40
2.0
 40
2.0
 40
2.0
 40
3.0
 40
3.0
 40
3.0
 40
4.0
 40
4.0
 40
4.0
 40
5.0
 40
5.0
 40
5.0
 40
6.0
 40
6.0
 40
6.0
 40
7.0
 40
7.0
 40
7.0
 40
8.0
 40
8.0
 40
8.0
 40
9.0
 40
9.0
 40
9.0
 40
10.0
 40
10.0
 40
10.0
 40
11.0
 40
11.0
 40
11.0
 40
12.0
 40
12.0
 40
12.0
 40
13.0
 40
13.0
 40
13.0
 40
14.0
 40
14.0
 40
14.0
 40
15.0
 40
15.0
 40
15.0
 40
16.0
 40
16.0
 40
16.0
 40
16.0
 10
158.8564534505208
 20
-171.0968777126736
 30
0.0
 10
158.2766438802083
 20
-171.096533203125
 30
0.0
 10
157.8015652126736
 20
-171.5719563802083
 30
0.0
 10
157.8019097222222
 20
-172.1527994791666
 30
0.0
 10
157.8019097222222
 20
-172.1527994791666
 30
0.0
 10
157.8008761935764
 20
-173.5329047309027
 30
0.0
 10
157.8008761935764
 20
-173.5329047309027
 30
0.0
 10
157.8008761935764
 20
-174.1144368489583
 30
0.0
 10
158.2769883897569
 20
-174.5891710069444
 30
0.0
 10
158.8574869791667
 20
-174.5891710069444
 30
0.0
 10
158.8574869791667
 20
-174.5891710069444
 30
0.0
 10
163.6237765842014
 20
-174.5898600260417
 30
0.0
 10
163.6237765842014
 20
-174.5898600260417
 30
0.0
 10
163.6237765842014
 20
-174.5898600260417
 30
0.0
 10
163.6251546223958
 20
-173.4278293185764
 30
0.0
 10
163.6251546223958
 20
-173.4278293185764
 30
0.0
 10
163.6251546223958
 20
-173.4278293185764
 30
0.0
 10
159.0021809895833
 20
-173.4271402994792
 30
0.0
 10
159.0021809895833
 20
-173.4271402994792
 30
0.0
 10
159.0021809895833
 20
-173.4271402994792
 30
0.0
 10
159.0011474609375
 20
-172.2664876302083
 30
0.0
 10
159.0011474609375
 20
-172.2664876302083
 30
0.0
 10
159.0011474609375
 20
-172.2664876302083
 30
0.0
 10
163.6230875651042
 20
-172.2661431206597
 30
0.0
 10
163.6230875651042
 20
-172.2661431206597
 30
0.0
 10
163.6230875651042
 20
-172.2661431206597
 30
0.0
 10
163.62412109375
 20
-169.9341579861111
 30
0.0
 10
163.62412109375
 20
-169.9341579861111
 30
0.0
 10
163.62412109375
 20
-169.9341579861111
 30
0.0
 10
162.4627794053819
 20
-169.9355360243055
 30
0.0
 10
162.4627794053819
 20
-169.9355360243055
 30
0.0
 10
162.4627794053819
 20
-169.9355360243055
 30
0.0
 10
162.4627794053819
 20
-171.096533203125
 30
0.0
 10
162.4627794053819
 20
-171.096533203125
 30
0.0
 10
162.4627794053819
 20
-171.096533203125
 30
0.0
 10
160.8980170355902
 20
-171.0968777126736
 30
0.0
 10
160.8980170355902
 20
-171.0968777126736
 30
0.0
 10
160.8980170355902
 20
-171.0968777126736
 30
0.0
 10
159.4372965494792
 20
-169.9348470052083
 30
0.0
 10
159.4372965494792
 20
-169.9348470052083
 30
0.0
 10
159.4372965494792
 20
-169.9348470052083
 30
0.0
 10
157.8001871744792
 20
-169.9341579861111
 30
0.0
 10
157.8001871744792
 20
-169.9341579861111
 30
0.0
 10
157.8001871744792
 20
-169.9341579861111
 30
0.0
 10
159.2498833550347
 20
-171.0958441840278
 30
0.0
 10
159.2498833550347
 20
-171.0958441840278
 30
0.0
 10
159.2498833550347
 20
-171.0958441840278
 30
0.0
 10
158.8564534505208
 20
-171.0968777126736
 30
0.0
 10
158.8564534505208
 20
-171.0968777126736
 30
0.0
  0
SPLINE
  5
91
330
1F
100
AcDbEntity
  8
DXF_baseSmall-upper_Frozen_OLD
 62
   178
 48
25.39999961853027
370
    18
100
AcDbSpline
210
0.0
220
0.0
230
1.0
 70
    11
 71
     3
 72
    29
 73
    25
 74
     0
 42
0.0000001
 43
0.0000001
 12
1.0
 22
0.0
 32
0.0
 13
1.0
 23
0.0
 33
0.0
 40
0.0
 40
0.0
 40
0.0
 40
0.0
 40
1.0
 40
1.0
 40
1.0
 40
2.0
 40
2.0
 40
2.0
 40
3.0
 40
3.0
 40
3.0
 40
4.0
 40
4.0
 40
4.0
 40
5.0
 40
5.0
 40
5.0
 40
6.0
 40
6.0
 40
6.0
 40
7.0
 40
7.0
 40
7.0
 40
8.0
 40
8.0
 40
8.0
 40
8.0
 10
152.3056043836805
 20
-174.589515516493
 30
0.0
 10
152.3056043836805
 20
-174.589515516493
 30
0.0
 10
156.017005750868
 20
-174.5891710069444
 30
0.0
 10
156.017005750868
 20
-174.5891710069444
 30
0.0
 10
156.598193359375
 20
-174.5898600260417
 30
0.0
 10
157.0725830078125
 20
-174.1144368489583
 30
0.0
 10
157.0729275173611
 20
-173.5322157118055
 30
0.0
 10
157.0729275173611
 20
-173.5322157118055
 30
0.0
 10
157.0732720269097
 20
-170.9924913194444
 30
0.0
 10
157.0732720269097
 20
-170.9924913194444
 30
0.0
 10
157.0725830078125
 20
-170.409925672743
 30
0.0
 10
156.5975043402778
 20
-169.9345024956597
 30
0.0
 10
156.0166612413194
 20
-169.9351915147569
 30
0.0
 10
156.0166612413194
 20
-169.9351915147569
 30
0.0
 10
152.3059488932292
 20
-169.9358805338541
 30
0.0
 10
152.3059488932292
 20
-169.9358805338541
 30
0.0
 10
151.7251057942708
 20
-169.9348470052083
 30
0.0
 10
151.2503716362847
 20
-170.4102701822916
 30
0.0
 10
151.2496826171875
 20
-170.9918023003472
 30
0.0
 10
151.2496826171875
 20
-170.9918023003472
 30
0.0
 10
151.2493381076389
 20
-173.5325602213541
 30
0.0
 10
151.2493381076389
 20
-173.5325602213541
 30
0.0
 10
151.2496826171875
 20
-174.1137478298611
 30
0.0
 10
151.7257948133681
 20
-174.5891710069444
 30
0.0
 10
152.3056043836805
 20
-174.589515516493
 30
0.0
  0
POLYLINE
  5
92
330
1F
100
AcDbEntity
  8
DXF_baseSmall-upper_Frozen_OLD
 62
   178
 48
25.39999961853027
370
    18
100
AcDb3dPolyline
 66
     1
 10
0.0
 20
0.0
 30
0.0
 70
     8
  0
VERTEX
  5
93
330
92
100
AcDbEntity
  8
DXF_baseSmall-upper_Frozen_OLD
 62
   178
 48
25.39999961853027
370
    18
100
AcDbVertex
100
AcDb3dPolylineVertex
 10
152.4155029296875
 20
-171.096533203125
 30
0.0
 70
    32
  0
VERTEX
  5
94
330
92
100
AcDbEntity
  8
DXF_baseSmall-upper_Frozen_OLD
 62
   178
 48
25.39999961853027
370
    18
100
AcDbVertex
100
AcDb3dPolylineVertex
 10
155.9067626953125
 20
-171.096533203125
 30
0.0
 70
    32
  0
VERTEX
  5
95
330
92
100
AcDbEntity
  8
DXF_baseSmall-upper_Frozen_OLD
 62
   178
 48
25.39999961853027
370
    18
100
AcDbVertex
100
AcDb3dPolylineVertex
 10
155.9067626953125
 20
-173.4274848090278
 30
0.0
 70
    32
  0
VERTEX
  5
96
330
92
100
AcDbEntity
  8
DXF_baseSmall-upper_Frozen_OLD
 62
   178
 48
25.39999961853027
370
    18
100
AcDbVertex
100
AcDb3dPolylineVertex
 10
152.4148139105903
 20
-173.4278293185764
 30
0.0
 70
    32
  0
VERTEX
  5
97
330
92
100
AcDbEntity
  8
DXF_baseSmall-upper_Frozen_OLD
 62
   178
 48
25.39999961853027
370
    18
100
AcDbVertex
100
AcDb3dPolylineVertex
 10
152.4155029296875
 20
-171.096533203125
 30
0.0
 70
    32
  0
SEQEND
  5
98
330
92
100
AcDbEntity
  8
DXF_baseSmall-upper_Frozen_OLD
 62
   178
 48
25.39999961853027
370
    18
  0
SPLINE
  5
99
330
1F
100
AcDbEntity
  8
DXF_baseSmall-upper_Frozen_OLD
 62
   178
 48
25.39999961853027
370
    18
100
AcDbSpline
210
0.0
220
0.0
230
1.0
 70
    11
 71
     3
 72
    29
 73
    25
 74
     0
 42
0.0000001
 43
0.0000001
 12
1.0
 22
0.0
 32
0.0
 13
1.0
 23
0.0
 33
0.0
 40
0.0
 40
0.0
 40
0.0
 40
0.0
 40
1.0
 40
1.0
 40
1.0
 40
2.0
 40
2.0
 40
2.0
 40
3.0
 40
3.0
 40
3.0
 40
4.0
 40
4.0
 40
4.0
 40
5.0
 40
5.0
 40
5.0
 40
6.0
 40
6.0
 40
6.0
 40
7.0
 40
7.0
 40
7.0
 40
8.0
 40
8.0
 40
8.0
 40
8.0
 10
139.1980495876736
 20
-174.5898600260417
 30
0.0
 10
139.1980495876736
 20
-174.5898600260417
 30
0.0
 10
142.9084174262153
 20
-174.5902045355903
 30
0.0
 10
142.9084174262153
 20
-174.5902045355903
 30
0.0
 10
143.4892605251736
 20
-174.5891710069444
 30
0.0
 10
143.9643391927083
 20
-174.1134033203125
 30
0.0
 10
143.9643391927083
 20
-173.5325602213541
 30
0.0
 10
143.9643391927083
 20
-173.5325602213541
 30
0.0
 10
143.9646837022569
 20
-170.9918023003472
 30
0.0
 10
143.9646837022569
 20
-170.9918023003472
 30
0.0
 10
143.9646837022569
 20
-170.4102701822916
 30
0.0
 10
143.4892605251736
 20
-169.9348470052083
 30
0.0
 10
142.907728407118
 20
-169.9341579861111
 30
0.0
 10
142.907728407118
 20
-169.9341579861111
 30
0.0
 10
139.1987386067708
 20
-169.9351915147569
 30
0.0
 10
139.1987386067708
 20
-169.9351915147569
 30
0.0
 10
138.6175509982639
 20
-169.9348470052083
 30
0.0
 10
138.1410942925347
 20
-170.409925672743
 30
0.0
 10
138.1410942925347
 20
-170.9924913194444
 30
0.0
 10
138.1410942925347
 20
-170.9924913194444
 30
0.0
 10
138.1410942925347
 20
-173.5329047309027
 30
0.0
 10
138.1410942925347
 20
-173.5329047309027
 30
0.0
 10
138.1424723307292
 20
-174.1137478298611
 30
0.0
 10
138.616517469618
 20
-174.5898600260417
 30
0.0
 10
139.1980495876736
 20
-174.5898600260417
 30
0.0
  0
POLYLINE
  5
9A
330
1F
100
AcDbEntity
  8
DXF_baseSmall-upper_Frozen_OLD
 62
   178
 48
25.39999961853027
370
    18
100
AcDb3dPolyline
 66
     1
 10
0.0
 20
0.0
 30
0.0
 70
     8
  0
VERTEX
  5
9B
330
9A
100
AcDbEntity
  8
DXF_baseSmall-upper_Frozen_OLD
 62
   178
 48
25.39999961853027
370
    18
100
AcDbVertex
100
AcDb3dPolylineVertex
 10
139.3069146050347
 20
-171.096533203125
 30
0.0
 70
    32
  0
VERTEX
  5
9C
330
9A
100
AcDbEntity
  8
DXF_baseSmall-upper_Frozen_OLD
 62
   178
 48
25.39999961853027
370
    18
100
AcDbVertex
100
AcDb3dPolylineVertex
 10
142.7998969184028
 20
-171.0958441840278
 30
0.0
 70
    32
  0
VERTEX
  5
9D
330
9A
100
AcDbEntity
  8
DXF_baseSmall-upper_Frozen_OLD
 62
   178
 48
25.39999961853027
370
    18
100
AcDbVertex
100
AcDb3dPolylineVertex
 10
142.7992078993055
 20
-173.4271402994792
 30
0.0
 70
    32
  0
VERTEX
  5
9E
330
9A
100
AcDbEntity
  8
DXF_baseSmall-upper_Frozen_OLD
 62
   178
 48
25.39999961853027
370
    18
100
AcDbVertex
100
AcDb3dPolylineVertex
 10
139.3069146050347
 20
-173.4274848090278
 30
0.0
 70
    32
  0
VERTEX
  5
9F
330
9A
100
AcDbEntity
  8
DXF_baseSmall-upper_Frozen_OLD
 62
   178
 48
25.39999961853027
370
    18
100
AcDbVertex
100
AcDb3dPolylineVertex
 10
139.3069146050347
 20
-171.096533203125
 30
0.0
 70
    32
  0
SEQEND
  5
A0
330
9A
100
AcDbEntity
  8
DXF_baseSmall-upper_Frozen_OLD
 62
   178
 48
25.39999961853027
370
    18
  0
SPLINE
  5
A1
330
1F
100
AcDbEntity
  8
DXF_baseSmall-upper_Frozen_OLD
 62
   178
 48
25.39999961853027
370
    18
100
AcDbSpline
210
0.0
220
0.0
230
1.0
 70
    11
 71
     3
 72
    35
 73
    31
 74
     0
 42
0.0000001
 43
0.0000001
 12
1.0
 22
0.0
 32
0.0
 13
1.0
 23
0.0
 33
0.0
 40
0.0
 40
0.0
 40
0.0
 40
0.0
 40
1.0
 40
1.0
 40
1.0
 40
2.0
 40
2.0
 40
2.0
 40
3.0
 40
3.0
 40
3.0
 40
4.0
 40
4.0
 40
4.0
 40
5.0
 40
5.0
 40
5.0
 40
6.0
 40
6.0
 40
6.0
 40
7.0
 40
7.0
 40
7.0
 40
8.0
 40
8.0
 40
8.0
 40
9.0
 40
9.0
 40
9.0
 40
10.0
 40
10.0
 40
10.0
 40
10.0
 10
145.7513102213541
 20
-174.5898600260417
 30
0.0
 10
145.7513102213541
 20
-174.5898600260417
 30
0.0
 10
145.8939371744792
 20
-174.5898600260417
 30
0.0
 10
145.8939371744792
 20
-174.5898600260417
 30
0.0
 10
145.8939371744792
 20
-174.5898600260417
 30
0.0
 10
150.5172553168402
 20
-174.5898600260417
 30
0.0
 10
150.5172553168402
 20
-174.5898600260417
 30
0.0
 10
150.5172553168402
 20
-174.5898600260417
 30
0.0
 10
150.5172553168402
 20
-169.9341579861111
 30
0.0
 10
150.5172553168402
 20
-169.9341579861111
 30
0.0
 10
150.5172553168402
 20
-169.9341579861111
 30
0.0
 10
149.6852647569444
 20
-169.9348470052083
 30
0.0
 10
149.6852647569444
 20
-169.9348470052083
 30
0.0
 10
149.6852647569444
 20
-169.9348470052083
 30
0.0
 10
149.3486789279514
 20
-169.9358805338541
 30
0.0
 10
149.3486789279514
 20
-169.9358805338541
 30
0.0
 10
149.3486789279514
 20
-169.9358805338541
 30
0.0
 10
145.894970703125
 20
-169.9348470052083
 30
0.0
 10
145.894970703125
 20
-169.9348470052083
 30
0.0
 10
145.894970703125
 20
-169.9348470052083
 30
0.0
 10
145.750621202257
 20
-169.9345024956597
 30
0.0
 10
145.750621202257
 20
-169.9345024956597
 30
0.0
 10
145.1690890842014
 20
-169.9341579861111
 30
0.0
 10
144.6950439453125
 20
-170.4102701822916
 30
0.0
 10
144.6950439453125
 20
-170.9918023003472
 30
0.0
 10
144.6950439453125
 20
-170.9918023003472
 30
0.0
 10
144.6950439453125
 20
-173.5329047309027
 30
0.0
 10
144.6950439453125
 20
-173.5329047309027
 30
0.0
 10
144.6946994357639
 20
-174.1140923394097
 30
0.0
 10
145.1697781032986
 20
-174.5898600260417
 30
0.0
 10
145.7513102213541
 20
-174.5898600260417
 30
0.0
  0
POLYLINE
  5
A2
330
1F
100
AcDbEntity
  8
DXF_baseSmall-upper_Frozen_OLD
 62
   178
 48
25.39999961853027
370
    18
100
AcDb3dPolyline
 66
     1
 10
0.0
 20
0.0
 30
0.0
 70
     8
  0
VERTEX
  5
A3
330
A2
100
AcDbEntity
  8
DXF_baseSmall-upper_Frozen_OLD
 62
   178
 48
25.39999961853027
370
    18
100
AcDbVertex
100
AcDb3dPolylineVertex
 10
149.3490234375
 20
-171.0968777126736
 30
0.0
 70
    32
  0
VERTEX
  5
A4
330
A2
100
AcDbEntity
  8
DXF_baseSmall-upper_Frozen_OLD
 62
   178
 48
25.39999961853027
370
    18
100
AcDbVertex
100
AcDb3dPolylineVertex
 10
149.3486789279514
 20
-173.4278293185764
 30
0.0
 70
    32
  0
VERTEX
  5
A5
330
A2
100
AcDbEntity
  8
DXF_baseSmall-upper_Frozen_OLD
 62
   178
 48
25.39999961853027
370
    18
100
AcDbVertex
100
AcDb3dPolylineVertex
 10
145.894970703125
 20
-173.4267957899305
 30
0.0
 70
    32
  0
VERTEX
  5
A6
330
A2
100
AcDbEntity
  8
DXF_baseSmall-upper_Frozen_OLD
 62
   178
 48
25.39999961853027
370
    18
100
AcDbVertex
100
AcDb3dPolylineVertex
 10
145.8939371744792
 20
-172.8390625
 30
0.0
 70
    32
  0
VERTEX
  5
A7
330
A2
100
AcDbEntity
  8
DXF_baseSmall-upper_Frozen_OLD
 62
   178
 48
25.39999961853027
370
    18
100
AcDbVertex
100
AcDb3dPolylineVertex
 10
148.4040337456597
 20
-172.8394070095486
 30
0.0
 70
    32
  0
VERTEX
  5
A8
330
A2
100
AcDbEntity
  8
DXF_baseSmall-upper_Frozen_OLD
 62
   178
 48
25.39999961853027
370
    18
100
AcDbVertex
100
AcDb3dPolylineVertex
 10
148.4047227647569
 20
-171.6766872829861
 30
0.0
 70
    32
  0
VERTEX
  5
A9
330
A2
100
AcDbEntity
  8
DXF_baseSmall-upper_Frozen_OLD
 62
   178
 48
25.39999961853027
370
    18
100
AcDbVertex
100
AcDb3dPolylineVertex
 10
145.8953152126736
 20
-171.6770317925347
 30
0.0
 70
    32
  0
VERTEX
  5
AA
330
A2
100
AcDbEntity
  8
DXF_baseSmall-upper_Frozen_OLD
 62
   178
 48
25.39999961853027
370
    18
100
AcDbVertex
100
AcDb3dPolylineVertex
 10
145.8939371744792
 20
-171.0958441840278
 30
0.0
 70
    32
  0
VERTEX
  5
AB
330
A2
100
AcDbEntity
  8
DXF_baseSmall-upper_Frozen_OLD
 62
   178
 48
25.39999961853027
370
    18
100
AcDbVertex
100
AcDb3dPolylineVertex
 10
149.3490234375
 20
-171.0968777126736
 30
0.0
 70
    32
  0
SEQEND
  5
AC
330
A2
100
AcDbEntity
  8
DXF_baseSmall-upper_Frozen_OLD
 62
   178
 48
25.39999961853027
370
    18
  0
SPLINE
  5
AD
330
1F
100
AcDbEntity
  8
DXF_baseSmall-upper_Frozen_OLD
 62
   178
 48
25.39999961853027
370
    18
100
AcDbSpline
210
0.0
220
0.0
230
1.0
 70
    11
 71
     3
 72
    53
 73
    49
 74
     0
 42
0.0000001
 43
0.0000001
 12
1.0
 22
0.0
 32
0.0
 13
1.0
 23
0.0
 33
0.0
 40
0.0
 40
0.0
 40
0.0
 40
0.0
 40
1.0
 40
1.0
 40
1.0
 40
2.0
 40
2.0
 40
2.0
 40
3.0
 40
3.0
 40
3.0
 40
4.0
 40
4.0
 40
4.0
 40
5.0
 40
5.0
 40
5.0
 40
6.0
 40
6.0
 40
6.0
 40
7.0
 40
7.0
 40
7.0
 40
8.0
 40
8.0
 40
8.0
 40
9.0
 40
9.0
 40
9.0
 40
10.0
 40
10.0
 40
10.0
 40
11.0
 40
11.0
 40
11.0
 40
12.0
 40
12.0
 40
12.0
 40
13.0
 40
13.0
 40
13.0
 40
14.0
 40
14.0
 40
14.0
 40
15.0
 40
15.0
 40
15.0
 40
16.0
 40
16.0
 40
16.0
 40
16.0
 10
109.4134765625
 20
-173.5549533420139
 30
0.0
 10
109.4170939127604
 20
-174.1344184027778
 30
0.0
 10
109.8918280707465
 20
-174.6074300130208
 30
0.0
 10
110.4743937174479
 20
-174.6077745225694
 30
0.0
 10
110.4743937174479
 20
-174.6077745225694
 30
0.0
 10
114.1983696831597
 20
-174.6070855034722
 30
0.0
 10
114.1983696831597
 20
-174.6070855034722
 30
0.0
 10
114.7793850368924
 20
-174.6077745225694
 30
0.0
 10
115.2548082139757
 20
-174.1344184027778
 30
0.0
 10
115.2582533094618
 20
-173.5546088324652
 30
0.0
 10
115.2582533094618
 20
-173.5546088324652
 30
0.0
 10
115.2582533094618
 20
-173.5546088324652
 30
0.0
 10
115.2582533094618
 20
-173.5546088324652
 30
0.0
 10
115.2582533094618
 20
-173.5546088324652
 30
0.0
 10
115.2580810546875
 20
-169.9341579861111
 30
0.0
 10
115.2580810546875
 20
-169.9341579861111
 30
0.0
 10
115.2580810546875
 20
-169.9341579861111
 30
0.0
 10
114.078480360243
 20
-169.9355360243055
 30
0.0
 10
114.078480360243
 20
-169.9355360243055
 30
0.0
 10
114.078480360243
 20
-169.9355360243055
 30
0.0
 10
114.0774468315972
 20
-173.4412651909722
 30
0.0
 10
114.0774468315972
 20
-173.4412651909722
 30
0.0
 10
114.0774468315972
 20
-173.4412651909722
 30
0.0
 10
110.5789523654514
 20
-173.4409206814236
 30
0.0
 10
110.5789523654514
 20
-173.4409206814236
 30
0.0
 10
110.5789523654514
 20
-173.4409206814236
 30
0.0
 10
110.5774020724826
 20
-172.2713107638889
 30
0.0
 10
110.5774020724826
 20
-172.2713107638889
 30
0.0
 10
110.5774020724826
 20
-172.2713107638889
 30
0.0
 10
113.1949856228298
 20
-172.2719997829861
 30
0.0
 10
113.1949856228298
 20
-172.2719997829861
 30
0.0
 10
113.1949856228298
 20
-172.2719997829861
 30
0.0
 10
113.1955023871528
 20
-171.059326171875
 30
0.0
 10
113.1955023871528
 20
-171.059326171875
 30
0.0
 10
113.1955023871528
 20
-171.059326171875
 30
0.0
 10
110.5756795247396
 20
-171.0603597005208
 30
0.0
 10
110.5756795247396
 20
-171.0603597005208
 30
0.0
 10
110.5756795247396
 20
-171.0603597005208
 30
0.0
 10
110.5758517795139
 20
-169.9355360243055
 30
0.0
 10
110.5758517795139
 20
-169.9355360243055
 30
0.0
 10
110.5758517795139
 20
-169.9355360243055
 30
0.0
 10
109.4126152886285
 20
-169.9355360243055
 30
0.0
 10
109.4126152886285
 20
-169.9355360243055
 30
0.0
 10
109.4126152886285
 20
-169.9355360243055
 30
0.0
 10
109.4117540147569
 20
-173.5539198133681
 30
0.0
 10
109.4117540147569
 20
-173.5539198133681
 30
0.0
 10
109.4117540147569
 20
-173.5539198133681
 30
0.0
 10
109.4134765625
 20
-173.5549533420139
 30
0.0
 10
109.4134765625
 20
-173.5549533420139
 30
0.0
  0
SPLINE
  5
AE
330
1F
100
AcDbEntity
  8
DXF_baseSmall-upper_Frozen_OLD
 62
   178
 48
25.39999961853027
370
    18
100
AcDbSpline
210
0.0
220
0.0
230
1.0
 70
    11
 71
     3
 72
    53
 73
    49
 74
     0
 42
0.0000001
 43
0.0000001
 12
1.0
 22
0.0
 32
0.0
 13
1.0
 23
0.0
 33
0.0
 40
0.0
 40
0.0
 40
0.0
 40
0.0
 40
1.0
 40
1.0
 40
1.0
 40
2.0
 40
2.0
 40
2.0
 40
3.0
 40
3.0
 40
3.0
 40
4.0
 40
4.0
 40
4.0
 40
5.0
 40
5.0
 40
5.0
 40
6.0
 40
6.0
 40
6.0
 40
7.0
 40
7.0
 40
7.0
 40
8.0
 40
8.0
 40
8.0
 40
9.0
 40
9.0
 40
9.0
 40
10.0
 40
10.0
 40
10.0
 40
11.0
 40
11.0
 40
11.0
 40
12.0
 40
12.0
 40
12.0
 40
13.0
 40
13.0
 40
13.0
 40
14.0
 40
14.0
 40
14.0
 40
15.0
 40
15.0
 40
15.0
 40
16.0
 40
16.0
 40
16.0
 40
16.0
 10
103.6196872287326
 20
-171.096533203125
 30
0.0
 10
103.0384996202257
 20
-171.0961886935764
 30
0.0
 10
102.5635932074653
 20
-171.5716118706597
 30
0.0
 10
102.5630764431424
 20
-172.1531439887152
 30
0.0
 10
102.5630764431424
 20
-172.1531439887152
 30
0.0
 10
102.5630764431424
 20
-173.5322157118055
 30
0.0
 10
102.5630764431424
 20
-173.5322157118055
 30
0.0
 10
102.5642822265625
 20
-174.1137478298611
 30
0.0
 10
103.0390163845486
 20
-174.5898600260417
 30
0.0
 10
103.6200317382812
 20
-174.5891710069444
 30
0.0
 10
103.6200317382812
 20
-174.5891710069444
 30
0.0
 10
108.3878716362847
 20
-174.5898600260417
 30
0.0
 10
108.3878716362847
 20
-174.5898600260417
 30
0.0
 10
108.3878716362847
 20
-174.5898600260417
 30
0.0
 10
108.3868381076389
 20
-173.4274848090278
 30
0.0
 10
108.3868381076389
 20
-173.4274848090278
 30
0.0
 10
108.3868381076389
 20
-173.4274848090278
 30
0.0
 10
103.7657592773437
 20
-173.4278293185764
 30
0.0
 10
103.7657592773437
 20
-173.4278293185764
 30
0.0
 10
103.7657592773437
 20
-173.4278293185764
 30
0.0
 10
103.7640367296007
 20
-172.2661431206597
 30
0.0
 10
103.7640367296007
 20
-172.2661431206597
 30
0.0
 10
103.7640367296007
 20
-172.2661431206597
 30
0.0
 10
108.3868381076389
 20
-172.2651095920139
 30
0.0
 10
108.3868381076389
 20
-172.2651095920139
 30
0.0
 10
108.3868381076389
 20
-172.2651095920139
 30
0.0
 10
108.3870103624132
 20
-169.9351915147569
 30
0.0
 10
108.3870103624132
 20
-169.9351915147569
 30
0.0
 10
108.3870103624132
 20
-169.9351915147569
 30
0.0
 10
107.226702202691
 20
-169.9362250434027
 30
0.0
 10
107.226702202691
 20
-169.9362250434027
 30
0.0
 10
107.226702202691
 20
-169.9362250434027
 30
0.0
 10
107.2270467122396
 20
-171.0968777126736
 30
0.0
 10
107.2270467122396
 20
-171.0968777126736
 30
0.0
 10
107.2270467122396
 20
-171.0968777126736
 30
0.0
 10
105.661767578125
 20
-171.096533203125
 30
0.0
 10
105.661767578125
 20
-171.096533203125
 30
0.0
 10
105.661767578125
 20
-171.096533203125
 30
0.0
 10
104.200013563368
 20
-169.9358805338541
 30
0.0
 10
104.200013563368
 20
-169.9358805338541
 30
0.0
 10
104.200013563368
 20
-169.9358805338541
 30
0.0
 10
102.5635932074653
 20
-169.9355360243055
 30
0.0
 10
102.5635932074653
 20
-169.9355360243055
 30
0.0
 10
102.5635932074653
 20
-169.9355360243055
 30
0.0
 10
104.0136338975694
 20
-171.096533203125
 30
0.0
 10
104.0136338975694
 20
-171.096533203125
 30
0.0
 10
104.0136338975694
 20
-171.096533203125
 30
0.0
 10
103.6196872287326
 20
-171.096533203125
 30
0.0
 10
103.6196872287326
 20
-171.096533203125
 30
0.0
  0
SPLINE
  5
AF
330
1F
100
AcDbEntity
  8
DXF_baseSmall-upper_Frozen_OLD
 62
   178
 48
25.39999961853027
370
    18
100
AcDbSpline
210
0.0
220
0.0
230
1.0
 70
    11
 71
     3
 72
    50
 73
    46
 74
     0
 42
0.0000001
 43
0.0000001
 12
1.0
 22
0.0
 32
0.0
 13
1.0
 23
0.0
 33
0.0
 40
0.0
 40
0.0
 40
0.0
 40
0.0
 40
1.0
 40
1.0
 40
1.0
 40
2.0
 40
2.0
 40
2.0
 40
3.0
 40
3.0
 40
3.0
 40
4.0
 40
4.0
 40
4.0
 40
5.0
 40
5.0
 40
5.0
 40
6.0
 40
6.0
 40
6.0
 40
7.0
 40
7.0
 40
7.0
 40
8.0
 40
8.0
 40
8.0
 40
9.0
 40
9.0
 40
9.0
 40
10.0
 40
10.0
 40
10.0
 40
11.0
 40
11.0
 40
11.0
 40
12.0
 40
12.0
 40
12.0
 40
13.0
 40
13.0
 40
13.0
 40
14.0
 40
14.0
 40
14.0
 40
15.0
 40
15.0
 40
15.0
 40
15.0
 10
95.90542941623262
 20
-174.5902045355903
 30
0.0
 10
95.90542941623262
 20
-174.5902045355903
 30
0.0
 10
100.7780002170139
 20
-174.5891710069444
 30
0.0
 10
100.7780002170139
 20
-174.5891710069444
 30
0.0
 10
101.3584988064236
 20
-174.5902045355903
 30
0.0
 10
101.8339219835069
 20
-174.1140923394097
 30
0.0
 10
101.8335774739583
 20
-173.5325602213541
 30
0.0
 10
101.8335774739583
 20
-173.5325602213541
 30
0.0
 10
101.8332329644097
 20
-169.9355360243055
 30
0.0
 10
101.8332329644097
 20
-169.9355360243055
 30
0.0
 10
101.8332329644097
 20
-169.9355360243055
 30
0.0
 10
100.6722357855903
 20
-169.9341579861111
 30
0.0
 10
100.6722357855903
 20
-169.9341579861111
 30
0.0
 10
100.6722357855903
 20
-169.9341579861111
 30
0.0
 10
100.6722357855903
 20
-173.4274848090278
 30
0.0
 10
100.6722357855903
 20
-173.4274848090278
 30
0.0
 10
100.6722357855903
 20
-173.4274848090278
 30
0.0
 10
98.90696885850693
 20
-173.4278293185764
 30
0.0
 10
98.90696885850693
 20
-173.4278293185764
 30
0.0
 10
98.90696885850693
 20
-173.4278293185764
 30
0.0
 10
98.90696885850693
 20
-169.9355360243055
 30
0.0
 10
98.90696885850693
 20
-169.9355360243055
 30
0.0
 10
98.90696885850693
 20
-169.9355360243055
 30
0.0
 10
97.74545491536459
 20
-169.9355360243055
 30
0.0
 10
97.74545491536459
 20
-169.9355360243055
 30
0.0
 10
97.74545491536459
 20
-169.9355360243055
 30
0.0
 10
97.74545491536459
 20
-173.428173828125
 30
0.0
 10
97.74545491536459
 20
-173.428173828125
 30
0.0
 10
97.74545491536459
 20
-173.428173828125
 30
0.0
 10
96.01739501953125
 20
-173.428173828125
 30
0.0
 10
96.01739501953125
 20
-173.428173828125
 30
0.0
 10
96.01739501953125
 20
-173.428173828125
 30
0.0
 10
96.01739501953125
 20
-169.9355360243055
 30
0.0
 10
96.01739501953125
 20
-169.9355360243055
 30
0.0
 10
96.01739501953125
 20
-169.9355360243055
 30
0.0
 10
94.84881863064234
 20
-169.9348470052083
 30
0.0
 10
94.84881863064234
 20
-169.9348470052083
 30
0.0
 10
94.84881863064234
 20
-169.9348470052083
 30
0.0
 10
94.84864637586806
 20
-173.4433322482639
 30
0.0
 10
94.84864637586806
 20
-173.4433322482639
 30
0.0
 10
94.84864637586806
 20
-173.4433322482639
 30
0.0
 10
94.84847412109374
 20
-173.5325602213541
 30
0.0
 10
94.84847412109374
 20
-173.5325602213541
 30
0.0
 10
94.84795735677083
 20
-174.1137478298611
 30
0.0
 10
95.3247585720486
 20
-174.5898600260417
 30
0.0
 10
95.90542941623262
 20
-174.5902045355903
 30
0.0
  0
SPLINE
  5
B0
330
1F
100
AcDbEntity
  8
DXF_baseSmall-upper_Frozen_OLD
 62
   178
 48
25.39999961853027
370
    18
100
AcDbSpline
210
0.0
220
0.0
230
1.0
 70
    11
 71
     3
 72
    53
 73
    49
 74
     0
 42
0.0000001
 43
0.0000001
 12
1.0
 22
0.0
 32
0.0
 13
1.0
 23
0.0
 33
0.0
 40
0.0
 40
0.0
 40
0.0
 40
0.0
 40
1.0
 40
1.0
 40
1.0
 40
2.0
 40
2.0
 40
2.0
 40
3.0
 40
3.0
 40
3.0
 40
4.0
 40
4.0
 40
4.0
 40
5.0
 40
5.0
 40
5.0
 40
6.0
 40
6.0
 40
6.0
 40
7.0
 40
7.0
 40
7.0
 40
8.0
 40
8.0
 40
8.0
 40
9.0
 40
9.0
 40
9.0
 40
10.0
 40
10.0
 40
10.0
 40
11.0
 40
11.0
 40
11.0
 40
12.0
 40
12.0
 40
12.0
 40
13.0
 40
13.0
 40
13.0
 40
14.0
 40
14.0
 40
14.0
 40
15.0
 40
15.0
 40
15.0
 40
16.0
 40
16.0
 40
16.0
 40
16.0
 10
88.31726209852431
 20
-174.589515516493
 30
0.0
 10
88.31726209852431
 20
-174.589515516493
 30
0.0
 10
89.47912055121527
 20
-174.5891710069444
 30
0.0
 10
89.47912055121527
 20
-174.5891710069444
 30
0.0
 10
89.47912055121527
 20
-174.5891710069444
 30
0.0
 10
89.47963731553818
 20
-172.8390625
 30
0.0
 10
89.47963731553818
 20
-172.8390625
 30
0.0
 10
89.47963731553818
 20
-172.8390625
 30
0.0
 10
92.97158610026041
 20
-172.8390625
 30
0.0
 10
92.97158610026041
 20
-172.8390625
 30
0.0
 10
92.97158610026041
 20
-172.8390625
 30
0.0
 10
92.9710693359375
 20
-174.5891710069444
 30
0.0
 10
92.9710693359375
 20
-174.5891710069444
 30
0.0
 10
92.9710693359375
 20
-174.5891710069444
 30
0.0
 10
94.13344455295137
 20
-174.5884819878472
 30
0.0
 10
94.13344455295137
 20
-174.5884819878472
 30
0.0
 10
94.13344455295137
 20
-174.5884819878472
 30
0.0
 10
94.13430582682291
 20
-172.7901421440972
 30
0.0
 10
94.13430582682291
 20
-172.7901421440972
 30
0.0
 10
94.13396131727431
 20
-172.2092990451389
 30
0.0
 10
93.65802137586806
 20
-171.7345648871527
 30
0.0
 10
93.07821180555555
 20
-171.7338758680555
 30
0.0
 10
93.07821180555555
 20
-171.7338758680555
 30
0.0
 10
91.74203152126734
 20
-171.7335313585069
 30
0.0
 10
91.74203152126734
 20
-171.7335313585069
 30
0.0
 10
91.74203152126734
 20
-171.7335313585069
 30
0.0
 10
91.62093641493055
 20
-171.6766872829861
 30
0.0
 10
91.62093641493055
 20
-171.6766872829861
 30
0.0
 10
91.62093641493055
 20
-171.6766872829861
 30
0.0
 10
91.62007514105902
 20
-169.9355360243055
 30
0.0
 10
91.62007514105902
 20
-169.9355360243055
 30
0.0
 10
91.62007514105902
 20
-169.9355360243055
 30
0.0
 10
90.45838894314234
 20
-169.9355360243055
 30
0.0
 10
90.45838894314234
 20
-169.9355360243055
 30
0.0
 10
90.45838894314234
 20
-169.9355360243055
 30
0.0
 10
90.45873345269096
 20
-171.6773763020833
 30
0.0
 10
90.45873345269096
 20
-171.6773763020833
 30
0.0
 10
90.45873345269096
 20
-171.6773763020833
 30
0.0
 10
90.35538058810762
 20
-171.7345648871527
 30
0.0
 10
90.35538058810762
 20
-171.7345648871527
 30
0.0
 10
90.35538058810762
 20
-171.7345648871527
 30
0.0
 10
89.3743896484375
 20
-171.7335313585069
 30
0.0
 10
89.3743896484375
 20
-171.7335313585069
 30
0.0
 10
88.79354654947916
 20
-171.7335313585069
 30
0.0
 10
88.31726209852431
 20
-172.2092990451389
 30
0.0
 10
88.31657307942709
 20
-172.7908311631944
 30
0.0
 10
88.31657307942709
 20
-172.7908311631944
 30
0.0
 10
88.31726209852431
 20
-174.589515516493
 30
0.0
 10
88.31726209852431
 20
-174.589515516493
 30
0.0
  0
POLYLINE
  5
B1
330
1F
100
AcDbEntity
  8
DXF_baseSmall-upper_Frozen_OLD
 62
   178
 48
25.39999961853027
370
    18
100
AcDb3dPolyline
 66
     1
 10
0.0
 20
0.0
 30
0.0
 70
     8
  0
VERTEX
  5
B2
330
B1
100
AcDbEntity
  8
DXF_baseSmall-upper_Frozen_OLD
 62
   178
 48
25.39999961853027
370
    18
100
AcDbVertex
100
AcDb3dPolylineVertex
 10
125.0318169487847
 20
-178.8218153211805
 30
0.0
 70
    32
  0
VERTEX
  5
B3
330
B1
100
AcDbEntity
  8
DXF_baseSmall-upper_Frozen_OLD
 62
   178
 48
25.39999961853027
370
    18
100
AcDbVertex
100
AcDb3dPolylineVertex
 10
128.6956759982639
 20
-172.4745713975694
 30
0.0
 70
    32
  0
VERTEX
  5
B4
330
B1
100
AcDbEntity
  8
DXF_baseSmall-upper_Frozen_OLD
 62
   178
 48
25.39999961853027
370
    18
100
AcDbVertex
100
AcDb3dPolylineVertex
 10
128.1675428602431
 20
-171.5609320746528
 30
0.0
 70
    32
  0
VERTEX
  5
B5
330
B1
100
AcDbEntity
  8
DXF_baseSmall-upper_Frozen_OLD
 62
   178
 48
25.39999961853027
370
    18
100
AcDbVertex
100
AcDb3dPolylineVertex
 10
123.9771009657118
 20
-178.8225043402778
 30
0.0
 70
    32
  0
VERTEX
  5
B6
330
B1
100
AcDbEntity
  8
DXF_baseSmall-upper_Frozen_OLD
 62
   178
 48
25.39999961853027
370
    18
100
AcDbVertex
100
AcDb3dPolylineVertex
 10
125.0318169487847
 20
-178.8218153211805
 30
0.0
 70
    32
  0
SEQEND
  5
B7
330
B1
100
AcDbEntity
  8
DXF_baseSmall-upper_Frozen_OLD
 62
   178
 48
25.39999961853027
370
    18
  0
POLYLINE
  5
B8
330
1F
100
AcDbEntity
  8
DXF_baseSmall-upper_Frozen_OLD
 62
   178
 48
25.39999961853027
370
    18
100
AcDb3dPolyline
 66
     1
 10
0.0
 20
0.0
 30
0.0
 70
     8
  0
VERTEX
  5
B9
330
B8
100
AcDbEntity
  8
DXF_baseSmall-upper_Frozen_OLD
 62
   178
 48
25.39999961853027
370
    18
100
AcDbVertex
100
AcDb3dPolylineVertex
 10
123.2534586588542
 20
-178.8228488498264
 30
0.0
 70
    32
  0
VERTEX
  5
BA
330
B8
100
AcDbEntity
  8
DXF_baseSmall-upper_Frozen_OLD
 62
   178
 48
25.39999961853027
370
    18
100
AcDbVertex
100
AcDb3dPolylineVertex
 10
119.0480305989583
 20
-171.5375054253472
 30
0.0
 70
    32
  0
VERTEX
  5
BB
330
B8
100
AcDbEntity
  8
DXF_baseSmall-upper_Frozen_OLD
 62
   178
 48
25.39999961853027
370
    18
100
AcDbVertex
100
AcDb3dPolylineVertex
 10
118.5195529513889
 20
-172.4518337673611
 30
0.0
 70
    32
  0
VERTEX
  5
BC
330
B8
100
AcDbEntity
  8
DXF_baseSmall-upper_Frozen_OLD
 62
   178
 48
25.39999961853027
370
    18
100
AcDbVertex
100
AcDb3dPolylineVertex
 10
122.1992594401042
 20
-178.8228488498264
 30
0.0
 70
    32
  0
VERTEX
  5
BD
330
B8
100
AcDbEntity
  8
DXF_baseSmall-upper_Frozen_OLD
 62
   178
 48
25.39999961853027
370
    18
100
AcDbVertex
100
AcDb3dPolylineVertex
 10
123.2534586588542
 20
-178.8228488498264
 30
0.0
 70
    32
  0
SEQEND
  5
BE
330
B8
100
AcDbEntity
  8
DXF_baseSmall-upper_Frozen_OLD
 62
   178
 48
25.39999961853027
370
    18
  0
SPLINE
  5
BF
330
1F
100
AcDbEntity
  8
DXF_baseSmall-upper_Frozen_OLD
 62
   178
 48
25.39999961853027
370
    35
100
AcDbSpline
210
0.0
220
0.0
230
1.0
 70
    11
 71
     3
 72
    17
 73
    13
 74
     0
 42
0.0000001
 43
0.0000001
 12
1.0
 22
0.0
 32
0.0
 13
1.0
 23
0.0
 33
0.0
 40
0.0
 40
0.0
 40
0.0
 40
0.0
 40
1.0
 40
1.0
 40
1.0
 40
2.0
 40
2.0
 40
2.0
 40
3.0
 40
3.0
 40
3.0
 40
4.0
 40
4.0
 40
4.0
 40
4.0
 10
157.8394612630208
 20
-319.8061469184028
 30
0.0
 10
158.6680067274305
 20
-319.8064914279512
 30
0.0
 10
159.339111328125
 20
-320.4779405381944
 30
0.0
 10
159.3411783854166
 20
-321.3068305121528
 30
0.0
 10
159.339111328125
 20
-322.1346869574652
 30
0.0
 10
158.6669731987847
 20
-322.8061360677084
 30
0.0
 10
157.8391167534722
 20
-322.8068250868056
 30
0.0
 10
157.0112603081597
 20
-322.8061360677084
 30
0.0
 10
156.3387776692708
 20
-322.1343424479166
 30
0.0
 10
156.3373996310764
 20
-321.3068305121528
 30
0.0
 10
156.3398111979166
 20
-320.4786295572916
 30
0.0
 10
157.0116048177083
 20
-319.8075249565972
 30
0.0
 10
157.8394612630208
 20
-319.8061469184028
 30
0.0
  0
SPLINE
  5
C0
330
1F
100
AcDbEntity
  8
DXF_baseSmall-upper_Frozen_OLD
 62
   178
 48
25.39999961853027
370
    35
100
AcDbSpline
210
0.0
220
0.0
230
1.0
 70
    11
 71
     3
 72
    17
 73
    13
 74
     0
 42
0.0000001
 43
0.0000001
 12
1.0
 22
0.0
 32
0.0
 13
1.0
 23
0.0
 33
0.0
 40
0.0
 40
0.0
 40
0.0
 40
0.0
 40
1.0
 40
1.0
 40
1.0
 40
2.0
 40
2.0
 40
2.0
 40
3.0
 40
3.0
 40
3.0
 40
4.0
 40
4.0
 40
4.0
 40
4.0
 10
157.8394612630208
 20
-269.8054090711806
 30
0.0
 10
158.6683512369792
 20
-269.806787109375
 30
0.0
 10
159.3387668185764
 20
-270.4778917100693
 30
0.0
 10
159.3394558376736
 20
-271.3064371744791
 30
0.0
 10
159.3394558376736
 20
-272.1346381293403
 30
0.0
 10
158.6686957465278
 20
-272.8053982204862
 30
0.0
 10
157.8394612630208
 20
-272.8074652777778
 30
0.0
 10
157.0112603081597
 20
-272.8067762586806
 30
0.0
 10
156.3398111979166
 20
-272.1353271484375
 30
0.0
 10
156.3398111979166
 20
-271.3067816840278
 30
0.0
 10
156.3387776692708
 20
-270.4778917100693
 30
0.0
 10
157.0112603081597
 20
-269.8064425998263
 30
0.0
 10
157.8394612630208
 20
-269.8054090711806
 30
0.0
  0
POLYLINE
  5
C1
330
1F
100
AcDbEntity
  8
DXF_baseSmall-upper_Frozen_OLD
 62
   178
 48
25.39999961853027
370
    35
100
AcDb3dPolyline
 66
     1
 10
0.0
 20
0.0
 30
0.0
 70
     8
  0
VERTEX
  5
C2
330
C1
100
AcDbEntity
  8
DXF_baseSmall-upper_Frozen_OLD
 62
   178
 48
25.39999961853027
370
    35
100
AcDbVertex
100
AcDb3dPolylineVertex
 10
136.8009521484375
 20
-271.3064371744791
 30
0.0
 70
    32
  0
VERTEX
  5
C3
330
C1
100
AcDbEntity
  8
DXF_baseSmall-upper_Frozen_OLD
 62
   178
 48
25.39999961853027
370
    35
100
AcDbVertex
100
AcDb3dPolylineVertex
 10
157.8394612630208
 20
-271.3064371744791
 30
0.0
 70
    32
  0
VERTEX
  5
C4
330
C1
100
AcDbEntity
  8
DXF_baseSmall-upper_Frozen_OLD
 62
   178
 48
25.39999961853027
370
    35
100
AcDbVertex
100
AcDb3dPolylineVertex
 10
157.8394612630208
 20
-326.1830186631944
 30
0.0
 70
    32
  0
VERTEX
  5
C5
330
C1
100
AcDbEntity
  8
DXF_baseSmall-upper_Frozen_OLD
 62
   178
 48
25.39999961853027
370
    35
100
AcDbVertex
100
AcDb3dPolylineVertex
 10
136.8009521484375
 20
-326.1830186631944
 30
0.0
 70
    32
  0
VERTEX
  5
C6
330
C1
100
AcDbEntity
  8
DXF_baseSmall-upper_Frozen_OLD
 62
   178
 48
25.39999961853027
370
    35
100
AcDbVertex
100
AcDb3dPolylineVertex
 10
136.8009521484375
 20
-271.3064371744791
 30
0.0
 70
    32
  0
SEQEND
  5
C7
330
C1
100
AcDbEntity
  8
DXF_baseSmall-upper_Frozen_OLD
 62
   178
 48
25.39999961853027
370
    35
  0
CIRCLE
  5
C8
330
1F
100
AcDbEntity
  8
Layer1
 62
     5
 48
25.39999961853027
370
    40
100
AcDbCircle
 10
-78.66089939133508
 20
8.821216453135415
 30
0.0
 40
3.25
  0
CIRCLE
  5
C9
330
1F
100
AcDbEntity
  8
Layer1
 62
     5
 48
25.39999961853027
370
    40
100
AcDbCircle
 10
-84.56481889604132
 20
-0.0000078768264207
 30
0.0
 40
1.500000000000001
  0
CIRCLE
  5
CA
330
1F
100
AcDbEntity
  8
Layer1
 62
     5
 48
25.39999961853027
370
    40
100
AcDbCircle
 10
-42.42009047777603
 20
-73.23609582637337
 30
0.0
 40
1.499999999999994
  0
CIRCLE
  5
CB
330
1F
100
AcDbEntity
  8
Layer1
 62
     5
 48
25.39999961853027
370
    40
100
AcDbCircle
 10
31.69190852858868
 20
-72.53536882431834
 30
0.0
 40
3.249999999999996
  0
CIRCLE
  5
CC
330
1F
100
AcDbEntity
  8
Layer1
 62
     5
 48
25.39999961853027
370
    40
100
AcDbCircle
 10
42.31162185866131
 20
-73.23609336973763
 30
0.0
 40
1.499999999999989
  0
CIRCLE
  5
CD
330
1F
100
AcDbEntity
  8
Layer1
 62
     5
 48
25.39999961853027
370
    40
100
AcDbCircle
 10
84.56909639858426
 20
0.0002490109905293
 30
0.0
 40
1.5
  0
CIRCLE
  5
CE
330
1F
100
AcDbEntity
  8
Layer1
 62
     5
 48
25.39999961853027
370
    40
100
AcDbCircle
 10
47.04237067246997
 20
63.58470992803754
 30
0.0
 40
3.25
  0
CIRCLE
  5
CF
330
1F
100
AcDbEntity
  8
Layer1
 62
     5
 48
25.39999961853027
370
    40
100
AcDbCircle
 10
42.30973920366472
 20
73.23674453902211
 30
0.0
 40
1.500000000000004
  0
CIRCLE
  5
D0
330
1F
100
AcDbEntity
  8
Layer1
 62
     5
 48
25.39999961853027
370
    40
100
AcDbCircle
 10
-42.42154761159844
 20
73.23679902911178
 30
0.0
 40
1.500000000000002
  0
LINE
  5
D1
330
1F
100
AcDbEntity
  8
Layer1
 62
     5
 48
25.39999961853027
370
    40
100
AcDbLine
 10
-89.44554567337036
 20
0.0
 30
0.0
 11
-44.72277283668518
 21
-77.46212015151977
 31
0.0
  0
LINE
  5
D2
330
1F
100
AcDbEntity
  8
Layer1
 62
     5
 48
25.39999961853027
370
    40
100
AcDbLine
 10
-44.72277283668518
 20
-77.46212015151977
 30
0.0
 11
44.72277283668518
 21
-77.46212015151977
 31
0.0
  0
LINE
  5
D3
330
1F
100
AcDbEntity
  8
Layer1
 62
     5
 48
25.39999961853027
370
    40
100
AcDbLine
 10
44.72277283668518
 20
-77.46212015151977
 30
0.0
 11
89.44554567337036
 21
-0.0000000000000338
 31
0.0
  0
LINE
  5
D4
330
1F
100
AcDbEntity
  8
Layer1
 62
     5
 48
25.39999961853027
370
    40
100
AcDbLine
 10
89.44554567337036
 20
-0.0000000000000338
 30
0.0
 11
44.72277283668518
 21
77.46212015151977
 31
0.0
  0
LINE
  5
D5
330
1F
100
AcDbEntity
  8
Layer1
 62
     5
 48
25.39999961853027
370
    40
100
AcDbLine
 10
44.72277283668518
 20
77.46212015151977
 30
0.0
 11
-44.72277283668518
 21
77.46212015151977
 31
0.0
  0
LINE
  5
D6
330
1F
100
AcDbEntity
  8
Layer1
 62
     5
 48
25.39999961853027
370
    40
100
AcDbLine
 10
-44.72277283668518
 20
77.46212015151977
 30
0.0
 11
-89.44554567337036
 21
0.0
 31
0.0
  0
LINE
  5
D7
330
1F
100
AcDbEntity
  8
Layer1
 62
     5
 48
25.39999961853027
370
    40
100
AcDbLine
 10
-64.99999928474426
 20
0.0
 30
0.0
 11
-32.49999964237213
 21
-56.29165244102478
 31
0.0
  0
LINE
  5
D8
330
1F
100
AcDbEntity
  8
Layer1
 62
     5
 48
25.39999961853027
370
    40
100
AcDbLine
 10
-32.49999964237213
 20
-56.29165244102478
 30
0.0
 11
32.49999964237213
 21
-56.29165244102478
 31
0.0
  0
LINE
  5
D9
330
1F
100
AcDbEntity
  8
Layer1
 62
     5
 48
25.39999961853027
370
    40
100
AcDbLine
 10
32.49999964237213
 20
-56.29165244102478
 30
0.0
 11
64.99999928474426
 21
-0.0000000000000113
 31
0.0
  0
LINE
  5
DA
330
1F
100
AcDbEntity
  8
Layer1
 62
     5
 48
25.39999961853027
370
    40
100
AcDbLine
 10
64.99999928474426
 20
-0.0000000000000113
 30
0.0
 11
32.49999964237213
 21
56.29165244102478
 31
0.0
  0
LINE
  5
DB
330
1F
100
AcDbEntity
  8
Layer1
 62
     5
 48
25.39999961853027
370
    40
100
AcDbLine
 10
32.49999964237213
 20
56.29165244102478
 30
0.0
 11
-32.49999964237213
 21
56.29165244102478
 31
0.0
  0
LINE
  5
DC
330
1F
100
AcDbEntity
  8
Layer1
 62
     5
 48
25.39999961853027
370
    40
100
AcDbLine
 10
-32.49999964237213
 20
56.29165244102478
 30
0.0
 11
-64.99999928474426
 21
0.0
 31
0.0
  0
ENDSEC
  0
SECTION
  2
OBJECTS
  0
DICTIONARY
  5
C
330
0
100
AcDbDictionary
281
     1
  3
ACAD_GROUP
350
D
  3
ACAD_LAYOUT
350
1A
  3
ACAD_MATERIAL
350
3B
  3
ACAD_MLEADERSTYLE
350
DF
  3
ACAD_MLINESTYLE
350
17
  3
ACAD_PLOTSETTINGS
350
19
  3
ACAD_PLOTSTYLENAME
350
E
  3
ACAD_VISUALSTYLE
350
2A
  3
AcDbVariableDictionary
350
DD
  0
DICTIONARY
  5
D
102
{ACAD_REACTORS
330
C
102
}
330
C
100
AcDbDictionary
281
     1
  0
DICTIONARY
  5
1A
102
{ACAD_REACTORS
330
C
102
}
330
C
100
AcDbDictionary
281
     1
  3
Layout1
350
1E
  3
Layout2
350
26
  3
Model
350
22
  0
DICTIONARY
  5
3B
102
{ACAD_REACTORS
330
C
102
}
330
C
100
AcDbDictionary
281
     1
  3
ByBlock
350
3D
  3
ByLayer
350
3C
  3
Global
350
3E
  0
DICTIONARY
  5
DF
102
{ACAD_REACTORS
330
C
102
}
330
C
100
AcDbDictionary
281
     1
  0
DICTIONARY
  5
17
102
{ACAD_REACTORS
330
C
102
}
330
C
100
AcDbDictionary
281
     1
  3
Standard
350
18
  0
DICTIONARY
  5
19
102
{ACAD_REACTORS
330
C
102
}
330
C
100
AcDbDictionary
281
     1
  0
ACDBDICTIONARYWDFLT
  5
E
102
{ACAD_REACTORS
330
C
102
}
330
C
100
AcDbDictionary
281
     1
  3
Normal
350
F
100
AcDbDictionaryWithDefault
340
F
  0
DICTIONARY
  5
2A
102
{ACAD_REACTORS
330
C
102
}
330
C
100
AcDbDictionary
281
     1
  3
2dWireframe
350
2F
  3
3D Hidden
350
31
  3
3dWireframe
350
30
  3
Basic
350
32
  3
Brighten
350
36
  3
ColorChange
350
3A
  3
Conceptual
350
34
  3
Dim
350
35
  3
Facepattern
350
39
  3
Flat
350
2B
  3
FlatWithEdges
350
2C
  3
Gouraud
350
2D
  3
GouraudWithEdges
350
2E
  3
Linepattern
350
38
  3
Realistic
350
33
  3
Thicken
350
37
  0
DICTIONARY
  5
DD
102
{ACAD_REACTORS
330
C
102
}
330
C
100
AcDbDictionary
281
     1
  3
DIMASSOC
350
E2
  3
HIDETEXT
350
E3
  3
PSOLHEIGHT
350
E1
  3
PSOLWIDTH
350
E0
  0
LAYOUT
  5
1E
102
{ACAD_REACTORS
330
1A
102
}
330
1A
100
AcDbPlotSettings
  1

  2
none_device
  4

  6

 40
0.0
 41
0.0
 42
0.0
 43
0.0
 44
0.0
 45
0.0
 46
0.0
 47
0.0
 48
0.0
 49
0.0
140
0.0
141
0.0
142
1.0
143
1.0
 70
   688
 72
     0
 73
     0
 74
     5
  7

 75
    16
147
1.0
148
0.0
149
0.0
100
AcDbLayout
  1
Layout1
 70
     1
 71
     1
 10
0.0
 20
0.0
 11
420.0
 21
297.0
 12
0.0
 22
0.0
 32
0.0
 14
1.000000000000000E+20
 24
1.000000000000000E+20
 34
1.000000000000000E+20
 15
-1.000000000000000E+20
 25
-1.000000000000000E+20
 35
-1.000000000000000E+20
146
0.0
 13
0.0
 23
0.0
 33
0.0
 16
1.0
 26
0.0
 36
0.0
 17
0.0
 27
1.0
 37
0.0
 76
     0
330
1B
  0
LAYOUT
  5
26
102
{ACAD_REACTORS
330
1A
102
}
330
1A
100
AcDbPlotSettings
  1

  2
none_device
  4

  6

 40
0.0
 41
0.0
 42
0.0
 43
0.0
 44
0.0
 45
0.0
 46
0.0
 47
0.0
 48
0.0
 49
0.0
140
0.0
141
0.0
142
1.0
143
1.0
 70
   688
 72
     0
 73
     0
 74
     5
  7

 75
    16
147
1.0
148
0.0
149
0.0
100
AcDbLayout
  1
Layout2
 70
     1
 71
     2
 10
0.0
 20
0.0
 11
0.0
 21
0.0
 12
0.0
 22
0.0
 32
0.0
 14
0.0
 24
0.0
 34
0.0
 15
0.0
 25
0.0
 35
0.0
146
0.0
 13
0.0
 23
0.0
 33
0.0
 16
1.0
 26
0.0
 36
0.0
 17
0.0
 27
1.0
 37
0.0
 76
     0
330
23
  0
LAYOUT
  5
22
102
{ACAD_REACTORS
330
1A
102
}
330
1A
100
AcDbPlotSettings
  1

  2
none_device
  4

  6

 40
0.0
 41
0.0
 42
0.0
 43
0.0
 44
0.0
 45
0.0
 46
0.0
 47
0.0
 48
0.0
 49
0.0
140
0.0
141
0.0
142
1.0
143
1.0
 70
  1712
 72
     0
 73
     0
 74
     0
  7

 75
     0
147
1.0
148
0.0
149
0.0
100
AcDbLayout
  1
Model
 70
     1
 71
     0
 10
0.0
 20
0.0
 11
420.0
 21
297.0
 12
0.0
 22
0.0
 32
0.0
 14
-100.0
 24
-100.0
 34
0.0
 15
100.0
 25
100.0
 35
29.02302777777778
146
0.0
 13
0.0
 23
0.0
 33
0.0
 16
1.0
 26
0.0
 36
0.0
 17
0.0
 27
1.0
 37
0.0
 76
     0
330
1F
331
29
  0
MATERIAL
  5
3D
102
{ACAD_REACTORS
330
3B
102
}
102
{ACAD_XDICTIONARY
360
106
102
}
330
3B
100
AcDbMaterial
  1
ByBlock
  0
MATERIAL
  5
3C
102
{ACAD_REACTORS
330
3B
102
}
102
{ACAD_XDICTIONARY
360
104
102
}
330
3B
100
AcDbMaterial
  1
ByLayer
  0
MATERIAL
  5
3E
102
{ACAD_REACTORS
330
3B
102
}
102
{ACAD_XDICTIONARY
360
108
102
}
330
3B
100
AcDbMaterial
  1
Global
  0
MLINESTYLE
  5
18
102
{ACAD_REACTORS
330
17
102
}
330
17
100
AcDbMlineStyle
  2
Standard
 70
     0
  3

 62
   256
 51
90.0
 52
90.0
 71
     2
 49
0.5
 62
   256
  6
BYLAYER
 49
-0.5
 62
   256
  6
BYLAYER
  0
ACDBPLACEHOLDER
  5
F
102
{ACAD_REACTORS
330
E
102
}
330
E
  0
VISUALSTYLE
  5
2F
102
{ACAD_REACTORS
330
2A
102
}
102
{ACAD_XDICTIONARY
360
EC
102
}
330
2A
100
AcDbVisualStyle
  2
2dWireframe
 70
     4
 71
     0
 72
     2
 73
     0
 90
        0
 40
-0.6
 41
-30.0
 62
     5
 63
     7
 74
     1
 91
        4
 64
     7
 65
   257
 75
     1
175
     1
 42
1.0
 92
        0
 66
   257
 43
1.0
 76
     1
 77
     6
 78
     2
 67
     7
 79
     5
170
     0
171
     0
290
     0
174
     0
 93
        1
 44
0.0
173
     0
291
     0
 45
0.0
1001
ACAD
1000
AcDbSavedByObjectVersion
1070
     0
  0
VISUALSTYLE
  5
31
102
{ACAD_REACTORS
330
2A
102
}
102
{ACAD_XDICTIONARY
360
F0
102
}
330
2A
100
AcDbVisualStyle
  2
3D Hidden
 70
     6
 71
     1
 72
     2
 73
     2
 90
        0
 40
-0.6
 41
-30.0
 62
     5
 63
     7
 74
     2
 91
        2
 64
     7
 65
   257
 75
     2
175
     1
 42
40.0
 92
        0
 66
   257
 43
1.0
 76
     1
 77
     6
 78
     2
 67
     7
 79
     3
170
     0
171
     0
290
     0
174
     0
 93
        1
 44
0.0
173
     0
291
     0
 45
0.0
1001
ACAD
1000
AcDbSavedByObjectVersion
1070
     0
  0
VISUALSTYLE
  5
30
102
{ACAD_REACTORS
330
2A
102
}
102
{ACAD_XDICTIONARY
360
EE
102
}
330
2A
100
AcDbVisualStyle
  2
3dWireframe
 70
     5
 71
     0
 72
     2
 73
     0
 90
        0
 40
-0.6
 41
-30.0
 62
     5
 63
     7
 74
     1
 91
        4
 64
     7
 65
   257
 75
     1
175
     1
 42
1.0
 92
        0
 66
   257
 43
1.0
 76
     1
 77
     6
 78
     2
 67
     7
 79
     5
170
     0
171
     0
290
     0
174
     0
 93
        1
 44
0.0
173
     0
291
     0
 45
0.0
1001
ACAD
1000
AcDbSavedByObjectVersion
1070
     0
  0
VISUALSTYLE
  5
32
102
{ACAD_REACTORS
330
2A
102
}
102
{ACAD_XDICTIONARY
360
F2
102
}
330
2A
100
AcDbVisualStyle
  2
Basic
 70
     7
 71
     1
 72
     0
 73
     1
 90
        0
 40
-0.6
 41
-30.0
 62
     5
 63
     7
 74
     0
 91
        4
 64
     7
 65
   257
 75
     1
175
     1
 42
1.0
 92
        8
 66
     7
 43
1.0
 76
     1
 77
     6
 78
     2
 67
     7
 79
     5
170
     0
171
     0
290
     0
174
     0
 93
        1
 44
0.0
173
     0
291
     1
 45
0.0
1001
ACAD
1000
AcDbSavedByObjectVersion
1070
     0
  0
VISUALSTYLE
  5
36
102
{ACAD_REACTORS
330
2A
102
}
102
{ACAD_XDICTIONARY
360
FA
102
}
330
2A
100
AcDbVisualStyle
  2
Brighten
 70
    12
 71
     2
 72
     2
 73
     0
 90
        0
 40
-0.6
 41
-30.0
 62
     5
 63
     7
 74
     1
 91
        4
 64
     7
 65
   257
 75
     1
175
     1
 42
1.0
 92
        8
 66
     7
 43
1.0
 76
     1
 77
     6
 78
     2
 67
     7
 79
     5
170
     0
171
     0
290
     0
174
     0
 93
        1
 44
50.0
173
     0
291
     1
 45
0.0
1001
ACAD
1000
AcDbSavedByObjectVersion
1070
     0
  0
VISUALSTYLE
  5
3A
102
{ACAD_REACTORS
330
2A
102
}
102
{ACAD_XDICTIONARY
360
102
102
}
330
2A
100
AcDbVisualStyle
  2
ColorChange
 70
    16
 71
     2
 72
     2
 73
     3
 90
        0
 40
-0.6
 41
-30.0
 62
     5
 63
     8
 74
     1
 91
        4
 64
     7
 65
   257
 75
     1
175
     1
 42
1.0
 92
        8
 66
     8
 43
1.0
 76
     1
 77
     6
 78
     2
 67
     7
 79
     5
170
     0
171
     0
290
     0
174
     0
 93
        1
 44
0.0
173
     0
291
     1
 45
0.0
1001
ACAD
1000
AcDbSavedByObjectVersion
1070
     0
  0
VISUALSTYLE
  5
34
102
{ACAD_REACTORS
330
2A
102
}
102
{ACAD_XDICTIONARY
360
F6
102
}
330
2A
100
AcDbVisualStyle
  2
Conceptual
 70
     9
 71
     3
 72
     2
 73
     0
 90
        0
 40
-0.6
 41
-30.0
 62
     5
 63
     7
 74
     2
 91
        2
 64
     7
 65
   257
 75
     1
175
     1
 42
40.0
 92
        8
 66
     7
 43
1.0
 76
     1
 77
     6
 78
     2
 67
     7
 79
     3
170
     0
171
     0
290
     0
174
     0
 93
        1
 44
0.0
173
     0
291
     0
 45
0.0
1001
ACAD
1000
AcDbSavedByObjectVersion
1070
     0
  0
VISUALSTYLE
  5
35
102
{ACAD_REACTORS
330
2A
102
}
102
{ACAD_XDICTIONARY
360
F8
102
}
330
2A
100
AcDbVisualStyle
  2
Dim
 70
    11
 71
     2
 72
     2
 73
     0
 90
        0
 40
-0.6
 41
-30.0
 62
     5
 63
     7
 74
     1
 91
        4
 64
     7
 65
   257
 75
     1
175
     1
 42
1.0
 92
        8
 66
     7
 43
1.0
 76
     1
 77
     6
 78
     2
 67
     7
 79
     5
170
     0
171
     0
290
     0
174
     0
 93
        1
 44
-50.0
173
     0
291
     1
 45
0.0
1001
ACAD
1000
AcDbSavedByObjectVersion
1070
     0
  0
VISUALSTYLE
  5
39
102
{ACAD_REACTORS
330
2A
102
}
102
{ACAD_XDICTIONARY
360
100
102
}
330
2A
100
AcDbVisualStyle
  2
Facepattern
 70
    15
 71
     2
 72
     2
 73
     0
 90
        0
 40
-0.6
 41
-30.0
 62
     5
 63
     7
 74
     1
 91
        4
 64
     7
 65
   257
 75
     1
175
     1
 42
1.0
 92
        8
 66
     7
 43
1.0
 76
     1
 77
     6
 78
     2
 67
     7
 79
     5
170
     0
171
     0
290
     0
174
     0
 93
        1
 44
0.0
173
     0
291
     1
 45
0.0
1001
ACAD
1000
AcDbSavedByObjectVersion
1070
     0
  0
VISUALSTYLE
  5
2B
102
{ACAD_REACTORS
330
2A
102
}
102
{ACAD_XDICTIONARY
360
E4
102
}
330
2A
100
AcDbVisualStyle
  2
Flat
 70
     0
 71
     2
 72
     1
 73
     1
 90
        2
 40
-0.6
 41
30.0
 62
     5
 63
     7
 74
     0
 91
        4
 64
     7
 65
   257
 75
     1
175
     1
 42
1.0
 92
        8
 66
     7
 43
1.0
 76
     1
 77
     6
 78
     2
 67
     7
 79
     5
170
     0
171
     0
290
     0
174
     0
 93
       13
 44
0.0
173
     0
291
     1
 45
0.0
1001
ACAD
1000
AcDbSavedByObjectVersion
1070
     0
  0
VISUALSTYLE
  5
2C
102
{ACAD_REACTORS
330
2A
102
}
102
{ACAD_XDICTIONARY
360
E6
102
}
330
2A
100
AcDbVisualStyle
  2
FlatWithEdges
 70
     1
 71
     2
 72
     1
 73
     1
 90
        2
 40
-0.6
 41
30.0
 62
     5
 63
     7
 74
     1
 91
        4
 64
     7
 65
   257
 75
     1
175
     1
 42
1.0
 92
        0
 66
   257
 43
1.0
 76
     1
 77
     6
 78
     2
 67
     7
 79
     5
170
     0
171
     0
290
     0
174
     0
 93
       13
 44
0.0
173
     0
291
     1
 45
0.0
1001
ACAD
1000
AcDbSavedByObjectVersion
1070
     0
  0
VISUALSTYLE
  5
2D
102
{ACAD_REACTORS
330
2A
102
}
102
{ACAD_XDICTIONARY
360
E8
102
}
330
2A
100
AcDbVisualStyle
  2
Gouraud
 70
     2
 71
     2
 72
     2
 73
     1
 90
        2
 40
-0.6
 41
30.0
 62
     5
 63
     7
 74
     0
 91
        4
 64
     7
 65
   257
 75
     1
175
     1
 42
1.0
 92
        0
 66
     7
 43
1.0
 76
     1
 77
     6
 78
     2
 67
     7
 79
     5
170
     0
171
     0
290
     0
174
     0
 93
       13
 44
0.0
173
     0
291
     1
 45
0.0
1001
ACAD
1000
AcDbSavedByObjectVersion
1070
     0
  0
VISUALSTYLE
  5
2E
102
{ACAD_REACTORS
330
2A
102
}
102
{ACAD_XDICTIONARY
360
EA
102
}
330
2A
100
AcDbVisualStyle
  2
GouraudWithEdges
 70
     3
 71
     2
 72
     2
 73
     1
 90
        2
 40
-0.6
 41
30.0
 62
     5
 63
     7
 74
     1
 91
        4
 64
     7
 65
   257
 75
     1
175
     1
 42
1.0
 92
        0
 66
   257
 43
1.0
 76
     1
 77
     6
 78
     2
 67
     7
 79
     5
170
     0
171
     0
290
     0
174
     0
 93
       13
 44
0.0
173
     0
291
     1
 45
0.0
1001
ACAD
1000
AcDbSavedByObjectVersion
1070
     0
  0
VISUALSTYLE
  5
38
102
{ACAD_REACTORS
330
2A
102
}
102
{ACAD_XDICTIONARY
360
FE
102
}
330
2A
100
AcDbVisualStyle
  2
Linepattern
 70
    14
 71
     2
 72
     2
 73
     0
 90
        0
 40
-0.6
 41
-30.0
 62
     5
 63
     7
 74
     1
 91
        4
 64
     7
 65
   257
 75
     7
175
     7
 42
1.0
 92
        8
 66
     7
 43
1.0
 76
     1
 77
     6
 78
     2
 67
     7
 79
     5
170
     0
171
     0
290
     0
174
     0
 93
        1
 44
0.0
173
     0
291
     1
 45
0.0
1001
ACAD
1000
AcDbSavedByObjectVersion
1070
     0
  0
VISUALSTYLE
  5
33
102
{ACAD_REACTORS
330
2A
102
}
102
{ACAD_XDICTIONARY
360
F4
102
}
330
2A
100
AcDbVisualStyle
  2
Realistic
 70
     8
 71
     2
 72
     2
 73
     0
 90
        0
 40
-0.6
 41
-30.0
 62
     5
 63
     7
 74
     1
 91
        0
 64
     7
 65
   257
 75
     1
175
     1
 42
1.0
 92
        8
 66
     8
 43
1.0
 76
     1
 77
     6
 78
     2
 67
     7
 79
     5
170
     0
171
     0
290
     0
174
     0
 93
       13
 44
0.0
173
     0
291
     0
 45
0.0
1001
ACAD
1000
AcDbSavedByObjectVersion
1070
     0
  0
VISUALSTYLE
  5
37
102
{ACAD_REACTORS
330
2A
102
}
102
{ACAD_XDICTIONARY
360
FC
102
}
330
2A
100
AcDbVisualStyle
  2
Thicken
 70
    13
 71
     2
 72
     2
 73
     0
 90
        0
 40
-0.6
 41
-30.0
 62
     5
 63
     7
 74
     1
 91
        4
 64
     7
 65
   257
 75
     1
175
     1
 42
1.0
 92
       12
 66
     7
 43
1.0
 76
     1
 77
     6
 78
     2
 67
     7
 79
     5
170
     0
171
     0
290
     0
174
     0
 93
        1
 44
0.0
173
     0
291
     1
 45
0.0
1001
ACAD
1000
AcDbSavedByObjectVersion
1070
     0
  0
DICTIONARYVAR
  5
E2
102
{ACAD_REACTORS
330
DD
102
}
330
DD
100
DictionaryVariables
280
     0
  1
2
  0
DICTIONARYVAR
  5
E3
102
{ACAD_REACTORS
330
DD
102
}
330
DD
100
DictionaryVariables
280
     0
  1
1
  0
DICTIONARYVAR
  5
E1
102
{ACAD_REACTORS
330
DD
102
}
330
DD
100
DictionaryVariables
280
     0
  1
80.000000
  0
DICTIONARYVAR
  5
E0
102
{ACAD_REACTORS
330
DD
102
}
330
DD
100
DictionaryVariables
280
     0
  1
5.000000
  0
DICTIONARY
  5
106
330
3D
100
AcDbDictionary
280
     1
281
     1
  3
ACAD_XREC_ROUNDTRIP
360
107
  0
DICTIONARY
  5
104
330
3C
100
AcDbDictionary
280
     1
281
     1
  3
ACAD_XREC_ROUNDTRIP
360
105
  0
DICTIONARY
  5
108
330
3E
100
AcDbDictionary
280
     1
281
     1
  3
ACAD_XREC_ROUNDTRIP
360
109
  0
DICTIONARY
  5
EC
330
2F
100
AcDbDictionary
280
     1
281
     1
  3
ACAD_XREC_ROUNDTRIP
360
ED
  0
DICTIONARY
  5
F0
330
31
100
AcDbDictionary
280
     1
281
     1
  3
ACAD_XREC_ROUNDTRIP
360
F1
  0
DICTIONARY
  5
EE
330
30
100
AcDbDictionary
280
     1
281
     1
  3
ACAD_XREC_ROUNDTRIP
360
EF
  0
DICTIONARY
  5
F2
330
32
100
AcDbDictionary
280
     1
281
     1
  3
ACAD_XREC_ROUNDTRIP
360
F3
  0
DICTIONARY
  5
FA
330
36
100
AcDbDictionary
280
     1
281
     1
  3
ACAD_XREC_ROUNDTRIP
360
FB
  0
DICTIONARY
  5
102
330
3A
100
AcDbDictionary
280
     1
281
     1
  3
ACAD_XREC_ROUNDTRIP
360
103
  0
DICTIONARY
  5
F6
330
34
100
AcDbDictionary
280
     1
281
     1
  3
ACAD_XREC_ROUNDTRIP
360
F7
  0
DICTIONARY
  5
F8
330
35
100
AcDbDictionary
280
     1
281
     1
  3
ACAD_XREC_ROUNDTRIP
360
F9
  0
DICTIONARY
  5
100
330
39
100
AcDbDictionary
280
     1
281
     1
  3
ACAD_XREC_ROUNDTRIP
360
101
  0
DICTIONARY
  5
E4
330
2B
100
AcDbDictionary
280
     1
281
     1
  3
ACAD_XREC_ROUNDTRIP
360
E5
  0
DICTIONARY
  5
E6
330
2C
100
AcDbDictionary
280
     1
281
     1
  3
ACAD_XREC_ROUNDTRIP
360
E7
  0
DICTIONARY
  5
E8
330
2D
100
AcDbDictionary
280
     1
281
     1
  3
ACAD_XREC_ROUNDTRIP
360
E9
  0
DICTIONARY
  5
EA
330
2E
100
AcDbDictionary
280
     1
281
     1
  3
ACAD_XREC_ROUNDTRIP
360
EB
  0
DICTIONARY
  5
FE
330
38
100
AcDbDictionary
280
     1
281
     1
  3
ACAD_XREC_ROUNDTRIP
360
FF
  0
DICTIONARY
  5
F4
330
33
100
AcDbDictionary
280
     1
281
     1
  3
ACAD_XREC_ROUNDTRIP
360
F5
  0
DICTIONARY
  5
FC
330
37
100
AcDbDictionary
280
     1
281
     1
  3
ACAD_XREC_ROUNDTRIP
360
FD
  0
XRECORD
  5
107
102
{ACAD_REACTORS
330
106
102
}
330
106
100
AcDbXrecord
280
     1
102
MATERIAL
148
0.0
149
0.0
149
0.0
 93
        0
 94
      127
282
     0
 72
     1
 77
     1
171
     1
175
     1
179
     1
273
     0
  0
XRECORD
  5
105
102
{ACAD_REACTORS
330
104
102
}
330
104
100
AcDbXrecord
280
     1
102
MATERIAL
148
0.0
149
0.0
149
0.0
 93
        0
 94
      127
282
     0
 72
     1
 77
     1
171
     1
175
     1
179
     1
273
     0
  0
XRECORD
  5
109
102
{ACAD_REACTORS
330
108
102
}
330
108
100
AcDbXrecord
280
     1
102
MATERIAL
148
0.0
149
0.0
149
0.0
 93
        0
 94
      127
282
     0
 72
     1
 77
     1
171
     1
175
     1
179
     1
273
     0
  0
XRECORD
  5
ED
102
{ACAD_REACTORS
330
EC
102
}
330
EC
100
AcDbXrecord
280
     1
102
RTVSPropertyOp0
 70
     1
102
RTVSPropertyOp1
 70
     1
102
RTVSPropertyOp2
 70
     1
102
RTVSPropertyOp3
 70
     1
102
RTVSPropertyOp4
 70
     1
102
RTVSPropertyOp5
 70
     1
102
RTVSPropertyOp6
 70
     1
102
RTVSPropertyOp7
 70
     1
102
RTVSPropertyOp8
 70
     1
102
RTVSPropertyOp9
 70
     1
102
RTVSPropertyOp10
 70
     1
102
RTVSPropertyOp11
 70
     1
102
RTVSPropertyOp12
 70
     1
102
RTVSPropertyOp13
 70
     1
102
RTVSPropertyOp14
 70
     1
102
RTVSPropertyOp15
 70
     1
102
RTVSPropertyOp16
 70
     1
102
RTVSPropertyOp17
 70
     1
102
RTVSPropertyOp18
 70
     1
102
RTVSPropertyOp19
 70
     1
102
RTVSPropertyOp20
 70
     1
102
RTVSPropertyOp21
 70
     1
102
RTVSPropertyOp22
 70
     1
102
RTVSPropertyOp23
 70
     1
102
RTVSPropertyOp24
 70
     1
102
RTVSPropertyOp25
 70
     1
102
RTVSPropertyOp26
 70
     1
102
RTVSPropertyOp27
 70
     1
102
RTVSPropertyOp28
 70
     1
102
RTVSPropertyOp29
 70
     1
102
RTVSPropertyOp30
 70
     1
102
RTVSPropertyOp31
 70
     1
102
RTVSPropertyOp32
 70
     1
  0
XRECORD
  5
F1
102
{ACAD_REACTORS
330
F0
102
}
330
F0
100
AcDbXrecord
280
     1
102
RTVSPropertyOp0
 70
     1
102
RTVSPropertyOp1
 70
     1
102
RTVSPropertyOp2
 70
     1
102
RTVSPropertyOp3
 70
     1
102
RTVSPropertyOp4
 70
     1
102
RTVSPropertyOp5
 70
     1
102
RTVSPropertyOp6
 70
     1
102
RTVSPropertyOp7
 70
     1
102
RTVSPropertyOp8
 70
     1
102
RTVSPropertyOp9
 70
     1
102
RTVSPropertyOp10
 70
     1
102
RTVSPropertyOp11
 70
     1
102
RTVSPropertyOp12
 70
     1
102
RTVSPropertyOp13
 70
     1
102
RTVSPropertyOp14
 70
     1
102
RTVSPropertyOp15
 70
     1
102
RTVSPropertyOp16
 70
     1
102
RTVSPropertyOp17
 70
     1
102
RTVSPropertyOp18
 70
     1
102
RTVSPropertyOp19
 70
     1
102
RTVSPropertyOp20
 70
     1
102
RTVSPropertyOp21
 70
     1
102
RTVSPropertyOp22
 70
     1
102
RTVSPropertyOp23
 70
     1
102
RTVSPropertyOp24
 70
     1
102
RTVSPropertyOp25
 70
     1
102
RTVSPropertyOp26
 70
     1
102
RTVSPropertyOp27
 70
     1
102
RTVSPropertyOp28
 70
     1
102
RTVSPropertyOp29
 70
     1
102
RTVSPropertyOp30
 70
     1
102
RTVSPropertyOp31
 70
     1
102
RTVSPropertyOp32
 70
     1
  0
XRECORD
  5
EF
102
{ACAD_REACTORS
330
EE
102
}
330
EE
100
AcDbXrecord
280
     1
102
RTVSPropertyOp0
 70
     1
102
RTVSPropertyOp1
 70
     1
102
RTVSPropertyOp2
 70
     1
102
RTVSPropertyOp3
 70
     1
102
RTVSPropertyOp4
 70
     1
102
RTVSPropertyOp5
 70
     1
102
RTVSPropertyOp6
 70
     1
102
RTVSPropertyOp7
 70
     1
102
RTVSPropertyOp8
 70
     1
102
RTVSPropertyOp9
 70
     1
102
RTVSPropertyOp10
 70
     1
102
RTVSPropertyOp11
 70
     1
102
RTVSPropertyOp12
 70
     1
102
RTVSPropertyOp13
 70
     1
102
RTVSPropertyOp14
 70
     1
102
RTVSPropertyOp15
 70
     1
102
RTVSPropertyOp16
 70
     1
102
RTVSPropertyOp17
 70
     1
102
RTVSPropertyOp18
 70
     1
102
RTVSPropertyOp19
 70
     1
102
RTVSPropertyOp20
 70
     1
102
RTVSPropertyOp21
 70
     1
102
RTVSPropertyOp22
 70
     1
102
RTVSPropertyOp23
 70
     1
102
RTVSPropertyOp24
 70
     1
102
RTVSPropertyOp25
 70
     1
102
RTVSPropertyOp26
 70
     1
102
RTVSPropertyOp27
 70
     1
102
RTVSPropertyOp28
 70
     1
102
RTVSPropertyOp29
 70
     1
102
RTVSPropertyOp30
 70
     1
102
RTVSPropertyOp31
 70
     1
102
RTVSPropertyOp32
 70
     1
  0
XRECORD
  5
F3
102
{ACAD_REACTORS
330
F2
102
}
330
F2
100
AcDbXrecord
280
     1
102
RTVSPropertyOp0
 70
     1
102
RTVSPropertyOp1
 70
     1
102
RTVSPropertyOp2
 70
     1
102
RTVSPropertyOp3
 70
     1
102
RTVSPropertyOp4
 70
     1
102
RTVSPropertyOp5
 70
     1
102
RTVSPropertyOp6
 70
     1
102
RTVSPropertyOp7
 70
     1
102
RTVSPropertyOp8
 70
     1
102
RTVSPropertyOp9
 70
     1
102
RTVSPropertyOp10
 70
     1
102
RTVSPropertyOp11
 70
     1
102
RTVSPropertyOp12
 70
     1
102
RTVSPropertyOp13
 70
     1
102
RTVSPropertyOp14
 70
     1
102
RTVSPropertyOp15
 70
     1
102
RTVSPropertyOp16
 70
     1
102
RTVSPropertyOp17
 70
     1
102
RTVSPropertyOp18
 70
     1
102
RTVSPropertyOp19
 70
     1
102
RTVSPropertyOp20
 70
     1
102
RTVSPropertyOp21
 70
     1
102
RTVSPropertyOp22
 70
     1
102
RTVSPropertyOp23
 70
     1
102
RTVSPropertyOp24
 70
     1
102
RTVSPropertyOp25
 70
     1
102
RTVSPropertyOp26
 70
     1
102
RTVSPropertyOp27
 70
     1
102
RTVSPropertyOp28
 70
     1
102
RTVSPropertyOp29
 70
     1
102
RTVSPropertyOp30
 70
     1
102
RTVSPropertyOp31
 70
     1
102
RTVSPropertyOp32
 70
     1
  0
XRECORD
  5
FB
102
{ACAD_REACTORS
330
FA
102
}
330
FA
100
AcDbXrecord
280
     1
102
RTVSPropertyOp0
 70
     1
102
RTVSPropertyOp1
 70
     1
102
RTVSPropertyOp2
 70
     1
102
RTVSPropertyOp3
 70
     1
102
RTVSPropertyOp4
 70
     1
102
RTVSPropertyOp5
 70
     1
102
RTVSPropertyOp6
 70
     1
102
RTVSPropertyOp7
 70
     1
102
RTVSPropertyOp8
 70
     1
102
RTVSPropertyOp9
 70
     1
102
RTVSPropertyOp10
 70
     1
102
RTVSPropertyOp11
 70
     1
102
RTVSPropertyOp12
 70
     1
102
RTVSPropertyOp13
 70
     1
102
RTVSPropertyOp14
 70
     1
102
RTVSPropertyOp15
 70
     1
102
RTVSPropertyOp16
 70
     1
102
RTVSPropertyOp17
 70
     1
102
RTVSPropertyOp18
 70
     1
102
RTVSPropertyOp19
 70
     1
102
RTVSPropertyOp20
 70
     1
102
RTVSPropertyOp21
 70
     1
102
RTVSPropertyOp22
 70
     1
102
RTVSPropertyOp23
 70
     1
102
RTVSPropertyOp24
 70
     1
102
RTVSPropertyOp25
 70
     1
102
RTVSPropertyOp26
 70
     1
102
RTVSPropertyOp27
 70
     1
102
RTVSPropertyOp28
 70
     1
102
RTVSPropertyOp29
 70
     1
102
RTVSPropertyOp30
 70
     1
102
RTVSPropertyOp31
 70
     1
102
RTVSPropertyOp32
 70
     1
  0
XRECORD
  5
103
102
{ACAD_REACTORS
330
102
102
}
330
102
100
AcDbXrecord
280
     1
102
RTVSPropertyOp0
 70
     1
102
RTVSPropertyOp1
 70
     1
102
RTVSPropertyOp2
 70
     1
102
RTVSPropertyOp3
 70
     1
102
RTVSPropertyOp4
 70
     1
102
RTVSPropertyOp5
 70
     1
102
RTVSPropertyOp6
 70
     1
102
RTVSPropertyOp7
 70
     1
102
RTVSPropertyOp8
 70
     1
102
RTVSPropertyOp9
 70
     1
102
RTVSPropertyOp10
 70
     1
102
RTVSPropertyOp11
 70
     1
102
RTVSPropertyOp12
 70
     1
102
RTVSPropertyOp13
 70
     1
102
RTVSPropertyOp14
 70
     1
102
RTVSPropertyOp15
 70
     1
102
RTVSPropertyOp16
 70
     1
102
RTVSPropertyOp17
 70
     1
102
RTVSPropertyOp18
 70
     1
102
RTVSPropertyOp19
 70
     1
102
RTVSPropertyOp20
 70
     1
102
RTVSPropertyOp21
 70
     1
102
RTVSPropertyOp22
 70
     1
102
RTVSPropertyOp23
 70
     1
102
RTVSPropertyOp24
 70
     1
102
RTVSPropertyOp25
 70
     1
102
RTVSPropertyOp26
 70
     1
102
RTVSPropertyOp27
 70
     1
102
RTVSPropertyOp28
 70
     1
102
RTVSPropertyOp29
 70
     1
102
RTVSPropertyOp30
 70
     1
102
RTVSPropertyOp31
 70
     1
102
RTVSPropertyOp32
 70
     1
  0
XRECORD
  5
F7
102
{ACAD_REACTORS
330
F6
102
}
330
F6
100
AcDbXrecord
280
     1
102
RTVSPropertyOp0
 70
     1
102
RTVSPropertyOp1
 70
     1
102
RTVSPropertyOp2
 70
     1
102
RTVSPropertyOp3
 70
     1
102
RTVSPropertyOp4
 70
     1
102
RTVSPropertyOp5
 70
     1
102
RTVSPropertyOp6
 70
     1
102
RTVSPropertyOp7
 70
     1
102
RTVSPropertyOp8
 70
     1
102
RTVSPropertyOp9
 70
     1
102
RTVSPropertyOp10
 70
     1
102
RTVSPropertyOp11
 70
     1
102
RTVSPropertyOp12
 70
     1
102
RTVSPropertyOp13
 70
     1
102
RTVSPropertyOp14
 70
     1
102
RTVSPropertyOp15
 70
     1
102
RTVSPropertyOp16
 70
     1
102
RTVSPropertyOp17
 70
     1
102
RTVSPropertyOp18
 70
     1
102
RTVSPropertyOp19
 70
     1
102
RTVSPropertyOp20
 70
     1
102
RTVSPropertyOp21
 70
     1
102
RTVSPropertyOp22
 70
     1
102
RTVSPropertyOp23
 70
     1
102
RTVSPropertyOp24
 70
     1
102
RTVSPropertyOp25
 70
     1
102
RTVSPropertyOp26
 70
     1
102
RTVSPropertyOp27
 70
     1
102
RTVSPropertyOp28
 70
     1
102
RTVSPropertyOp29
 70
     1
102
RTVSPropertyOp30
 70
     1
102
RTVSPropertyOp31
 70
     1
102
RTVSPropertyOp32
 70
     1
  0
XRECORD
  5
F9
102
{ACAD_REACTORS
330
F8
102
}
330
F8
100
AcDbXrecord
280
     1
102
RTVSPropertyOp0
 70
     1
102
RTVSPropertyOp1
 70
     1
102
RTVSPropertyOp2
 70
     1
102
RTVSPropertyOp3
 70
     1
102
RTVSPropertyOp4
 70
     1
102
RTVSPropertyOp5
 70
     1
102
RTVSPropertyOp6
 70
     1
102
RTVSPropertyOp7
 70
     1
102
RTVSPropertyOp8
 70
     1
102
RTVSPropertyOp9
 70
     1
102
RTVSPropertyOp10
 70
     1
102
RTVSPropertyOp11
 70
     1
102
RTVSPropertyOp12
 70
     1
102
RTVSPropertyOp13
 70
     1
102
RTVSPropertyOp14
 70
     1
102
RTVSPropertyOp15
 70
     1
102
RTVSPropertyOp16
 70
     1
102
RTVSPropertyOp17
 70
     1
102
RTVSPropertyOp18
 70
     1
102
RTVSPropertyOp19
 70
     1
102
RTVSPropertyOp20
 70
     1
102
RTVSPropertyOp21
 70
     1
102
RTVSPropertyOp22
 70
     1
102
RTVSPropertyOp23
 70
     1
102
RTVSPropertyOp24
 70
     1
102
RTVSPropertyOp25
 70
     1
102
RTVSPropertyOp26
 70
     1
102
RTVSPropertyOp27
 70
     1
102
RTVSPropertyOp28
 70
     1
102
RTVSPropertyOp29
 70
     1
102
RTVSPropertyOp30
 70
     1
102
RTVSPropertyOp31
 70
     1
102
RTVSPropertyOp32
 70
     1
  0
XRECORD
  5
101
102
{ACAD_REACTORS
330
100
102
}
330
100
100
AcDbXrecord
280
     1
102
RTVSPropertyOp0
 70
     1
102
RTVSPropertyOp1
 70
     1
102
RTVSPropertyOp2
 70
     1
102
RTVSPropertyOp3
 70
     1
102
RTVSPropertyOp4
 70
     1
102
RTVSPropertyOp5
 70
     1
102
RTVSPropertyOp6
 70
     1
102
RTVSPropertyOp7
 70
     1
102
RTVSPropertyOp8
 70
     1
102
RTVSPropertyOp9
 70
     1
102
RTVSPropertyOp10
 70
     1
102
RTVSPropertyOp11
 70
     1
102
RTVSPropertyOp12
 70
     1
102
RTVSPropertyOp13
 70
     1
102
RTVSPropertyOp14
 70
     1
102
RTVSPropertyOp15
 70
     1
102
RTVSPropertyOp16
 70
     1
102
RTVSPropertyOp17
 70
     1
102
RTVSPropertyOp18
 70
     1
102
RTVSPropertyOp19
 70
     1
102
RTVSPropertyOp20
 70
     1
102
RTVSPropertyOp21
 70
     1
102
RTVSPropertyOp22
 70
     1
102
RTVSPropertyOp23
 70
     1
102
RTVSPropertyOp24
 70
     1
102
RTVSPropertyOp25
 70
     1
102
RTVSPropertyOp26
 70
     1
102
RTVSPropertyOp27
 70
     1
102
RTVSPropertyOp28
 70
     1
102
RTVSPropertyOp29
 70
     1
102
RTVSPropertyOp30
 70
     1
102
RTVSPropertyOp31
 70
     1
102
RTVSPropertyOp32
 70
     1
  0
XRECORD
  5
E5
102
{ACAD_REACTORS
330
E4
102
}
330
E4
100
AcDbXrecord
280
     1
102
RTVSPropertyOp0
 70
     1
102
RTVSPropertyOp1
 70
     1
102
RTVSPropertyOp2
 70
     1
102
RTVSPropertyOp3
 70
     1
102
RTVSPropertyOp4
 70
     1
102
RTVSPropertyOp5
 70
     1
102
RTVSPropertyOp6
 70
     1
102
RTVSPropertyOp7
 70
     1
102
RTVSPropertyOp8
 70
     1
102
RTVSPropertyOp9
 70
     1
102
RTVSPropertyOp10
 70
     1
102
RTVSPropertyOp11
 70
     1
102
RTVSPropertyOp12
 70
     1
102
RTVSPropertyOp13
 70
     1
102
RTVSPropertyOp14
 70
     1
102
RTVSPropertyOp15
 70
     1
102
RTVSPropertyOp16
 70
     1
102
RTVSPropertyOp17
 70
     1
102
RTVSPropertyOp18
 70
     1
102
RTVSPropertyOp19
 70
     1
102
RTVSPropertyOp20
 70
     1
102
RTVSPropertyOp21
 70
     1
102
RTVSPropertyOp22
 70
     1
102
RTVSPropertyOp23
 70
     1
102
RTVSPropertyOp24
 70
     1
102
RTVSPropertyOp25
 70
     1
102
RTVSPropertyOp26
 70
     1
102
RTVSPropertyOp27
 70
     1
102
RTVSPropertyOp28
 70
     1
102
RTVSPropertyOp29
 70
     1
102
RTVSPropertyOp30
 70
     1
102
RTVSPropertyOp31
 70
     1
102
RTVSPropertyOp32
 70
     1
  0
XRECORD
  5
E7
102
{ACAD_REACTORS
330
E6
102
}
330
E6
100
AcDbXrecord
280
     1
102
RTVSPropertyOp0
 70
     1
102
RTVSPropertyOp1
 70
     1
102
RTVSPropertyOp2
 70
     1
102
RTVSPropertyOp3
 70
     1
102
RTVSPropertyOp4
 70
     1
102
RTVSPropertyOp5
 70
     1
102
RTVSPropertyOp6
 70
     1
102
RTVSPropertyOp7
 70
     1
102
RTVSPropertyOp8
 70
     1
102
RTVSPropertyOp9
 70
     1
102
RTVSPropertyOp10
 70
     1
102
RTVSPropertyOp11
 70
     1
102
RTVSPropertyOp12
 70
     1
102
RTVSPropertyOp13
 70
     1
102
RTVSPropertyOp14
 70
     1
102
RTVSPropertyOp15
 70
     1
102
RTVSPropertyOp16
 70
     1
102
RTVSPropertyOp17
 70
     1
102
RTVSPropertyOp18
 70
     1
102
RTVSPropertyOp19
 70
     1
102
RTVSPropertyOp20
 70
     1
102
RTVSPropertyOp21
 70
     1
102
RTVSPropertyOp22
 70
     1
102
RTVSPropertyOp23
 70
     1
102
RTVSPropertyOp24
 70
     1
102
RTVSPropertyOp25
 70
     1
102
RTVSPropertyOp26
 70
     1
102
RTVSPropertyOp27
 70
     1
102
RTVSPropertyOp28
 70
     1
102
RTVSPropertyOp29
 70
     1
102
RTVSPropertyOp30
 70
     1
102
RTVSPropertyOp31
 70
     1
102
RTVSPropertyOp32
 70
     1
  0
XRECORD
  5
E9
102
{ACAD_REACTORS
330
E8
102
}
330
E8
100
AcDbXrecord
280
     1
102
RTVSPropertyOp0
 70
     1
102
RTVSPropertyOp1
 70
     1
102
RTVSPropertyOp2
 70
     1
102
RTVSPropertyOp3
 70
     1
102
RTVSPropertyOp4
 70
     1
102
RTVSPropertyOp5
 70
     1
102
RTVSPropertyOp6
 70
     1
102
RTVSPropertyOp7
 70
     1
102
RTVSPropertyOp8
 70
     1
102
RTVSPropertyOp9
 70
     1
102
RTVSPropertyOp10
 70
     1
102
RTVSPropertyOp11
 70
     1
102
RTVSPropertyOp12
 70
     1
102
RTVSPropertyOp13
 70
     1
102
RTVSPropertyOp14
 70
     1
102
RTVSPropertyOp15
 70
     1
102
RTVSPropertyOp16
 70
     1
102
RTVSPropertyOp17
 70
     1
102
RTVSPropertyOp18
 70
     1
102
RTVSPropertyOp19
 70
     1
102
RTVSPropertyOp20
 70
     1
102
RTVSPropertyOp21
 70
     1
102
RTVSPropertyOp22
 70
     1
102
RTVSPropertyOp23
 70
     1
102
RTVSPropertyOp24
 70
     1
102
RTVSPropertyOp25
 70
     1
102
RTVSPropertyOp26
 70
     1
102
RTVSPropertyOp27
 70
     1
102
RTVSPropertyOp28
 70
     1
102
RTVSPropertyOp29
 70
     1
102
RTVSPropertyOp30
 70
     1
102
RTVSPropertyOp31
 70
     1
102
RTVSPropertyOp32
 70
     1
  0
XRECORD
  5
EB
102
{ACAD_REACTORS
330
EA
102
}
330
EA
100
AcDbXrecord
280
     1
102
RTVSPropertyOp0
 70
     1
102
RTVSPropertyOp1
 70
     1
102
RTVSPropertyOp2
 70
     1
102
RTVSPropertyOp3
 70
     1
102
RTVSPropertyOp4
 70
     1
102
RTVSPropertyOp5
 70
     1
102
RTVSPropertyOp6
 70
     1
102
RTVSPropertyOp7
 70
     1
102
RTVSPropertyOp8
 70
     1
102
RTVSPropertyOp9
 70
     1
102
RTVSPropertyOp10
 70
     1
102
RTVSPropertyOp11
 70
     1
102
RTVSPropertyOp12
 70
     1
102
RTVSPropertyOp13
 70
     1
102
RTVSPropertyOp14
 70
     1
102
RTVSPropertyOp15
 70
     1
102
RTVSPropertyOp16
 70
     1
102
RTVSPropertyOp17
 70
     1
102
RTVSPropertyOp18
 70
     1
102
RTVSPropertyOp19
 70
     1
102
RTVSPropertyOp20
 70
     1
102
RTVSPropertyOp21
 70
     1
102
RTVSPropertyOp22
 70
     1
102
RTVSPropertyOp23
 70
     1
102
RTVSPropertyOp24
 70
     1
102
RTVSPropertyOp25
 70
     1
102
RTVSPropertyOp26
 70
     1
102
RTVSPropertyOp27
 70
     1
102
RTVSPropertyOp28
 70
     1
102
RTVSPropertyOp29
 70
     1
102
RTVSPropertyOp30
 70
     1
102
RTVSPropertyOp31
 70
     1
102
RTVSPropertyOp32
 70
     1
  0
XRECORD
  5
FF
102
{ACAD_REACTORS
330
FE
102
}
330
FE
100
AcDbXrecord
280
     1
102
RTVSPropertyOp0
 70
     1
102
RTVSPropertyOp1
 70
     1
102
RTVSPropertyOp2
 70
     1
102
RTVSPropertyOp3
 70
     1
102
RTVSPropertyOp4
 70
     1
102
RTVSPropertyOp5
 70
     1
102
RTVSPropertyOp6
 70
     1
102
RTVSPropertyOp7
 70
     1
102
RTVSPropertyOp8
 70
     1
102
RTVSPropertyOp9
 70
     1
102
RTVSPropertyOp10
 70
     1
102
RTVSPropertyOp11
 70
     1
102
RTVSPropertyOp12
 70
     1
102
RTVSPropertyOp13
 70
     1
102
RTVSPropertyOp14
 70
     1
102
RTVSPropertyOp15
 70
     1
102
RTVSPropertyOp16
 70
     1
102
RTVSPropertyOp17
 70
     1
102
RTVSPropertyOp18
 70
     1
102
RTVSPropertyOp19
 70
     1
102
RTVSPropertyOp20
 70
     1
102
RTVSPropertyOp21
 70
     1
102
RTVSPropertyOp22
 70
     1
102
RTVSPropertyOp23
 70
     1
102
RTVSPropertyOp24
 70
     1
102
RTVSPropertyOp25
 70
     1
102
RTVSPropertyOp26
 70
     1
102
RTVSPropertyOp27
 70
     1
102
RTVSPropertyOp28
 70
     1
102
RTVSPropertyOp29
 70
     1
102
RTVSPropertyOp30
 70
     1
102
RTVSPropertyOp31
 70
     1
102
RTVSPropertyOp32
 70
     1
  0
XRECORD
  5
F5
102
{ACAD_REACTORS
330
F4
102
}
330
F4
100
AcDbXrecord
280
     1
102
RTVSPropertyOp0
 70
     1
102
RTVSPropertyOp1
 70
     1
102
RTVSPropertyOp2
 70
     1
102
RTVSPropertyOp3
 70
     1
102
RTVSPropertyOp4
 70
     1
102
RTVSPropertyOp5
 70
     1
102
RTVSPropertyOp6
 70
     1
102
RTVSPropertyOp7
 70
     1
102
RTVSPropertyOp8
 70
     1
102
RTVSPropertyOp9
 70
     1
102
RTVSPropertyOp10
 70
     1
102
RTVSPropertyOp11
 70
     1
102
RTVSPropertyOp12
 70
     1
102
RTVSPropertyOp13
 70
     1
102
RTVSPropertyOp14
 70
     1
102
RTVSPropertyOp15
 70
     1
102
RTVSPropertyOp16
 70
     1
102
RTVSPropertyOp17
 70
     1
102
RTVSPropertyOp18
 70
     1
102
RTVSPropertyOp19
 70
     1
102
RTVSPropertyOp20
 70
     1
102
RTVSPropertyOp21
 70
     1
102
RTVSPropertyOp22
 70
     1
102
RTVSPropertyOp23
 70
     1
102
RTVSPropertyOp24
 70
     1
102
RTVSPropertyOp25
 70
     1
102
RTVSPropertyOp26
 70
     1
102
RTVSPropertyOp27
 70
     1
102
RTVSPropertyOp28
 70
     1
102
RTVSPropertyOp29
 70
     1
102
RTVSPropertyOp30
 70
     1
102
RTVSPropertyOp31
 70
     1
102
RTVSPropertyOp32
 70
     1
  0
XRECORD
  5
FD
102
{ACAD_REACTORS
330
FC
102
}
330
FC
100
AcDbXrecord
280
     1
102
RTVSPropertyOp0
 70
     1
102
RTVSPropertyOp1
 70
     1
102
RTVSPropertyOp2
 70
     1
102
RTVSPropertyOp3
 70
     1
102
RTVSPropertyOp4
 70
     1
102
RTVSPropertyOp5
 70
     1
102
RTVSPropertyOp6
 70
     1
102
RTVSPropertyOp7
 70
     1
102
RTVSPropertyOp8
 70
     1
102
RTVSPropertyOp9
 70
     1
102
RTVSPropertyOp10
 70
     1
102
RTVSPropertyOp11
 70
     1
102
RTVSPropertyOp12
 70
     1
102
RTVSPropertyOp13
 70
     1
102
RTVSPropertyOp14
 70
     1
102
RTVSPropertyOp15
 70
     1
102
RTVSPropertyOp16
 70
     1
102
RTVSPropertyOp17
 70
     1
102
RTVSPropertyOp18
 70
     1
102
RTVSPropertyOp19
 70
     1
102
RTVSPropertyOp20
 70
     1
102
RTVSPropertyOp21
 70
     1
102
RTVSPropertyOp22
 70
     1
102
RTVSPropertyOp23
 70
     1
102
RTVSPropertyOp24
 70
     1
102
RTVSPropertyOp25
 70
     1
102
RTVSPropertyOp26
 70
     1
102
RTVSPropertyOp27
 70
     1
102
RTVSPropertyOp28
 70
     1
102
RTVSPropertyOp29
 70
     1
102
RTVSPropertyOp30
 70
     1
102
RTVSPropertyOp31
 70
     1
102
RTVSPropertyOp32
 70
     1
  0
ENDSEC
  0
EOF
